M48
; DRILL file {KiCad (6.0.10)} date Sun Jan  8 14:39:28 2023
; FORMAT={-:-/ absolute / inch / decimal}
; #@! TF.CreationDate,2023-01-08T14:39:28+01:00
; #@! TF.GenerationSoftware,Kicad,Pcbnew,(6.0.10)
; #@! TF.FileFunction,Plated,1,2,PTH
FMAT,2
INCH
; #@! TA.AperFunction,Plated,PTH,ViaDrill
T1C0.0118
; #@! TA.AperFunction,Plated,PTH,ComponentDrill
T2C0.0197
; #@! TA.AperFunction,Plated,PTH,ComponentDrill
T3C0.0394
; #@! TA.AperFunction,Plated,PTH,ComponentDrill
T4C0.0400
; #@! TA.AperFunction,Plated,PTH,ComponentDrill
T5C0.0433
; #@! TA.AperFunction,Plated,PTH,ComponentDrill
T6C0.0512
; #@! TA.AperFunction,Plated,PTH,ComponentDrill
T7C0.1260
; #@! TA.AperFunction,Plated,PTH,ComponentDrill
T8C0.1378
%
G90
G05
T1
X3.3031Y-2.0079
X4.122Y-2.1654
X4.6614Y-2.8819
X4.6614Y-3.0591
X5.5945Y-3.2559
X5.9327Y-3.15
X6.0276Y-3.0472
X6.126Y-2.9528
X6.1575Y-2.8701
X6.3543Y-3.0472
X7.063Y-2.748
T2
X2.1055Y-2.55
X2.1332Y-2.4832
X2.1332Y-2.6168
X2.2Y-2.4555
X2.2Y-2.6445
X2.2668Y-2.4832
X2.2668Y-2.6168
X2.2945Y-2.55
X7.1055Y-2.55
X7.1332Y-2.4832
X7.1332Y-2.6168
X7.2Y-2.4555
X7.2Y-2.6445
X7.2668Y-2.4832
X7.2668Y-2.6168
X7.2945Y-2.55
T3
X2.7Y-2.55
X2.7Y-2.65
X2.8Y-2.55
X2.8Y-2.65
X3.06Y-2.55
X3.06Y-2.65
X3.16Y-2.55
X3.16Y-2.65
X3.26Y-2.55
X3.26Y-2.65
X3.36Y-2.55
X3.36Y-2.65
X3.46Y-2.55
X3.46Y-2.65
X3.56Y-2.55
X3.56Y-2.65
X3.66Y-2.55
X3.66Y-2.65
X3.76Y-2.55
X3.76Y-2.65
X3.99Y-2.55
X3.99Y-2.65
X4.24Y-2.55
X4.24Y-2.65
X4.34Y-2.55
X4.34Y-2.65
X4.44Y-2.55
X4.44Y-2.65
X4.54Y-2.55
X4.54Y-2.65
X4.64Y-2.55
X4.64Y-2.65
X4.74Y-2.55
X4.74Y-2.65
X4.84Y-2.55
X4.84Y-2.65
X4.94Y-2.55
X4.94Y-2.65
X5.275Y-2.55
X5.275Y-2.65
X5.375Y-2.55
X5.375Y-2.65
X5.64Y-2.55
X5.64Y-2.65
X5.74Y-2.55
X5.74Y-2.65
X5.84Y-2.55
X5.84Y-2.65
X5.94Y-2.55
X5.94Y-2.65
X6.04Y-2.55
X6.04Y-2.65
X6.14Y-2.55
X6.14Y-2.65
X6.24Y-2.55
X6.24Y-2.65
X6.34Y-2.55
X6.34Y-2.65
X6.59Y-2.55
X6.59Y-2.65
X6.69Y-2.55
X6.69Y-2.65
X6.79Y-2.55
X6.79Y-2.65
T4
X3.6Y-3.15
X3.6Y-3.25
X3.7Y-3.15
X3.7Y-3.25
X3.8Y-3.15
X3.8Y-3.25
X3.9Y-3.15
X3.9Y-3.25
X4.0Y-3.15
X4.0Y-3.25
X4.1Y-3.15
X4.1Y-3.25
X4.2Y-3.15
X4.2Y-3.25
X4.3Y-3.15
X4.3Y-3.25
X4.4Y-3.15
X4.4Y-3.25
X4.5Y-3.15
X4.5Y-3.25
X4.6Y-3.15
X4.6Y-3.25
X4.7Y-3.15
X4.7Y-3.25
X4.8Y-3.15
X4.8Y-3.25
X4.9Y-3.15
X4.9Y-3.25
X5.0Y-3.15
X5.0Y-3.25
X5.1Y-3.15
X5.1Y-3.25
X5.2Y-3.15
X5.2Y-3.25
X5.3Y-3.15
X5.3Y-3.25
X5.4Y-3.15
X5.4Y-3.25
X5.5Y-3.15
X5.5Y-3.25
T5
X2.7471Y-2.0978
X2.7471Y-2.275
X2.8848Y-2.0978
X2.8848Y-2.275
X3.0069Y-2.0978
X3.0069Y-2.275
X3.125Y-2.0978
X3.125Y-2.275
X3.2431Y-2.0978
X3.2431Y-2.275
X3.3612Y-2.0978
X3.3612Y-2.275
X3.4793Y-2.0978
X3.4793Y-2.275
X3.5974Y-2.0978
X3.5974Y-2.275
X3.7155Y-2.0978
X3.7155Y-2.275
X3.8336Y-2.0978
X3.8336Y-2.275
X3.9557Y-2.0978
X3.9557Y-2.275
X4.1899Y-2.0978
X4.1899Y-2.275
X4.308Y-2.0978
X4.308Y-2.275
X4.4261Y-2.0978
X4.4261Y-2.275
X4.5442Y-2.0978
X4.5442Y-2.275
X4.6624Y-2.0978
X4.6624Y-2.275
X4.7805Y-2.0978
X4.7805Y-2.275
X4.8986Y-2.0978
X4.8986Y-2.275
X5.0167Y-2.0978
X5.0167Y-2.275
X5.2508Y-2.0978
X5.2508Y-2.275
X5.3886Y-2.0978
X5.3886Y-2.275
X5.5108Y-2.0978
X5.5108Y-2.275
X5.6289Y-2.0978
X5.6289Y-2.275
X5.747Y-2.0978
X5.747Y-2.275
X5.8651Y-2.0978
X5.8651Y-2.275
X5.9832Y-2.0978
X5.9832Y-2.275
X6.1013Y-2.0978
X6.1013Y-2.275
X6.2194Y-2.0978
X6.2194Y-2.275
X6.3375Y-2.0978
X6.3375Y-2.275
X6.4596Y-2.0978
X6.4596Y-2.275
X6.5974Y-2.0978
X6.5974Y-2.275
X6.7352Y-2.0978
X6.7352Y-2.275
T6
X2.9409Y-3.1813
X3.1378Y-3.1813
T7
X2.2Y-2.55
X7.2Y-2.55
T8
X2.5482Y-1.8734
X4.0777Y-1.8734
X5.1289Y-1.8734
X6.934Y-1.8734
T0
M30
