G04 #@! TF.GenerationSoftware,KiCad,Pcbnew,(6.0.10)*
G04 #@! TF.CreationDate,2023-01-07T23:02:07+01:00*
G04 #@! TF.ProjectId,Speeduino 1990 Rev2 3SGE ECU adapter 174518-7,53706565-6475-4696-9e6f-203139393020,1*
G04 #@! TF.SameCoordinates,Original*
G04 #@! TF.FileFunction,Legend,Top*
G04 #@! TF.FilePolarity,Positive*
%FSLAX46Y46*%
G04 Gerber Fmt 4.6, Leading zero omitted, Abs format (unit mm)*
G04 Created by KiCad (PCBNEW (6.0.10)) date 2023-01-07 23:02:07*
%MOMM*%
%LPD*%
G01*
G04 APERTURE LIST*
%ADD10C,0.223520*%
%ADD11C,0.304800*%
%ADD12C,0.222250*%
%ADD13C,0.150000*%
%ADD14C,0.120000*%
%ADD15C,0.381000*%
%ADD16C,3.500120*%
%ADD17C,1.150620*%
G04 APERTURE END LIST*
D10*
X91964285Y-70214285D02*
X92092857Y-70257142D01*
X92307142Y-70257142D01*
X92392857Y-70214285D01*
X92435714Y-70171428D01*
X92478571Y-70085714D01*
X92478571Y-70000000D01*
X92435714Y-69914285D01*
X92392857Y-69871428D01*
X92307142Y-69828571D01*
X92135714Y-69785714D01*
X92050000Y-69742857D01*
X92007142Y-69700000D01*
X91964285Y-69614285D01*
X91964285Y-69528571D01*
X92007142Y-69442857D01*
X92050000Y-69400000D01*
X92135714Y-69357142D01*
X92350000Y-69357142D01*
X92478571Y-69400000D01*
X92864285Y-70257142D02*
X92864285Y-69357142D01*
X93207142Y-69357142D01*
X93292857Y-69400000D01*
X93335714Y-69442857D01*
X93378571Y-69528571D01*
X93378571Y-69657142D01*
X93335714Y-69742857D01*
X93292857Y-69785714D01*
X93207142Y-69828571D01*
X92864285Y-69828571D01*
X94235714Y-70257142D02*
X93721428Y-70257142D01*
X93978571Y-70257142D02*
X93978571Y-69357142D01*
X93892857Y-69485714D01*
X93807142Y-69571428D01*
X93721428Y-69614285D01*
X106438000Y-69357142D02*
X106738000Y-70257142D01*
X107038000Y-69357142D01*
X107852285Y-70171428D02*
X107809428Y-70214285D01*
X107680857Y-70257142D01*
X107595142Y-70257142D01*
X107466571Y-70214285D01*
X107380857Y-70128571D01*
X107338000Y-70042857D01*
X107295142Y-69871428D01*
X107295142Y-69742857D01*
X107338000Y-69571428D01*
X107380857Y-69485714D01*
X107466571Y-69400000D01*
X107595142Y-69357142D01*
X107680857Y-69357142D01*
X107809428Y-69400000D01*
X107852285Y-69442857D01*
X119835714Y-69357142D02*
X120007142Y-69357142D01*
X120092857Y-69400000D01*
X120178571Y-69485714D01*
X120221428Y-69657142D01*
X120221428Y-69957142D01*
X120178571Y-70128571D01*
X120092857Y-70214285D01*
X120007142Y-70257142D01*
X119835714Y-70257142D01*
X119750000Y-70214285D01*
X119664285Y-70128571D01*
X119621428Y-69957142D01*
X119621428Y-69657142D01*
X119664285Y-69485714D01*
X119750000Y-69400000D01*
X119835714Y-69357142D01*
X120521428Y-69357142D02*
X121121428Y-70257142D01*
X121121428Y-69357142D02*
X120521428Y-70257142D01*
X113819142Y-69357142D02*
X114333428Y-69357142D01*
X114076285Y-70257142D02*
X114076285Y-69357142D01*
X114633428Y-70257142D02*
X114633428Y-69357142D01*
X114633428Y-69785714D02*
X115147714Y-69785714D01*
X115147714Y-70257142D02*
X115147714Y-69357142D01*
X115490571Y-69357142D02*
X115704857Y-70257142D01*
X115876285Y-69614285D01*
X116047714Y-70257142D01*
X116262000Y-69357142D01*
X122300000Y-69357142D02*
X122814285Y-69357142D01*
X122557142Y-70257142D02*
X122557142Y-69357142D01*
X122985714Y-69357142D02*
X123500000Y-69357142D01*
X123242857Y-70257142D02*
X123242857Y-69357142D01*
X108763714Y-70257142D02*
X108763714Y-69357142D01*
X109106571Y-69357142D01*
X109192285Y-69400000D01*
X109235142Y-69442857D01*
X109278000Y-69528571D01*
X109278000Y-69657142D01*
X109235142Y-69742857D01*
X109192285Y-69785714D01*
X109106571Y-69828571D01*
X108763714Y-69828571D01*
X109663714Y-70257142D02*
X109663714Y-69357142D01*
X110092285Y-70257142D02*
X110092285Y-69357142D01*
X110392285Y-70000000D01*
X110692285Y-69357142D01*
X110692285Y-70257142D01*
X125044285Y-69357142D02*
X125344285Y-70257142D01*
X125644285Y-69357142D01*
X126244285Y-69785714D02*
X125944285Y-69785714D01*
X125944285Y-70257142D02*
X125944285Y-69357142D01*
X126372857Y-69357142D01*
X117148857Y-70257142D02*
X117148857Y-69357142D01*
X117663142Y-70257142D01*
X117663142Y-69357142D01*
X118606000Y-70171428D02*
X118563142Y-70214285D01*
X118434571Y-70257142D01*
X118348857Y-70257142D01*
X118220285Y-70214285D01*
X118134571Y-70128571D01*
X118091714Y-70042857D01*
X118048857Y-69871428D01*
X118048857Y-69742857D01*
X118091714Y-69571428D01*
X118134571Y-69485714D01*
X118220285Y-69400000D01*
X118348857Y-69357142D01*
X118434571Y-69357142D01*
X118563142Y-69400000D01*
X118606000Y-69442857D01*
X111153714Y-69357142D02*
X111668000Y-69357142D01*
X111410857Y-70257142D02*
X111410857Y-69357142D01*
X111968000Y-70257142D02*
X111968000Y-69357142D01*
X111968000Y-69785714D02*
X112482285Y-69785714D01*
X112482285Y-70257142D02*
X112482285Y-69357142D01*
X112868000Y-70000000D02*
X113296571Y-70000000D01*
X112782285Y-70257142D02*
X113082285Y-69357142D01*
X113382285Y-70257142D01*
X135817857Y-70257142D02*
X135817857Y-69357142D01*
X136332142Y-70257142D01*
X136332142Y-69357142D01*
X137275000Y-70171428D02*
X137232142Y-70214285D01*
X137103571Y-70257142D01*
X137017857Y-70257142D01*
X136889285Y-70214285D01*
X136803571Y-70128571D01*
X136760714Y-70042857D01*
X136717857Y-69871428D01*
X136717857Y-69742857D01*
X136760714Y-69571428D01*
X136803571Y-69485714D01*
X136889285Y-69400000D01*
X137017857Y-69357142D01*
X137103571Y-69357142D01*
X137232142Y-69400000D01*
X137275000Y-69442857D01*
X133277857Y-70257142D02*
X133277857Y-69357142D01*
X133792142Y-70257142D01*
X133792142Y-69357142D01*
X134735000Y-70171428D02*
X134692142Y-70214285D01*
X134563571Y-70257142D01*
X134477857Y-70257142D01*
X134349285Y-70214285D01*
X134263571Y-70128571D01*
X134220714Y-70042857D01*
X134177857Y-69871428D01*
X134177857Y-69742857D01*
X134220714Y-69571428D01*
X134263571Y-69485714D01*
X134349285Y-69400000D01*
X134477857Y-69357142D01*
X134563571Y-69357142D01*
X134692142Y-69400000D01*
X134735000Y-69442857D01*
X142420285Y-70257142D02*
X142420285Y-69357142D01*
X143320285Y-69400000D02*
X143234571Y-69357142D01*
X143106000Y-69357142D01*
X142977428Y-69400000D01*
X142891714Y-69485714D01*
X142848857Y-69571428D01*
X142806000Y-69742857D01*
X142806000Y-69871428D01*
X142848857Y-70042857D01*
X142891714Y-70128571D01*
X142977428Y-70214285D01*
X143106000Y-70257142D01*
X143191714Y-70257142D01*
X143320285Y-70214285D01*
X143363142Y-70171428D01*
X143363142Y-69871428D01*
X143191714Y-69871428D01*
X144048857Y-69785714D02*
X143748857Y-69785714D01*
X143748857Y-70257142D02*
X143748857Y-69357142D01*
X144177428Y-69357142D01*
X142548857Y-62637142D02*
X142548857Y-61737142D01*
X143063142Y-62637142D01*
X143063142Y-61737142D01*
X144006000Y-62551428D02*
X143963142Y-62594285D01*
X143834571Y-62637142D01*
X143748857Y-62637142D01*
X143620285Y-62594285D01*
X143534571Y-62508571D01*
X143491714Y-62422857D01*
X143448857Y-62251428D01*
X143448857Y-62122857D01*
X143491714Y-61951428D01*
X143534571Y-61865714D01*
X143620285Y-61780000D01*
X143748857Y-61737142D01*
X143834571Y-61737142D01*
X143963142Y-61780000D01*
X144006000Y-61822857D01*
X155248857Y-62637142D02*
X155248857Y-61737142D01*
X155763142Y-62637142D01*
X155763142Y-61737142D01*
X156706000Y-62551428D02*
X156663142Y-62594285D01*
X156534571Y-62637142D01*
X156448857Y-62637142D01*
X156320285Y-62594285D01*
X156234571Y-62508571D01*
X156191714Y-62422857D01*
X156148857Y-62251428D01*
X156148857Y-62122857D01*
X156191714Y-61951428D01*
X156234571Y-61865714D01*
X156320285Y-61780000D01*
X156448857Y-61737142D01*
X156534571Y-61737142D01*
X156663142Y-61780000D01*
X156706000Y-61822857D01*
X147635142Y-61780000D02*
X147549428Y-61737142D01*
X147420857Y-61737142D01*
X147292285Y-61780000D01*
X147206571Y-61865714D01*
X147163714Y-61951428D01*
X147120857Y-62122857D01*
X147120857Y-62251428D01*
X147163714Y-62422857D01*
X147206571Y-62508571D01*
X147292285Y-62594285D01*
X147420857Y-62637142D01*
X147506571Y-62637142D01*
X147635142Y-62594285D01*
X147678000Y-62551428D01*
X147678000Y-62251428D01*
X147506571Y-62251428D01*
X148535142Y-62637142D02*
X148020857Y-62637142D01*
X148278000Y-62637142D02*
X148278000Y-61737142D01*
X148192285Y-61865714D01*
X148106571Y-61951428D01*
X148020857Y-61994285D01*
X160922571Y-70257142D02*
X160622571Y-69828571D01*
X160408285Y-70257142D02*
X160408285Y-69357142D01*
X160751142Y-69357142D01*
X160836857Y-69400000D01*
X160879714Y-69442857D01*
X160922571Y-69528571D01*
X160922571Y-69657142D01*
X160879714Y-69742857D01*
X160836857Y-69785714D01*
X160751142Y-69828571D01*
X160408285Y-69828571D01*
X161265428Y-70214285D02*
X161394000Y-70257142D01*
X161608285Y-70257142D01*
X161694000Y-70214285D01*
X161736857Y-70171428D01*
X161779714Y-70085714D01*
X161779714Y-70000000D01*
X161736857Y-69914285D01*
X161694000Y-69871428D01*
X161608285Y-69828571D01*
X161436857Y-69785714D01*
X161351142Y-69742857D01*
X161308285Y-69700000D01*
X161265428Y-69614285D01*
X161265428Y-69528571D01*
X161308285Y-69442857D01*
X161351142Y-69400000D01*
X161436857Y-69357142D01*
X161651142Y-69357142D01*
X161779714Y-69400000D01*
X162336857Y-69357142D02*
X162508285Y-69357142D01*
X162594000Y-69400000D01*
X162679714Y-69485714D01*
X162722571Y-69657142D01*
X162722571Y-69957142D01*
X162679714Y-70128571D01*
X162594000Y-70214285D01*
X162508285Y-70257142D01*
X162336857Y-70257142D01*
X162251142Y-70214285D01*
X162165428Y-70128571D01*
X162122571Y-69957142D01*
X162122571Y-69657142D01*
X162165428Y-69485714D01*
X162251142Y-69400000D01*
X162336857Y-69357142D01*
X145220571Y-61780000D02*
X145134857Y-61737142D01*
X145006285Y-61737142D01*
X144877714Y-61780000D01*
X144792000Y-61865714D01*
X144749142Y-61951428D01*
X144706285Y-62122857D01*
X144706285Y-62251428D01*
X144749142Y-62422857D01*
X144792000Y-62508571D01*
X144877714Y-62594285D01*
X145006285Y-62637142D01*
X145092000Y-62637142D01*
X145220571Y-62594285D01*
X145263428Y-62551428D01*
X145263428Y-62251428D01*
X145092000Y-62251428D01*
X145906285Y-61951428D02*
X146077714Y-61951428D01*
X146249142Y-62037142D01*
X146334857Y-62208571D01*
X146334857Y-62380000D01*
X146249142Y-62551428D01*
X146077714Y-62637142D01*
X145906285Y-62637142D01*
X145734857Y-62551428D01*
X145649142Y-62380000D01*
X145649142Y-62208571D01*
X145734857Y-62037142D01*
X145906285Y-61951428D01*
X145820571Y-62294285D02*
X146163428Y-62294285D01*
X157788857Y-62637142D02*
X157788857Y-61737142D01*
X158303142Y-62637142D01*
X158303142Y-61737142D01*
X159246000Y-62551428D02*
X159203142Y-62594285D01*
X159074571Y-62637142D01*
X158988857Y-62637142D01*
X158860285Y-62594285D01*
X158774571Y-62508571D01*
X158731714Y-62422857D01*
X158688857Y-62251428D01*
X158688857Y-62122857D01*
X158731714Y-61951428D01*
X158774571Y-61865714D01*
X158860285Y-61780000D01*
X158988857Y-61737142D01*
X159074571Y-61737142D01*
X159203142Y-61780000D01*
X159246000Y-61822857D01*
X152521428Y-69785714D02*
X152821428Y-69785714D01*
X152950000Y-70257142D02*
X152521428Y-70257142D01*
X152521428Y-69357142D01*
X152950000Y-69357142D01*
X153207142Y-69357142D02*
X153507142Y-70257142D01*
X153807142Y-69357142D01*
X154107142Y-70257142D02*
X154107142Y-69357142D01*
X154450000Y-69357142D01*
X154535714Y-69400000D01*
X154578571Y-69442857D01*
X154621428Y-69528571D01*
X154621428Y-69657142D01*
X154578571Y-69742857D01*
X154535714Y-69785714D01*
X154450000Y-69828571D01*
X154107142Y-69828571D01*
X152623142Y-62637142D02*
X152623142Y-61737142D01*
X153523142Y-61780000D02*
X153437428Y-61737142D01*
X153308857Y-61737142D01*
X153180285Y-61780000D01*
X153094571Y-61865714D01*
X153051714Y-61951428D01*
X153008857Y-62122857D01*
X153008857Y-62251428D01*
X153051714Y-62422857D01*
X153094571Y-62508571D01*
X153180285Y-62594285D01*
X153308857Y-62637142D01*
X153394571Y-62637142D01*
X153523142Y-62594285D01*
X153566000Y-62551428D01*
X153566000Y-62251428D01*
X153394571Y-62251428D01*
X153823142Y-61737142D02*
X154337428Y-61737142D01*
X154080285Y-62637142D02*
X154080285Y-61737142D01*
X149314857Y-62380000D02*
X149743428Y-62380000D01*
X149229142Y-62637142D02*
X149529142Y-61737142D01*
X149829142Y-62637142D01*
X150643428Y-62551428D02*
X150600571Y-62594285D01*
X150472000Y-62637142D01*
X150386285Y-62637142D01*
X150257714Y-62594285D01*
X150172000Y-62508571D01*
X150129142Y-62422857D01*
X150086285Y-62251428D01*
X150086285Y-62122857D01*
X150129142Y-61951428D01*
X150172000Y-61865714D01*
X150257714Y-61780000D01*
X150386285Y-61737142D01*
X150472000Y-61737142D01*
X150600571Y-61780000D01*
X150643428Y-61822857D01*
X151029142Y-62637142D02*
X151029142Y-61737142D01*
X151414857Y-62594285D02*
X151543428Y-62637142D01*
X151757714Y-62637142D01*
X151843428Y-62594285D01*
X151886285Y-62551428D01*
X151929142Y-62465714D01*
X151929142Y-62380000D01*
X151886285Y-62294285D01*
X151843428Y-62251428D01*
X151757714Y-62208571D01*
X151586285Y-62165714D01*
X151500571Y-62122857D01*
X151457714Y-62080000D01*
X151414857Y-61994285D01*
X151414857Y-61908571D01*
X151457714Y-61822857D01*
X151500571Y-61780000D01*
X151586285Y-61737142D01*
X151800571Y-61737142D01*
X151929142Y-61780000D01*
X160328857Y-62637142D02*
X160328857Y-61737142D01*
X160843142Y-62637142D01*
X160843142Y-61737142D01*
X161786000Y-62551428D02*
X161743142Y-62594285D01*
X161614571Y-62637142D01*
X161528857Y-62637142D01*
X161400285Y-62594285D01*
X161314571Y-62508571D01*
X161271714Y-62422857D01*
X161228857Y-62251428D01*
X161228857Y-62122857D01*
X161271714Y-61951428D01*
X161314571Y-61865714D01*
X161400285Y-61780000D01*
X161528857Y-61737142D01*
X161614571Y-61737142D01*
X161743142Y-61780000D01*
X161786000Y-61822857D01*
X155356000Y-70257142D02*
X155356000Y-69357142D01*
X155356000Y-69785714D02*
X155870285Y-69785714D01*
X155870285Y-70257142D02*
X155870285Y-69357142D01*
X156170285Y-69357142D02*
X156684571Y-69357142D01*
X156427428Y-70257142D02*
X156427428Y-69357142D01*
X149829142Y-69785714D02*
X149529142Y-69785714D01*
X149529142Y-70257142D02*
X149529142Y-69357142D01*
X149957714Y-69357142D01*
X150300571Y-70257142D02*
X150300571Y-69357142D01*
X150643428Y-69357142D01*
X150729142Y-69400000D01*
X150772000Y-69442857D01*
X150814857Y-69528571D01*
X150814857Y-69657142D01*
X150772000Y-69742857D01*
X150729142Y-69785714D01*
X150643428Y-69828571D01*
X150300571Y-69828571D01*
X151200571Y-69357142D02*
X151200571Y-70085714D01*
X151243428Y-70171428D01*
X151286285Y-70214285D01*
X151372000Y-70257142D01*
X151543428Y-70257142D01*
X151629142Y-70214285D01*
X151672000Y-70171428D01*
X151714857Y-70085714D01*
X151714857Y-69357142D01*
X147889142Y-69400000D02*
X147803428Y-69357142D01*
X147674857Y-69357142D01*
X147546285Y-69400000D01*
X147460571Y-69485714D01*
X147417714Y-69571428D01*
X147374857Y-69742857D01*
X147374857Y-69871428D01*
X147417714Y-70042857D01*
X147460571Y-70128571D01*
X147546285Y-70214285D01*
X147674857Y-70257142D01*
X147760571Y-70257142D01*
X147889142Y-70214285D01*
X147932000Y-70171428D01*
X147932000Y-69871428D01*
X147760571Y-69871428D01*
X148274857Y-69442857D02*
X148317714Y-69400000D01*
X148403428Y-69357142D01*
X148617714Y-69357142D01*
X148703428Y-69400000D01*
X148746285Y-69442857D01*
X148789142Y-69528571D01*
X148789142Y-69614285D01*
X148746285Y-69742857D01*
X148232000Y-70257142D01*
X148789142Y-70257142D01*
X157896000Y-70257142D02*
X157596000Y-69828571D01*
X157381714Y-70257142D02*
X157381714Y-69357142D01*
X157724571Y-69357142D01*
X157810285Y-69400000D01*
X157853142Y-69442857D01*
X157896000Y-69528571D01*
X157896000Y-69657142D01*
X157853142Y-69742857D01*
X157810285Y-69785714D01*
X157724571Y-69828571D01*
X157381714Y-69828571D01*
X158238857Y-70214285D02*
X158367428Y-70257142D01*
X158581714Y-70257142D01*
X158667428Y-70214285D01*
X158710285Y-70171428D01*
X158753142Y-70085714D01*
X158753142Y-70000000D01*
X158710285Y-69914285D01*
X158667428Y-69871428D01*
X158581714Y-69828571D01*
X158410285Y-69785714D01*
X158324571Y-69742857D01*
X158281714Y-69700000D01*
X158238857Y-69614285D01*
X158238857Y-69528571D01*
X158281714Y-69442857D01*
X158324571Y-69400000D01*
X158410285Y-69357142D01*
X158624571Y-69357142D01*
X158753142Y-69400000D01*
X159653142Y-70171428D02*
X159610285Y-70214285D01*
X159481714Y-70257142D01*
X159396000Y-70257142D01*
X159267428Y-70214285D01*
X159181714Y-70128571D01*
X159138857Y-70042857D01*
X159096000Y-69871428D01*
X159096000Y-69742857D01*
X159138857Y-69571428D01*
X159181714Y-69485714D01*
X159267428Y-69400000D01*
X159396000Y-69357142D01*
X159481714Y-69357142D01*
X159610285Y-69400000D01*
X159653142Y-69442857D01*
X145131714Y-70257142D02*
X145131714Y-69357142D01*
X145646000Y-70257142D01*
X145646000Y-69357142D01*
X146074571Y-69785714D02*
X146374571Y-69785714D01*
X146503142Y-70257142D02*
X146074571Y-70257142D01*
X146074571Y-69357142D01*
X146503142Y-69357142D01*
X165570857Y-70257142D02*
X165570857Y-69357142D01*
X166085142Y-70257142D01*
X166085142Y-69357142D01*
X166642285Y-70257142D02*
X166556571Y-70214285D01*
X166513714Y-70171428D01*
X166470857Y-70085714D01*
X166470857Y-69828571D01*
X166513714Y-69742857D01*
X166556571Y-69700000D01*
X166642285Y-69657142D01*
X166770857Y-69657142D01*
X166856571Y-69700000D01*
X166899428Y-69742857D01*
X166942285Y-69828571D01*
X166942285Y-70085714D01*
X166899428Y-70171428D01*
X166856571Y-70214285D01*
X166770857Y-70257142D01*
X166642285Y-70257142D01*
X167328000Y-70171428D02*
X167370857Y-70214285D01*
X167328000Y-70257142D01*
X167285142Y-70214285D01*
X167328000Y-70171428D01*
X167328000Y-70257142D01*
X167713714Y-69442857D02*
X167756571Y-69400000D01*
X167842285Y-69357142D01*
X168056571Y-69357142D01*
X168142285Y-69400000D01*
X168185142Y-69442857D01*
X168228000Y-69528571D01*
X168228000Y-69614285D01*
X168185142Y-69742857D01*
X167670857Y-70257142D01*
X168228000Y-70257142D01*
X168618857Y-70257142D02*
X168618857Y-69357142D01*
X169133142Y-70257142D01*
X169133142Y-69357142D01*
X169690285Y-70257142D02*
X169604571Y-70214285D01*
X169561714Y-70171428D01*
X169518857Y-70085714D01*
X169518857Y-69828571D01*
X169561714Y-69742857D01*
X169604571Y-69700000D01*
X169690285Y-69657142D01*
X169818857Y-69657142D01*
X169904571Y-69700000D01*
X169947428Y-69742857D01*
X169990285Y-69828571D01*
X169990285Y-70085714D01*
X169947428Y-70171428D01*
X169904571Y-70214285D01*
X169818857Y-70257142D01*
X169690285Y-70257142D01*
X170376000Y-70171428D02*
X170418857Y-70214285D01*
X170376000Y-70257142D01*
X170333142Y-70214285D01*
X170376000Y-70171428D01*
X170376000Y-70257142D01*
X171276000Y-70257142D02*
X170761714Y-70257142D01*
X171018857Y-70257142D02*
X171018857Y-69357142D01*
X170933142Y-69485714D01*
X170847428Y-69571428D01*
X170761714Y-69614285D01*
X171924000Y-62165714D02*
X172224000Y-62165714D01*
X172352571Y-62637142D02*
X171924000Y-62637142D01*
X171924000Y-61737142D01*
X172352571Y-61737142D01*
X172909714Y-61737142D02*
X172995428Y-61737142D01*
X173081142Y-61780000D01*
X173124000Y-61822857D01*
X173166857Y-61908571D01*
X173209714Y-62080000D01*
X173209714Y-62294285D01*
X173166857Y-62465714D01*
X173124000Y-62551428D01*
X173081142Y-62594285D01*
X172995428Y-62637142D01*
X172909714Y-62637142D01*
X172824000Y-62594285D01*
X172781142Y-62551428D01*
X172738285Y-62465714D01*
X172695428Y-62294285D01*
X172695428Y-62080000D01*
X172738285Y-61908571D01*
X172781142Y-61822857D01*
X172824000Y-61780000D01*
X172909714Y-61737142D01*
X173552571Y-61822857D02*
X173595428Y-61780000D01*
X173681142Y-61737142D01*
X173895428Y-61737142D01*
X173981142Y-61780000D01*
X174024000Y-61822857D01*
X174066857Y-61908571D01*
X174066857Y-61994285D01*
X174024000Y-62122857D01*
X173509714Y-62637142D01*
X174066857Y-62637142D01*
X171924000Y-69785714D02*
X172224000Y-69785714D01*
X172352571Y-70257142D02*
X171924000Y-70257142D01*
X171924000Y-69357142D01*
X172352571Y-69357142D01*
X172909714Y-69357142D02*
X172995428Y-69357142D01*
X173081142Y-69400000D01*
X173124000Y-69442857D01*
X173166857Y-69528571D01*
X173209714Y-69700000D01*
X173209714Y-69914285D01*
X173166857Y-70085714D01*
X173124000Y-70171428D01*
X173081142Y-70214285D01*
X172995428Y-70257142D01*
X172909714Y-70257142D01*
X172824000Y-70214285D01*
X172781142Y-70171428D01*
X172738285Y-70085714D01*
X172695428Y-69914285D01*
X172695428Y-69700000D01*
X172738285Y-69528571D01*
X172781142Y-69442857D01*
X172824000Y-69400000D01*
X172909714Y-69357142D01*
X174066857Y-70257142D02*
X173552571Y-70257142D01*
X173809714Y-70257142D02*
X173809714Y-69357142D01*
X173724000Y-69485714D01*
X173638285Y-69571428D01*
X173552571Y-69614285D01*
X168618857Y-62637142D02*
X168618857Y-61737142D01*
X169133142Y-62637142D01*
X169133142Y-61737142D01*
X169690285Y-62637142D02*
X169604571Y-62594285D01*
X169561714Y-62551428D01*
X169518857Y-62465714D01*
X169518857Y-62208571D01*
X169561714Y-62122857D01*
X169604571Y-62080000D01*
X169690285Y-62037142D01*
X169818857Y-62037142D01*
X169904571Y-62080000D01*
X169947428Y-62122857D01*
X169990285Y-62208571D01*
X169990285Y-62465714D01*
X169947428Y-62551428D01*
X169904571Y-62594285D01*
X169818857Y-62637142D01*
X169690285Y-62637142D01*
X170376000Y-62551428D02*
X170418857Y-62594285D01*
X170376000Y-62637142D01*
X170333142Y-62594285D01*
X170376000Y-62551428D01*
X170376000Y-62637142D01*
X170718857Y-61737142D02*
X171276000Y-61737142D01*
X170976000Y-62080000D01*
X171104571Y-62080000D01*
X171190285Y-62122857D01*
X171233142Y-62165714D01*
X171276000Y-62251428D01*
X171276000Y-62465714D01*
X171233142Y-62551428D01*
X171190285Y-62594285D01*
X171104571Y-62637142D01*
X170847428Y-62637142D01*
X170761714Y-62594285D01*
X170718857Y-62551428D01*
X165570857Y-62637142D02*
X165570857Y-61737142D01*
X166085142Y-62637142D01*
X166085142Y-61737142D01*
X166642285Y-62637142D02*
X166556571Y-62594285D01*
X166513714Y-62551428D01*
X166470857Y-62465714D01*
X166470857Y-62208571D01*
X166513714Y-62122857D01*
X166556571Y-62080000D01*
X166642285Y-62037142D01*
X166770857Y-62037142D01*
X166856571Y-62080000D01*
X166899428Y-62122857D01*
X166942285Y-62208571D01*
X166942285Y-62465714D01*
X166899428Y-62551428D01*
X166856571Y-62594285D01*
X166770857Y-62637142D01*
X166642285Y-62637142D01*
X167328000Y-62551428D02*
X167370857Y-62594285D01*
X167328000Y-62637142D01*
X167285142Y-62594285D01*
X167328000Y-62551428D01*
X167328000Y-62637142D01*
X168142285Y-62037142D02*
X168142285Y-62637142D01*
X167928000Y-61694285D02*
X167713714Y-62337142D01*
X168270857Y-62337142D01*
X79214000Y-70214285D02*
X79342571Y-70257142D01*
X79556857Y-70257142D01*
X79642571Y-70214285D01*
X79685428Y-70171428D01*
X79728285Y-70085714D01*
X79728285Y-70000000D01*
X79685428Y-69914285D01*
X79642571Y-69871428D01*
X79556857Y-69828571D01*
X79385428Y-69785714D01*
X79299714Y-69742857D01*
X79256857Y-69700000D01*
X79214000Y-69614285D01*
X79214000Y-69528571D01*
X79256857Y-69442857D01*
X79299714Y-69400000D01*
X79385428Y-69357142D01*
X79599714Y-69357142D01*
X79728285Y-69400000D01*
X79985428Y-69357142D02*
X80499714Y-69357142D01*
X80242571Y-70257142D02*
X80242571Y-69357142D01*
X80799714Y-70257142D02*
X80799714Y-69357142D01*
X81142571Y-69357142D01*
X81228285Y-69400000D01*
X81271142Y-69442857D01*
X81314000Y-69528571D01*
X81314000Y-69657142D01*
X81271142Y-69742857D01*
X81228285Y-69785714D01*
X81142571Y-69828571D01*
X80799714Y-69828571D01*
X82096857Y-62637142D02*
X82096857Y-61737142D01*
X82611142Y-62637142D01*
X82611142Y-61737142D01*
X83554000Y-62551428D02*
X83511142Y-62594285D01*
X83382571Y-62637142D01*
X83296857Y-62637142D01*
X83168285Y-62594285D01*
X83082571Y-62508571D01*
X83039714Y-62422857D01*
X82996857Y-62251428D01*
X82996857Y-62122857D01*
X83039714Y-61951428D01*
X83082571Y-61865714D01*
X83168285Y-61780000D01*
X83296857Y-61737142D01*
X83382571Y-61737142D01*
X83511142Y-61780000D01*
X83554000Y-61822857D01*
X77016857Y-70257142D02*
X77016857Y-69357142D01*
X77531142Y-70257142D01*
X77531142Y-69357142D01*
X78474000Y-70171428D02*
X78431142Y-70214285D01*
X78302571Y-70257142D01*
X78216857Y-70257142D01*
X78088285Y-70214285D01*
X78002571Y-70128571D01*
X77959714Y-70042857D01*
X77916857Y-69871428D01*
X77916857Y-69742857D01*
X77959714Y-69571428D01*
X78002571Y-69485714D01*
X78088285Y-69400000D01*
X78216857Y-69357142D01*
X78302571Y-69357142D01*
X78431142Y-69400000D01*
X78474000Y-69442857D01*
X67787142Y-62294285D02*
X68472857Y-62294285D01*
X68130000Y-62637142D02*
X68130000Y-61951428D01*
X69201428Y-62165714D02*
X69330000Y-62208571D01*
X69372857Y-62251428D01*
X69415714Y-62337142D01*
X69415714Y-62465714D01*
X69372857Y-62551428D01*
X69330000Y-62594285D01*
X69244285Y-62637142D01*
X68901428Y-62637142D01*
X68901428Y-61737142D01*
X69201428Y-61737142D01*
X69287142Y-61780000D01*
X69330000Y-61822857D01*
X69372857Y-61908571D01*
X69372857Y-61994285D01*
X69330000Y-62080000D01*
X69287142Y-62122857D01*
X69201428Y-62165714D01*
X68901428Y-62165714D01*
X82418285Y-69357142D02*
X82632571Y-70257142D01*
X82804000Y-69614285D01*
X82975428Y-70257142D01*
X83189714Y-69357142D01*
X135817857Y-62637142D02*
X135817857Y-61737142D01*
X136332142Y-62637142D01*
X136332142Y-61737142D01*
X137275000Y-62551428D02*
X137232142Y-62594285D01*
X137103571Y-62637142D01*
X137017857Y-62637142D01*
X136889285Y-62594285D01*
X136803571Y-62508571D01*
X136760714Y-62422857D01*
X136717857Y-62251428D01*
X136717857Y-62122857D01*
X136760714Y-61951428D01*
X136803571Y-61865714D01*
X136889285Y-61780000D01*
X137017857Y-61737142D01*
X137103571Y-61737142D01*
X137232142Y-61780000D01*
X137275000Y-61822857D01*
X109528857Y-62637142D02*
X109528857Y-61737142D01*
X110043142Y-62637142D01*
X110043142Y-61737142D01*
X110986000Y-62551428D02*
X110943142Y-62594285D01*
X110814571Y-62637142D01*
X110728857Y-62637142D01*
X110600285Y-62594285D01*
X110514571Y-62508571D01*
X110471714Y-62422857D01*
X110428857Y-62251428D01*
X110428857Y-62122857D01*
X110471714Y-61951428D01*
X110514571Y-61865714D01*
X110600285Y-61780000D01*
X110728857Y-61737142D01*
X110814571Y-61737142D01*
X110943142Y-61780000D01*
X110986000Y-61822857D01*
X111747428Y-61737142D02*
X112047428Y-62637142D01*
X112347428Y-61737142D01*
X112518857Y-61737142D02*
X113033142Y-61737142D01*
X112776000Y-62637142D02*
X112776000Y-61737142D01*
X113290285Y-62380000D02*
X113718857Y-62380000D01*
X113204571Y-62637142D02*
X113504571Y-61737142D01*
X113804571Y-62637142D01*
X124642857Y-62607142D02*
X124642857Y-61707142D01*
X124985714Y-61707142D01*
X125071428Y-61750000D01*
X125114285Y-61792857D01*
X125157142Y-61878571D01*
X125157142Y-62007142D01*
X125114285Y-62092857D01*
X125071428Y-62135714D01*
X124985714Y-62178571D01*
X124642857Y-62178571D01*
X125500000Y-62564285D02*
X125628571Y-62607142D01*
X125842857Y-62607142D01*
X125928571Y-62564285D01*
X125971428Y-62521428D01*
X126014285Y-62435714D01*
X126014285Y-62350000D01*
X125971428Y-62264285D01*
X125928571Y-62221428D01*
X125842857Y-62178571D01*
X125671428Y-62135714D01*
X125585714Y-62092857D01*
X125542857Y-62050000D01*
X125500000Y-61964285D01*
X125500000Y-61878571D01*
X125542857Y-61792857D01*
X125585714Y-61750000D01*
X125671428Y-61707142D01*
X125885714Y-61707142D01*
X126014285Y-61750000D01*
X126914285Y-62521428D02*
X126871428Y-62564285D01*
X126742857Y-62607142D01*
X126657142Y-62607142D01*
X126528571Y-62564285D01*
X126442857Y-62478571D01*
X126400000Y-62392857D01*
X126357142Y-62221428D01*
X126357142Y-62092857D01*
X126400000Y-61921428D01*
X126442857Y-61835714D01*
X126528571Y-61750000D01*
X126657142Y-61707142D01*
X126742857Y-61707142D01*
X126871428Y-61750000D01*
X126914285Y-61792857D01*
X127171428Y-61707142D02*
X127685714Y-61707142D01*
X127428571Y-62607142D02*
X127428571Y-61707142D01*
X116698857Y-62637142D02*
X116698857Y-61737142D01*
X117213142Y-62637142D02*
X116827428Y-62122857D01*
X117213142Y-61737142D02*
X116698857Y-62251428D01*
X117598857Y-62637142D02*
X117598857Y-61737142D01*
X118113142Y-62637142D01*
X118113142Y-61737142D01*
X118541714Y-62637142D02*
X118541714Y-61737142D01*
X119056000Y-62637142D02*
X118670285Y-62122857D01*
X119056000Y-61737142D02*
X118541714Y-62251428D01*
X107074571Y-62165714D02*
X107374571Y-62165714D01*
X107503142Y-62637142D02*
X107074571Y-62637142D01*
X107074571Y-61737142D01*
X107503142Y-61737142D01*
X107846000Y-61822857D02*
X107888857Y-61780000D01*
X107974571Y-61737142D01*
X108188857Y-61737142D01*
X108274571Y-61780000D01*
X108317428Y-61822857D01*
X108360285Y-61908571D01*
X108360285Y-61994285D01*
X108317428Y-62122857D01*
X107803142Y-62637142D01*
X108360285Y-62637142D01*
X89257142Y-70000000D02*
X89685714Y-70000000D01*
X89171428Y-70257142D02*
X89471428Y-69357142D01*
X89771428Y-70257142D01*
X90585714Y-70171428D02*
X90542857Y-70214285D01*
X90414285Y-70257142D01*
X90328571Y-70257142D01*
X90200000Y-70214285D01*
X90114285Y-70128571D01*
X90071428Y-70042857D01*
X90028571Y-69871428D01*
X90028571Y-69742857D01*
X90071428Y-69571428D01*
X90114285Y-69485714D01*
X90200000Y-69400000D01*
X90328571Y-69357142D01*
X90414285Y-69357142D01*
X90542857Y-69400000D01*
X90585714Y-69442857D01*
X90928571Y-69442857D02*
X90971428Y-69400000D01*
X91057142Y-69357142D01*
X91271428Y-69357142D01*
X91357142Y-69400000D01*
X91400000Y-69442857D01*
X91442857Y-69528571D01*
X91442857Y-69614285D01*
X91400000Y-69742857D01*
X90885714Y-70257142D01*
X91442857Y-70257142D01*
X67318857Y-69785714D02*
X67447428Y-69828571D01*
X67490285Y-69871428D01*
X67533142Y-69957142D01*
X67533142Y-70085714D01*
X67490285Y-70171428D01*
X67447428Y-70214285D01*
X67361714Y-70257142D01*
X67018857Y-70257142D01*
X67018857Y-69357142D01*
X67318857Y-69357142D01*
X67404571Y-69400000D01*
X67447428Y-69442857D01*
X67490285Y-69528571D01*
X67490285Y-69614285D01*
X67447428Y-69700000D01*
X67404571Y-69742857D01*
X67318857Y-69785714D01*
X67018857Y-69785714D01*
X67876000Y-70000000D02*
X68304571Y-70000000D01*
X67790285Y-70257142D02*
X68090285Y-69357142D01*
X68390285Y-70257142D01*
X68561714Y-69357142D02*
X69076000Y-69357142D01*
X68818857Y-70257142D02*
X68818857Y-69357142D01*
X69247428Y-69357142D02*
X69761714Y-69357142D01*
X69504571Y-70257142D02*
X69504571Y-69357142D01*
X122097142Y-61737142D02*
X122611428Y-61737142D01*
X122354285Y-62637142D02*
X122354285Y-61737142D01*
X122911428Y-62165714D02*
X123211428Y-62165714D01*
X123340000Y-62637142D02*
X122911428Y-62637142D01*
X122911428Y-61737142D01*
X123340000Y-61737142D01*
X124197142Y-62637142D02*
X123682857Y-62637142D01*
X123940000Y-62637142D02*
X123940000Y-61737142D01*
X123854285Y-61865714D01*
X123768571Y-61951428D01*
X123682857Y-61994285D01*
X133363571Y-62165714D02*
X133663571Y-62165714D01*
X133792142Y-62637142D02*
X133363571Y-62637142D01*
X133363571Y-61737142D01*
X133792142Y-61737142D01*
X134649285Y-62637142D02*
X134135000Y-62637142D01*
X134392142Y-62637142D02*
X134392142Y-61737142D01*
X134306428Y-61865714D01*
X134220714Y-61951428D01*
X134135000Y-61994285D01*
X87176857Y-70257142D02*
X87176857Y-69357142D01*
X87691142Y-70257142D01*
X87691142Y-69357142D01*
X88634000Y-70171428D02*
X88591142Y-70214285D01*
X88462571Y-70257142D01*
X88376857Y-70257142D01*
X88248285Y-70214285D01*
X88162571Y-70128571D01*
X88119714Y-70042857D01*
X88076857Y-69871428D01*
X88076857Y-69742857D01*
X88119714Y-69571428D01*
X88162571Y-69485714D01*
X88248285Y-69400000D01*
X88376857Y-69357142D01*
X88462571Y-69357142D01*
X88591142Y-69400000D01*
X88634000Y-69442857D01*
X69898571Y-62294285D02*
X70584285Y-62294285D01*
X70241428Y-62637142D02*
X70241428Y-61951428D01*
X71312857Y-62165714D02*
X71441428Y-62208571D01*
X71484285Y-62251428D01*
X71527142Y-62337142D01*
X71527142Y-62465714D01*
X71484285Y-62551428D01*
X71441428Y-62594285D01*
X71355714Y-62637142D01*
X71012857Y-62637142D01*
X71012857Y-61737142D01*
X71312857Y-61737142D01*
X71398571Y-61780000D01*
X71441428Y-61822857D01*
X71484285Y-61908571D01*
X71484285Y-61994285D01*
X71441428Y-62080000D01*
X71398571Y-62122857D01*
X71312857Y-62165714D01*
X71012857Y-62165714D01*
X72384285Y-62637142D02*
X71870000Y-62637142D01*
X72127142Y-62637142D02*
X72127142Y-61737142D01*
X72041428Y-61865714D01*
X71955714Y-61951428D01*
X71870000Y-61994285D01*
X70388285Y-69785714D02*
X70688285Y-69785714D01*
X70816857Y-70257142D02*
X70388285Y-70257142D01*
X70388285Y-69357142D01*
X70816857Y-69357142D01*
X71631142Y-70257142D02*
X71202571Y-70257142D01*
X71202571Y-69357142D01*
X71888285Y-70214285D02*
X72016857Y-70257142D01*
X72231142Y-70257142D01*
X72316857Y-70214285D01*
X72359714Y-70171428D01*
X72402571Y-70085714D01*
X72402571Y-70000000D01*
X72359714Y-69914285D01*
X72316857Y-69871428D01*
X72231142Y-69828571D01*
X72059714Y-69785714D01*
X71974000Y-69742857D01*
X71931142Y-69700000D01*
X71888285Y-69614285D01*
X71888285Y-69528571D01*
X71931142Y-69442857D01*
X71974000Y-69400000D01*
X72059714Y-69357142D01*
X72274000Y-69357142D01*
X72402571Y-69400000D01*
X89716857Y-62637142D02*
X89716857Y-61737142D01*
X90231142Y-62637142D01*
X90231142Y-61737142D01*
X91174000Y-62551428D02*
X91131142Y-62594285D01*
X91002571Y-62637142D01*
X90916857Y-62637142D01*
X90788285Y-62594285D01*
X90702571Y-62508571D01*
X90659714Y-62422857D01*
X90616857Y-62251428D01*
X90616857Y-62122857D01*
X90659714Y-61951428D01*
X90702571Y-61865714D01*
X90788285Y-61780000D01*
X90916857Y-61737142D01*
X91002571Y-61737142D01*
X91131142Y-61780000D01*
X91174000Y-61822857D01*
X94750857Y-62380000D02*
X95179428Y-62380000D01*
X94665142Y-62637142D02*
X94965142Y-61737142D01*
X95265142Y-62637142D01*
X96079428Y-62551428D02*
X96036571Y-62594285D01*
X95908000Y-62637142D01*
X95822285Y-62637142D01*
X95693714Y-62594285D01*
X95608000Y-62508571D01*
X95565142Y-62422857D01*
X95522285Y-62251428D01*
X95522285Y-62122857D01*
X95565142Y-61951428D01*
X95608000Y-61865714D01*
X95693714Y-61780000D01*
X95822285Y-61737142D01*
X95908000Y-61737142D01*
X96036571Y-61780000D01*
X96079428Y-61822857D01*
X96336571Y-61737142D02*
X96850857Y-61737142D01*
X96593714Y-62637142D02*
X96593714Y-61737142D01*
D11*
X61988216Y-78785357D02*
X62084978Y-78567642D01*
X62084978Y-78204785D01*
X61988216Y-78059642D01*
X61891454Y-77987071D01*
X61697930Y-77914500D01*
X61504406Y-77914500D01*
X61310882Y-77987071D01*
X61214120Y-78059642D01*
X61117359Y-78204785D01*
X61020597Y-78495071D01*
X60923835Y-78640214D01*
X60827073Y-78712785D01*
X60633549Y-78785357D01*
X60440025Y-78785357D01*
X60246501Y-78712785D01*
X60149740Y-78640214D01*
X60052978Y-78495071D01*
X60052978Y-78132214D01*
X60149740Y-77914500D01*
X60730311Y-77261357D02*
X62762311Y-77261357D01*
X60827073Y-77261357D02*
X60730311Y-77116214D01*
X60730311Y-76825928D01*
X60827073Y-76680785D01*
X60923835Y-76608214D01*
X61117359Y-76535642D01*
X61697930Y-76535642D01*
X61891454Y-76608214D01*
X61988216Y-76680785D01*
X62084978Y-76825928D01*
X62084978Y-77116214D01*
X61988216Y-77261357D01*
X61988216Y-75301928D02*
X62084978Y-75447071D01*
X62084978Y-75737357D01*
X61988216Y-75882500D01*
X61794692Y-75955071D01*
X61020597Y-75955071D01*
X60827073Y-75882500D01*
X60730311Y-75737357D01*
X60730311Y-75447071D01*
X60827073Y-75301928D01*
X61020597Y-75229357D01*
X61214120Y-75229357D01*
X61407644Y-75955071D01*
X61988216Y-73995642D02*
X62084978Y-74140785D01*
X62084978Y-74431071D01*
X61988216Y-74576214D01*
X61794692Y-74648785D01*
X61020597Y-74648785D01*
X60827073Y-74576214D01*
X60730311Y-74431071D01*
X60730311Y-74140785D01*
X60827073Y-73995642D01*
X61020597Y-73923071D01*
X61214120Y-73923071D01*
X61407644Y-74648785D01*
X62084978Y-72616785D02*
X60052978Y-72616785D01*
X61988216Y-72616785D02*
X62084978Y-72761928D01*
X62084978Y-73052214D01*
X61988216Y-73197357D01*
X61891454Y-73269928D01*
X61697930Y-73342500D01*
X61117359Y-73342500D01*
X60923835Y-73269928D01*
X60827073Y-73197357D01*
X60730311Y-73052214D01*
X60730311Y-72761928D01*
X60827073Y-72616785D01*
X60730311Y-71237928D02*
X62084978Y-71237928D01*
X60730311Y-71891071D02*
X61794692Y-71891071D01*
X61988216Y-71818500D01*
X62084978Y-71673357D01*
X62084978Y-71455642D01*
X61988216Y-71310500D01*
X61891454Y-71237928D01*
X62084978Y-70512214D02*
X60730311Y-70512214D01*
X60052978Y-70512214D02*
X60149740Y-70584785D01*
X60246501Y-70512214D01*
X60149740Y-70439642D01*
X60052978Y-70512214D01*
X60246501Y-70512214D01*
X60730311Y-69786500D02*
X62084978Y-69786500D01*
X60923835Y-69786500D02*
X60827073Y-69713928D01*
X60730311Y-69568785D01*
X60730311Y-69351071D01*
X60827073Y-69205928D01*
X61020597Y-69133357D01*
X62084978Y-69133357D01*
X62084978Y-68189928D02*
X61988216Y-68335071D01*
X61891454Y-68407642D01*
X61697930Y-68480214D01*
X61117359Y-68480214D01*
X60923835Y-68407642D01*
X60827073Y-68335071D01*
X60730311Y-68189928D01*
X60730311Y-67972214D01*
X60827073Y-67827071D01*
X60923835Y-67754500D01*
X61117359Y-67681928D01*
X61697930Y-67681928D01*
X61891454Y-67754500D01*
X61988216Y-67827071D01*
X62084978Y-67972214D01*
X62084978Y-68189928D01*
X60052978Y-66012785D02*
X60052978Y-65069357D01*
X60827073Y-65577357D01*
X60827073Y-65359642D01*
X60923835Y-65214500D01*
X61020597Y-65141928D01*
X61214120Y-65069357D01*
X61697930Y-65069357D01*
X61891454Y-65141928D01*
X61988216Y-65214500D01*
X62084978Y-65359642D01*
X62084978Y-65795071D01*
X61988216Y-65940214D01*
X61891454Y-66012785D01*
X61988216Y-64488785D02*
X62084978Y-64271071D01*
X62084978Y-63908214D01*
X61988216Y-63763071D01*
X61891454Y-63690500D01*
X61697930Y-63617928D01*
X61504406Y-63617928D01*
X61310882Y-63690500D01*
X61214120Y-63763071D01*
X61117359Y-63908214D01*
X61020597Y-64198500D01*
X60923835Y-64343642D01*
X60827073Y-64416214D01*
X60633549Y-64488785D01*
X60440025Y-64488785D01*
X60246501Y-64416214D01*
X60149740Y-64343642D01*
X60052978Y-64198500D01*
X60052978Y-63835642D01*
X60149740Y-63617928D01*
X61310882Y-62964785D02*
X61310882Y-61803642D01*
X60149740Y-60279642D02*
X60052978Y-60424785D01*
X60052978Y-60642500D01*
X60149740Y-60860214D01*
X60343263Y-61005357D01*
X60536787Y-61077928D01*
X60923835Y-61150500D01*
X61214120Y-61150500D01*
X61601168Y-61077928D01*
X61794692Y-61005357D01*
X61988216Y-60860214D01*
X62084978Y-60642500D01*
X62084978Y-60497357D01*
X61988216Y-60279642D01*
X61891454Y-60207071D01*
X61214120Y-60207071D01*
X61214120Y-60497357D01*
X61020597Y-59553928D02*
X61020597Y-59045928D01*
X62084978Y-58828214D02*
X62084978Y-59553928D01*
X60052978Y-59553928D01*
X60052978Y-58828214D01*
X61020597Y-57013928D02*
X61020597Y-56505928D01*
X62084978Y-56288214D02*
X62084978Y-57013928D01*
X60052978Y-57013928D01*
X60052978Y-56288214D01*
X61891454Y-54764214D02*
X61988216Y-54836785D01*
X62084978Y-55054500D01*
X62084978Y-55199642D01*
X61988216Y-55417357D01*
X61794692Y-55562500D01*
X61601168Y-55635071D01*
X61214120Y-55707642D01*
X60923835Y-55707642D01*
X60536787Y-55635071D01*
X60343263Y-55562500D01*
X60149740Y-55417357D01*
X60052978Y-55199642D01*
X60052978Y-55054500D01*
X60149740Y-54836785D01*
X60246501Y-54764214D01*
X60052978Y-54111071D02*
X61697930Y-54111071D01*
X61891454Y-54038500D01*
X61988216Y-53965928D01*
X62084978Y-53820785D01*
X62084978Y-53530500D01*
X61988216Y-53385357D01*
X61891454Y-53312785D01*
X61697930Y-53240214D01*
X60052978Y-53240214D01*
X65356498Y-78531357D02*
X63324498Y-78531357D01*
X64098593Y-78531357D02*
X64001831Y-78386214D01*
X64001831Y-78095928D01*
X64098593Y-77950785D01*
X64195355Y-77878214D01*
X64388879Y-77805642D01*
X64969450Y-77805642D01*
X65162974Y-77878214D01*
X65259736Y-77950785D01*
X65356498Y-78095928D01*
X65356498Y-78386214D01*
X65259736Y-78531357D01*
X64001831Y-77297642D02*
X65356498Y-76934785D01*
X64001831Y-76571928D02*
X65356498Y-76934785D01*
X65840307Y-77079928D01*
X65937069Y-77152500D01*
X66033831Y-77297642D01*
X63324498Y-74394785D02*
X64775926Y-74394785D01*
X65066212Y-74467357D01*
X65259736Y-74612500D01*
X65356498Y-74830214D01*
X65356498Y-74975357D01*
X64001831Y-73015928D02*
X65356498Y-73015928D01*
X64001831Y-73669071D02*
X65066212Y-73669071D01*
X65259736Y-73596500D01*
X65356498Y-73451357D01*
X65356498Y-73233642D01*
X65259736Y-73088500D01*
X65162974Y-73015928D01*
X65356498Y-72072500D02*
X65259736Y-72217642D01*
X65066212Y-72290214D01*
X63324498Y-72290214D01*
X65259736Y-70911357D02*
X65356498Y-71056500D01*
X65356498Y-71346785D01*
X65259736Y-71491928D01*
X65066212Y-71564500D01*
X64292117Y-71564500D01*
X64098593Y-71491928D01*
X64001831Y-71346785D01*
X64001831Y-71056500D01*
X64098593Y-70911357D01*
X64292117Y-70838785D01*
X64485640Y-70838785D01*
X64679164Y-71564500D01*
X65259736Y-70258214D02*
X65356498Y-70113071D01*
X65356498Y-69822785D01*
X65259736Y-69677642D01*
X65066212Y-69605071D01*
X64969450Y-69605071D01*
X64775926Y-69677642D01*
X64679164Y-69822785D01*
X64679164Y-70040500D01*
X64582402Y-70185642D01*
X64388879Y-70258214D01*
X64292117Y-70258214D01*
X64098593Y-70185642D01*
X64001831Y-70040500D01*
X64001831Y-69822785D01*
X64098593Y-69677642D01*
X64001831Y-67935928D02*
X65356498Y-67573071D01*
X64001831Y-67210214D01*
X65356498Y-65976500D02*
X64292117Y-65976500D01*
X64098593Y-66049071D01*
X64001831Y-66194214D01*
X64001831Y-66484500D01*
X64098593Y-66629642D01*
X65259736Y-65976500D02*
X65356498Y-66121642D01*
X65356498Y-66484500D01*
X65259736Y-66629642D01*
X65066212Y-66702214D01*
X64872688Y-66702214D01*
X64679164Y-66629642D01*
X64582402Y-66484500D01*
X64582402Y-66121642D01*
X64485640Y-65976500D01*
X64001831Y-65250785D02*
X65356498Y-65250785D01*
X64195355Y-65250785D02*
X64098593Y-65178214D01*
X64001831Y-65033071D01*
X64001831Y-64815357D01*
X64098593Y-64670214D01*
X64292117Y-64597642D01*
X65356498Y-64597642D01*
X65356498Y-62057642D02*
X63324498Y-62057642D01*
X65259736Y-62057642D02*
X65356498Y-62202785D01*
X65356498Y-62493071D01*
X65259736Y-62638214D01*
X65162974Y-62710785D01*
X64969450Y-62783357D01*
X64388879Y-62783357D01*
X64195355Y-62710785D01*
X64098593Y-62638214D01*
X64001831Y-62493071D01*
X64001831Y-62202785D01*
X64098593Y-62057642D01*
X65259736Y-60751357D02*
X65356498Y-60896500D01*
X65356498Y-61186785D01*
X65259736Y-61331928D01*
X65066212Y-61404500D01*
X64292117Y-61404500D01*
X64098593Y-61331928D01*
X64001831Y-61186785D01*
X64001831Y-60896500D01*
X64098593Y-60751357D01*
X64292117Y-60678785D01*
X64485640Y-60678785D01*
X64679164Y-61404500D01*
X64001831Y-60025642D02*
X65356498Y-60025642D01*
X64195355Y-60025642D02*
X64098593Y-59953071D01*
X64001831Y-59807928D01*
X64001831Y-59590214D01*
X64098593Y-59445071D01*
X64292117Y-59372500D01*
X65356498Y-59372500D01*
X64775926Y-57558214D02*
X64775926Y-56832500D01*
X65356498Y-57703357D02*
X63324498Y-57195357D01*
X65356498Y-56687357D01*
X65356498Y-56179357D02*
X63324498Y-56179357D01*
X64582402Y-56034214D02*
X65356498Y-55598785D01*
X64001831Y-55598785D02*
X64775926Y-56179357D01*
X65259736Y-54365071D02*
X65356498Y-54510214D01*
X65356498Y-54800500D01*
X65259736Y-54945642D01*
X65066212Y-55018214D01*
X64292117Y-55018214D01*
X64098593Y-54945642D01*
X64001831Y-54800500D01*
X64001831Y-54510214D01*
X64098593Y-54365071D01*
X64292117Y-54292500D01*
X64485640Y-54292500D01*
X64679164Y-55018214D01*
X65356498Y-53639357D02*
X64001831Y-53639357D01*
X64388879Y-53639357D02*
X64195355Y-53566785D01*
X64098593Y-53494214D01*
X64001831Y-53349071D01*
X64001831Y-53203928D01*
D10*
X84636857Y-70257142D02*
X84636857Y-69357142D01*
X85151142Y-70257142D01*
X85151142Y-69357142D01*
X86094000Y-70171428D02*
X86051142Y-70214285D01*
X85922571Y-70257142D01*
X85836857Y-70257142D01*
X85708285Y-70214285D01*
X85622571Y-70128571D01*
X85579714Y-70042857D01*
X85536857Y-69871428D01*
X85536857Y-69742857D01*
X85579714Y-69571428D01*
X85622571Y-69485714D01*
X85708285Y-69400000D01*
X85836857Y-69357142D01*
X85922571Y-69357142D01*
X86051142Y-69400000D01*
X86094000Y-69442857D01*
X92256857Y-62637142D02*
X92256857Y-61737142D01*
X92771142Y-62637142D01*
X92771142Y-61737142D01*
X93714000Y-62551428D02*
X93671142Y-62594285D01*
X93542571Y-62637142D01*
X93456857Y-62637142D01*
X93328285Y-62594285D01*
X93242571Y-62508571D01*
X93199714Y-62422857D01*
X93156857Y-62251428D01*
X93156857Y-62122857D01*
X93199714Y-61951428D01*
X93242571Y-61865714D01*
X93328285Y-61780000D01*
X93456857Y-61737142D01*
X93542571Y-61737142D01*
X93671142Y-61780000D01*
X93714000Y-61822857D01*
X100106285Y-70214285D02*
X100234857Y-70257142D01*
X100449142Y-70257142D01*
X100534857Y-70214285D01*
X100577714Y-70171428D01*
X100620571Y-70085714D01*
X100620571Y-70000000D01*
X100577714Y-69914285D01*
X100534857Y-69871428D01*
X100449142Y-69828571D01*
X100277714Y-69785714D01*
X100192000Y-69742857D01*
X100149142Y-69700000D01*
X100106285Y-69614285D01*
X100106285Y-69528571D01*
X100149142Y-69442857D01*
X100192000Y-69400000D01*
X100277714Y-69357142D01*
X100492000Y-69357142D01*
X100620571Y-69400000D01*
X100877714Y-69357142D02*
X101392000Y-69357142D01*
X101134857Y-70257142D02*
X101134857Y-69357142D01*
X101649142Y-70000000D02*
X102077714Y-70000000D01*
X101563428Y-70257142D02*
X101863428Y-69357142D01*
X102163428Y-70257142D01*
X84636857Y-62637142D02*
X84636857Y-61737142D01*
X85151142Y-62637142D01*
X85151142Y-61737142D01*
X86094000Y-62551428D02*
X86051142Y-62594285D01*
X85922571Y-62637142D01*
X85836857Y-62637142D01*
X85708285Y-62594285D01*
X85622571Y-62508571D01*
X85579714Y-62422857D01*
X85536857Y-62251428D01*
X85536857Y-62122857D01*
X85579714Y-61951428D01*
X85622571Y-61865714D01*
X85708285Y-61780000D01*
X85836857Y-61737142D01*
X85922571Y-61737142D01*
X86051142Y-61780000D01*
X86094000Y-61822857D01*
X77402571Y-62165714D02*
X77102571Y-62165714D01*
X77102571Y-62637142D02*
X77102571Y-61737142D01*
X77531142Y-61737142D01*
X78388285Y-62551428D02*
X78345428Y-62594285D01*
X78216857Y-62637142D01*
X78131142Y-62637142D01*
X78002571Y-62594285D01*
X77916857Y-62508571D01*
X77874000Y-62422857D01*
X77831142Y-62251428D01*
X77831142Y-62122857D01*
X77874000Y-61951428D01*
X77916857Y-61865714D01*
X78002571Y-61780000D01*
X78131142Y-61737142D01*
X78216857Y-61737142D01*
X78345428Y-61780000D01*
X78388285Y-61822857D01*
X114501714Y-62637142D02*
X114501714Y-61737142D01*
X114930285Y-62637142D02*
X114930285Y-61737142D01*
X115144571Y-61737142D01*
X115273142Y-61780000D01*
X115358857Y-61865714D01*
X115401714Y-61951428D01*
X115444571Y-62122857D01*
X115444571Y-62251428D01*
X115401714Y-62422857D01*
X115358857Y-62508571D01*
X115273142Y-62594285D01*
X115144571Y-62637142D01*
X114930285Y-62637142D01*
X116258857Y-62637142D02*
X115830285Y-62637142D01*
X115830285Y-61737142D01*
X119557142Y-61737142D02*
X120071428Y-61737142D01*
X119814285Y-62637142D02*
X119814285Y-61737142D01*
X120371428Y-62165714D02*
X120671428Y-62165714D01*
X120800000Y-62637142D02*
X120371428Y-62637142D01*
X120371428Y-61737142D01*
X120800000Y-61737142D01*
X121142857Y-61822857D02*
X121185714Y-61780000D01*
X121271428Y-61737142D01*
X121485714Y-61737142D01*
X121571428Y-61780000D01*
X121614285Y-61822857D01*
X121657142Y-61908571D01*
X121657142Y-61994285D01*
X121614285Y-62122857D01*
X121100000Y-62637142D01*
X121657142Y-62637142D01*
X100384857Y-62637142D02*
X100384857Y-61737142D01*
X100899142Y-62637142D01*
X100899142Y-61737142D01*
X101842000Y-62551428D02*
X101799142Y-62594285D01*
X101670571Y-62637142D01*
X101584857Y-62637142D01*
X101456285Y-62594285D01*
X101370571Y-62508571D01*
X101327714Y-62422857D01*
X101284857Y-62251428D01*
X101284857Y-62122857D01*
X101327714Y-61951428D01*
X101370571Y-61865714D01*
X101456285Y-61780000D01*
X101584857Y-61737142D01*
X101670571Y-61737142D01*
X101799142Y-61780000D01*
X101842000Y-61822857D01*
X87176857Y-62637142D02*
X87176857Y-61737142D01*
X87691142Y-62637142D01*
X87691142Y-61737142D01*
X88634000Y-62551428D02*
X88591142Y-62594285D01*
X88462571Y-62637142D01*
X88376857Y-62637142D01*
X88248285Y-62594285D01*
X88162571Y-62508571D01*
X88119714Y-62422857D01*
X88076857Y-62251428D01*
X88076857Y-62122857D01*
X88119714Y-61951428D01*
X88162571Y-61865714D01*
X88248285Y-61780000D01*
X88376857Y-61737142D01*
X88462571Y-61737142D01*
X88591142Y-61780000D01*
X88634000Y-61822857D01*
X94919142Y-70000000D02*
X95347714Y-70000000D01*
X94833428Y-70257142D02*
X95133428Y-69357142D01*
X95433428Y-70257142D01*
X96247714Y-70171428D02*
X96204857Y-70214285D01*
X96076285Y-70257142D01*
X95990571Y-70257142D01*
X95862000Y-70214285D01*
X95776285Y-70128571D01*
X95733428Y-70042857D01*
X95690571Y-69871428D01*
X95690571Y-69742857D01*
X95733428Y-69571428D01*
X95776285Y-69485714D01*
X95862000Y-69400000D01*
X95990571Y-69357142D01*
X96076285Y-69357142D01*
X96204857Y-69400000D01*
X96247714Y-69442857D01*
X97104857Y-70257142D02*
X96590571Y-70257142D01*
X96847714Y-70257142D02*
X96847714Y-69357142D01*
X96762000Y-69485714D01*
X96676285Y-69571428D01*
X96590571Y-69614285D01*
X79556857Y-62637142D02*
X79556857Y-61737142D01*
X80071142Y-62637142D01*
X80071142Y-61737142D01*
X81014000Y-62551428D02*
X80971142Y-62594285D01*
X80842571Y-62637142D01*
X80756857Y-62637142D01*
X80628285Y-62594285D01*
X80542571Y-62508571D01*
X80499714Y-62422857D01*
X80456857Y-62251428D01*
X80456857Y-62122857D01*
X80499714Y-61951428D01*
X80542571Y-61865714D01*
X80628285Y-61780000D01*
X80756857Y-61737142D01*
X80842571Y-61737142D01*
X80971142Y-61780000D01*
X81014000Y-61822857D01*
D12*
X177625586Y-57542006D02*
X176736586Y-57542006D01*
X176736586Y-57203340D01*
X176778920Y-57118673D01*
X176821253Y-57076340D01*
X176905920Y-57034006D01*
X177032920Y-57034006D01*
X177117586Y-57076340D01*
X177159920Y-57118673D01*
X177202253Y-57203340D01*
X177202253Y-57542006D01*
X176736586Y-56737673D02*
X176736586Y-56145006D01*
X177625586Y-56526006D01*
X175027166Y-57921313D02*
X175027166Y-58429313D01*
X175027166Y-58175313D02*
X174138166Y-58175313D01*
X174265166Y-58259980D01*
X174349833Y-58344646D01*
X174392166Y-58429313D01*
X174138166Y-57624980D02*
X174138166Y-57032313D01*
X175027166Y-57413313D01*
X174434500Y-56312646D02*
X175027166Y-56312646D01*
X174095833Y-56524313D02*
X174730833Y-56735980D01*
X174730833Y-56185646D01*
X174138166Y-55423646D02*
X174138166Y-55846980D01*
X174561500Y-55889313D01*
X174519166Y-55846980D01*
X174476833Y-55762313D01*
X174476833Y-55550646D01*
X174519166Y-55465980D01*
X174561500Y-55423646D01*
X174646166Y-55381313D01*
X174857833Y-55381313D01*
X174942500Y-55423646D01*
X174984833Y-55465980D01*
X175027166Y-55550646D01*
X175027166Y-55762313D01*
X174984833Y-55846980D01*
X174942500Y-55889313D01*
X175027166Y-54534646D02*
X175027166Y-55042646D01*
X175027166Y-54788646D02*
X174138166Y-54788646D01*
X174265166Y-54873313D01*
X174349833Y-54957980D01*
X174392166Y-55042646D01*
X174519166Y-54026646D02*
X174476833Y-54111313D01*
X174434500Y-54153646D01*
X174349833Y-54195980D01*
X174307500Y-54195980D01*
X174222833Y-54153646D01*
X174180500Y-54111313D01*
X174138166Y-54026646D01*
X174138166Y-53857313D01*
X174180500Y-53772646D01*
X174222833Y-53730313D01*
X174307500Y-53687980D01*
X174349833Y-53687980D01*
X174434500Y-53730313D01*
X174476833Y-53772646D01*
X174519166Y-53857313D01*
X174519166Y-54026646D01*
X174561500Y-54111313D01*
X174603833Y-54153646D01*
X174688500Y-54195980D01*
X174857833Y-54195980D01*
X174942500Y-54153646D01*
X174984833Y-54111313D01*
X175027166Y-54026646D01*
X175027166Y-53857313D01*
X174984833Y-53772646D01*
X174942500Y-53730313D01*
X174857833Y-53687980D01*
X174688500Y-53687980D01*
X174603833Y-53730313D01*
X174561500Y-53772646D01*
X174519166Y-53857313D01*
X174688500Y-53306980D02*
X174688500Y-52629646D01*
X174138166Y-52290980D02*
X174138166Y-51698313D01*
X175027166Y-52079313D01*
D13*
X115166666Y-75152380D02*
X115166666Y-75866666D01*
X115119047Y-76009523D01*
X115023809Y-76104761D01*
X114880952Y-76152380D01*
X114785714Y-76152380D01*
X116166666Y-76152380D02*
X115595238Y-76152380D01*
X115880952Y-76152380D02*
X115880952Y-75152380D01*
X115785714Y-75295238D01*
X115690476Y-75390476D01*
X115595238Y-75438095D01*
X76866666Y-73997380D02*
X76866666Y-74711666D01*
X76819047Y-74854523D01*
X76723809Y-74949761D01*
X76580952Y-74997380D01*
X76485714Y-74997380D01*
X77295238Y-74092619D02*
X77342857Y-74045000D01*
X77438095Y-73997380D01*
X77676190Y-73997380D01*
X77771428Y-74045000D01*
X77819047Y-74092619D01*
X77866666Y-74187857D01*
X77866666Y-74283095D01*
X77819047Y-74425952D01*
X77247619Y-74997380D01*
X77866666Y-74997380D01*
X68466666Y-74704761D02*
X68609523Y-74752380D01*
X68847619Y-74752380D01*
X68942857Y-74704761D01*
X68990476Y-74657142D01*
X69038095Y-74561904D01*
X69038095Y-74466666D01*
X68990476Y-74371428D01*
X68942857Y-74323809D01*
X68847619Y-74276190D01*
X68657142Y-74228571D01*
X68561904Y-74180952D01*
X68514285Y-74133333D01*
X68466666Y-74038095D01*
X68466666Y-73942857D01*
X68514285Y-73847619D01*
X68561904Y-73800000D01*
X68657142Y-73752380D01*
X68895238Y-73752380D01*
X69038095Y-73800000D01*
X69371428Y-73752380D02*
X69609523Y-74752380D01*
X69800000Y-74038095D01*
X69990476Y-74752380D01*
X70228571Y-73752380D01*
X71133333Y-74752380D02*
X70561904Y-74752380D01*
X70847619Y-74752380D02*
X70847619Y-73752380D01*
X70752380Y-73895238D01*
X70657142Y-73990476D01*
X70561904Y-74038095D01*
D14*
X171196000Y-68640000D02*
X166056000Y-68640000D01*
X172466000Y-65980000D02*
X173796000Y-65980000D01*
X171196000Y-65980000D02*
X166056000Y-65980000D01*
X166056000Y-65980000D02*
X166056000Y-68640000D01*
X173796000Y-65980000D02*
X173796000Y-67310000D01*
X171196000Y-65980000D02*
X171196000Y-68640000D01*
X172466000Y-63440000D02*
X173796000Y-63440000D01*
X173796000Y-63440000D02*
X173796000Y-64770000D01*
X171196000Y-66100000D02*
X166056000Y-66100000D01*
X166056000Y-63440000D02*
X166056000Y-66100000D01*
X171196000Y-63440000D02*
X171196000Y-66100000D01*
X171196000Y-63440000D02*
X166056000Y-63440000D01*
X102676000Y-68580000D02*
X102676000Y-68640000D01*
X100016000Y-67310000D02*
X100016000Y-65980000D01*
X100016000Y-68640000D02*
X102676000Y-68640000D01*
X100016000Y-68580000D02*
X102676000Y-68580000D01*
X100016000Y-68580000D02*
X100016000Y-68640000D01*
X100016000Y-65980000D02*
X101346000Y-65980000D01*
X102676000Y-66040000D02*
X102676000Y-66100000D01*
X100016000Y-66100000D02*
X102676000Y-66100000D01*
X100016000Y-64770000D02*
X100016000Y-63440000D01*
X100016000Y-66040000D02*
X100016000Y-66100000D01*
X100016000Y-66040000D02*
X102676000Y-66040000D01*
X100016000Y-63440000D02*
X101346000Y-63440000D01*
D15*
X65923160Y-32285940D02*
X174924720Y-32285940D01*
X174924720Y-32285940D02*
X174924720Y-42285920D01*
X169923460Y-50784760D02*
X169923460Y-42285920D01*
X109324140Y-50784760D02*
X109324140Y-42285920D01*
X136024620Y-42285920D02*
X136024620Y-50784760D01*
X61523880Y-50784760D02*
X61523880Y-42285920D01*
X136024620Y-50784760D02*
X124523500Y-50784760D01*
X65923160Y-32285940D02*
X65923160Y-42285920D01*
X61523880Y-42285920D02*
X70924420Y-42285920D01*
X179324000Y-50784760D02*
X169923460Y-50784760D01*
X124523500Y-50784760D02*
X124523500Y-42285920D01*
X61523880Y-50784760D02*
X70924420Y-50784760D01*
X97823020Y-50784760D02*
X97823020Y-42285920D01*
X136024620Y-42285920D02*
X124523500Y-42285920D01*
X97823020Y-50784760D02*
X109324140Y-50784760D01*
X169923460Y-42285920D02*
X179324000Y-42285920D01*
X97823020Y-42285920D02*
X109324140Y-42285920D01*
X70924420Y-50784760D02*
X70924420Y-42285920D01*
X179324000Y-42285920D02*
X179324000Y-50784760D01*
D14*
X94234000Y-65980000D02*
X94234000Y-68640000D01*
X94234000Y-65980000D02*
X76394000Y-65980000D01*
X96834000Y-65980000D02*
X96834000Y-67310000D01*
X95504000Y-65980000D02*
X96834000Y-65980000D01*
X76394000Y-65980000D02*
X76394000Y-68640000D01*
X94234000Y-68640000D02*
X76394000Y-68640000D01*
X94234000Y-66100000D02*
X76394000Y-66100000D01*
X76394000Y-63440000D02*
X76394000Y-66100000D01*
X95504000Y-63440000D02*
X96834000Y-63440000D01*
X96834000Y-63440000D02*
X96834000Y-64770000D01*
X94234000Y-63440000D02*
X76394000Y-63440000D01*
X94234000Y-63440000D02*
X94234000Y-66100000D01*
X161036000Y-65980000D02*
X162366000Y-65980000D01*
X141926000Y-65980000D02*
X141926000Y-68640000D01*
X159766000Y-65980000D02*
X141926000Y-65980000D01*
X159766000Y-65980000D02*
X159766000Y-68640000D01*
X159766000Y-68640000D02*
X141926000Y-68640000D01*
X162366000Y-65980000D02*
X162366000Y-67310000D01*
X124206000Y-68640000D02*
X106366000Y-68640000D01*
X106366000Y-65980000D02*
X106366000Y-68640000D01*
X124206000Y-65980000D02*
X124206000Y-68640000D01*
X124206000Y-65980000D02*
X106366000Y-65980000D01*
X126806000Y-65980000D02*
X126806000Y-67310000D01*
X125476000Y-65980000D02*
X126806000Y-65980000D01*
X124206000Y-63440000D02*
X106366000Y-63440000D01*
X124206000Y-63440000D02*
X124206000Y-66100000D01*
X126806000Y-63440000D02*
X126806000Y-64770000D01*
X106366000Y-63440000D02*
X106366000Y-66100000D01*
X124206000Y-66100000D02*
X106366000Y-66100000D01*
X125476000Y-63440000D02*
X126806000Y-63440000D01*
X141926000Y-63440000D02*
X141926000Y-66100000D01*
X159766000Y-63440000D02*
X141926000Y-63440000D01*
X159766000Y-63440000D02*
X159766000Y-66100000D01*
X161036000Y-63440000D02*
X162366000Y-63440000D01*
X162366000Y-63440000D02*
X162366000Y-64770000D01*
X159766000Y-66100000D02*
X141926000Y-66100000D01*
X72450000Y-66040000D02*
X72450000Y-63440000D01*
X69850000Y-66040000D02*
X69850000Y-68640000D01*
X67250000Y-68640000D02*
X67250000Y-63440000D01*
X72450000Y-63440000D02*
X67250000Y-63440000D01*
X72450000Y-67310000D02*
X72450000Y-68640000D01*
X69850000Y-68640000D02*
X67250000Y-68640000D01*
X72450000Y-66040000D02*
X69850000Y-66040000D01*
X72450000Y-68640000D02*
X71120000Y-68640000D01*
X135255000Y-68640000D02*
X132655000Y-68640000D01*
X137855000Y-66040000D02*
X137855000Y-63440000D01*
X137855000Y-66040000D02*
X135255000Y-66040000D01*
X135255000Y-66040000D02*
X135255000Y-68640000D01*
X132655000Y-68640000D02*
X132655000Y-63440000D01*
X137855000Y-63440000D02*
X132655000Y-63440000D01*
X137855000Y-68640000D02*
X136525000Y-68640000D01*
X137855000Y-67310000D02*
X137855000Y-68640000D01*
X145050000Y-85955000D02*
X86090000Y-85955000D01*
X86090000Y-76605000D02*
X145050000Y-76605000D01*
X145050000Y-76605000D02*
X145050000Y-85955000D01*
X145300000Y-76355000D02*
X145300000Y-78895000D01*
X145300000Y-76355000D02*
X142760000Y-76355000D01*
X86090000Y-85955000D02*
X86090000Y-76605000D01*
X72140000Y-75544000D02*
X82260000Y-75544000D01*
X71900000Y-84965000D02*
X71900000Y-85705000D01*
X72140000Y-84905000D02*
X82260000Y-84905000D01*
X80975000Y-79736000D02*
X80928000Y-79782000D01*
X72140000Y-83405000D02*
X82260000Y-83405000D01*
X82260000Y-75544000D02*
X82260000Y-85465000D01*
X72140000Y-75544000D02*
X72140000Y-85465000D01*
X72140000Y-78504000D02*
X82260000Y-78504000D01*
X72140000Y-85465000D02*
X82260000Y-85465000D01*
X78666000Y-82044000D02*
X78631000Y-82079000D01*
X80770000Y-79530000D02*
X80735000Y-79566000D01*
X71900000Y-85705000D02*
X72400000Y-85705000D01*
X78473000Y-81828000D02*
X78426000Y-81874000D01*
X74016000Y-82340000D02*
G75*
G03*
X74728805Y-82485253I683999J1535001D01*
G01*
X73165000Y-80121000D02*
G75*
G03*
X73164573Y-81488042I1534993J-684001D01*
G01*
X76235001Y-81489000D02*
G75*
G03*
X76235427Y-80121958I-1535001J684000D01*
G01*
X74700000Y-82485000D02*
G75*
G03*
X75383318Y-82339756I0J1680000D01*
G01*
X75384000Y-79270000D02*
G75*
G03*
X74016958Y-79269573I-684001J-1534993D01*
G01*
X81380000Y-80805000D02*
G75*
G03*
X81380000Y-80805000I-1680000J0D01*
G01*
X68400000Y-73500000D02*
X68400000Y-71500000D01*
X68400000Y-71500000D02*
X71200000Y-71500000D01*
X71200000Y-73500000D02*
X68400000Y-73500000D01*
X71200000Y-71500000D02*
X71200000Y-73500000D01*
D16*
X130274060Y-47584360D03*
X103573580Y-47584360D03*
X176123600Y-47584360D03*
X64724280Y-47584360D03*
D17*
X171074080Y-57785000D03*
X167573960Y-57785000D03*
X164073840Y-57785000D03*
X171074080Y-53284120D03*
X167573960Y-53284120D03*
X164073840Y-53284120D03*
X136870440Y-57785000D03*
X133370320Y-57785000D03*
X136870440Y-53284120D03*
X133370320Y-53284120D03*
X100474780Y-57785000D03*
X100474780Y-53284120D03*
X73273920Y-57785000D03*
X69776340Y-57785000D03*
X73273920Y-53284120D03*
X69776340Y-53284120D03*
X160972500Y-57785000D03*
X157972760Y-57785000D03*
X154973020Y-57785000D03*
X151973280Y-57785000D03*
X148973540Y-57785000D03*
X145973800Y-57785000D03*
X142974060Y-57785000D03*
X139974320Y-57785000D03*
X160972500Y-53284120D03*
X157972760Y-53284120D03*
X154973020Y-53284120D03*
X151973280Y-53284120D03*
X148973540Y-53284120D03*
X145973800Y-53284120D03*
X142974060Y-53284120D03*
X139974320Y-53284120D03*
X127424180Y-57785000D03*
X124424440Y-57785000D03*
X121424700Y-57785000D03*
X118424960Y-57785000D03*
X115422680Y-57785000D03*
X112422940Y-57785000D03*
X109423200Y-57785000D03*
X106423460Y-57785000D03*
X127424180Y-53284120D03*
X124424440Y-53284120D03*
X121424700Y-53284120D03*
X118424960Y-53284120D03*
X115422680Y-53284120D03*
X112422940Y-53284120D03*
X109423200Y-53284120D03*
X106423460Y-53284120D03*
X97373440Y-57785000D03*
X94373700Y-57785000D03*
X91373960Y-57785000D03*
X88374220Y-57785000D03*
X85374480Y-57785000D03*
X82374740Y-57785000D03*
X79375000Y-57785000D03*
X76375260Y-57785000D03*
X97373440Y-53284120D03*
X94373700Y-53284120D03*
X91373960Y-53284120D03*
X88374220Y-53284120D03*
X85374480Y-53284120D03*
X82374740Y-53284120D03*
X79375000Y-53284120D03*
X76375260Y-53284120D03*
M02*
