G04 #@! TF.GenerationSoftware,KiCad,Pcbnew,(6.0.10)*
G04 #@! TF.CreationDate,2023-01-07T23:02:07+01:00*
G04 #@! TF.ProjectId,Speeduino 1990 Rev2 3SGE ECU adapter 174518-7,53706565-6475-4696-9e6f-203139393020,1*
G04 #@! TF.SameCoordinates,Original*
G04 #@! TF.FileFunction,Copper,L1,Top*
G04 #@! TF.FilePolarity,Positive*
%FSLAX46Y46*%
G04 Gerber Fmt 4.6, Leading zero omitted, Abs format (unit mm)*
G04 Created by KiCad (PCBNEW (6.0.10)) date 2023-01-07 23:02:07*
%MOMM*%
%LPD*%
G01*
G04 APERTURE LIST*
G04 #@! TA.AperFunction,ComponentPad*
%ADD10R,1.700000X1.700000*%
G04 #@! TD*
G04 #@! TA.AperFunction,ComponentPad*
%ADD11O,1.700000X1.700000*%
G04 #@! TD*
G04 #@! TA.AperFunction,ComponentPad*
%ADD12C,3.500120*%
G04 #@! TD*
G04 #@! TA.AperFunction,ComponentPad*
%ADD13C,1.150620*%
G04 #@! TD*
G04 #@! TA.AperFunction,ComponentPad*
%ADD14C,0.800000*%
G04 #@! TD*
G04 #@! TA.AperFunction,ComponentPad*
%ADD15C,6.400000*%
G04 #@! TD*
G04 #@! TA.AperFunction,ComponentPad*
%ADD16R,1.727200X1.727200*%
G04 #@! TD*
G04 #@! TA.AperFunction,ComponentPad*
%ADD17O,1.727200X1.727200*%
G04 #@! TD*
G04 #@! TA.AperFunction,ComponentPad*
%ADD18R,2.600000X2.600000*%
G04 #@! TD*
G04 #@! TA.AperFunction,ComponentPad*
%ADD19C,2.600000*%
G04 #@! TD*
G04 #@! TA.AperFunction,SMDPad,CuDef*
%ADD20R,1.000000X1.500000*%
G04 #@! TD*
G04 #@! TA.AperFunction,ViaPad*
%ADD21C,0.700000*%
G04 #@! TD*
G04 #@! TA.AperFunction,ViaPad*
%ADD22C,0.610000*%
G04 #@! TD*
G04 #@! TA.AperFunction,Conductor*
%ADD23C,0.254000*%
G04 #@! TD*
G04 #@! TA.AperFunction,Conductor*
%ADD24C,0.500000*%
G04 #@! TD*
G04 #@! TA.AperFunction,Conductor*
%ADD25C,0.300000*%
G04 #@! TD*
G04 #@! TA.AperFunction,Conductor*
%ADD26C,1.000000*%
G04 #@! TD*
G04 #@! TA.AperFunction,Conductor*
%ADD27C,1.012000*%
G04 #@! TD*
G04 #@! TA.AperFunction,Conductor*
%ADD28C,3.000000*%
G04 #@! TD*
G04 APERTURE END LIST*
G36*
X70050000Y-72800000D02*
G01*
X69550000Y-72800000D01*
X69550000Y-72200000D01*
X70050000Y-72200000D01*
X70050000Y-72800000D01*
G37*
D10*
X172466000Y-67310000D03*
D11*
X169926000Y-67310000D03*
X167386000Y-67310000D03*
D10*
X172466000Y-64770000D03*
D11*
X169926000Y-64770000D03*
X167386000Y-64770000D03*
D10*
X101346000Y-67310000D03*
X101346000Y-64770000D03*
D12*
X130274060Y-47584360D03*
X103573580Y-47584360D03*
X176123600Y-47584360D03*
X64724280Y-47584360D03*
D13*
X171074080Y-57785000D03*
X167573960Y-57785000D03*
X164073840Y-57785000D03*
X171074080Y-53284120D03*
X167573960Y-53284120D03*
X164073840Y-53284120D03*
X136870440Y-57785000D03*
X133370320Y-57785000D03*
X136870440Y-53284120D03*
X133370320Y-53284120D03*
X100474780Y-57785000D03*
X100474780Y-53284120D03*
X73273920Y-57785000D03*
X69776340Y-57785000D03*
X73273920Y-53284120D03*
X69776340Y-53284120D03*
X160972500Y-57785000D03*
X157972760Y-57785000D03*
X154973020Y-57785000D03*
X151973280Y-57785000D03*
X148973540Y-57785000D03*
X145973800Y-57785000D03*
X142974060Y-57785000D03*
X139974320Y-57785000D03*
X160972500Y-53284120D03*
X157972760Y-53284120D03*
X154973020Y-53284120D03*
X151973280Y-53284120D03*
X148973540Y-53284120D03*
X145973800Y-53284120D03*
X142974060Y-53284120D03*
X139974320Y-53284120D03*
X127424180Y-57785000D03*
X124424440Y-57785000D03*
X121424700Y-57785000D03*
X118424960Y-57785000D03*
X115422680Y-57785000D03*
X112422940Y-57785000D03*
X109423200Y-57785000D03*
X106423460Y-57785000D03*
X127424180Y-53284120D03*
X124424440Y-53284120D03*
X121424700Y-53284120D03*
X118424960Y-53284120D03*
X115422680Y-53284120D03*
X112422940Y-53284120D03*
X109423200Y-53284120D03*
X106423460Y-53284120D03*
X97373440Y-57785000D03*
X94373700Y-57785000D03*
X91373960Y-57785000D03*
X88374220Y-57785000D03*
X85374480Y-57785000D03*
X82374740Y-57785000D03*
X79375000Y-57785000D03*
X76375260Y-57785000D03*
X97373440Y-53284120D03*
X94373700Y-53284120D03*
X91373960Y-53284120D03*
X88374220Y-53284120D03*
X85374480Y-53284120D03*
X82374740Y-53284120D03*
X79375000Y-53284120D03*
X76375260Y-53284120D03*
D10*
X95504000Y-67310000D03*
D11*
X92964000Y-67310000D03*
X90424000Y-67310000D03*
X87884000Y-67310000D03*
X85344000Y-67310000D03*
X82804000Y-67310000D03*
X80264000Y-67310000D03*
X77724000Y-67310000D03*
D10*
X95504000Y-64770000D03*
D11*
X92964000Y-64770000D03*
X90424000Y-64770000D03*
X87884000Y-64770000D03*
X85344000Y-64770000D03*
X82804000Y-64770000D03*
X80264000Y-64770000D03*
X77724000Y-64770000D03*
D10*
X161036000Y-67310000D03*
D11*
X158496000Y-67310000D03*
X155956000Y-67310000D03*
X153416000Y-67310000D03*
X150876000Y-67310000D03*
X148336000Y-67310000D03*
X145796000Y-67310000D03*
X143256000Y-67310000D03*
D10*
X125476000Y-67310000D03*
D11*
X122936000Y-67310000D03*
X120396000Y-67310000D03*
X117856000Y-67310000D03*
X115316000Y-67310000D03*
X112776000Y-67310000D03*
X110236000Y-67310000D03*
X107696000Y-67310000D03*
D10*
X125476000Y-64770000D03*
D11*
X122936000Y-64770000D03*
X120396000Y-64770000D03*
X117856000Y-64770000D03*
X115316000Y-64770000D03*
X112776000Y-64770000D03*
X110236000Y-64770000D03*
X107696000Y-64770000D03*
D10*
X161036000Y-64770000D03*
D11*
X158496000Y-64770000D03*
X155956000Y-64770000D03*
X153416000Y-64770000D03*
X150876000Y-64770000D03*
X148336000Y-64770000D03*
X145796000Y-64770000D03*
X143256000Y-64770000D03*
D10*
X71120000Y-67310000D03*
D11*
X68580000Y-67310000D03*
X71120000Y-64770000D03*
X68580000Y-64770000D03*
D10*
X136525000Y-67310000D03*
D11*
X133985000Y-67310000D03*
X136525000Y-64770000D03*
X133985000Y-64770000D03*
D14*
X53480000Y-64770000D03*
X55880000Y-62370000D03*
X57577056Y-63072944D03*
X54182944Y-63072944D03*
X55880000Y-67170000D03*
D15*
X55880000Y-64770000D03*
D14*
X54182944Y-66467056D03*
X58280000Y-64770000D03*
X57577056Y-66467056D03*
X184577056Y-63072944D03*
X185280000Y-64770000D03*
X180480000Y-64770000D03*
X182880000Y-62370000D03*
X181182944Y-66467056D03*
X182880000Y-67170000D03*
X184577056Y-66467056D03*
X181182944Y-63072944D03*
D15*
X182880000Y-64770000D03*
D16*
X139700000Y-80010000D03*
D17*
X139700000Y-82550000D03*
X137160000Y-80010000D03*
X137160000Y-82550000D03*
X134620000Y-80010000D03*
X134620000Y-82550000D03*
X132080000Y-80010000D03*
X132080000Y-82550000D03*
X129540000Y-80010000D03*
X129540000Y-82550000D03*
X127000000Y-80010000D03*
X127000000Y-82550000D03*
X124460000Y-80010000D03*
X124460000Y-82550000D03*
X121920000Y-80010000D03*
X121920000Y-82550000D03*
X119380000Y-80010000D03*
X119380000Y-82550000D03*
X116840000Y-80010000D03*
X116840000Y-82550000D03*
X114300000Y-80010000D03*
X114300000Y-82550000D03*
X111760000Y-80010000D03*
X111760000Y-82550000D03*
X109220000Y-80010000D03*
X109220000Y-82550000D03*
X106680000Y-80010000D03*
X106680000Y-82550000D03*
X104140000Y-80010000D03*
X104140000Y-82550000D03*
X101600000Y-80010000D03*
X101600000Y-82550000D03*
X99060000Y-80010000D03*
X99060000Y-82550000D03*
X96520000Y-80010000D03*
X96520000Y-82550000D03*
X93980000Y-80010000D03*
X93980000Y-82550000D03*
X91440000Y-80010000D03*
X91440000Y-82550000D03*
D18*
X74700000Y-80805000D03*
D19*
X79700000Y-80805000D03*
D20*
X70450000Y-72500000D03*
X69150000Y-72500000D03*
D21*
X118400000Y-77700000D03*
X118400000Y-73200000D03*
X142100000Y-82700000D03*
X83900000Y-51000000D03*
X104700000Y-55000000D03*
X150690000Y-80010000D03*
D22*
X179400000Y-69800000D03*
D21*
X156400000Y-72900000D03*
X155600000Y-75000000D03*
D22*
X161400000Y-77400000D03*
D21*
X153100000Y-77400000D03*
D23*
X144500000Y-54810060D02*
X142974060Y-53284120D01*
X145796000Y-64770000D02*
X145796000Y-59896000D01*
X145796000Y-59896000D02*
X144500000Y-58600000D01*
X144500000Y-58600000D02*
X144500000Y-54810060D01*
D24*
X118400000Y-77700000D02*
X118400000Y-73200000D01*
X140600000Y-84100000D02*
X142000000Y-82700000D01*
X132080000Y-82550000D02*
X133630000Y-84100000D01*
X142000000Y-82700000D02*
X142100000Y-82700000D01*
X133630000Y-84100000D02*
X140600000Y-84100000D01*
D25*
X95504000Y-64770000D02*
X95504000Y-59496000D01*
X95504000Y-59496000D02*
X95900000Y-59100000D01*
X95900000Y-54757560D02*
X97373440Y-53284120D01*
X95900000Y-59100000D02*
X95900000Y-54757560D01*
D23*
X150876000Y-64770000D02*
X150876000Y-58576000D01*
X150876000Y-58576000D02*
X150600000Y-58300000D01*
X150600000Y-58300000D02*
X150600000Y-54910580D01*
X150600000Y-54910580D02*
X148973540Y-53284120D01*
X149567000Y-66878103D02*
X149567000Y-70633000D01*
X153416000Y-64770000D02*
X152185000Y-66001000D01*
X153416000Y-54726840D02*
X151973280Y-53284120D01*
X152185000Y-66001000D02*
X150444103Y-66001000D01*
X153416000Y-64770000D02*
X153416000Y-54726840D01*
X150444103Y-66001000D02*
X149567000Y-66878103D01*
X148500000Y-71700000D02*
X132770000Y-71700000D01*
X132770000Y-71700000D02*
X124460000Y-80010000D01*
X149567000Y-70633000D02*
X148500000Y-71700000D01*
D25*
X109220000Y-75580000D02*
X109220000Y-80010000D01*
X144546000Y-71100000D02*
X113700000Y-71100000D01*
X113700000Y-71100000D02*
X109220000Y-75580000D01*
X148336000Y-67310000D02*
X144546000Y-71100000D01*
X143406000Y-69700000D02*
X110112542Y-69700000D01*
X110112542Y-69700000D02*
X100327600Y-79484942D01*
X145796000Y-67310000D02*
X143406000Y-69700000D01*
X100327600Y-79484942D02*
X100327600Y-81277600D01*
X100327600Y-81277600D02*
X101600000Y-82550000D01*
X122936000Y-64770000D02*
X122936000Y-54772560D01*
X122936000Y-54772560D02*
X124424440Y-53284120D01*
X117856000Y-64770000D02*
X117856000Y-59856000D01*
X117100000Y-54609080D02*
X118424960Y-53284120D01*
X117100000Y-59100000D02*
X117100000Y-54609080D01*
X117856000Y-59856000D02*
X117100000Y-59100000D01*
X119900000Y-54808820D02*
X121424700Y-53284120D01*
X120396000Y-58596000D02*
X119900000Y-58100000D01*
X120396000Y-64770000D02*
X120396000Y-58596000D01*
X119900000Y-58100000D02*
X119900000Y-54808820D01*
D23*
X147500000Y-54810320D02*
X145973800Y-53284120D01*
X148336000Y-59536000D02*
X147500000Y-58700000D01*
X147027000Y-66079000D02*
X147027000Y-67819897D01*
X112600000Y-70300000D02*
X105384600Y-77515400D01*
X105384600Y-77515400D02*
X105384600Y-81305400D01*
X144546897Y-70300000D02*
X112600000Y-70300000D01*
X147500000Y-58700000D02*
X147500000Y-54810320D01*
X105384600Y-81305400D02*
X104140000Y-82550000D01*
X148336000Y-64770000D02*
X147027000Y-66079000D01*
X148336000Y-64770000D02*
X148336000Y-59536000D01*
X147027000Y-67819897D02*
X144546897Y-70300000D01*
D24*
X96500000Y-78506000D02*
X107696000Y-67310000D01*
X96500000Y-78506000D02*
X96500000Y-79990000D01*
X96500000Y-79990000D02*
X96520000Y-80010000D01*
D26*
X133370320Y-53284120D02*
X131400000Y-55254440D01*
X171074080Y-57785000D02*
X171074080Y-53284120D01*
X133985000Y-64770000D02*
X131400000Y-62185000D01*
X133370320Y-53284120D02*
X131086200Y-51000000D01*
X131086200Y-51000000D02*
X83900000Y-51000000D01*
X131400000Y-62185000D02*
X131400000Y-55254440D01*
X172466000Y-64770000D02*
X172466000Y-59176920D01*
X172466000Y-67310000D02*
X172466000Y-64770000D01*
X172466000Y-59176920D02*
X171074080Y-57785000D01*
D25*
X77724000Y-61624000D02*
X75000000Y-58900000D01*
X75000000Y-58900000D02*
X75000000Y-54659380D01*
X77724000Y-64770000D02*
X77724000Y-61624000D01*
X75000000Y-54659380D02*
X76375260Y-53284120D01*
X93980000Y-78220000D02*
X100400000Y-71800000D01*
D24*
X104700000Y-55000000D02*
X104700000Y-54900000D01*
D25*
X104700000Y-67500000D02*
X104700000Y-55000000D01*
X93980000Y-80010000D02*
X93980000Y-78220000D01*
X100400000Y-71800000D02*
X104700000Y-67500000D01*
D26*
X139700000Y-82800000D02*
X139700000Y-82550000D01*
X173200000Y-78900000D02*
X179400000Y-72700000D01*
D27*
X150690000Y-80010000D02*
X172090000Y-80010000D01*
X172090000Y-80010000D02*
X173200000Y-78900000D01*
X139700000Y-82550000D02*
X139700000Y-80010000D01*
D26*
X179400000Y-72700000D02*
X179400000Y-69800000D01*
D23*
X112776000Y-64770000D02*
X111467000Y-66079000D01*
X110131000Y-69169000D02*
X108031000Y-69169000D01*
X108031000Y-69169000D02*
X97815400Y-79384600D01*
X111467000Y-66079000D02*
X111467000Y-67833000D01*
X110900000Y-54807060D02*
X112422940Y-53284120D01*
X97815400Y-79384600D02*
X97815400Y-80525531D01*
X112776000Y-60276000D02*
X110900000Y-58400000D01*
X97035531Y-81305400D02*
X95224600Y-81305400D01*
X97815400Y-80525531D02*
X97035531Y-81305400D01*
X110900000Y-58400000D02*
X110900000Y-54807060D01*
X95224600Y-81305400D02*
X93980000Y-82550000D01*
X112776000Y-64770000D02*
X112776000Y-60276000D01*
X111467000Y-67833000D02*
X110131000Y-69169000D01*
D28*
X68192000Y-76300000D02*
X75000000Y-76300000D01*
X66815880Y-53284120D02*
X63900000Y-56200000D01*
D26*
X68580000Y-64770000D02*
X71120000Y-64770000D01*
D28*
X63900000Y-56200000D02*
X63900000Y-60090000D01*
X63900000Y-60090000D02*
X68516000Y-64706000D01*
X73273920Y-53284120D02*
X69776340Y-53284120D01*
X79700000Y-78300000D02*
X79700000Y-80805000D01*
X68516000Y-64706000D02*
X68580000Y-64706000D01*
X69776340Y-53284120D02*
X66815880Y-53284120D01*
X63900000Y-72008000D02*
X68192000Y-76300000D01*
X77700000Y-76300000D02*
X79700000Y-78300000D01*
X63900000Y-60090000D02*
X63900000Y-72008000D01*
D26*
X70450000Y-72500000D02*
X71200000Y-72500000D01*
X71200000Y-72500000D02*
X75000000Y-76300000D01*
D28*
X75000000Y-76300000D02*
X77700000Y-76300000D01*
D26*
X136525000Y-64770000D02*
X138500000Y-62795000D01*
X138500000Y-54913680D02*
X136870440Y-53284120D01*
X138500000Y-62795000D02*
X138500000Y-54913680D01*
X100474780Y-57785000D02*
X98900000Y-59359780D01*
X100678000Y-67310000D02*
X101346000Y-67310000D01*
X98900000Y-59359780D02*
X98900000Y-65532000D01*
X98900000Y-65532000D02*
X100678000Y-67310000D01*
X103000000Y-63100000D02*
X103000000Y-55809340D01*
X103000000Y-55809340D02*
X100474780Y-53284120D01*
X101346000Y-64754000D02*
X103000000Y-63100000D01*
X101346000Y-64770000D02*
X101346000Y-64754000D01*
X68580000Y-67310000D02*
X68580000Y-71930000D01*
X68580000Y-71930000D02*
X69150000Y-72500000D01*
D27*
X165409151Y-54619431D02*
X164073840Y-53284120D01*
X159256000Y-72900000D02*
X160478000Y-71678000D01*
X165409151Y-62793151D02*
X165409151Y-54619431D01*
X156400000Y-72900000D02*
X159256000Y-72900000D01*
X167386000Y-64770000D02*
X165409151Y-62793151D01*
X167386000Y-64770000D02*
X160478000Y-71678000D01*
X129540000Y-80010000D02*
X127000000Y-80010000D01*
D24*
X138100000Y-85300000D02*
X142300000Y-85300000D01*
X143500000Y-84100000D02*
X146000000Y-81600000D01*
D25*
X150876000Y-76724000D02*
X146000000Y-81600000D01*
D24*
X142300000Y-85300000D02*
X143500000Y-84100000D01*
X129540000Y-82550000D02*
X132290000Y-85300000D01*
D25*
X150876000Y-67310000D02*
X150876000Y-76724000D01*
D24*
X132290000Y-85300000D02*
X138100000Y-85300000D01*
D27*
X169076001Y-61023999D02*
X169076001Y-54786161D01*
D26*
X176300000Y-54300000D02*
X172500000Y-50500000D01*
D27*
X169926000Y-64770000D02*
X169076001Y-63920001D01*
X169076001Y-54786161D02*
X167573960Y-53284120D01*
D26*
X172500000Y-50500000D02*
X170358080Y-50500000D01*
X155600000Y-75000000D02*
X172400000Y-75000000D01*
X132080000Y-80010000D02*
X134620000Y-80010000D01*
X170358080Y-50500000D02*
X167573960Y-53284120D01*
X176300000Y-71100000D02*
X176300000Y-54300000D01*
X172400000Y-75000000D02*
X176300000Y-71100000D01*
D27*
X169076001Y-63920001D02*
X169076001Y-61023999D01*
D26*
X137160000Y-82550000D02*
X137160000Y-80010000D01*
D27*
X161400000Y-77400000D02*
X153100000Y-77400000D01*
D25*
X161036000Y-62664000D02*
X162400000Y-61300000D01*
X162400000Y-54711620D02*
X160972500Y-53284120D01*
X162400000Y-61300000D02*
X162400000Y-54711620D01*
X161036000Y-64770000D02*
X161036000Y-62664000D01*
X159300000Y-58200000D02*
X158496000Y-59004000D01*
X158496000Y-59004000D02*
X158496000Y-64770000D01*
X159300000Y-54611360D02*
X159300000Y-58200000D01*
X157972760Y-53284120D02*
X159300000Y-54611360D01*
X156400000Y-58700000D02*
X155956000Y-59144000D01*
X154973020Y-53284120D02*
X156400000Y-54711100D01*
X155956000Y-59144000D02*
X155956000Y-64770000D01*
X156400000Y-54711100D02*
X156400000Y-58700000D01*
X141500000Y-59000000D02*
X141500000Y-54809800D01*
X143256000Y-64770000D02*
X143256000Y-60756000D01*
X143256000Y-60756000D02*
X141500000Y-59000000D01*
X141500000Y-54809800D02*
X139974320Y-53284120D01*
X125476000Y-64770000D02*
X125476000Y-59724000D01*
X125900000Y-54808300D02*
X127424180Y-53284120D01*
X125900000Y-59300000D02*
X125900000Y-54808300D01*
X125476000Y-59724000D02*
X125900000Y-59300000D01*
X113900000Y-54806800D02*
X115422680Y-53284120D01*
X115316000Y-60116000D02*
X113900000Y-58700000D01*
X113900000Y-58700000D02*
X113900000Y-54806800D01*
X115316000Y-64770000D02*
X115316000Y-60116000D01*
D23*
X110236000Y-64770000D02*
X110236000Y-61036000D01*
X107900000Y-54807320D02*
X109423200Y-53284120D01*
X110236000Y-61036000D02*
X107900000Y-58700000D01*
X107900000Y-58700000D02*
X107900000Y-54807320D01*
D25*
X92964000Y-64770000D02*
X92964000Y-54693820D01*
X92964000Y-54693820D02*
X94373700Y-53284120D01*
X90424000Y-59424000D02*
X89900000Y-58900000D01*
X90424000Y-64770000D02*
X90424000Y-59424000D01*
X89900000Y-54758080D02*
X91373960Y-53284120D01*
X89900000Y-58900000D02*
X89900000Y-54758080D01*
X86900000Y-54758340D02*
X88374220Y-53284120D01*
X87884000Y-59984000D02*
X86900000Y-59000000D01*
X86900000Y-59000000D02*
X86900000Y-54758340D01*
X87884000Y-64770000D02*
X87884000Y-59984000D01*
X85344000Y-64770000D02*
X85344000Y-60244000D01*
X83800000Y-54858600D02*
X85374480Y-53284120D01*
X83800000Y-58700000D02*
X83800000Y-54858600D01*
X85344000Y-60244000D02*
X83800000Y-58700000D01*
X82804000Y-64770000D02*
X82804000Y-60604000D01*
X80900000Y-58700000D02*
X80900000Y-54758860D01*
X82804000Y-60604000D02*
X80900000Y-58700000D01*
X80900000Y-54758860D02*
X82374740Y-53284120D01*
X80264000Y-64770000D02*
X80264000Y-61164000D01*
X80264000Y-61164000D02*
X77900000Y-58800000D01*
X77900000Y-54759120D02*
X79375000Y-53284120D01*
X77900000Y-58800000D02*
X77900000Y-54759120D01*
M02*
