G04 #@! TF.GenerationSoftware,KiCad,Pcbnew,(6.0.10)*
G04 #@! TF.CreationDate,2023-01-06T16:52:41+01:00*
G04 #@! TF.ProjectId,perfectV2.1v0,70657266-6563-4745-9632-2e3176302e6b,5*
G04 #@! TF.SameCoordinates,Original*
G04 #@! TF.FileFunction,Soldermask,Top*
G04 #@! TF.FilePolarity,Negative*
%FSLAX46Y46*%
G04 Gerber Fmt 4.6, Leading zero omitted, Abs format (unit mm)*
G04 Created by KiCad (PCBNEW (6.0.10)) date 2023-01-06 16:52:41*
%MOMM*%
%LPD*%
G01*
G04 APERTURE LIST*
G04 Aperture macros list*
%AMRoundRect*
0 Rectangle with rounded corners*
0 $1 Rounding radius*
0 $2 $3 $4 $5 $6 $7 $8 $9 X,Y pos of 4 corners*
0 Add a 4 corners polygon primitive as box body*
4,1,4,$2,$3,$4,$5,$6,$7,$8,$9,$2,$3,0*
0 Add four circle primitives for the rounded corners*
1,1,$1+$1,$2,$3*
1,1,$1+$1,$4,$5*
1,1,$1+$1,$6,$7*
1,1,$1+$1,$8,$9*
0 Add four rect primitives between the rounded corners*
20,1,$1+$1,$2,$3,$4,$5,0*
20,1,$1+$1,$4,$5,$6,$7,0*
20,1,$1+$1,$6,$7,$8,$9,0*
20,1,$1+$1,$8,$9,$2,$3,0*%
G04 Aperture macros list end*
%ADD10O,1.702000X1.702000*%
%ADD11RoundRect,0.051000X-0.800000X0.800000X-0.800000X-0.800000X0.800000X-0.800000X0.800000X0.800000X0*%
%ADD12C,1.802000*%
%ADD13RoundRect,0.301000X-0.600000X-0.600000X0.600000X-0.600000X0.600000X0.600000X-0.600000X0.600000X0*%
%ADD14RoundRect,0.294750X0.243750X0.456250X-0.243750X0.456250X-0.243750X-0.456250X0.243750X-0.456250X0*%
%ADD15RoundRect,0.301000X-0.475000X0.250000X-0.475000X-0.250000X0.475000X-0.250000X0.475000X0.250000X0*%
%ADD16RoundRect,0.051000X-1.100000X-0.600000X1.100000X-0.600000X1.100000X0.600000X-1.100000X0.600000X0*%
%ADD17RoundRect,0.051000X-3.200000X-2.900000X3.200000X-2.900000X3.200000X2.900000X-3.200000X2.900000X0*%
%ADD18RoundRect,0.051000X0.850000X-0.850000X0.850000X0.850000X-0.850000X0.850000X-0.850000X-0.850000X0*%
%ADD19O,1.802000X1.802000*%
%ADD20RoundRect,0.051000X-0.450000X-0.600000X0.450000X-0.600000X0.450000X0.600000X-0.450000X0.600000X0*%
%ADD21RoundRect,0.186000X-0.185000X0.135000X-0.185000X-0.135000X0.185000X-0.135000X0.185000X0.135000X0*%
%ADD22RoundRect,0.051000X0.800000X-0.800000X0.800000X0.800000X-0.800000X0.800000X-0.800000X-0.800000X0*%
%ADD23C,1.702000*%
%ADD24RoundRect,0.201000X0.825000X0.150000X-0.825000X0.150000X-0.825000X-0.150000X0.825000X-0.150000X0*%
%ADD25RoundRect,0.301000X0.475000X-0.250000X0.475000X0.250000X-0.475000X0.250000X-0.475000X-0.250000X0*%
%ADD26RoundRect,0.301000X0.262500X0.450000X-0.262500X0.450000X-0.262500X-0.450000X0.262500X-0.450000X0*%
%ADD27RoundRect,0.051000X-1.300000X1.300000X-1.300000X-1.300000X1.300000X-1.300000X1.300000X1.300000X0*%
%ADD28C,2.702000*%
%ADD29RoundRect,0.294750X-0.243750X-0.456250X0.243750X-0.456250X0.243750X0.456250X-0.243750X0.456250X0*%
%ADD30RoundRect,0.151000X-0.637500X-0.100000X0.637500X-0.100000X0.637500X0.100000X-0.637500X0.100000X0*%
%ADD31RoundRect,0.051000X0.300000X0.225000X-0.300000X0.225000X-0.300000X-0.225000X0.300000X-0.225000X0*%
%ADD32RoundRect,0.186000X0.185000X-0.135000X0.185000X0.135000X-0.185000X0.135000X-0.185000X-0.135000X0*%
%ADD33RoundRect,0.051000X0.850000X0.850000X-0.850000X0.850000X-0.850000X-0.850000X0.850000X-0.850000X0*%
%ADD34RoundRect,0.251000X-0.275000X0.200000X-0.275000X-0.200000X0.275000X-0.200000X0.275000X0.200000X0*%
%ADD35RoundRect,0.301000X0.450000X-0.262500X0.450000X0.262500X-0.450000X0.262500X-0.450000X-0.262500X0*%
%ADD36RoundRect,0.201000X-0.825000X-0.150000X0.825000X-0.150000X0.825000X0.150000X-0.825000X0.150000X0*%
%ADD37RoundRect,0.301000X-0.650000X-2.450000X0.650000X-2.450000X0.650000X2.450000X-0.650000X2.450000X0*%
%ADD38RoundRect,0.301000X-0.450000X0.262500X-0.450000X-0.262500X0.450000X-0.262500X0.450000X0.262500X0*%
%ADD39RoundRect,0.201000X-0.675000X-0.150000X0.675000X-0.150000X0.675000X0.150000X-0.675000X0.150000X0*%
%ADD40RoundRect,0.301000X-0.250000X-0.475000X0.250000X-0.475000X0.250000X0.475000X-0.250000X0.475000X0*%
%ADD41RoundRect,0.251000X0.200000X0.275000X-0.200000X0.275000X-0.200000X-0.275000X0.200000X-0.275000X0*%
%ADD42RoundRect,0.051000X0.600000X-0.450000X0.600000X0.450000X-0.600000X0.450000X-0.600000X-0.450000X0*%
%ADD43RoundRect,0.186000X-0.135000X-0.185000X0.135000X-0.185000X0.135000X0.185000X-0.135000X0.185000X0*%
%ADD44RoundRect,0.051000X-0.800000X-0.800000X0.800000X-0.800000X0.800000X0.800000X-0.800000X0.800000X0*%
%ADD45C,8.702000*%
%ADD46RoundRect,0.051000X-1.450000X-2.700000X1.450000X-2.700000X1.450000X2.700000X-1.450000X2.700000X0*%
%ADD47RoundRect,0.301000X-0.262500X-0.450000X0.262500X-0.450000X0.262500X0.450000X-0.262500X0.450000X0*%
%ADD48RoundRect,0.186000X0.135000X0.185000X-0.135000X0.185000X-0.135000X-0.185000X0.135000X-0.185000X0*%
%ADD49RoundRect,0.301000X0.250000X0.475000X-0.250000X0.475000X-0.250000X-0.475000X0.250000X-0.475000X0*%
%ADD50RoundRect,0.301000X-1.450000X0.312500X-1.450000X-0.312500X1.450000X-0.312500X1.450000X0.312500X0*%
%ADD51RoundRect,0.301000X1.025000X-0.787500X1.025000X0.787500X-1.025000X0.787500X-1.025000X-0.787500X0*%
%ADD52RoundRect,0.051000X1.250000X0.900000X-1.250000X0.900000X-1.250000X-0.900000X1.250000X-0.900000X0*%
%ADD53RoundRect,0.051000X-0.600000X0.450000X-0.600000X-0.450000X0.600000X-0.450000X0.600000X0.450000X0*%
%ADD54RoundRect,0.300998X-3.650002X-4.550002X3.650002X-4.550002X3.650002X4.550002X-3.650002X4.550002X0*%
%ADD55RoundRect,0.051000X2.300000X0.550000X-2.300000X0.550000X-2.300000X-0.550000X2.300000X-0.550000X0*%
%ADD56RoundRect,0.051000X4.700000X5.400000X-4.700000X5.400000X-4.700000X-5.400000X4.700000X-5.400000X0*%
%ADD57C,0.103000*%
%ADD58RoundRect,0.051000X-0.350000X-0.750000X0.350000X-0.750000X0.350000X0.750000X-0.350000X0.750000X0*%
%ADD59RoundRect,0.051000X0.500000X-0.400000X0.500000X0.400000X-0.500000X0.400000X-0.500000X-0.400000X0*%
%ADD60RoundRect,0.201000X-0.587500X-0.150000X0.587500X-0.150000X0.587500X0.150000X-0.587500X0.150000X0*%
%ADD61RoundRect,0.051000X-0.850000X-0.850000X0.850000X-0.850000X0.850000X0.850000X-0.850000X0.850000X0*%
%ADD62RoundRect,0.201000X0.675000X0.150000X-0.675000X0.150000X-0.675000X-0.150000X0.675000X-0.150000X0*%
%ADD63RoundRect,0.251000X0.275000X-0.200000X0.275000X0.200000X-0.275000X0.200000X-0.275000X-0.200000X0*%
%ADD64RoundRect,0.301000X1.450000X-0.312500X1.450000X0.312500X-1.450000X0.312500X-1.450000X-0.312500X0*%
G04 APERTURE END LIST*
D10*
X92140000Y-143860000D03*
X89600000Y-143860000D03*
X87060000Y-143860000D03*
X84520000Y-143860000D03*
X81980000Y-143860000D03*
X79440000Y-143860000D03*
X76900000Y-143860000D03*
X74360000Y-143860000D03*
X74360000Y-131160000D03*
X76900000Y-131160000D03*
X79440000Y-131160000D03*
X81980000Y-131160000D03*
X84520000Y-131160000D03*
X87060000Y-131160000D03*
X89600000Y-131160000D03*
D11*
X92140000Y-131160000D03*
D12*
X67787500Y-158380000D03*
X65247500Y-158380000D03*
X67787500Y-155840000D03*
X65247500Y-155840000D03*
X67787500Y-153300000D03*
X65247500Y-153300000D03*
X67787500Y-150760000D03*
X65247500Y-150760000D03*
X67787500Y-148220000D03*
X65247500Y-148220000D03*
X67787500Y-145680000D03*
X65247500Y-145680000D03*
X67787500Y-143140000D03*
X65247500Y-143140000D03*
X67787500Y-140600000D03*
X65247500Y-140600000D03*
X67787500Y-138060000D03*
X65247500Y-138060000D03*
X67787500Y-135520000D03*
X65247500Y-135520000D03*
X67787500Y-132980000D03*
X65247500Y-132980000D03*
X67787500Y-130440000D03*
X65247500Y-130440000D03*
X67787500Y-127900000D03*
X65247500Y-127900000D03*
X67787500Y-125360000D03*
X65247500Y-125360000D03*
X67787500Y-122820000D03*
X65247500Y-122820000D03*
X67787500Y-120280000D03*
X65247500Y-120280000D03*
X67787500Y-117740000D03*
X65247500Y-117740000D03*
X67787500Y-115200000D03*
X65247500Y-115200000D03*
X67787500Y-112660000D03*
X65247500Y-112660000D03*
X67787500Y-110120000D03*
D13*
X65247500Y-110120000D03*
D14*
X57687500Y-123500000D03*
X55812500Y-123500000D03*
D15*
X76250000Y-160600000D03*
X76250000Y-162500000D03*
D16*
X77550000Y-78720000D03*
X77550000Y-81000000D03*
X77550000Y-83280000D03*
D17*
X83850000Y-81000000D03*
D18*
X81475000Y-149850000D03*
D19*
X84015000Y-149850000D03*
X86555000Y-149850000D03*
D20*
X77800000Y-109600000D03*
X81100000Y-109600000D03*
D21*
X90238750Y-126645000D03*
X90238750Y-127665000D03*
D22*
X132120000Y-146975000D03*
D23*
X132120000Y-144435000D03*
X132120000Y-141895000D03*
X132120000Y-139355000D03*
X132120000Y-136815000D03*
X132120000Y-134275000D03*
X132120000Y-131735000D03*
X132120000Y-129195000D03*
X132120000Y-126655000D03*
X132120000Y-124115000D03*
X132120000Y-121575000D03*
X132120000Y-119035000D03*
X132120000Y-116495000D03*
X132120000Y-113955000D03*
X132120000Y-111415000D03*
X132120000Y-108875000D03*
X132120000Y-106335000D03*
X132120000Y-103795000D03*
X132120000Y-101255000D03*
X132120000Y-98715000D03*
X132120000Y-96175000D03*
X132120000Y-93635000D03*
X132120000Y-91095000D03*
X132120000Y-88555000D03*
X116880000Y-88555000D03*
X116880000Y-91095000D03*
X116880000Y-93635000D03*
X116880000Y-96175000D03*
X116880000Y-98715000D03*
X116880000Y-101255000D03*
X116880000Y-103795000D03*
X116880000Y-106335000D03*
X116880000Y-108875000D03*
X116880000Y-111415000D03*
X116880000Y-113955000D03*
X116880000Y-116495000D03*
X116880000Y-119035000D03*
X116880000Y-121575000D03*
X116880000Y-124115000D03*
X116880000Y-126655000D03*
X116880000Y-129195000D03*
X116880000Y-131735000D03*
X116880000Y-134275000D03*
X116880000Y-136815000D03*
X116880000Y-139355000D03*
X116880000Y-141895000D03*
X116880000Y-144435000D03*
X116880000Y-146975000D03*
X129580000Y-101255000D03*
X127040000Y-101255000D03*
X124500000Y-101255000D03*
X121960000Y-101255000D03*
X119420000Y-101255000D03*
D24*
X88213750Y-118760000D03*
X88213750Y-117490000D03*
X88213750Y-116220000D03*
X88213750Y-114950000D03*
X83263750Y-114950000D03*
X83263750Y-116220000D03*
X83263750Y-117490000D03*
X83263750Y-118760000D03*
D25*
X51000000Y-140200000D03*
X51000000Y-138300000D03*
D18*
X73920000Y-153600000D03*
D19*
X76460000Y-153600000D03*
D26*
X54162500Y-123500000D03*
X52337500Y-123500000D03*
D27*
X52645000Y-90250000D03*
D28*
X52645000Y-95330000D03*
D29*
X75801250Y-118300000D03*
X77676250Y-118300000D03*
D30*
X108462500Y-104925000D03*
X108462500Y-105575000D03*
X108462500Y-106225000D03*
X108462500Y-106875000D03*
X108462500Y-107525000D03*
X108462500Y-108175000D03*
X108462500Y-108825000D03*
X108462500Y-109475000D03*
X102737500Y-109475000D03*
X102737500Y-108825000D03*
X102737500Y-108175000D03*
X102737500Y-107525000D03*
X102737500Y-106875000D03*
X102737500Y-106225000D03*
X102737500Y-105575000D03*
X102737500Y-104925000D03*
D31*
X81650000Y-138200000D03*
X79550000Y-138200000D03*
D25*
X102250000Y-151950000D03*
X102250000Y-150050000D03*
D14*
X57687500Y-106250000D03*
X55812500Y-106250000D03*
D32*
X49500000Y-118760000D03*
X49500000Y-117740000D03*
D33*
X143900000Y-149550000D03*
D19*
X143900000Y-147010000D03*
X143900000Y-144470000D03*
X143900000Y-141930000D03*
X143900000Y-139390000D03*
X143900000Y-136850000D03*
D34*
X104250000Y-150175000D03*
X104250000Y-151825000D03*
D26*
X80901250Y-116155000D03*
X79076250Y-116155000D03*
D35*
X110500000Y-172075000D03*
X110500000Y-170250000D03*
D36*
X117725000Y-162690000D03*
X117725000Y-163960000D03*
X117725000Y-165230000D03*
X117725000Y-166500000D03*
X117725000Y-167770000D03*
X117725000Y-169040000D03*
X117725000Y-170310000D03*
X112775000Y-170310000D03*
X112775000Y-169040000D03*
X112775000Y-167770000D03*
X112775000Y-166500000D03*
X112775000Y-165230000D03*
X112775000Y-163960000D03*
X112775000Y-162690000D03*
D32*
X90238750Y-125165000D03*
X90238750Y-124145000D03*
D26*
X79326250Y-126525000D03*
X81151250Y-126525000D03*
D37*
X64550000Y-80500000D03*
X59450000Y-80500000D03*
D38*
X120000000Y-163087500D03*
X120000000Y-164912500D03*
X127250000Y-153837500D03*
X127250000Y-155662500D03*
D35*
X60250000Y-157062500D03*
X60250000Y-155237500D03*
D39*
X52125000Y-108095000D03*
X52125000Y-109365000D03*
X52125000Y-110635000D03*
X52125000Y-111905000D03*
X57375000Y-111905000D03*
X57375000Y-110635000D03*
X57375000Y-109365000D03*
X57375000Y-108095000D03*
D40*
X58750000Y-131000000D03*
X60650000Y-131000000D03*
D15*
X83400000Y-136250000D03*
X83400000Y-138150000D03*
D41*
X120050000Y-80500000D03*
X118400000Y-80500000D03*
D40*
X72550000Y-162550000D03*
X74450000Y-162550000D03*
D18*
X73915000Y-157350000D03*
D19*
X76455000Y-157350000D03*
D42*
X59750000Y-109150000D03*
X59750000Y-105850000D03*
D32*
X49500000Y-109010000D03*
X49500000Y-107990000D03*
X91238750Y-118665000D03*
X91238750Y-117645000D03*
D21*
X90238750Y-117645000D03*
X90238750Y-118665000D03*
D32*
X91000000Y-102010000D03*
X91000000Y-100990000D03*
D38*
X122000000Y-168337500D03*
X122000000Y-170162500D03*
D43*
X79978750Y-119655000D03*
X80998750Y-119655000D03*
D36*
X80775000Y-164255000D03*
X80775000Y-165525000D03*
X80775000Y-166795000D03*
X80775000Y-168065000D03*
X80775000Y-169335000D03*
X80775000Y-170605000D03*
X80775000Y-171875000D03*
X80775000Y-173145000D03*
X85725000Y-173145000D03*
X85725000Y-171875000D03*
X85725000Y-170605000D03*
X85725000Y-169335000D03*
X85725000Y-168065000D03*
X85725000Y-166795000D03*
X85725000Y-165525000D03*
X85725000Y-164255000D03*
D26*
X54162500Y-116000000D03*
X52337500Y-116000000D03*
D32*
X91000000Y-108000000D03*
X91000000Y-106980000D03*
D44*
X91750000Y-149950000D03*
D10*
X91750000Y-152490000D03*
X91750000Y-155030000D03*
X91750000Y-157570000D03*
X99370000Y-157570000D03*
X99370000Y-155030000D03*
X99370000Y-152490000D03*
X99370000Y-149950000D03*
D32*
X91238750Y-125165000D03*
X91238750Y-124145000D03*
X90200000Y-115910000D03*
X90200000Y-114890000D03*
D14*
X57687500Y-113750000D03*
X55812500Y-113750000D03*
D32*
X78975000Y-149860000D03*
X78975000Y-148840000D03*
D29*
X75801250Y-124405000D03*
X77676250Y-124405000D03*
D26*
X74412500Y-160550000D03*
X72587500Y-160550000D03*
D32*
X91000000Y-104760000D03*
X91000000Y-103740000D03*
D33*
X56000000Y-135500000D03*
D19*
X56000000Y-132960000D03*
X56000000Y-130420000D03*
D32*
X91200000Y-115910000D03*
X91200000Y-114890000D03*
D45*
X53000000Y-171250000D03*
D46*
X89742500Y-91500000D03*
X79842500Y-91500000D03*
D47*
X132087500Y-80700000D03*
X133912500Y-80700000D03*
D48*
X60550000Y-152800000D03*
X59530000Y-152800000D03*
D21*
X50500000Y-111590000D03*
X50500000Y-112610000D03*
D25*
X82688750Y-122355000D03*
X82688750Y-120455000D03*
D42*
X59750000Y-118900000D03*
X59750000Y-115600000D03*
D20*
X77800000Y-103100000D03*
X81100000Y-103100000D03*
D26*
X81512500Y-136200000D03*
X79687500Y-136200000D03*
D44*
X91650000Y-161700000D03*
D10*
X91650000Y-164240000D03*
X91650000Y-166780000D03*
X91650000Y-169320000D03*
X99270000Y-169320000D03*
X99270000Y-166780000D03*
X99270000Y-164240000D03*
X99270000Y-161700000D03*
D49*
X127450000Y-157500000D03*
X125550000Y-157500000D03*
D21*
X49500000Y-111590000D03*
X49500000Y-112610000D03*
D31*
X58300000Y-152600000D03*
X56200000Y-152600000D03*
D50*
X144000000Y-88862500D03*
X144000000Y-93137500D03*
D35*
X120000000Y-170162500D03*
X120000000Y-168337500D03*
D21*
X50500000Y-117730000D03*
X50500000Y-118750000D03*
D40*
X111150000Y-151600000D03*
X113050000Y-151600000D03*
D24*
X83263750Y-127960000D03*
X83263750Y-126690000D03*
X83263750Y-125420000D03*
X83263750Y-124150000D03*
X88213750Y-124150000D03*
X88213750Y-125420000D03*
X88213750Y-126690000D03*
X88213750Y-127960000D03*
D18*
X81365000Y-153600000D03*
D19*
X83905000Y-153600000D03*
X86445000Y-153600000D03*
D51*
X68705000Y-78887500D03*
X68705000Y-85112500D03*
D21*
X50500000Y-107980000D03*
X50500000Y-109000000D03*
D29*
X75551250Y-116155000D03*
X77426250Y-116155000D03*
D52*
X64000000Y-85500000D03*
X60000000Y-85500000D03*
D35*
X56500000Y-142112500D03*
X56500000Y-140287500D03*
D49*
X59450000Y-158900000D03*
X57550000Y-158900000D03*
D47*
X58837500Y-163000000D03*
X60662500Y-163000000D03*
D45*
X142000000Y-82250000D03*
D35*
X108250000Y-165162500D03*
X108250000Y-163337500D03*
D38*
X125200000Y-159425000D03*
X125200000Y-161250000D03*
D25*
X84888750Y-122405000D03*
X84888750Y-120505000D03*
D21*
X90000000Y-109480000D03*
X90000000Y-110500000D03*
D53*
X59750000Y-120600000D03*
X59750000Y-123900000D03*
D43*
X79728750Y-114655000D03*
X80748750Y-114655000D03*
D32*
X90000000Y-102010000D03*
X90000000Y-100990000D03*
D38*
X110250000Y-163337500D03*
X110250000Y-165162500D03*
D15*
X88288750Y-120505000D03*
X88288750Y-122405000D03*
D25*
X69400000Y-165150000D03*
X69400000Y-167050000D03*
D26*
X54162500Y-113750000D03*
X52337500Y-113750000D03*
D35*
X122000000Y-164912500D03*
X122000000Y-163087500D03*
D15*
X77600000Y-136250000D03*
X77600000Y-138150000D03*
D26*
X79326250Y-124405000D03*
X81151250Y-124405000D03*
D25*
X74705000Y-80250000D03*
X74705000Y-78350000D03*
D15*
X102000000Y-165450000D03*
X102000000Y-163550000D03*
D54*
X96292500Y-86000000D03*
X108792500Y-86000000D03*
D15*
X58200000Y-155150000D03*
X58200000Y-157050000D03*
D32*
X91238750Y-127665000D03*
X91238750Y-126645000D03*
X75400000Y-138510000D03*
X75400000Y-137490000D03*
D49*
X117450000Y-151600000D03*
X115550000Y-151600000D03*
D35*
X60200000Y-150662500D03*
X60200000Y-148837500D03*
D49*
X119950000Y-82400000D03*
X118050000Y-82400000D03*
D20*
X77800000Y-106500000D03*
X81100000Y-106500000D03*
D38*
X141000000Y-113087500D03*
X141000000Y-114912500D03*
D40*
X102877500Y-103350000D03*
X104777500Y-103350000D03*
D25*
X57000000Y-162950000D03*
X57000000Y-161050000D03*
D55*
X73275000Y-96650000D03*
X73275000Y-94950000D03*
X73275000Y-93250000D03*
X73275000Y-91550000D03*
X73275000Y-89850000D03*
D56*
X64125000Y-93250000D03*
D57*
X127500000Y-82400000D03*
X124500000Y-82400000D03*
D58*
X123750000Y-80650000D03*
X126750000Y-80650000D03*
X128250000Y-80650000D03*
D59*
X122350000Y-81350000D03*
X122350000Y-83450000D03*
X129650000Y-83450000D03*
X129650000Y-81350000D03*
D38*
X108500000Y-170250000D03*
X108500000Y-172075000D03*
D34*
X104000000Y-159925000D03*
X104000000Y-161575000D03*
D60*
X51925000Y-150650000D03*
X51925000Y-152550000D03*
X53800000Y-151600000D03*
D40*
X65500000Y-165100000D03*
X67400000Y-165100000D03*
D61*
X144000000Y-95925000D03*
D19*
X144000000Y-98465000D03*
X144000000Y-101005000D03*
X144000000Y-103545000D03*
X144000000Y-106085000D03*
D49*
X60700000Y-161000000D03*
X58800000Y-161000000D03*
D18*
X73950000Y-149850000D03*
D19*
X76490000Y-149850000D03*
D35*
X127200000Y-161250000D03*
X127200000Y-159425000D03*
D29*
X75801250Y-126525000D03*
X77676250Y-126525000D03*
D15*
X139000000Y-109550000D03*
X139000000Y-111450000D03*
D26*
X67312500Y-167100000D03*
X65487500Y-167100000D03*
D62*
X88325000Y-104705000D03*
X88325000Y-103435000D03*
X88325000Y-102165000D03*
X88325000Y-100895000D03*
X83075000Y-100895000D03*
X83075000Y-102165000D03*
X83075000Y-103435000D03*
X83075000Y-104705000D03*
D14*
X57687500Y-116000000D03*
X55812500Y-116000000D03*
D62*
X88325000Y-110555000D03*
X88325000Y-109285000D03*
X88325000Y-108015000D03*
X88325000Y-106745000D03*
X83075000Y-106745000D03*
X83075000Y-108015000D03*
X83075000Y-109285000D03*
X83075000Y-110555000D03*
D47*
X58687500Y-133000000D03*
X60512500Y-133000000D03*
D21*
X78945000Y-153590000D03*
X78945000Y-154610000D03*
D61*
X144000000Y-110960000D03*
D19*
X144000000Y-113500000D03*
X144000000Y-116040000D03*
X144000000Y-118580000D03*
D21*
X50500000Y-120490000D03*
X50500000Y-121510000D03*
D32*
X90000000Y-108010000D03*
X90000000Y-106990000D03*
D25*
X72455000Y-80250000D03*
X72455000Y-78350000D03*
D43*
X80228750Y-128025000D03*
X81248750Y-128025000D03*
D21*
X49500000Y-121510000D03*
X49500000Y-120490000D03*
D25*
X102000000Y-161900000D03*
X102000000Y-160000000D03*
D45*
X53000000Y-82250000D03*
D20*
X77800000Y-100500000D03*
X81100000Y-100500000D03*
D15*
X90488750Y-120505000D03*
X90488750Y-122405000D03*
D63*
X104000000Y-165575000D03*
X104000000Y-163925000D03*
D30*
X102810000Y-114695000D03*
X102810000Y-115345000D03*
X102810000Y-115995000D03*
X102810000Y-116645000D03*
X102810000Y-117295000D03*
X102810000Y-117945000D03*
X102810000Y-118595000D03*
X102810000Y-119245000D03*
X108535000Y-119245000D03*
X108535000Y-118595000D03*
X108535000Y-117945000D03*
X108535000Y-117295000D03*
X108535000Y-116645000D03*
X108535000Y-115995000D03*
X108535000Y-115345000D03*
X108535000Y-114695000D03*
D36*
X129525000Y-153440000D03*
X129525000Y-154710000D03*
X129525000Y-155980000D03*
X129525000Y-157250000D03*
X129525000Y-158520000D03*
X129525000Y-159790000D03*
X129525000Y-161060000D03*
X134475000Y-161060000D03*
X134475000Y-159790000D03*
X134475000Y-158520000D03*
X134475000Y-157250000D03*
X134475000Y-155980000D03*
X134475000Y-154710000D03*
X134475000Y-153440000D03*
D61*
X52025000Y-130525000D03*
D19*
X52025000Y-133065000D03*
X52025000Y-135605000D03*
D26*
X54162500Y-106250000D03*
X52337500Y-106250000D03*
D18*
X81400000Y-157350000D03*
D19*
X83940000Y-157350000D03*
X86480000Y-157350000D03*
D47*
X60687500Y-165000000D03*
X62512500Y-165000000D03*
D25*
X139000000Y-115000000D03*
X139000000Y-113100000D03*
D30*
X111037500Y-153225000D03*
X111037500Y-153875000D03*
X111037500Y-154525000D03*
X111037500Y-155175000D03*
X111037500Y-155825000D03*
X111037500Y-156475000D03*
X111037500Y-157125000D03*
X111037500Y-157775000D03*
X116762500Y-157775000D03*
X116762500Y-157125000D03*
X116762500Y-156475000D03*
X116762500Y-155825000D03*
X116762500Y-155175000D03*
X116762500Y-154525000D03*
X116762500Y-153875000D03*
X116762500Y-153225000D03*
D38*
X56200000Y-155187500D03*
X56200000Y-157012500D03*
D25*
X53250000Y-140250000D03*
X53250000Y-138350000D03*
D49*
X108277500Y-103350000D03*
X106377500Y-103350000D03*
D45*
X142000000Y-171250000D03*
D35*
X125250000Y-155612500D03*
X125250000Y-153787500D03*
D33*
X94488750Y-123780000D03*
D19*
X94488750Y-121240000D03*
X94488750Y-118700000D03*
D21*
X78940000Y-156590000D03*
X78940000Y-157610000D03*
D32*
X91000000Y-110510000D03*
X91000000Y-109490000D03*
D38*
X141000000Y-109587500D03*
X141000000Y-111412500D03*
D53*
X59750000Y-110600000D03*
X59750000Y-113900000D03*
D49*
X108350000Y-113100000D03*
X106450000Y-113100000D03*
D64*
X95500000Y-100387500D03*
X95500000Y-96112500D03*
D60*
X51862500Y-143050000D03*
X51862500Y-144950000D03*
X53737500Y-144000000D03*
D39*
X52125000Y-117845000D03*
X52125000Y-119115000D03*
X52125000Y-120385000D03*
X52125000Y-121655000D03*
X57375000Y-121655000D03*
X57375000Y-120385000D03*
X57375000Y-119115000D03*
X57375000Y-117845000D03*
D35*
X75400000Y-136112500D03*
X75400000Y-134287500D03*
D60*
X51862500Y-146850000D03*
X51862500Y-148750000D03*
X53737500Y-147800000D03*
D43*
X79978750Y-122905000D03*
X80998750Y-122905000D03*
D15*
X59000000Y-140250000D03*
X59000000Y-142150000D03*
D61*
X143900000Y-122925000D03*
D19*
X143900000Y-125465000D03*
X143900000Y-128005000D03*
X143900000Y-130545000D03*
X143900000Y-133085000D03*
D49*
X110450000Y-168000000D03*
X108550000Y-168000000D03*
D21*
X90000000Y-103740000D03*
X90000000Y-104760000D03*
D40*
X102950000Y-113100000D03*
X104850000Y-113100000D03*
D26*
X81051250Y-118155000D03*
X79226250Y-118155000D03*
G36*
X111752587Y-157352477D02*
G01*
X111752126Y-157353891D01*
X111712803Y-157400944D01*
X111704170Y-157469660D01*
X111734133Y-157532289D01*
X111742803Y-157539800D01*
X111743457Y-157541690D01*
X111742147Y-157543202D01*
X111740382Y-157542975D01*
X111732006Y-157537379D01*
X111674801Y-157526000D01*
X110400199Y-157526000D01*
X110342994Y-157537379D01*
X110325520Y-157549055D01*
X110323524Y-157549186D01*
X110322413Y-157547523D01*
X110322874Y-157546109D01*
X110362197Y-157499056D01*
X110370830Y-157430340D01*
X110340867Y-157367711D01*
X110332197Y-157360200D01*
X110331543Y-157358310D01*
X110332853Y-157356798D01*
X110334618Y-157357025D01*
X110342994Y-157362621D01*
X110400199Y-157374000D01*
X111674801Y-157374000D01*
X111732006Y-157362621D01*
X111749480Y-157350945D01*
X111751476Y-157350814D01*
X111752587Y-157352477D01*
G37*
G36*
X117477587Y-157352477D02*
G01*
X117477126Y-157353891D01*
X117437803Y-157400944D01*
X117429170Y-157469660D01*
X117459133Y-157532289D01*
X117467803Y-157539800D01*
X117468457Y-157541690D01*
X117467147Y-157543202D01*
X117465382Y-157542975D01*
X117457006Y-157537379D01*
X117399801Y-157526000D01*
X116125199Y-157526000D01*
X116067994Y-157537379D01*
X116050520Y-157549055D01*
X116048524Y-157549186D01*
X116047413Y-157547523D01*
X116047874Y-157546109D01*
X116087197Y-157499056D01*
X116095830Y-157430340D01*
X116065867Y-157367711D01*
X116057197Y-157360200D01*
X116056543Y-157358310D01*
X116057853Y-157356798D01*
X116059618Y-157357025D01*
X116067994Y-157362621D01*
X116125199Y-157374000D01*
X117399801Y-157374000D01*
X117457006Y-157362621D01*
X117474480Y-157350945D01*
X117476476Y-157350814D01*
X117477587Y-157352477D01*
G37*
G36*
X111752587Y-156702477D02*
G01*
X111752126Y-156703891D01*
X111712803Y-156750944D01*
X111704170Y-156819660D01*
X111734133Y-156882289D01*
X111742803Y-156889800D01*
X111743457Y-156891690D01*
X111742147Y-156893202D01*
X111740382Y-156892975D01*
X111732006Y-156887379D01*
X111674801Y-156876000D01*
X110400199Y-156876000D01*
X110342994Y-156887379D01*
X110325520Y-156899055D01*
X110323524Y-156899186D01*
X110322413Y-156897523D01*
X110322874Y-156896109D01*
X110362197Y-156849056D01*
X110370830Y-156780340D01*
X110340867Y-156717711D01*
X110332197Y-156710200D01*
X110331543Y-156708310D01*
X110332853Y-156706798D01*
X110334618Y-156707025D01*
X110342994Y-156712621D01*
X110400199Y-156724000D01*
X111674801Y-156724000D01*
X111732006Y-156712621D01*
X111749480Y-156700945D01*
X111751476Y-156700814D01*
X111752587Y-156702477D01*
G37*
G36*
X117477587Y-156702477D02*
G01*
X117477126Y-156703891D01*
X117437803Y-156750944D01*
X117429170Y-156819660D01*
X117459133Y-156882289D01*
X117467803Y-156889800D01*
X117468457Y-156891690D01*
X117467147Y-156893202D01*
X117465382Y-156892975D01*
X117457006Y-156887379D01*
X117399801Y-156876000D01*
X116125199Y-156876000D01*
X116067994Y-156887379D01*
X116050520Y-156899055D01*
X116048524Y-156899186D01*
X116047413Y-156897523D01*
X116047874Y-156896109D01*
X116087197Y-156849056D01*
X116095830Y-156780340D01*
X116065867Y-156717711D01*
X116057197Y-156710200D01*
X116056543Y-156708310D01*
X116057853Y-156706798D01*
X116059618Y-156707025D01*
X116067994Y-156712621D01*
X116125199Y-156724000D01*
X117399801Y-156724000D01*
X117457006Y-156712621D01*
X117474480Y-156700945D01*
X117476476Y-156700814D01*
X117477587Y-156702477D01*
G37*
G36*
X117477587Y-156052477D02*
G01*
X117477126Y-156053891D01*
X117437803Y-156100944D01*
X117429170Y-156169660D01*
X117459133Y-156232289D01*
X117467803Y-156239800D01*
X117468457Y-156241690D01*
X117467147Y-156243202D01*
X117465382Y-156242975D01*
X117457006Y-156237379D01*
X117399801Y-156226000D01*
X116125199Y-156226000D01*
X116067994Y-156237379D01*
X116050520Y-156249055D01*
X116048524Y-156249186D01*
X116047413Y-156247523D01*
X116047874Y-156246109D01*
X116087197Y-156199056D01*
X116095830Y-156130340D01*
X116065867Y-156067711D01*
X116057197Y-156060200D01*
X116056543Y-156058310D01*
X116057853Y-156056798D01*
X116059618Y-156057025D01*
X116067994Y-156062621D01*
X116125199Y-156074000D01*
X117399801Y-156074000D01*
X117457006Y-156062621D01*
X117474480Y-156050945D01*
X117476476Y-156050814D01*
X117477587Y-156052477D01*
G37*
G36*
X111752587Y-156052477D02*
G01*
X111752126Y-156053891D01*
X111712803Y-156100944D01*
X111704170Y-156169660D01*
X111734133Y-156232289D01*
X111742803Y-156239800D01*
X111743457Y-156241690D01*
X111742147Y-156243202D01*
X111740382Y-156242975D01*
X111732006Y-156237379D01*
X111674801Y-156226000D01*
X110400199Y-156226000D01*
X110342994Y-156237379D01*
X110325520Y-156249055D01*
X110323524Y-156249186D01*
X110322413Y-156247523D01*
X110322874Y-156246109D01*
X110362197Y-156199056D01*
X110370830Y-156130340D01*
X110340867Y-156067711D01*
X110332197Y-156060200D01*
X110331543Y-156058310D01*
X110332853Y-156056798D01*
X110334618Y-156057025D01*
X110342994Y-156062621D01*
X110400199Y-156074000D01*
X111674801Y-156074000D01*
X111732006Y-156062621D01*
X111749480Y-156050945D01*
X111751476Y-156050814D01*
X111752587Y-156052477D01*
G37*
G36*
X111752587Y-155402477D02*
G01*
X111752126Y-155403891D01*
X111712803Y-155450944D01*
X111704170Y-155519660D01*
X111734133Y-155582289D01*
X111742803Y-155589800D01*
X111743457Y-155591690D01*
X111742147Y-155593202D01*
X111740382Y-155592975D01*
X111732006Y-155587379D01*
X111674801Y-155576000D01*
X110400199Y-155576000D01*
X110342994Y-155587379D01*
X110325520Y-155599055D01*
X110323524Y-155599186D01*
X110322413Y-155597523D01*
X110322874Y-155596109D01*
X110362197Y-155549056D01*
X110370830Y-155480340D01*
X110340867Y-155417711D01*
X110332197Y-155410200D01*
X110331543Y-155408310D01*
X110332853Y-155406798D01*
X110334618Y-155407025D01*
X110342994Y-155412621D01*
X110400199Y-155424000D01*
X111674801Y-155424000D01*
X111732006Y-155412621D01*
X111749480Y-155400945D01*
X111751476Y-155400814D01*
X111752587Y-155402477D01*
G37*
G36*
X117477587Y-155402477D02*
G01*
X117477126Y-155403891D01*
X117437803Y-155450944D01*
X117429170Y-155519660D01*
X117459133Y-155582289D01*
X117467803Y-155589800D01*
X117468457Y-155591690D01*
X117467147Y-155593202D01*
X117465382Y-155592975D01*
X117457006Y-155587379D01*
X117399801Y-155576000D01*
X116125199Y-155576000D01*
X116067994Y-155587379D01*
X116050520Y-155599055D01*
X116048524Y-155599186D01*
X116047413Y-155597523D01*
X116047874Y-155596109D01*
X116087197Y-155549056D01*
X116095830Y-155480340D01*
X116065867Y-155417711D01*
X116057197Y-155410200D01*
X116056543Y-155408310D01*
X116057853Y-155406798D01*
X116059618Y-155407025D01*
X116067994Y-155412621D01*
X116125199Y-155424000D01*
X117399801Y-155424000D01*
X117457006Y-155412621D01*
X117474480Y-155400945D01*
X117476476Y-155400814D01*
X117477587Y-155402477D01*
G37*
G36*
X111752587Y-154752477D02*
G01*
X111752126Y-154753891D01*
X111712803Y-154800944D01*
X111704170Y-154869660D01*
X111734133Y-154932289D01*
X111742803Y-154939800D01*
X111743457Y-154941690D01*
X111742147Y-154943202D01*
X111740382Y-154942975D01*
X111732006Y-154937379D01*
X111674801Y-154926000D01*
X110400199Y-154926000D01*
X110342994Y-154937379D01*
X110325520Y-154949055D01*
X110323524Y-154949186D01*
X110322413Y-154947523D01*
X110322874Y-154946109D01*
X110362197Y-154899056D01*
X110370830Y-154830340D01*
X110340867Y-154767711D01*
X110332197Y-154760200D01*
X110331543Y-154758310D01*
X110332853Y-154756798D01*
X110334618Y-154757025D01*
X110342994Y-154762621D01*
X110400199Y-154774000D01*
X111674801Y-154774000D01*
X111732006Y-154762621D01*
X111749480Y-154750945D01*
X111751476Y-154750814D01*
X111752587Y-154752477D01*
G37*
G36*
X117477587Y-154752477D02*
G01*
X117477126Y-154753891D01*
X117437803Y-154800944D01*
X117429170Y-154869660D01*
X117459133Y-154932289D01*
X117467803Y-154939800D01*
X117468457Y-154941690D01*
X117467147Y-154943202D01*
X117465382Y-154942975D01*
X117457006Y-154937379D01*
X117399801Y-154926000D01*
X116125199Y-154926000D01*
X116067994Y-154937379D01*
X116050520Y-154949055D01*
X116048524Y-154949186D01*
X116047413Y-154947523D01*
X116047874Y-154946109D01*
X116087197Y-154899056D01*
X116095830Y-154830340D01*
X116065867Y-154767711D01*
X116057197Y-154760200D01*
X116056543Y-154758310D01*
X116057853Y-154756798D01*
X116059618Y-154757025D01*
X116067994Y-154762621D01*
X116125199Y-154774000D01*
X117399801Y-154774000D01*
X117457006Y-154762621D01*
X117474480Y-154750945D01*
X117476476Y-154750814D01*
X117477587Y-154752477D01*
G37*
G36*
X111752587Y-154102477D02*
G01*
X111752126Y-154103891D01*
X111712803Y-154150944D01*
X111704170Y-154219660D01*
X111734133Y-154282289D01*
X111742803Y-154289800D01*
X111743457Y-154291690D01*
X111742147Y-154293202D01*
X111740382Y-154292975D01*
X111732006Y-154287379D01*
X111674801Y-154276000D01*
X110400199Y-154276000D01*
X110342994Y-154287379D01*
X110325520Y-154299055D01*
X110323524Y-154299186D01*
X110322413Y-154297523D01*
X110322874Y-154296109D01*
X110362197Y-154249056D01*
X110370830Y-154180340D01*
X110340867Y-154117711D01*
X110332197Y-154110200D01*
X110331543Y-154108310D01*
X110332853Y-154106798D01*
X110334618Y-154107025D01*
X110342994Y-154112621D01*
X110400199Y-154124000D01*
X111674801Y-154124000D01*
X111732006Y-154112621D01*
X111749480Y-154100945D01*
X111751476Y-154100814D01*
X111752587Y-154102477D01*
G37*
G36*
X117477587Y-154102477D02*
G01*
X117477126Y-154103891D01*
X117437803Y-154150944D01*
X117429170Y-154219660D01*
X117459133Y-154282289D01*
X117467803Y-154289800D01*
X117468457Y-154291690D01*
X117467147Y-154293202D01*
X117465382Y-154292975D01*
X117457006Y-154287379D01*
X117399801Y-154276000D01*
X116125199Y-154276000D01*
X116067994Y-154287379D01*
X116050520Y-154299055D01*
X116048524Y-154299186D01*
X116047413Y-154297523D01*
X116047874Y-154296109D01*
X116087197Y-154249056D01*
X116095830Y-154180340D01*
X116065867Y-154117711D01*
X116057197Y-154110200D01*
X116056543Y-154108310D01*
X116057853Y-154106798D01*
X116059618Y-154107025D01*
X116067994Y-154112621D01*
X116125199Y-154124000D01*
X117399801Y-154124000D01*
X117457006Y-154112621D01*
X117474480Y-154100945D01*
X117476476Y-154100814D01*
X117477587Y-154102477D01*
G37*
G36*
X111752587Y-153452477D02*
G01*
X111752126Y-153453891D01*
X111712803Y-153500944D01*
X111704170Y-153569660D01*
X111734133Y-153632289D01*
X111742803Y-153639800D01*
X111743457Y-153641690D01*
X111742147Y-153643202D01*
X111740382Y-153642975D01*
X111732006Y-153637379D01*
X111674801Y-153626000D01*
X110400199Y-153626000D01*
X110342994Y-153637379D01*
X110325520Y-153649055D01*
X110323524Y-153649186D01*
X110322413Y-153647523D01*
X110322874Y-153646109D01*
X110362197Y-153599056D01*
X110370830Y-153530340D01*
X110340867Y-153467711D01*
X110332197Y-153460200D01*
X110331543Y-153458310D01*
X110332853Y-153456798D01*
X110334618Y-153457025D01*
X110342994Y-153462621D01*
X110400199Y-153474000D01*
X111674801Y-153474000D01*
X111732006Y-153462621D01*
X111749480Y-153450945D01*
X111751476Y-153450814D01*
X111752587Y-153452477D01*
G37*
G36*
X117477587Y-153452477D02*
G01*
X117477126Y-153453891D01*
X117437803Y-153500944D01*
X117429170Y-153569660D01*
X117459133Y-153632289D01*
X117467803Y-153639800D01*
X117468457Y-153641690D01*
X117467147Y-153643202D01*
X117465382Y-153642975D01*
X117457006Y-153637379D01*
X117399801Y-153626000D01*
X116125199Y-153626000D01*
X116067994Y-153637379D01*
X116050520Y-153649055D01*
X116048524Y-153649186D01*
X116047413Y-153647523D01*
X116047874Y-153646109D01*
X116087197Y-153599056D01*
X116095830Y-153530340D01*
X116065867Y-153467711D01*
X116057197Y-153460200D01*
X116056543Y-153458310D01*
X116057853Y-153456798D01*
X116059618Y-153457025D01*
X116067994Y-153462621D01*
X116125199Y-153474000D01*
X117399801Y-153474000D01*
X117457006Y-153462621D01*
X117474480Y-153450945D01*
X117476476Y-153450814D01*
X117477587Y-153452477D01*
G37*
G36*
X109250087Y-118822477D02*
G01*
X109249626Y-118823891D01*
X109210303Y-118870944D01*
X109201670Y-118939660D01*
X109231633Y-119002289D01*
X109240303Y-119009800D01*
X109240957Y-119011690D01*
X109239647Y-119013202D01*
X109237882Y-119012975D01*
X109229506Y-119007379D01*
X109172301Y-118996000D01*
X107897699Y-118996000D01*
X107840494Y-119007379D01*
X107823020Y-119019055D01*
X107821024Y-119019186D01*
X107819913Y-119017523D01*
X107820374Y-119016109D01*
X107859697Y-118969056D01*
X107868330Y-118900340D01*
X107838367Y-118837711D01*
X107829697Y-118830200D01*
X107829043Y-118828310D01*
X107830353Y-118826798D01*
X107832118Y-118827025D01*
X107840494Y-118832621D01*
X107897699Y-118844000D01*
X109172301Y-118844000D01*
X109229506Y-118832621D01*
X109246980Y-118820945D01*
X109248976Y-118820814D01*
X109250087Y-118822477D01*
G37*
G36*
X103525087Y-118822477D02*
G01*
X103524626Y-118823891D01*
X103485303Y-118870944D01*
X103476670Y-118939660D01*
X103506633Y-119002289D01*
X103515303Y-119009800D01*
X103515957Y-119011690D01*
X103514647Y-119013202D01*
X103512882Y-119012975D01*
X103504506Y-119007379D01*
X103447301Y-118996000D01*
X102172699Y-118996000D01*
X102115494Y-119007379D01*
X102098020Y-119019055D01*
X102096024Y-119019186D01*
X102094913Y-119017523D01*
X102095374Y-119016109D01*
X102134697Y-118969056D01*
X102143330Y-118900340D01*
X102113367Y-118837711D01*
X102104697Y-118830200D01*
X102104043Y-118828310D01*
X102105353Y-118826798D01*
X102107118Y-118827025D01*
X102115494Y-118832621D01*
X102172699Y-118844000D01*
X103447301Y-118844000D01*
X103504506Y-118832621D01*
X103521980Y-118820945D01*
X103523976Y-118820814D01*
X103525087Y-118822477D01*
G37*
G36*
X103525087Y-118172477D02*
G01*
X103524626Y-118173891D01*
X103485303Y-118220944D01*
X103476670Y-118289660D01*
X103506633Y-118352289D01*
X103515303Y-118359800D01*
X103515957Y-118361690D01*
X103514647Y-118363202D01*
X103512882Y-118362975D01*
X103504506Y-118357379D01*
X103447301Y-118346000D01*
X102172699Y-118346000D01*
X102115494Y-118357379D01*
X102098020Y-118369055D01*
X102096024Y-118369186D01*
X102094913Y-118367523D01*
X102095374Y-118366109D01*
X102134697Y-118319056D01*
X102143330Y-118250340D01*
X102113367Y-118187711D01*
X102104697Y-118180200D01*
X102104043Y-118178310D01*
X102105353Y-118176798D01*
X102107118Y-118177025D01*
X102115494Y-118182621D01*
X102172699Y-118194000D01*
X103447301Y-118194000D01*
X103504506Y-118182621D01*
X103521980Y-118170945D01*
X103523976Y-118170814D01*
X103525087Y-118172477D01*
G37*
G36*
X109250087Y-118172477D02*
G01*
X109249626Y-118173891D01*
X109210303Y-118220944D01*
X109201670Y-118289660D01*
X109231633Y-118352289D01*
X109240303Y-118359800D01*
X109240957Y-118361690D01*
X109239647Y-118363202D01*
X109237882Y-118362975D01*
X109229506Y-118357379D01*
X109172301Y-118346000D01*
X107897699Y-118346000D01*
X107840494Y-118357379D01*
X107823020Y-118369055D01*
X107821024Y-118369186D01*
X107819913Y-118367523D01*
X107820374Y-118366109D01*
X107859697Y-118319056D01*
X107868330Y-118250340D01*
X107838367Y-118187711D01*
X107829697Y-118180200D01*
X107829043Y-118178310D01*
X107830353Y-118176798D01*
X107832118Y-118177025D01*
X107840494Y-118182621D01*
X107897699Y-118194000D01*
X109172301Y-118194000D01*
X109229506Y-118182621D01*
X109246980Y-118170945D01*
X109248976Y-118170814D01*
X109250087Y-118172477D01*
G37*
G36*
X109250087Y-117522477D02*
G01*
X109249626Y-117523891D01*
X109210303Y-117570944D01*
X109201670Y-117639660D01*
X109231633Y-117702289D01*
X109240303Y-117709800D01*
X109240957Y-117711690D01*
X109239647Y-117713202D01*
X109237882Y-117712975D01*
X109229506Y-117707379D01*
X109172301Y-117696000D01*
X107897699Y-117696000D01*
X107840494Y-117707379D01*
X107823020Y-117719055D01*
X107821024Y-117719186D01*
X107819913Y-117717523D01*
X107820374Y-117716109D01*
X107859697Y-117669056D01*
X107868330Y-117600340D01*
X107838367Y-117537711D01*
X107829697Y-117530200D01*
X107829043Y-117528310D01*
X107830353Y-117526798D01*
X107832118Y-117527025D01*
X107840494Y-117532621D01*
X107897699Y-117544000D01*
X109172301Y-117544000D01*
X109229506Y-117532621D01*
X109246980Y-117520945D01*
X109248976Y-117520814D01*
X109250087Y-117522477D01*
G37*
G36*
X103525087Y-117522477D02*
G01*
X103524626Y-117523891D01*
X103485303Y-117570944D01*
X103476670Y-117639660D01*
X103506633Y-117702289D01*
X103515303Y-117709800D01*
X103515957Y-117711690D01*
X103514647Y-117713202D01*
X103512882Y-117712975D01*
X103504506Y-117707379D01*
X103447301Y-117696000D01*
X102172699Y-117696000D01*
X102115494Y-117707379D01*
X102098020Y-117719055D01*
X102096024Y-117719186D01*
X102094913Y-117717523D01*
X102095374Y-117716109D01*
X102134697Y-117669056D01*
X102143330Y-117600340D01*
X102113367Y-117537711D01*
X102104697Y-117530200D01*
X102104043Y-117528310D01*
X102105353Y-117526798D01*
X102107118Y-117527025D01*
X102115494Y-117532621D01*
X102172699Y-117544000D01*
X103447301Y-117544000D01*
X103504506Y-117532621D01*
X103521980Y-117520945D01*
X103523976Y-117520814D01*
X103525087Y-117522477D01*
G37*
G36*
X109250087Y-116872477D02*
G01*
X109249626Y-116873891D01*
X109210303Y-116920944D01*
X109201670Y-116989660D01*
X109231633Y-117052289D01*
X109240303Y-117059800D01*
X109240957Y-117061690D01*
X109239647Y-117063202D01*
X109237882Y-117062975D01*
X109229506Y-117057379D01*
X109172301Y-117046000D01*
X107897699Y-117046000D01*
X107840494Y-117057379D01*
X107823020Y-117069055D01*
X107821024Y-117069186D01*
X107819913Y-117067523D01*
X107820374Y-117066109D01*
X107859697Y-117019056D01*
X107868330Y-116950340D01*
X107838367Y-116887711D01*
X107829697Y-116880200D01*
X107829043Y-116878310D01*
X107830353Y-116876798D01*
X107832118Y-116877025D01*
X107840494Y-116882621D01*
X107897699Y-116894000D01*
X109172301Y-116894000D01*
X109229506Y-116882621D01*
X109246980Y-116870945D01*
X109248976Y-116870814D01*
X109250087Y-116872477D01*
G37*
G36*
X103525087Y-116872477D02*
G01*
X103524626Y-116873891D01*
X103485303Y-116920944D01*
X103476670Y-116989660D01*
X103506633Y-117052289D01*
X103515303Y-117059800D01*
X103515957Y-117061690D01*
X103514647Y-117063202D01*
X103512882Y-117062975D01*
X103504506Y-117057379D01*
X103447301Y-117046000D01*
X102172699Y-117046000D01*
X102115494Y-117057379D01*
X102098020Y-117069055D01*
X102096024Y-117069186D01*
X102094913Y-117067523D01*
X102095374Y-117066109D01*
X102134697Y-117019056D01*
X102143330Y-116950340D01*
X102113367Y-116887711D01*
X102104697Y-116880200D01*
X102104043Y-116878310D01*
X102105353Y-116876798D01*
X102107118Y-116877025D01*
X102115494Y-116882621D01*
X102172699Y-116894000D01*
X103447301Y-116894000D01*
X103504506Y-116882621D01*
X103521980Y-116870945D01*
X103523976Y-116870814D01*
X103525087Y-116872477D01*
G37*
G36*
X103525087Y-116222477D02*
G01*
X103524626Y-116223891D01*
X103485303Y-116270944D01*
X103476670Y-116339660D01*
X103506633Y-116402289D01*
X103515303Y-116409800D01*
X103515957Y-116411690D01*
X103514647Y-116413202D01*
X103512882Y-116412975D01*
X103504506Y-116407379D01*
X103447301Y-116396000D01*
X102172699Y-116396000D01*
X102115494Y-116407379D01*
X102098020Y-116419055D01*
X102096024Y-116419186D01*
X102094913Y-116417523D01*
X102095374Y-116416109D01*
X102134697Y-116369056D01*
X102143330Y-116300340D01*
X102113367Y-116237711D01*
X102104697Y-116230200D01*
X102104043Y-116228310D01*
X102105353Y-116226798D01*
X102107118Y-116227025D01*
X102115494Y-116232621D01*
X102172699Y-116244000D01*
X103447301Y-116244000D01*
X103504506Y-116232621D01*
X103521980Y-116220945D01*
X103523976Y-116220814D01*
X103525087Y-116222477D01*
G37*
G36*
X109250087Y-116222477D02*
G01*
X109249626Y-116223891D01*
X109210303Y-116270944D01*
X109201670Y-116339660D01*
X109231633Y-116402289D01*
X109240303Y-116409800D01*
X109240957Y-116411690D01*
X109239647Y-116413202D01*
X109237882Y-116412975D01*
X109229506Y-116407379D01*
X109172301Y-116396000D01*
X107897699Y-116396000D01*
X107840494Y-116407379D01*
X107823020Y-116419055D01*
X107821024Y-116419186D01*
X107819913Y-116417523D01*
X107820374Y-116416109D01*
X107859697Y-116369056D01*
X107868330Y-116300340D01*
X107838367Y-116237711D01*
X107829697Y-116230200D01*
X107829043Y-116228310D01*
X107830353Y-116226798D01*
X107832118Y-116227025D01*
X107840494Y-116232621D01*
X107897699Y-116244000D01*
X109172301Y-116244000D01*
X109229506Y-116232621D01*
X109246980Y-116220945D01*
X109248976Y-116220814D01*
X109250087Y-116222477D01*
G37*
G36*
X109250087Y-115572477D02*
G01*
X109249626Y-115573891D01*
X109210303Y-115620944D01*
X109201670Y-115689660D01*
X109231633Y-115752289D01*
X109240303Y-115759800D01*
X109240957Y-115761690D01*
X109239647Y-115763202D01*
X109237882Y-115762975D01*
X109229506Y-115757379D01*
X109172301Y-115746000D01*
X107897699Y-115746000D01*
X107840494Y-115757379D01*
X107823020Y-115769055D01*
X107821024Y-115769186D01*
X107819913Y-115767523D01*
X107820374Y-115766109D01*
X107859697Y-115719056D01*
X107868330Y-115650340D01*
X107838367Y-115587711D01*
X107829697Y-115580200D01*
X107829043Y-115578310D01*
X107830353Y-115576798D01*
X107832118Y-115577025D01*
X107840494Y-115582621D01*
X107897699Y-115594000D01*
X109172301Y-115594000D01*
X109229506Y-115582621D01*
X109246980Y-115570945D01*
X109248976Y-115570814D01*
X109250087Y-115572477D01*
G37*
G36*
X103525087Y-115572477D02*
G01*
X103524626Y-115573891D01*
X103485303Y-115620944D01*
X103476670Y-115689660D01*
X103506633Y-115752289D01*
X103515303Y-115759800D01*
X103515957Y-115761690D01*
X103514647Y-115763202D01*
X103512882Y-115762975D01*
X103504506Y-115757379D01*
X103447301Y-115746000D01*
X102172699Y-115746000D01*
X102115494Y-115757379D01*
X102098020Y-115769055D01*
X102096024Y-115769186D01*
X102094913Y-115767523D01*
X102095374Y-115766109D01*
X102134697Y-115719056D01*
X102143330Y-115650340D01*
X102113367Y-115587711D01*
X102104697Y-115580200D01*
X102104043Y-115578310D01*
X102105353Y-115576798D01*
X102107118Y-115577025D01*
X102115494Y-115582621D01*
X102172699Y-115594000D01*
X103447301Y-115594000D01*
X103504506Y-115582621D01*
X103521980Y-115570945D01*
X103523976Y-115570814D01*
X103525087Y-115572477D01*
G37*
G36*
X103525087Y-114922477D02*
G01*
X103524626Y-114923891D01*
X103485303Y-114970944D01*
X103476670Y-115039660D01*
X103506633Y-115102289D01*
X103515303Y-115109800D01*
X103515957Y-115111690D01*
X103514647Y-115113202D01*
X103512882Y-115112975D01*
X103504506Y-115107379D01*
X103447301Y-115096000D01*
X102172699Y-115096000D01*
X102115494Y-115107379D01*
X102098020Y-115119055D01*
X102096024Y-115119186D01*
X102094913Y-115117523D01*
X102095374Y-115116109D01*
X102134697Y-115069056D01*
X102143330Y-115000340D01*
X102113367Y-114937711D01*
X102104697Y-114930200D01*
X102104043Y-114928310D01*
X102105353Y-114926798D01*
X102107118Y-114927025D01*
X102115494Y-114932621D01*
X102172699Y-114944000D01*
X103447301Y-114944000D01*
X103504506Y-114932621D01*
X103521980Y-114920945D01*
X103523976Y-114920814D01*
X103525087Y-114922477D01*
G37*
G36*
X109250087Y-114922477D02*
G01*
X109249626Y-114923891D01*
X109210303Y-114970944D01*
X109201670Y-115039660D01*
X109231633Y-115102289D01*
X109240303Y-115109800D01*
X109240957Y-115111690D01*
X109239647Y-115113202D01*
X109237882Y-115112975D01*
X109229506Y-115107379D01*
X109172301Y-115096000D01*
X107897699Y-115096000D01*
X107840494Y-115107379D01*
X107823020Y-115119055D01*
X107821024Y-115119186D01*
X107819913Y-115117523D01*
X107820374Y-115116109D01*
X107859697Y-115069056D01*
X107868330Y-115000340D01*
X107838367Y-114937711D01*
X107829697Y-114930200D01*
X107829043Y-114928310D01*
X107830353Y-114926798D01*
X107832118Y-114927025D01*
X107840494Y-114932621D01*
X107897699Y-114944000D01*
X109172301Y-114944000D01*
X109229506Y-114932621D01*
X109246980Y-114920945D01*
X109248976Y-114920814D01*
X109250087Y-114922477D01*
G37*
G36*
X103452587Y-109052477D02*
G01*
X103452126Y-109053891D01*
X103412803Y-109100944D01*
X103404170Y-109169660D01*
X103434133Y-109232289D01*
X103442803Y-109239800D01*
X103443457Y-109241690D01*
X103442147Y-109243202D01*
X103440382Y-109242975D01*
X103432006Y-109237379D01*
X103374801Y-109226000D01*
X102100199Y-109226000D01*
X102042994Y-109237379D01*
X102025520Y-109249055D01*
X102023524Y-109249186D01*
X102022413Y-109247523D01*
X102022874Y-109246109D01*
X102062197Y-109199056D01*
X102070830Y-109130340D01*
X102040867Y-109067711D01*
X102032197Y-109060200D01*
X102031543Y-109058310D01*
X102032853Y-109056798D01*
X102034618Y-109057025D01*
X102042994Y-109062621D01*
X102100199Y-109074000D01*
X103374801Y-109074000D01*
X103432006Y-109062621D01*
X103449480Y-109050945D01*
X103451476Y-109050814D01*
X103452587Y-109052477D01*
G37*
G36*
X109177587Y-109052477D02*
G01*
X109177126Y-109053891D01*
X109137803Y-109100944D01*
X109129170Y-109169660D01*
X109159133Y-109232289D01*
X109167803Y-109239800D01*
X109168457Y-109241690D01*
X109167147Y-109243202D01*
X109165382Y-109242975D01*
X109157006Y-109237379D01*
X109099801Y-109226000D01*
X107825199Y-109226000D01*
X107767994Y-109237379D01*
X107750520Y-109249055D01*
X107748524Y-109249186D01*
X107747413Y-109247523D01*
X107747874Y-109246109D01*
X107787197Y-109199056D01*
X107795830Y-109130340D01*
X107765867Y-109067711D01*
X107757197Y-109060200D01*
X107756543Y-109058310D01*
X107757853Y-109056798D01*
X107759618Y-109057025D01*
X107767994Y-109062621D01*
X107825199Y-109074000D01*
X109099801Y-109074000D01*
X109157006Y-109062621D01*
X109174480Y-109050945D01*
X109176476Y-109050814D01*
X109177587Y-109052477D01*
G37*
G36*
X103452587Y-108402477D02*
G01*
X103452126Y-108403891D01*
X103412803Y-108450944D01*
X103404170Y-108519660D01*
X103434133Y-108582289D01*
X103442803Y-108589800D01*
X103443457Y-108591690D01*
X103442147Y-108593202D01*
X103440382Y-108592975D01*
X103432006Y-108587379D01*
X103374801Y-108576000D01*
X102100199Y-108576000D01*
X102042994Y-108587379D01*
X102025520Y-108599055D01*
X102023524Y-108599186D01*
X102022413Y-108597523D01*
X102022874Y-108596109D01*
X102062197Y-108549056D01*
X102070830Y-108480340D01*
X102040867Y-108417711D01*
X102032197Y-108410200D01*
X102031543Y-108408310D01*
X102032853Y-108406798D01*
X102034618Y-108407025D01*
X102042994Y-108412621D01*
X102100199Y-108424000D01*
X103374801Y-108424000D01*
X103432006Y-108412621D01*
X103449480Y-108400945D01*
X103451476Y-108400814D01*
X103452587Y-108402477D01*
G37*
G36*
X109177587Y-108402477D02*
G01*
X109177126Y-108403891D01*
X109137803Y-108450944D01*
X109129170Y-108519660D01*
X109159133Y-108582289D01*
X109167803Y-108589800D01*
X109168457Y-108591690D01*
X109167147Y-108593202D01*
X109165382Y-108592975D01*
X109157006Y-108587379D01*
X109099801Y-108576000D01*
X107825199Y-108576000D01*
X107767994Y-108587379D01*
X107750520Y-108599055D01*
X107748524Y-108599186D01*
X107747413Y-108597523D01*
X107747874Y-108596109D01*
X107787197Y-108549056D01*
X107795830Y-108480340D01*
X107765867Y-108417711D01*
X107757197Y-108410200D01*
X107756543Y-108408310D01*
X107757853Y-108406798D01*
X107759618Y-108407025D01*
X107767994Y-108412621D01*
X107825199Y-108424000D01*
X109099801Y-108424000D01*
X109157006Y-108412621D01*
X109174480Y-108400945D01*
X109176476Y-108400814D01*
X109177587Y-108402477D01*
G37*
G36*
X109177587Y-107752477D02*
G01*
X109177126Y-107753891D01*
X109137803Y-107800944D01*
X109129170Y-107869660D01*
X109159133Y-107932289D01*
X109167803Y-107939800D01*
X109168457Y-107941690D01*
X109167147Y-107943202D01*
X109165382Y-107942975D01*
X109157006Y-107937379D01*
X109099801Y-107926000D01*
X107825199Y-107926000D01*
X107767994Y-107937379D01*
X107750520Y-107949055D01*
X107748524Y-107949186D01*
X107747413Y-107947523D01*
X107747874Y-107946109D01*
X107787197Y-107899056D01*
X107795830Y-107830340D01*
X107765867Y-107767711D01*
X107757197Y-107760200D01*
X107756543Y-107758310D01*
X107757853Y-107756798D01*
X107759618Y-107757025D01*
X107767994Y-107762621D01*
X107825199Y-107774000D01*
X109099801Y-107774000D01*
X109157006Y-107762621D01*
X109174480Y-107750945D01*
X109176476Y-107750814D01*
X109177587Y-107752477D01*
G37*
G36*
X103452587Y-107752477D02*
G01*
X103452126Y-107753891D01*
X103412803Y-107800944D01*
X103404170Y-107869660D01*
X103434133Y-107932289D01*
X103442803Y-107939800D01*
X103443457Y-107941690D01*
X103442147Y-107943202D01*
X103440382Y-107942975D01*
X103432006Y-107937379D01*
X103374801Y-107926000D01*
X102100199Y-107926000D01*
X102042994Y-107937379D01*
X102025520Y-107949055D01*
X102023524Y-107949186D01*
X102022413Y-107947523D01*
X102022874Y-107946109D01*
X102062197Y-107899056D01*
X102070830Y-107830340D01*
X102040867Y-107767711D01*
X102032197Y-107760200D01*
X102031543Y-107758310D01*
X102032853Y-107756798D01*
X102034618Y-107757025D01*
X102042994Y-107762621D01*
X102100199Y-107774000D01*
X103374801Y-107774000D01*
X103432006Y-107762621D01*
X103449480Y-107750945D01*
X103451476Y-107750814D01*
X103452587Y-107752477D01*
G37*
G36*
X109177587Y-107102477D02*
G01*
X109177126Y-107103891D01*
X109137803Y-107150944D01*
X109129170Y-107219660D01*
X109159133Y-107282289D01*
X109167803Y-107289800D01*
X109168457Y-107291690D01*
X109167147Y-107293202D01*
X109165382Y-107292975D01*
X109157006Y-107287379D01*
X109099801Y-107276000D01*
X107825199Y-107276000D01*
X107767994Y-107287379D01*
X107750520Y-107299055D01*
X107748524Y-107299186D01*
X107747413Y-107297523D01*
X107747874Y-107296109D01*
X107787197Y-107249056D01*
X107795830Y-107180340D01*
X107765867Y-107117711D01*
X107757197Y-107110200D01*
X107756543Y-107108310D01*
X107757853Y-107106798D01*
X107759618Y-107107025D01*
X107767994Y-107112621D01*
X107825199Y-107124000D01*
X109099801Y-107124000D01*
X109157006Y-107112621D01*
X109174480Y-107100945D01*
X109176476Y-107100814D01*
X109177587Y-107102477D01*
G37*
G36*
X103452587Y-107102477D02*
G01*
X103452126Y-107103891D01*
X103412803Y-107150944D01*
X103404170Y-107219660D01*
X103434133Y-107282289D01*
X103442803Y-107289800D01*
X103443457Y-107291690D01*
X103442147Y-107293202D01*
X103440382Y-107292975D01*
X103432006Y-107287379D01*
X103374801Y-107276000D01*
X102100199Y-107276000D01*
X102042994Y-107287379D01*
X102025520Y-107299055D01*
X102023524Y-107299186D01*
X102022413Y-107297523D01*
X102022874Y-107296109D01*
X102062197Y-107249056D01*
X102070830Y-107180340D01*
X102040867Y-107117711D01*
X102032197Y-107110200D01*
X102031543Y-107108310D01*
X102032853Y-107106798D01*
X102034618Y-107107025D01*
X102042994Y-107112621D01*
X102100199Y-107124000D01*
X103374801Y-107124000D01*
X103432006Y-107112621D01*
X103449480Y-107100945D01*
X103451476Y-107100814D01*
X103452587Y-107102477D01*
G37*
G36*
X109177587Y-106452477D02*
G01*
X109177126Y-106453891D01*
X109137803Y-106500944D01*
X109129170Y-106569660D01*
X109159133Y-106632289D01*
X109167803Y-106639800D01*
X109168457Y-106641690D01*
X109167147Y-106643202D01*
X109165382Y-106642975D01*
X109157006Y-106637379D01*
X109099801Y-106626000D01*
X107825199Y-106626000D01*
X107767994Y-106637379D01*
X107750520Y-106649055D01*
X107748524Y-106649186D01*
X107747413Y-106647523D01*
X107747874Y-106646109D01*
X107787197Y-106599056D01*
X107795830Y-106530340D01*
X107765867Y-106467711D01*
X107757197Y-106460200D01*
X107756543Y-106458310D01*
X107757853Y-106456798D01*
X107759618Y-106457025D01*
X107767994Y-106462621D01*
X107825199Y-106474000D01*
X109099801Y-106474000D01*
X109157006Y-106462621D01*
X109174480Y-106450945D01*
X109176476Y-106450814D01*
X109177587Y-106452477D01*
G37*
G36*
X103452587Y-106452477D02*
G01*
X103452126Y-106453891D01*
X103412803Y-106500944D01*
X103404170Y-106569660D01*
X103434133Y-106632289D01*
X103442803Y-106639800D01*
X103443457Y-106641690D01*
X103442147Y-106643202D01*
X103440382Y-106642975D01*
X103432006Y-106637379D01*
X103374801Y-106626000D01*
X102100199Y-106626000D01*
X102042994Y-106637379D01*
X102025520Y-106649055D01*
X102023524Y-106649186D01*
X102022413Y-106647523D01*
X102022874Y-106646109D01*
X102062197Y-106599056D01*
X102070830Y-106530340D01*
X102040867Y-106467711D01*
X102032197Y-106460200D01*
X102031543Y-106458310D01*
X102032853Y-106456798D01*
X102034618Y-106457025D01*
X102042994Y-106462621D01*
X102100199Y-106474000D01*
X103374801Y-106474000D01*
X103432006Y-106462621D01*
X103449480Y-106450945D01*
X103451476Y-106450814D01*
X103452587Y-106452477D01*
G37*
G36*
X109177587Y-105802477D02*
G01*
X109177126Y-105803891D01*
X109137803Y-105850944D01*
X109129170Y-105919660D01*
X109159133Y-105982289D01*
X109167803Y-105989800D01*
X109168457Y-105991690D01*
X109167147Y-105993202D01*
X109165382Y-105992975D01*
X109157006Y-105987379D01*
X109099801Y-105976000D01*
X107825199Y-105976000D01*
X107767994Y-105987379D01*
X107750520Y-105999055D01*
X107748524Y-105999186D01*
X107747413Y-105997523D01*
X107747874Y-105996109D01*
X107787197Y-105949056D01*
X107795830Y-105880340D01*
X107765867Y-105817711D01*
X107757197Y-105810200D01*
X107756543Y-105808310D01*
X107757853Y-105806798D01*
X107759618Y-105807025D01*
X107767994Y-105812621D01*
X107825199Y-105824000D01*
X109099801Y-105824000D01*
X109157006Y-105812621D01*
X109174480Y-105800945D01*
X109176476Y-105800814D01*
X109177587Y-105802477D01*
G37*
G36*
X103452587Y-105802477D02*
G01*
X103452126Y-105803891D01*
X103412803Y-105850944D01*
X103404170Y-105919660D01*
X103434133Y-105982289D01*
X103442803Y-105989800D01*
X103443457Y-105991690D01*
X103442147Y-105993202D01*
X103440382Y-105992975D01*
X103432006Y-105987379D01*
X103374801Y-105976000D01*
X102100199Y-105976000D01*
X102042994Y-105987379D01*
X102025520Y-105999055D01*
X102023524Y-105999186D01*
X102022413Y-105997523D01*
X102022874Y-105996109D01*
X102062197Y-105949056D01*
X102070830Y-105880340D01*
X102040867Y-105817711D01*
X102032197Y-105810200D01*
X102031543Y-105808310D01*
X102032853Y-105806798D01*
X102034618Y-105807025D01*
X102042994Y-105812621D01*
X102100199Y-105824000D01*
X103374801Y-105824000D01*
X103432006Y-105812621D01*
X103449480Y-105800945D01*
X103451476Y-105800814D01*
X103452587Y-105802477D01*
G37*
G36*
X103452587Y-105152477D02*
G01*
X103452126Y-105153891D01*
X103412803Y-105200944D01*
X103404170Y-105269660D01*
X103434133Y-105332289D01*
X103442803Y-105339800D01*
X103443457Y-105341690D01*
X103442147Y-105343202D01*
X103440382Y-105342975D01*
X103432006Y-105337379D01*
X103374801Y-105326000D01*
X102100199Y-105326000D01*
X102042994Y-105337379D01*
X102025520Y-105349055D01*
X102023524Y-105349186D01*
X102022413Y-105347523D01*
X102022874Y-105346109D01*
X102062197Y-105299056D01*
X102070830Y-105230340D01*
X102040867Y-105167711D01*
X102032197Y-105160200D01*
X102031543Y-105158310D01*
X102032853Y-105156798D01*
X102034618Y-105157025D01*
X102042994Y-105162621D01*
X102100199Y-105174000D01*
X103374801Y-105174000D01*
X103432006Y-105162621D01*
X103449480Y-105150945D01*
X103451476Y-105150814D01*
X103452587Y-105152477D01*
G37*
G36*
X109177587Y-105152477D02*
G01*
X109177126Y-105153891D01*
X109137803Y-105200944D01*
X109129170Y-105269660D01*
X109159133Y-105332289D01*
X109167803Y-105339800D01*
X109168457Y-105341690D01*
X109167147Y-105343202D01*
X109165382Y-105342975D01*
X109157006Y-105337379D01*
X109099801Y-105326000D01*
X107825199Y-105326000D01*
X107767994Y-105337379D01*
X107750520Y-105349055D01*
X107748524Y-105349186D01*
X107747413Y-105347523D01*
X107747874Y-105346109D01*
X107787197Y-105299056D01*
X107795830Y-105230340D01*
X107765867Y-105167711D01*
X107757197Y-105160200D01*
X107756543Y-105158310D01*
X107757853Y-105156798D01*
X107759618Y-105157025D01*
X107767994Y-105162621D01*
X107825199Y-105174000D01*
X109099801Y-105174000D01*
X109157006Y-105162621D01*
X109174480Y-105150945D01*
X109176476Y-105150814D01*
X109177587Y-105152477D01*
G37*
M02*
