G04 #@! TF.GenerationSoftware,KiCad,Pcbnew,(6.0.10)*
G04 #@! TF.CreationDate,2023-01-06T16:52:41+01:00*
G04 #@! TF.ProjectId,perfectV2.1v0,70657266-6563-4745-9632-2e3176302e6b,5*
G04 #@! TF.SameCoordinates,Original*
G04 #@! TF.FileFunction,Copper,L4,Bot*
G04 #@! TF.FilePolarity,Positive*
%FSLAX46Y46*%
G04 Gerber Fmt 4.6, Leading zero omitted, Abs format (unit mm)*
G04 Created by KiCad (PCBNEW (6.0.10)) date 2023-01-06 16:52:41*
%MOMM*%
%LPD*%
G01*
G04 APERTURE LIST*
G04 Aperture macros list*
%AMRoundRect*
0 Rectangle with rounded corners*
0 $1 Rounding radius*
0 $2 $3 $4 $5 $6 $7 $8 $9 X,Y pos of 4 corners*
0 Add a 4 corners polygon primitive as box body*
4,1,4,$2,$3,$4,$5,$6,$7,$8,$9,$2,$3,0*
0 Add four circle primitives for the rounded corners*
1,1,$1+$1,$2,$3*
1,1,$1+$1,$4,$5*
1,1,$1+$1,$6,$7*
1,1,$1+$1,$8,$9*
0 Add four rect primitives between the rounded corners*
20,1,$1+$1,$2,$3,$4,$5,0*
20,1,$1+$1,$4,$5,$6,$7,0*
20,1,$1+$1,$6,$7,$8,$9,0*
20,1,$1+$1,$8,$9,$2,$3,0*%
G04 Aperture macros list end*
G04 #@! TA.AperFunction,ComponentPad*
%ADD10O,1.600000X1.600000*%
G04 #@! TD*
G04 #@! TA.AperFunction,ComponentPad*
%ADD11R,1.600000X1.600000*%
G04 #@! TD*
G04 #@! TA.AperFunction,ComponentPad*
%ADD12C,1.700000*%
G04 #@! TD*
G04 #@! TA.AperFunction,ComponentPad*
%ADD13RoundRect,0.250000X-0.600000X-0.600000X0.600000X-0.600000X0.600000X0.600000X-0.600000X0.600000X0*%
G04 #@! TD*
G04 #@! TA.AperFunction,ComponentPad*
%ADD14R,1.700000X1.700000*%
G04 #@! TD*
G04 #@! TA.AperFunction,ComponentPad*
%ADD15O,1.700000X1.700000*%
G04 #@! TD*
G04 #@! TA.AperFunction,ComponentPad*
%ADD16C,1.600000*%
G04 #@! TD*
G04 #@! TA.AperFunction,ComponentPad*
%ADD17R,2.600000X2.600000*%
G04 #@! TD*
G04 #@! TA.AperFunction,ComponentPad*
%ADD18C,2.600000*%
G04 #@! TD*
G04 #@! TA.AperFunction,ComponentPad*
%ADD19C,8.600000*%
G04 #@! TD*
G04 #@! TA.AperFunction,ViaPad*
%ADD20C,0.700000*%
G04 #@! TD*
G04 #@! TA.AperFunction,Conductor*
%ADD21C,0.300000*%
G04 #@! TD*
G04 #@! TA.AperFunction,Conductor*
%ADD22C,1.000000*%
G04 #@! TD*
G04 #@! TA.AperFunction,Conductor*
%ADD23C,0.500000*%
G04 #@! TD*
G04 #@! TA.AperFunction,Conductor*
%ADD24C,0.425000*%
G04 #@! TD*
G04 APERTURE END LIST*
D10*
X92140000Y-143860000D03*
X89600000Y-143860000D03*
X87060000Y-143860000D03*
X84520000Y-143860000D03*
X81980000Y-143860000D03*
X79440000Y-143860000D03*
X76900000Y-143860000D03*
X74360000Y-143860000D03*
X74360000Y-131160000D03*
X76900000Y-131160000D03*
X79440000Y-131160000D03*
X81980000Y-131160000D03*
X84520000Y-131160000D03*
X87060000Y-131160000D03*
X89600000Y-131160000D03*
D11*
X92140000Y-131160000D03*
D12*
X67787500Y-158380000D03*
X65247500Y-158380000D03*
X67787500Y-155840000D03*
X65247500Y-155840000D03*
X67787500Y-153300000D03*
X65247500Y-153300000D03*
X67787500Y-150760000D03*
X65247500Y-150760000D03*
X67787500Y-148220000D03*
X65247500Y-148220000D03*
X67787500Y-145680000D03*
X65247500Y-145680000D03*
X67787500Y-143140000D03*
X65247500Y-143140000D03*
X67787500Y-140600000D03*
X65247500Y-140600000D03*
X67787500Y-138060000D03*
X65247500Y-138060000D03*
X67787500Y-135520000D03*
X65247500Y-135520000D03*
X67787500Y-132980000D03*
X65247500Y-132980000D03*
X67787500Y-130440000D03*
X65247500Y-130440000D03*
X67787500Y-127900000D03*
X65247500Y-127900000D03*
X67787500Y-125360000D03*
X65247500Y-125360000D03*
X67787500Y-122820000D03*
X65247500Y-122820000D03*
X67787500Y-120280000D03*
X65247500Y-120280000D03*
X67787500Y-117740000D03*
X65247500Y-117740000D03*
X67787500Y-115200000D03*
X65247500Y-115200000D03*
X67787500Y-112660000D03*
X65247500Y-112660000D03*
X67787500Y-110120000D03*
D13*
X65247500Y-110120000D03*
D14*
X81475000Y-149850000D03*
D15*
X84015000Y-149850000D03*
X86555000Y-149850000D03*
D11*
X132120000Y-146975000D03*
D16*
X132120000Y-144435000D03*
X132120000Y-141895000D03*
X132120000Y-139355000D03*
X132120000Y-136815000D03*
X132120000Y-134275000D03*
X132120000Y-131735000D03*
X132120000Y-129195000D03*
X132120000Y-126655000D03*
X132120000Y-124115000D03*
X132120000Y-121575000D03*
X132120000Y-119035000D03*
X132120000Y-116495000D03*
X132120000Y-113955000D03*
X132120000Y-111415000D03*
X132120000Y-108875000D03*
X132120000Y-106335000D03*
X132120000Y-103795000D03*
X132120000Y-101255000D03*
X132120000Y-98715000D03*
X132120000Y-96175000D03*
X132120000Y-93635000D03*
X132120000Y-91095000D03*
X132120000Y-88555000D03*
X116880000Y-88555000D03*
X116880000Y-91095000D03*
X116880000Y-93635000D03*
X116880000Y-96175000D03*
X116880000Y-98715000D03*
X116880000Y-101255000D03*
X116880000Y-103795000D03*
X116880000Y-106335000D03*
X116880000Y-108875000D03*
X116880000Y-111415000D03*
X116880000Y-113955000D03*
X116880000Y-116495000D03*
X116880000Y-119035000D03*
X116880000Y-121575000D03*
X116880000Y-124115000D03*
X116880000Y-126655000D03*
X116880000Y-129195000D03*
X116880000Y-131735000D03*
X116880000Y-134275000D03*
X116880000Y-136815000D03*
X116880000Y-139355000D03*
X116880000Y-141895000D03*
X116880000Y-144435000D03*
X116880000Y-146975000D03*
X129580000Y-101255000D03*
X127040000Y-101255000D03*
X124500000Y-101255000D03*
X121960000Y-101255000D03*
X119420000Y-101255000D03*
D14*
X73920000Y-153600000D03*
D15*
X76460000Y-153600000D03*
D17*
X52645000Y-90250000D03*
D18*
X52645000Y-95330000D03*
D14*
X143900000Y-149550000D03*
D15*
X143900000Y-147010000D03*
X143900000Y-144470000D03*
X143900000Y-141930000D03*
X143900000Y-139390000D03*
X143900000Y-136850000D03*
D14*
X73915000Y-157350000D03*
D15*
X76455000Y-157350000D03*
D11*
X91750000Y-149950000D03*
D10*
X91750000Y-152490000D03*
X91750000Y-155030000D03*
X91750000Y-157570000D03*
X99370000Y-157570000D03*
X99370000Y-155030000D03*
X99370000Y-152490000D03*
X99370000Y-149950000D03*
D14*
X56000000Y-135500000D03*
D15*
X56000000Y-132960000D03*
X56000000Y-130420000D03*
D19*
X53000000Y-171250000D03*
D11*
X91650000Y-161700000D03*
D10*
X91650000Y-164240000D03*
X91650000Y-166780000D03*
X91650000Y-169320000D03*
X99270000Y-169320000D03*
X99270000Y-166780000D03*
X99270000Y-164240000D03*
X99270000Y-161700000D03*
D14*
X81365000Y-153600000D03*
D15*
X83905000Y-153600000D03*
X86445000Y-153600000D03*
D19*
X142000000Y-82250000D03*
D14*
X144000000Y-95925000D03*
D15*
X144000000Y-98465000D03*
X144000000Y-101005000D03*
X144000000Y-103545000D03*
X144000000Y-106085000D03*
D14*
X73950000Y-149850000D03*
D15*
X76490000Y-149850000D03*
D14*
X144000000Y-110960000D03*
D15*
X144000000Y-113500000D03*
X144000000Y-116040000D03*
X144000000Y-118580000D03*
D19*
X53000000Y-82250000D03*
D14*
X52025000Y-130525000D03*
D15*
X52025000Y-133065000D03*
X52025000Y-135605000D03*
D14*
X81400000Y-157350000D03*
D15*
X83940000Y-157350000D03*
X86480000Y-157350000D03*
D19*
X142000000Y-171250000D03*
D14*
X94488750Y-123780000D03*
D15*
X94488750Y-121240000D03*
X94488750Y-118700000D03*
D14*
X143900000Y-122925000D03*
D15*
X143900000Y-125465000D03*
X143900000Y-128005000D03*
X143900000Y-130545000D03*
X143900000Y-133085000D03*
D20*
X91000000Y-108700000D03*
X91200000Y-125900000D03*
X104300000Y-111250000D03*
X83000000Y-105900000D03*
X113250000Y-86750000D03*
X85100000Y-103650000D03*
X107500000Y-168000000D03*
X55500000Y-121600000D03*
X120000000Y-171500000D03*
X49500000Y-119600000D03*
X55500000Y-109350000D03*
X86700000Y-115700000D03*
X107100000Y-106500000D03*
X72200000Y-88700000D03*
X56200000Y-159500000D03*
X75900000Y-82900000D03*
X74400000Y-88700000D03*
X107400000Y-116600000D03*
X66000000Y-80800000D03*
X68500000Y-164100000D03*
X107250000Y-91500000D03*
X55100000Y-159500000D03*
X80100000Y-173900000D03*
X136300000Y-157250000D03*
X91000000Y-102900000D03*
X81200000Y-173900000D03*
X110000000Y-80500000D03*
X106250000Y-80500000D03*
X66000000Y-83000000D03*
X70400000Y-93800000D03*
X111000000Y-91500000D03*
X55500000Y-119100000D03*
X114350000Y-152000000D03*
X79400000Y-138900000D03*
X49500000Y-110750000D03*
X75400000Y-163700000D03*
X113250000Y-81750000D03*
X102250000Y-153000000D03*
X112250000Y-91500000D03*
X69700000Y-80500000D03*
X50500000Y-148800000D03*
X120000000Y-161750000D03*
X104250000Y-110450000D03*
X106000000Y-91500000D03*
X107500000Y-80500000D03*
X117000000Y-82500000D03*
X110500000Y-173662500D03*
X110250000Y-162250000D03*
X76000000Y-84300000D03*
X84000000Y-105900000D03*
X127250000Y-152500000D03*
X70600000Y-78300000D03*
X104750000Y-104450000D03*
X75900000Y-78800000D03*
X55500000Y-110550000D03*
X79300000Y-173200000D03*
X113250000Y-84250000D03*
X119500000Y-166500000D03*
X85050000Y-109450000D03*
X138000000Y-112250000D03*
X109750000Y-91500000D03*
X75838750Y-119700000D03*
X51000000Y-141300000D03*
X91200000Y-116800000D03*
X108500000Y-91500000D03*
X75900000Y-78000000D03*
X84600000Y-138200000D03*
X86700000Y-125400000D03*
X113250000Y-83000000D03*
X84000000Y-100000000D03*
X89400000Y-121050000D03*
X60300000Y-142200000D03*
X124250000Y-157500000D03*
X49500000Y-116900000D03*
X83800000Y-122950000D03*
X58700000Y-129700000D03*
X70400000Y-92900000D03*
X105600000Y-110450000D03*
X55100000Y-158400000D03*
X118500000Y-155000000D03*
X77600000Y-84500000D03*
X70600000Y-79500000D03*
X114300000Y-151150000D03*
X103250000Y-162750000D03*
X105600000Y-111300000D03*
X55500000Y-120300000D03*
X83800000Y-121850000D03*
X113250000Y-88000000D03*
X66000000Y-78500000D03*
X112500000Y-80500000D03*
X113250000Y-90500000D03*
X89400000Y-119950000D03*
X56200000Y-158400000D03*
X111250000Y-80500000D03*
X73600000Y-78900000D03*
X75900000Y-139100000D03*
X66000000Y-79700000D03*
X49500000Y-107000000D03*
X85100000Y-104400000D03*
X70900000Y-88700000D03*
X55500000Y-111850000D03*
X113250000Y-89250000D03*
X68000000Y-80500000D03*
X107400000Y-119250000D03*
X50600000Y-152600000D03*
X50500000Y-145000000D03*
X127200000Y-162575000D03*
X73200000Y-88700000D03*
X77400000Y-139100000D03*
X75500000Y-88700000D03*
X85050000Y-110200000D03*
X107400000Y-117950000D03*
X106400000Y-104450000D03*
X108750000Y-80500000D03*
X74638750Y-125455000D03*
X73600000Y-77800000D03*
X111000000Y-158750000D03*
X66000000Y-81900000D03*
X102800000Y-119850000D03*
X113250000Y-85500000D03*
X105550000Y-104450000D03*
X83000000Y-100000000D03*
X88500000Y-112750000D03*
X88500000Y-113750000D03*
X60750000Y-147750000D03*
X76000000Y-100000000D03*
X59500000Y-147750000D03*
X76000000Y-108000000D03*
X51000000Y-106250000D03*
X89500000Y-113750000D03*
X89500000Y-112750000D03*
X51000000Y-123500000D03*
X51000000Y-114750000D03*
X101500000Y-97250000D03*
X88750000Y-139250000D03*
X95250000Y-144000000D03*
X95500000Y-137000000D03*
X101500000Y-96000000D03*
X94000000Y-137000000D03*
X101500000Y-93750000D03*
X74200000Y-97800000D03*
X71400000Y-97800000D03*
X75500000Y-97800000D03*
X72800000Y-97800000D03*
X67900000Y-86700000D03*
X68900000Y-86700000D03*
X70000000Y-86700000D03*
X91750000Y-93250000D03*
X76300000Y-90700000D03*
X134000000Y-82000000D03*
X102500000Y-99900000D03*
X70400000Y-90900000D03*
X91750000Y-91500000D03*
X117250000Y-80500000D03*
X146000000Y-88000000D03*
X70400000Y-91700000D03*
X89250000Y-88250000D03*
X141750000Y-88750000D03*
X49750000Y-138750000D03*
X94750000Y-95000000D03*
X145000000Y-87750000D03*
X93250000Y-96000000D03*
X100750000Y-123000000D03*
X100750000Y-124500000D03*
X102000000Y-111100000D03*
X90000000Y-94750000D03*
X91750000Y-85750000D03*
X143000000Y-87750000D03*
X76300000Y-92300000D03*
X49750000Y-138000000D03*
X90250000Y-88250000D03*
X93500000Y-91500000D03*
X76300000Y-91500000D03*
X96500000Y-95000000D03*
X100750000Y-123750000D03*
X91750000Y-87000000D03*
X144000000Y-87750000D03*
X146250000Y-89000000D03*
X109750000Y-151500000D03*
X91750000Y-88250000D03*
X108350000Y-111900000D03*
X142000000Y-88000000D03*
X86000000Y-175250000D03*
X75000000Y-169000000D03*
X79050000Y-165500000D03*
X71250000Y-165500000D03*
X108200000Y-149250000D03*
X60250000Y-158100000D03*
X78925000Y-170675000D03*
X113000000Y-154500000D03*
X78700000Y-114600000D03*
X78700000Y-113800000D03*
X128500000Y-109125000D03*
X128250000Y-106250000D03*
X101900000Y-103500000D03*
X102000000Y-113100000D03*
X106600000Y-101700000D03*
X118500000Y-151600000D03*
X106600000Y-114700000D03*
X131000000Y-157250000D03*
X110500000Y-166500000D03*
X77915000Y-169335000D03*
X108750000Y-155750000D03*
X126000000Y-84250000D03*
X84500000Y-102600000D03*
X84500000Y-101700000D03*
X84400000Y-107600000D03*
X84400000Y-108400000D03*
X105500000Y-161750000D03*
X105250000Y-164250000D03*
X104250000Y-153000000D03*
X99000000Y-130250000D03*
X53250000Y-150500000D03*
X98250000Y-145000000D03*
X53250000Y-143000000D03*
X53250000Y-146750000D03*
X136000000Y-119500000D03*
X78000000Y-154500000D03*
X54750000Y-157250000D03*
X62500000Y-163500000D03*
X86250000Y-163250000D03*
X78000000Y-148750000D03*
X56500000Y-143250000D03*
X97000000Y-101500000D03*
X95750000Y-101500000D03*
X54750000Y-156250000D03*
X94750000Y-101500000D03*
X85000000Y-163250000D03*
X79000000Y-158500000D03*
X96250000Y-112000000D03*
X50500000Y-109750000D03*
X49500000Y-113600000D03*
X95500000Y-113000000D03*
X105085000Y-135665000D03*
X106215000Y-137965000D03*
X101735000Y-130585000D03*
X103650000Y-133150000D03*
X108250000Y-121250000D03*
X110000000Y-124750000D03*
X110500000Y-122750000D03*
X111675000Y-120425000D03*
X104500000Y-116000000D03*
X104500000Y-107500000D03*
X104500000Y-108750000D03*
X104500000Y-106250000D03*
X111250000Y-101000000D03*
X109700000Y-144700000D03*
X108500000Y-154000000D03*
X109500000Y-153061396D03*
X111700000Y-144700000D03*
X129525000Y-151975000D03*
X127250000Y-147250000D03*
X117750000Y-161500000D03*
X125750000Y-147250000D03*
X116000000Y-169027478D03*
X122500000Y-147200000D03*
X112775000Y-171750000D03*
X121250000Y-147250000D03*
X113750000Y-161000000D03*
X119750000Y-147150000D03*
X106000000Y-151250000D03*
X106000000Y-145750000D03*
X115100000Y-157100000D03*
X113000000Y-147000000D03*
X114250000Y-147000000D03*
X115100000Y-155800000D03*
X87250000Y-176000000D03*
X73000000Y-166750000D03*
X84550000Y-174550000D03*
X79500000Y-163000000D03*
D21*
X86500000Y-103400000D02*
X85750000Y-102650000D01*
X86500000Y-106200000D02*
X86500000Y-103400000D01*
X90300000Y-110000000D02*
X86500000Y-106200000D01*
X92500000Y-110000000D02*
X90300000Y-110000000D01*
X85750000Y-102650000D02*
X85750000Y-101250000D01*
X95500000Y-113000000D02*
X92500000Y-110000000D01*
X96250000Y-112000000D02*
X86750000Y-102500000D01*
D22*
X88500000Y-113750000D02*
X88500000Y-112750000D01*
X89500000Y-113750000D02*
X88500000Y-113750000D01*
X92550000Y-113750000D02*
X89500000Y-113750000D01*
X94488750Y-115688750D02*
X92550000Y-113750000D01*
X89500000Y-112750000D02*
X89500000Y-113750000D01*
X94488750Y-118700000D02*
X94488750Y-115688750D01*
X88500000Y-112750000D02*
X89500000Y-112750000D01*
D21*
X100000000Y-98750000D02*
X101500000Y-97250000D01*
X99000000Y-122750000D02*
X100000000Y-121750000D01*
X96000000Y-139250000D02*
X96500000Y-138750000D01*
X96500000Y-130000000D02*
X99000000Y-127500000D01*
X88750000Y-139250000D02*
X96000000Y-139250000D01*
X100000000Y-121750000D02*
X100000000Y-98750000D01*
X99000000Y-127500000D02*
X99000000Y-122750000D01*
X96500000Y-138750000D02*
X96500000Y-130000000D01*
X99000000Y-100500000D02*
X99000000Y-121250000D01*
X95250000Y-144000000D02*
X94750000Y-144000000D01*
X98000000Y-123250000D02*
X98000000Y-127000000D01*
X90750000Y-142710000D02*
X89600000Y-143860000D01*
X94750000Y-144000000D02*
X93460000Y-142710000D01*
X97000000Y-128000000D02*
X95500000Y-129500000D01*
X99000000Y-98500000D02*
X99000000Y-100500000D01*
X98000000Y-122250000D02*
X98000000Y-123250000D01*
X101500000Y-96000000D02*
X99000000Y-98500000D01*
X95500000Y-129500000D02*
X95500000Y-137000000D01*
X93460000Y-142710000D02*
X90750000Y-142710000D01*
X99000000Y-121250000D02*
X98250000Y-122000000D01*
X98000000Y-127000000D02*
X97000000Y-128000000D01*
X98250000Y-122000000D02*
X98000000Y-122250000D01*
X94000000Y-129750000D02*
X94000000Y-137000000D01*
X94500000Y-129250000D02*
X94000000Y-129750000D01*
X97000000Y-126750000D02*
X94500000Y-129250000D01*
X97000000Y-121750000D02*
X97000000Y-126750000D01*
X97250000Y-121500000D02*
X97000000Y-121750000D01*
X98250000Y-97000000D02*
X98250000Y-99750000D01*
X98250000Y-99750000D02*
X98250000Y-120500000D01*
X98250000Y-120500000D02*
X97250000Y-121500000D01*
X101500000Y-93750000D02*
X98250000Y-97000000D01*
D22*
X67900000Y-95700000D02*
X69200000Y-97000000D01*
X69200000Y-97000000D02*
X73100000Y-97000000D01*
X67900000Y-86700000D02*
X67900000Y-95700000D01*
D23*
X102000000Y-111100000D02*
X103200000Y-112300000D01*
X107950000Y-112300000D02*
X108350000Y-111900000D01*
X103200000Y-112300000D02*
X107950000Y-112300000D01*
D21*
X75000000Y-172000000D02*
X78250000Y-175250000D01*
X75000000Y-169000000D02*
X75000000Y-172000000D01*
X78250000Y-175250000D02*
X86000000Y-175250000D01*
X60250000Y-158100000D02*
X60250000Y-159350000D01*
X66400000Y-165500000D02*
X71250000Y-165500000D01*
X85700000Y-165500000D02*
X88250000Y-168050000D01*
X107100000Y-165000000D02*
X107100000Y-150350000D01*
X104050000Y-168050000D02*
X107100000Y-165000000D01*
X79050000Y-165500000D02*
X85700000Y-165500000D01*
X88250000Y-168050000D02*
X104050000Y-168050000D01*
X107100000Y-150350000D02*
X108200000Y-149250000D01*
X60250000Y-159350000D02*
X66400000Y-165500000D01*
X112500000Y-168500000D02*
X112500000Y-160500000D01*
X80250000Y-172000000D02*
X81500000Y-172000000D01*
X113000000Y-154500000D02*
X113000000Y-160000000D01*
X108000000Y-173000000D02*
X112500000Y-168500000D01*
X82500000Y-173000000D02*
X108000000Y-173000000D01*
X81500000Y-172000000D02*
X82500000Y-173000000D01*
X112500000Y-160500000D02*
X113000000Y-160000000D01*
X78925000Y-170675000D02*
X80250000Y-172000000D01*
D22*
X78700000Y-113800000D02*
X78700000Y-114600000D01*
X78700000Y-114600000D02*
X69400000Y-123900000D01*
X65247500Y-125360000D02*
X66510000Y-124097500D01*
D24*
X66510000Y-124097500D02*
X69202500Y-124097500D01*
X69202500Y-124097500D02*
X69400000Y-123900000D01*
D21*
X127375000Y-108875000D02*
X127625000Y-109125000D01*
X127625000Y-109125000D02*
X128500000Y-109125000D01*
X127375000Y-108875000D02*
X116880000Y-108875000D01*
X127165000Y-106335000D02*
X116880000Y-106335000D01*
X127165000Y-106335000D02*
X127250000Y-106250000D01*
X127250000Y-106250000D02*
X128250000Y-106250000D01*
D23*
X103600000Y-114700000D02*
X102000000Y-113100000D01*
X103700000Y-101700000D02*
X101900000Y-103500000D01*
X106600000Y-101700000D02*
X103700000Y-101700000D01*
X106600000Y-114700000D02*
X103600000Y-114700000D01*
D21*
X81335000Y-169335000D02*
X83200000Y-171200000D01*
X108750000Y-165050000D02*
X109250000Y-165550000D01*
X108750000Y-155750000D02*
X108750000Y-165050000D01*
X77915000Y-169335000D02*
X81335000Y-169335000D01*
X109250000Y-168450000D02*
X109250000Y-165550000D01*
X83200000Y-171200000D02*
X106500000Y-171200000D01*
X106500000Y-171200000D02*
X109250000Y-168450000D01*
X123500000Y-93500000D02*
X119420000Y-97580000D01*
X126000000Y-91000000D02*
X126000000Y-84250000D01*
X119420000Y-97580000D02*
X119420000Y-101255000D01*
X123500000Y-93500000D02*
X126000000Y-91000000D01*
X89700000Y-162290000D02*
X89700000Y-157000000D01*
X83265000Y-155500000D02*
X81365000Y-153600000D01*
X91650000Y-164240000D02*
X89700000Y-162290000D01*
X89700000Y-157000000D02*
X88200000Y-155500000D01*
X88200000Y-155500000D02*
X83265000Y-155500000D01*
X84450000Y-160400000D02*
X84900000Y-160400000D01*
X91280000Y-166780000D02*
X91650000Y-166780000D01*
X81400000Y-157350000D02*
X84450000Y-160400000D01*
X84900000Y-160400000D02*
X91280000Y-166780000D01*
D23*
X67787500Y-130440000D02*
X71827500Y-126400000D01*
X71827500Y-126400000D02*
X82300000Y-126400000D01*
X82300000Y-126400000D02*
X87060000Y-131160000D01*
X67787500Y-132980000D02*
X69020000Y-132980000D01*
X69020000Y-132980000D02*
X70000000Y-132000000D01*
X72200000Y-127600000D02*
X80960000Y-127600000D01*
X70000000Y-132000000D02*
X70000000Y-129800000D01*
X80960000Y-127600000D02*
X84520000Y-131160000D01*
X70000000Y-129800000D02*
X72200000Y-127600000D01*
X69180000Y-135520000D02*
X67787500Y-135520000D01*
X79920000Y-129100000D02*
X73200000Y-129100000D01*
X71200000Y-133500000D02*
X69180000Y-135520000D01*
X73200000Y-129100000D02*
X71200000Y-131100000D01*
X71200000Y-131100000D02*
X71200000Y-133500000D01*
X81980000Y-131160000D02*
X79920000Y-129100000D01*
X72540000Y-138060000D02*
X67787500Y-138060000D01*
X79440000Y-131160000D02*
X72540000Y-138060000D01*
D22*
X71200000Y-106300000D02*
X74900000Y-102600000D01*
X71200000Y-112900000D02*
X71200000Y-106300000D01*
X74900000Y-102600000D02*
X84500000Y-102600000D01*
X67787500Y-115200000D02*
X68900000Y-115200000D01*
X68900000Y-115200000D02*
X71200000Y-112900000D01*
X70480000Y-120280000D02*
X67787500Y-120280000D01*
X84400000Y-108400000D02*
X77950000Y-108400000D01*
X73600000Y-117160000D02*
X70480000Y-120280000D01*
X77950000Y-108400000D02*
X73600000Y-112750000D01*
X73600000Y-112750000D02*
X73600000Y-117160000D01*
D21*
X93750000Y-154000000D02*
X96750000Y-157000000D01*
X103250000Y-159500000D02*
X105500000Y-161750000D01*
X96750000Y-158250000D02*
X98000000Y-159500000D01*
X87500000Y-153750000D02*
X93500000Y-153750000D01*
X100000000Y-159500000D02*
X103250000Y-159500000D01*
X93500000Y-153750000D02*
X93750000Y-154000000D01*
X86485000Y-153640000D02*
X87390000Y-153640000D01*
X98000000Y-159500000D02*
X100000000Y-159500000D01*
X86445000Y-153600000D02*
X86485000Y-153640000D01*
X96750000Y-157000000D02*
X96750000Y-158250000D01*
X87390000Y-153640000D02*
X87500000Y-153750000D01*
X103500000Y-165500000D02*
X104250000Y-165500000D01*
X91250000Y-165500000D02*
X103500000Y-165500000D01*
X104250000Y-165500000D02*
X105250000Y-164500000D01*
X86480000Y-160730000D02*
X91250000Y-165500000D01*
X86480000Y-157350000D02*
X86480000Y-160730000D01*
X105250000Y-164500000D02*
X105250000Y-164250000D01*
X88655000Y-147750000D02*
X102000000Y-147750000D01*
X86555000Y-149850000D02*
X88655000Y-147750000D01*
X102000000Y-147750000D02*
X104250000Y-150000000D01*
X104250000Y-150000000D02*
X104250000Y-153000000D01*
X99000000Y-128750000D02*
X99000000Y-130250000D01*
X73250000Y-145750000D02*
X96750000Y-145750000D01*
X72750000Y-146250000D02*
X73250000Y-145750000D01*
X53250000Y-150500000D02*
X54330000Y-149420000D01*
X101000000Y-121250000D02*
X102250000Y-122500000D01*
X97500000Y-145750000D02*
X96750000Y-145750000D01*
X54330000Y-149420000D02*
X69580000Y-149420000D01*
X98250000Y-145000000D02*
X97500000Y-145750000D01*
X116880000Y-101255000D02*
X114125000Y-98500000D01*
X102250000Y-125500000D02*
X99000000Y-128750000D01*
X101000000Y-99700000D02*
X101000000Y-121250000D01*
X102200000Y-98500000D02*
X101000000Y-99700000D01*
X69580000Y-149420000D02*
X72750000Y-146250000D01*
X114125000Y-98500000D02*
X102200000Y-98500000D01*
X102250000Y-122500000D02*
X102250000Y-125500000D01*
X132120000Y-106335000D02*
X134500000Y-108715000D01*
X72750000Y-140500000D02*
X115500000Y-140500000D01*
X134500000Y-108715000D02*
X134500000Y-139750000D01*
X133745000Y-140505000D02*
X134500000Y-139750000D01*
X68910000Y-144340000D02*
X72750000Y-140500000D01*
X54590000Y-144340000D02*
X68910000Y-144340000D01*
X53250000Y-143000000D02*
X54590000Y-144340000D01*
X115505000Y-140505000D02*
X133745000Y-140505000D01*
X115500000Y-140500000D02*
X115505000Y-140505000D01*
X95250000Y-141750000D02*
X96000000Y-142500000D01*
X53250000Y-146750000D02*
X53380000Y-146880000D01*
X73500000Y-141750000D02*
X95250000Y-141750000D01*
X96000000Y-142500000D02*
X96785000Y-143285000D01*
X68370000Y-146880000D02*
X73500000Y-141750000D01*
X136000000Y-139750000D02*
X136000000Y-119500000D01*
X53380000Y-146880000D02*
X68370000Y-146880000D01*
X96785000Y-143285000D02*
X133965000Y-143285000D01*
X136000000Y-141250000D02*
X136000000Y-139750000D01*
X133965000Y-143285000D02*
X136000000Y-141250000D01*
X76500000Y-98250000D02*
X75000000Y-99750000D01*
X50500000Y-109750000D02*
X54500000Y-105750000D01*
X65750000Y-105750000D02*
X54750000Y-105750000D01*
X86750000Y-99750000D02*
X85250000Y-98250000D01*
X66000000Y-105750000D02*
X65750000Y-105750000D01*
X85250000Y-98250000D02*
X76500000Y-98250000D01*
X86750000Y-102500000D02*
X86750000Y-99750000D01*
X54500000Y-105750000D02*
X54750000Y-105750000D01*
X72000000Y-99750000D02*
X66000000Y-105750000D01*
X75000000Y-99750000D02*
X72000000Y-99750000D01*
X85250000Y-100750000D02*
X83500000Y-100750000D01*
X85750000Y-101250000D02*
X85250000Y-100750000D01*
X73000000Y-101250000D02*
X66250000Y-108000000D01*
X66250000Y-108000000D02*
X54250000Y-108000000D01*
X54250000Y-108000000D02*
X49500000Y-112750000D01*
X83500000Y-100750000D02*
X83000000Y-101250000D01*
X49500000Y-112750000D02*
X49500000Y-113600000D01*
X83000000Y-101250000D02*
X73000000Y-101250000D01*
X130970000Y-135665000D02*
X105085000Y-135665000D01*
X132120000Y-136815000D02*
X130970000Y-135665000D01*
X130730000Y-137965000D02*
X106215000Y-137965000D01*
X132120000Y-139355000D02*
X130730000Y-137965000D01*
X132120000Y-131735000D02*
X130970000Y-130585000D01*
X130970000Y-130585000D02*
X101735000Y-130585000D01*
X83325000Y-151700000D02*
X81475000Y-149850000D01*
X90960000Y-151700000D02*
X83325000Y-151700000D01*
X91750000Y-152490000D02*
X90960000Y-151700000D01*
X103675000Y-133125000D02*
X130970000Y-133125000D01*
X103650000Y-133150000D02*
X103675000Y-133125000D01*
X132120000Y-134275000D02*
X130970000Y-133125000D01*
X110555000Y-127805000D02*
X108250000Y-125500000D01*
X108250000Y-125500000D02*
X108250000Y-121250000D01*
X132120000Y-129195000D02*
X130730000Y-127805000D01*
X130730000Y-127805000D02*
X110555000Y-127805000D01*
X110515000Y-125265000D02*
X110000000Y-124750000D01*
X132120000Y-126655000D02*
X130730000Y-125265000D01*
X130730000Y-125265000D02*
X110515000Y-125265000D01*
X130730000Y-122725000D02*
X110525000Y-122725000D01*
X132120000Y-124115000D02*
X130730000Y-122725000D01*
X132120000Y-121575000D02*
X130970000Y-120425000D01*
X130970000Y-120425000D02*
X111675000Y-120425000D01*
X104500000Y-116000000D02*
X106300000Y-116000000D01*
X106300000Y-116000000D02*
X106600000Y-115700000D01*
X106600000Y-115700000D02*
X109500000Y-115700000D01*
X130730000Y-110265000D02*
X132120000Y-108875000D01*
X109500000Y-115700000D02*
X114935000Y-110265000D01*
X114935000Y-110265000D02*
X130730000Y-110265000D01*
X132120000Y-101255000D02*
X128375000Y-105000000D01*
X128375000Y-105000000D02*
X110750000Y-105000000D01*
X108250000Y-107500000D02*
X104500000Y-107500000D01*
X110750000Y-105000000D02*
X108250000Y-107500000D01*
X131055000Y-104945000D02*
X132805000Y-104945000D01*
X132805000Y-104945000D02*
X134875000Y-102875000D01*
X130500000Y-105500000D02*
X131055000Y-104945000D01*
X112000000Y-108750000D02*
X113265000Y-107485000D01*
X130500000Y-106500000D02*
X130500000Y-105500000D01*
X128030000Y-107500000D02*
X129500000Y-107500000D01*
X134875000Y-101470000D02*
X132120000Y-98715000D01*
X104500000Y-108750000D02*
X112000000Y-108750000D01*
X129500000Y-107500000D02*
X130500000Y-106500000D01*
X113265000Y-107485000D02*
X128015000Y-107485000D01*
X128015000Y-107485000D02*
X128030000Y-107500000D01*
X134875000Y-102875000D02*
X134875000Y-101470000D01*
X106000000Y-106250000D02*
X111250000Y-101000000D01*
X104500000Y-106250000D02*
X106000000Y-106250000D01*
X109525000Y-150225000D02*
X108500000Y-151250000D01*
X108500000Y-151250000D02*
X108500000Y-154000000D01*
X109700000Y-144700000D02*
X109700000Y-150050000D01*
X109700000Y-150050000D02*
X109525000Y-150225000D01*
X111700000Y-144700000D02*
X111700000Y-150861396D01*
X111700000Y-150861396D02*
X111630698Y-150930698D01*
X109500000Y-153061396D02*
X111630698Y-150930698D01*
X127250000Y-149700000D02*
X127525000Y-149975000D01*
X129525000Y-151975000D02*
X127525000Y-149975000D01*
X127250000Y-147250000D02*
X127250000Y-149700000D01*
X125750000Y-153500000D02*
X124800000Y-154450000D01*
X125750000Y-147250000D02*
X125750000Y-153500000D01*
X117750000Y-161500000D02*
X124800000Y-154450000D01*
X116000000Y-160750000D02*
X116000000Y-169027478D01*
X122500000Y-147200000D02*
X122500000Y-154250000D01*
X122500000Y-154250000D02*
X116000000Y-160750000D01*
X121250000Y-147250000D02*
X121250000Y-153750000D01*
X114750000Y-169775000D02*
X112775000Y-171750000D01*
X121250000Y-153750000D02*
X114750000Y-160250000D01*
X114750000Y-160250000D02*
X114750000Y-169775000D01*
X117400000Y-154600000D02*
X117400000Y-154900000D01*
X119750000Y-153000000D02*
X119000000Y-153750000D01*
X113750000Y-161000000D02*
X113750000Y-159950000D01*
X118250000Y-153750000D02*
X117400000Y-154600000D01*
X119000000Y-153750000D02*
X118250000Y-153750000D01*
X117400000Y-156300000D02*
X117400000Y-154900000D01*
X119750000Y-147150000D02*
X119750000Y-153000000D01*
X113750000Y-159950000D02*
X117400000Y-156300000D01*
X106000000Y-151250000D02*
X106000000Y-145750000D01*
X114000000Y-156000000D02*
X115100000Y-157100000D01*
X114000000Y-153400000D02*
X114000000Y-156000000D01*
X113000000Y-152400000D02*
X114000000Y-153400000D01*
X113000000Y-147000000D02*
X113000000Y-152400000D01*
X114250000Y-147000000D02*
X115050000Y-147800000D01*
X115050000Y-155750000D02*
X115100000Y-155800000D01*
X115050000Y-147800000D02*
X115050000Y-155750000D01*
X73000000Y-171750000D02*
X77250000Y-176000000D01*
X77250000Y-176000000D02*
X87250000Y-176000000D01*
X73000000Y-166750000D02*
X73000000Y-171750000D01*
X76500000Y-166000000D02*
X79500000Y-163000000D01*
X76500000Y-172000000D02*
X76500000Y-166000000D01*
X84500000Y-174600000D02*
X79100000Y-174600000D01*
X79100000Y-174600000D02*
X76500000Y-172000000D01*
X84550000Y-174550000D02*
X84500000Y-174600000D01*
G04 #@! TA.AperFunction,Conductor*
G36*
X75615677Y-96019685D02*
G01*
X75636319Y-96036319D01*
X75863681Y-96263681D01*
X75897166Y-96325004D01*
X75900000Y-96351362D01*
X75900000Y-97933637D01*
X75880315Y-98000676D01*
X75844783Y-98036811D01*
X75631239Y-98179174D01*
X75562456Y-98200000D01*
X71351362Y-98200000D01*
X71284323Y-98180315D01*
X71263681Y-98163681D01*
X70936319Y-97836319D01*
X70902834Y-97774996D01*
X70900000Y-97748638D01*
X70900000Y-96151362D01*
X70919685Y-96084323D01*
X70936319Y-96063681D01*
X70963681Y-96036319D01*
X71025004Y-96002834D01*
X71051362Y-96000000D01*
X75548638Y-96000000D01*
X75615677Y-96019685D01*
G37*
G04 #@! TD.AperFunction*
G04 #@! TA.AperFunction,Conductor*
G36*
X69915677Y-84019685D02*
G01*
X69936319Y-84036319D01*
X70063681Y-84163681D01*
X70097166Y-84225004D01*
X70100000Y-84251362D01*
X70100000Y-86200000D01*
X70363681Y-86463681D01*
X70397166Y-86525004D01*
X70400000Y-86551362D01*
X70400000Y-86848638D01*
X70380315Y-86915677D01*
X70363681Y-86936319D01*
X70236319Y-87063681D01*
X70174996Y-87097166D01*
X70148638Y-87100000D01*
X67751362Y-87100000D01*
X67684323Y-87080315D01*
X67663681Y-87063681D01*
X67336319Y-86736319D01*
X67302834Y-86674996D01*
X67300000Y-86648638D01*
X67300000Y-84351362D01*
X67319685Y-84284323D01*
X67336319Y-84263681D01*
X67563681Y-84036319D01*
X67625004Y-84002834D01*
X67651362Y-84000000D01*
X69848638Y-84000000D01*
X69915677Y-84019685D01*
G37*
G04 #@! TD.AperFunction*
G04 #@! TA.AperFunction,Conductor*
G36*
X84515677Y-107219685D02*
G01*
X84536319Y-107236319D01*
X84763681Y-107463681D01*
X84797166Y-107525004D01*
X84800000Y-107551362D01*
X84800000Y-108448638D01*
X84780315Y-108515677D01*
X84763681Y-108536319D01*
X84536319Y-108763681D01*
X84474996Y-108797166D01*
X84448638Y-108800000D01*
X84351362Y-108800000D01*
X84284323Y-108780315D01*
X84263681Y-108763681D01*
X83900000Y-108400000D01*
X82451362Y-108400000D01*
X82384323Y-108380315D01*
X82363681Y-108363681D01*
X82236319Y-108236319D01*
X82202834Y-108174996D01*
X82200000Y-108148638D01*
X82200000Y-107851362D01*
X82219685Y-107784323D01*
X82236319Y-107763681D01*
X82263681Y-107736319D01*
X82325004Y-107702834D01*
X82351362Y-107700000D01*
X83800000Y-107700000D01*
X84263681Y-107236319D01*
X84325004Y-107202834D01*
X84351362Y-107200000D01*
X84448638Y-107200000D01*
X84515677Y-107219685D01*
G37*
G04 #@! TD.AperFunction*
G04 #@! TA.AperFunction,Conductor*
G36*
X84615677Y-101319685D02*
G01*
X84636319Y-101336319D01*
X84863681Y-101563681D01*
X84897166Y-101625004D01*
X84900000Y-101651362D01*
X84900000Y-102648638D01*
X84880315Y-102715677D01*
X84863681Y-102736319D01*
X84636319Y-102963681D01*
X84574996Y-102997166D01*
X84548638Y-103000000D01*
X84451362Y-103000000D01*
X84384323Y-102980315D01*
X84363681Y-102963681D01*
X84000000Y-102600000D01*
X82451362Y-102600000D01*
X82384323Y-102580315D01*
X82363681Y-102563681D01*
X82236319Y-102436319D01*
X82202834Y-102374996D01*
X82200000Y-102348638D01*
X82200000Y-101951362D01*
X82219685Y-101884323D01*
X82236319Y-101863681D01*
X82263681Y-101836319D01*
X82325004Y-101802834D01*
X82351362Y-101800000D01*
X83900000Y-101800000D01*
X83906304Y-101792120D01*
X84262770Y-101346538D01*
X84320021Y-101306486D01*
X84359598Y-101300000D01*
X84548638Y-101300000D01*
X84615677Y-101319685D01*
G37*
G04 #@! TD.AperFunction*
M02*
