M48
; DRILL file {KiCad (6.0.10)} date Sun Jan  8 14:40:37 2023
; FORMAT={-:-/ absolute / inch / decimal}
; #@! TF.CreationDate,2023-01-08T14:40:37+01:00
; #@! TF.GenerationSoftware,Kicad,Pcbnew,(6.0.10)
; #@! TF.FileFunction,Plated,1,4,PTH
FMAT,2
INCH
; #@! TA.AperFunction,Plated,PTH,ViaDrill
T1C0.0118
; #@! TA.AperFunction,Plated,PTH,ComponentDrill
T2C0.0315
; #@! TA.AperFunction,Plated,PTH,ComponentDrill
T3C0.0394
; #@! TA.AperFunction,Plated,PTH,ComponentDrill
T4C0.0433
; #@! TA.AperFunction,Plated,PTH,ComponentDrill
T5C0.0512
; #@! TA.AperFunction,Plated,PTH,ComponentDrill
T6C0.1693
%
G90
G05
T1
X1.9488Y-4.2126
X1.9488Y-4.3602
X1.9488Y-4.4724
X1.9488Y-4.6024
X1.9488Y-4.7087
X1.9587Y-5.4331
X1.9587Y-5.4626
X1.9882Y-4.3209
X1.9882Y-5.7087
X1.9882Y-5.8583
X1.9921Y-6.0079
X2.0079Y-4.1831
X2.0079Y-4.5177
X2.0079Y-4.8622
X2.0079Y-5.563
X2.0965Y-5.6299
X2.0965Y-5.7776
X2.0965Y-5.9252
X2.1555Y-6.1516
X2.1555Y-6.1909
X2.1693Y-6.2362
X2.1693Y-6.2795
X2.185Y-4.3051
X2.185Y-4.3524
X2.185Y-4.4035
X2.185Y-4.689
X2.185Y-4.7362
X2.185Y-4.7874
X2.2126Y-6.2362
X2.2126Y-6.2795
X2.2244Y-5.6398
X2.311Y-5.1063
X2.3425Y-5.8169
X2.372Y-6.2244
X2.374Y-5.5984
X2.3917Y-5.8169
X2.4606Y-6.437
X2.5984Y-3.0906
X2.5984Y-3.1378
X2.5984Y-3.1811
X2.5984Y-3.2244
X2.5984Y-3.2677
X2.6732Y-3.4134
X2.6772Y-3.1693
X2.6969Y-6.4606
X2.7126Y-3.4134
X2.7441Y-3.1693
X2.7559Y-3.4134
X2.7717Y-3.5787
X2.7717Y-3.6102
X2.7717Y-3.6575
X2.7717Y-3.6929
X2.7795Y-3.0827
X2.7795Y-3.1299
X2.7913Y-3.4921
X2.8051Y-6.5157
X2.811Y-3.8504
X2.8425Y-3.4921
X2.8661Y-3.8504
X2.874Y-6.565
X2.8819Y-3.4921
X2.8976Y-3.063
X2.8976Y-3.1063
X2.9213Y-3.8504
X2.9291Y-3.4921
X2.9385Y-4.9392
X2.9528Y-6.6535
X2.9685Y-6.4449
X2.9724Y-3.4921
X2.9724Y-3.8504
X2.9858Y-4.7126
X2.9882Y-3.0709
X2.9882Y-3.1024
X2.9882Y-3.2638
X2.9882Y-5.4764
X2.9921Y-3.3189
X2.9921Y-3.937
X2.9921Y-4.252
X3.0039Y-3.5709
X3.0039Y-3.6024
X3.0039Y-3.6339
X3.0472Y-5.4764
X3.0551Y-3.3268
X3.0709Y-5.8563
X3.0709Y-6.0827
X3.0984Y-4.4803
X3.0984Y-4.5118
X3.1073Y-6.7195
X3.1102Y-6.2402
X3.1122Y-6.5157
X3.122Y-6.8189
X3.126Y-5.4685
X3.1299Y-6.4173
X3.1535Y-6.8465
X3.1969Y-6.8465
X3.2677Y-3.937
X3.2677Y-4.1693
X3.2992Y-4.7972
X3.2992Y-4.8406
X3.3071Y-3.937
X3.3071Y-4.1693
X3.3228Y-4.2362
X3.3228Y-4.2677
X3.3268Y-4.0039
X3.3268Y-4.0394
X3.3287Y-6.872
X3.3307Y-5.4409
X3.3465Y-6.4272
X3.3484Y-4.3091
X3.3484Y-4.3386
X3.3504Y-4.0807
X3.3504Y-4.1102
X3.3858Y-6.8996
X3.3957Y-6.4272
X3.4134Y-4.5551
X3.4134Y-4.937
X3.435Y-6.9291
X3.4843Y-4.439
X3.4843Y-4.4783
X3.4941Y-5.4823
X3.5138Y-3.4744
X3.5197Y-4.7224
X3.5197Y-4.7657
X3.5236Y-4.439
X3.5236Y-4.4783
X3.5433Y-3.7303
X3.5531Y-3.4744
X3.5827Y-4.0512
X3.5827Y-4.2795
X3.5906Y-4.5984
X3.5906Y-4.9567
X3.6122Y-3.376
X3.6122Y-3.4252
X3.6122Y-3.4744
X3.6122Y-3.6024
X3.6122Y-3.6713
X3.6713Y-3.7795
X3.6811Y-3.6024
X3.7008Y-5.3937
X3.7303Y-3.7402
X3.7303Y-3.9961
X3.75Y-5.6693
X3.7598Y-4.4488
X3.7598Y-5.3937
X3.7697Y-3.9961
X3.7894Y-4.4094
X3.7992Y-3.7402
X3.8189Y-3.9961
X3.8681Y-5.7087
X3.8976Y-5.128
X3.9665Y-4.8425
X3.9665Y-4.872
X3.9665Y-4.9016
X3.9961Y-3.6909
X3.9961Y-3.7795
X3.9961Y-3.8287
X4.0053Y-5.1411
X4.0118Y-4.0748
X4.0157Y-4.374
X4.0157Y-4.4528
X4.0256Y-6.0236
X4.0354Y-3.9331
X4.0472Y-4.7185
X4.065Y-6.4075
X4.0807Y-5.2421
X4.1043Y-4.3484
X4.1043Y-6.0236
X4.1063Y-4.3799
X4.1142Y-4.1831
X4.1142Y-4.2323
X4.1142Y-4.2815
X4.1142Y-4.5669
X4.124Y-4.1122
X4.1372Y-5.3411
X4.1437Y-6.4665
X4.1535Y-6.3681
X4.1555Y-4.1122
X4.1575Y-4.3484
X4.1575Y-4.3819
X4.1732Y-3.6024
X4.1732Y-5.7382
X4.1732Y-5.9547
X4.1817Y-5.4317
X4.1831Y-3.1693
X4.189Y-4.1122
X4.1969Y-4.0039
X4.1969Y-4.5157
X4.2165Y-4.1929
X4.2224Y-3.6024
X4.2283Y-4.5906
X4.2283Y-4.6437
X4.2283Y-4.6949
X4.2323Y-3.1693
X4.2323Y-6.6142
X4.2598Y-5.876
X4.2618Y-4.7736
X4.2657Y-4.4055
X4.2717Y-3.6024
X4.2815Y-3.1693
X4.2815Y-6.1319
X4.311Y-6.026
X4.3209Y-3.6024
X4.3209Y-5.9646
X4.3307Y-3.1693
X4.3307Y-4.9114
X4.3406Y-6.3878
X4.3504Y-4.8327
X4.3504Y-6.5551
X4.3504Y-6.8371
X4.3701Y-3.6024
X4.3701Y-6.25
X4.3799Y-3.1693
X4.3799Y-3.9764
X4.3967Y-4.7411
X4.3976Y-5.6969
X4.4193Y-3.6024
X4.4291Y-3.1693
X4.44Y-6.7618
X4.4488Y-5.7874
X4.4488Y-6.0827
X4.4587Y-3.2185
X4.4587Y-3.2677
X4.4587Y-3.3169
X4.4587Y-3.3661
X4.4587Y-3.4154
X4.4587Y-3.4646
X4.4587Y-3.5138
X4.4587Y-3.563
X4.4783Y-6.3386
X4.498Y-5.7874
X4.5Y-5.9508
X4.502Y-5.9843
X4.5315Y-6.1339
X4.5315Y-6.185
X4.5669Y-6.6546
X4.6063Y-3.248
X4.6161Y-3.1693
X4.6358Y-6.3583
X4.6654Y-5.9685
X4.6654Y-6.1024
X4.7047Y-6.5551
X4.7146Y-5.7933
X4.7244Y-6.3681
X4.7244Y-6.752
X4.7736Y-5.7972
X4.8228Y-5.7953
X4.8917Y-6.2008
X4.9508Y-5.7972
X4.9606Y-3.3169
X5.0079Y-6.4006
X5.0098Y-5.7972
X5.0098Y-6.0039
X5.0492Y-4.1831
X5.0591Y-4.2963
X5.0994Y-5.9833
X5.1575Y-6.1909
X5.2756Y-3.2283
X5.3543Y-4.7047
X5.3661Y-6.1909
X5.4331Y-4.4193
X5.5807Y-3.4941
X5.5906Y-3.4646
X5.6299Y-3.4547
X5.6693Y-3.4547
X5.7087Y-3.4547
X5.748Y-3.4646
X5.7579Y-3.5039
T2
X2.9276Y-5.1638
X2.9276Y-5.6638
X3.0276Y-5.1638
X3.0276Y-5.6638
X3.1276Y-5.1638
X3.1276Y-5.6638
X3.2276Y-5.1638
X3.2276Y-5.6638
X3.3276Y-5.1638
X3.3276Y-5.6638
X3.4276Y-5.1638
X3.4276Y-5.6638
X3.5276Y-5.1638
X3.5276Y-5.6638
X3.6083Y-6.3661
X3.6083Y-6.4661
X3.6083Y-6.5661
X3.6083Y-6.6661
X3.6122Y-5.9035
X3.6122Y-6.0035
X3.6122Y-6.1035
X3.6122Y-6.2035
X3.6276Y-5.1638
X3.6276Y-5.6638
X3.9083Y-6.3661
X3.9083Y-6.4661
X3.9083Y-6.5661
X3.9083Y-6.6661
X3.9122Y-5.9035
X3.9122Y-6.0035
X3.9122Y-6.1035
X3.9122Y-6.2035
T3
X2.0482Y-5.1388
X2.0482Y-5.2388
X2.0482Y-5.3388
X2.2047Y-5.1346
X2.2047Y-5.2346
X2.2047Y-5.3346
X2.5688Y-4.3354
X2.5688Y-4.4354
X2.5688Y-4.5354
X2.5688Y-4.6354
X2.5688Y-4.7354
X2.5688Y-4.8354
X2.5688Y-4.9354
X2.5688Y-5.0354
X2.5688Y-5.1354
X2.5688Y-5.2354
X2.5688Y-5.3354
X2.5688Y-5.4354
X2.5688Y-5.5354
X2.5688Y-5.6354
X2.5688Y-5.7354
X2.5688Y-5.8354
X2.5688Y-5.9354
X2.5688Y-6.0354
X2.5688Y-6.1354
X2.5688Y-6.2354
X2.6688Y-4.3354
X2.6688Y-4.4354
X2.6688Y-4.5354
X2.6688Y-4.6354
X2.6688Y-4.7354
X2.6688Y-4.8354
X2.6688Y-4.9354
X2.6688Y-5.0354
X2.6688Y-5.1354
X2.6688Y-5.2354
X2.6688Y-5.3354
X2.6688Y-5.4354
X2.6688Y-5.5354
X2.6688Y-5.6354
X2.6688Y-5.7354
X2.6688Y-5.8354
X2.6688Y-5.9354
X2.6688Y-6.0354
X2.6688Y-6.1354
X2.6688Y-6.2354
X2.91Y-6.1949
X2.9102Y-6.0472
X2.9114Y-5.8996
X3.01Y-6.1949
X3.0102Y-6.0472
X3.0114Y-5.8996
X3.2033Y-6.0472
X3.2047Y-6.1949
X3.2077Y-5.8996
X3.3033Y-6.0472
X3.3047Y-6.1949
X3.3077Y-5.8996
X3.4033Y-6.0472
X3.4047Y-6.1949
X3.4077Y-5.8996
X3.72Y-4.6732
X3.72Y-4.7732
X3.72Y-4.8732
X5.6654Y-4.8396
X5.6654Y-4.9396
X5.6654Y-5.0396
X5.6654Y-5.1396
X5.6654Y-5.2396
X5.6654Y-5.3878
X5.6654Y-5.4878
X5.6654Y-5.5878
X5.6654Y-5.6878
X5.6654Y-5.7878
X5.6654Y-5.8878
X5.6693Y-3.7766
X5.6693Y-3.8766
X5.6693Y-3.9766
X5.6693Y-4.0766
X5.6693Y-4.1766
X5.6693Y-4.3685
X5.6693Y-4.4685
X5.6693Y-4.5685
X5.6693Y-4.6685
T4
X4.6016Y-3.4864
X4.6016Y-3.5864
X4.6016Y-3.6864
X4.6016Y-3.7864
X4.6016Y-3.8864
X4.6016Y-3.9864
X4.6016Y-4.0864
X4.6016Y-4.1864
X4.6016Y-4.2864
X4.6016Y-4.3864
X4.6016Y-4.4864
X4.6016Y-4.5864
X4.6016Y-4.6864
X4.6016Y-4.7864
X4.6016Y-4.8864
X4.6016Y-4.9864
X4.6016Y-5.0864
X4.6016Y-5.1864
X4.6016Y-5.2864
X4.6016Y-5.3864
X4.6016Y-5.4864
X4.6016Y-5.5864
X4.6016Y-5.6864
X4.6016Y-5.7864
X4.7016Y-3.9864
X4.8016Y-3.9864
X4.9016Y-3.9864
X5.0016Y-3.9864
X5.1016Y-3.9864
X5.2016Y-3.4864
X5.2016Y-3.5864
X5.2016Y-3.6864
X5.2016Y-3.7864
X5.2016Y-3.8864
X5.2016Y-3.9864
X5.2016Y-4.0864
X5.2016Y-4.1864
X5.2016Y-4.2864
X5.2016Y-4.3864
X5.2016Y-4.4864
X5.2016Y-4.5864
X5.2016Y-4.6864
X5.2016Y-4.7864
X5.2016Y-4.8864
X5.2016Y-4.9864
X5.2016Y-5.0864
X5.2016Y-5.1864
X5.2016Y-5.2864
X5.2016Y-5.3864
X5.2016Y-5.4864
X5.2016Y-5.5864
X5.2016Y-5.6864
X5.2016Y-5.7864
T5
X2.0726Y-3.5531
X2.0726Y-3.7531
T6
X2.0866Y-3.2382
X2.0866Y-6.7421
X5.5906Y-3.2382
X5.5906Y-6.7421
T0
M30
