G04 #@! TF.GenerationSoftware,KiCad,Pcbnew,(6.0.10)*
G04 #@! TF.CreationDate,2023-01-06T16:52:41+01:00*
G04 #@! TF.ProjectId,perfectV2.1v0,70657266-6563-4745-9632-2e3176302e6b,5*
G04 #@! TF.SameCoordinates,Original*
G04 #@! TF.FileFunction,Legend,Bot*
G04 #@! TF.FilePolarity,Positive*
%FSLAX46Y46*%
G04 Gerber Fmt 4.6, Leading zero omitted, Abs format (unit mm)*
G04 Created by KiCad (PCBNEW (6.0.10)) date 2023-01-06 16:52:41*
%MOMM*%
%LPD*%
G01*
G04 APERTURE LIST*
%ADD10C,0.150000*%
G04 APERTURE END LIST*
D10*
X95214285Y-88518571D02*
X95547619Y-88518571D01*
X95547619Y-89042380D02*
X95547619Y-88042380D01*
X95071428Y-88042380D01*
X94547619Y-89042380D02*
X94642857Y-88994761D01*
X94690476Y-88947142D01*
X94738095Y-88851904D01*
X94738095Y-88566190D01*
X94690476Y-88470952D01*
X94642857Y-88423333D01*
X94547619Y-88375714D01*
X94404761Y-88375714D01*
X94309523Y-88423333D01*
X94261904Y-88470952D01*
X94214285Y-88566190D01*
X94214285Y-88851904D01*
X94261904Y-88947142D01*
X94309523Y-88994761D01*
X94404761Y-89042380D01*
X94547619Y-89042380D01*
X93785714Y-88375714D02*
X93785714Y-89042380D01*
X93785714Y-88470952D02*
X93738095Y-88423333D01*
X93642857Y-88375714D01*
X93500000Y-88375714D01*
X93404761Y-88423333D01*
X93357142Y-88518571D01*
X93357142Y-89042380D01*
X93023809Y-88375714D02*
X92642857Y-88375714D01*
X92880952Y-88042380D02*
X92880952Y-88899523D01*
X92833333Y-88994761D01*
X92738095Y-89042380D01*
X92642857Y-89042380D01*
X92404761Y-88375714D02*
X92166666Y-89042380D01*
X91928571Y-88375714D02*
X92166666Y-89042380D01*
X92261904Y-89280476D01*
X92309523Y-89328095D01*
X92404761Y-89375714D01*
X91595238Y-88994761D02*
X91500000Y-89042380D01*
X91309523Y-89042380D01*
X91214285Y-88994761D01*
X91166666Y-88899523D01*
X91166666Y-88851904D01*
X91214285Y-88756666D01*
X91309523Y-88709047D01*
X91452380Y-88709047D01*
X91547619Y-88661428D01*
X91595238Y-88566190D01*
X91595238Y-88518571D01*
X91547619Y-88423333D01*
X91452380Y-88375714D01*
X91309523Y-88375714D01*
X91214285Y-88423333D01*
X89976190Y-88518571D02*
X89642857Y-88518571D01*
X89500000Y-89042380D02*
X89976190Y-89042380D01*
X89976190Y-88042380D01*
X89500000Y-88042380D01*
X89071428Y-88375714D02*
X89071428Y-89042380D01*
X89071428Y-88470952D02*
X89023809Y-88423333D01*
X88928571Y-88375714D01*
X88785714Y-88375714D01*
X88690476Y-88423333D01*
X88642857Y-88518571D01*
X88642857Y-89042380D01*
X87738095Y-88375714D02*
X87738095Y-89185238D01*
X87785714Y-89280476D01*
X87833333Y-89328095D01*
X87928571Y-89375714D01*
X88071428Y-89375714D01*
X88166666Y-89328095D01*
X87738095Y-88994761D02*
X87833333Y-89042380D01*
X88023809Y-89042380D01*
X88119047Y-88994761D01*
X88166666Y-88947142D01*
X88214285Y-88851904D01*
X88214285Y-88566190D01*
X88166666Y-88470952D01*
X88119047Y-88423333D01*
X88023809Y-88375714D01*
X87833333Y-88375714D01*
X87738095Y-88423333D01*
X87261904Y-89042380D02*
X87261904Y-88375714D01*
X87261904Y-88042380D02*
X87309523Y-88090000D01*
X87261904Y-88137619D01*
X87214285Y-88090000D01*
X87261904Y-88042380D01*
X87261904Y-88137619D01*
X86785714Y-88375714D02*
X86785714Y-89042380D01*
X86785714Y-88470952D02*
X86738095Y-88423333D01*
X86642857Y-88375714D01*
X86500000Y-88375714D01*
X86404761Y-88423333D01*
X86357142Y-88518571D01*
X86357142Y-89042380D01*
X85500000Y-88994761D02*
X85595238Y-89042380D01*
X85785714Y-89042380D01*
X85880952Y-88994761D01*
X85928571Y-88899523D01*
X85928571Y-88518571D01*
X85880952Y-88423333D01*
X85785714Y-88375714D01*
X85595238Y-88375714D01*
X85500000Y-88423333D01*
X85452380Y-88518571D01*
X85452380Y-88613809D01*
X85928571Y-88709047D01*
X84642857Y-88994761D02*
X84738095Y-89042380D01*
X84928571Y-89042380D01*
X85023809Y-88994761D01*
X85071428Y-88899523D01*
X85071428Y-88518571D01*
X85023809Y-88423333D01*
X84928571Y-88375714D01*
X84738095Y-88375714D01*
X84642857Y-88423333D01*
X84595238Y-88518571D01*
X84595238Y-88613809D01*
X85071428Y-88709047D01*
X84166666Y-89042380D02*
X84166666Y-88375714D01*
X84166666Y-88566190D02*
X84119047Y-88470952D01*
X84071428Y-88423333D01*
X83976190Y-88375714D01*
X83880952Y-88375714D01*
X83547619Y-89042380D02*
X83547619Y-88375714D01*
X83547619Y-88042380D02*
X83595238Y-88090000D01*
X83547619Y-88137619D01*
X83500000Y-88090000D01*
X83547619Y-88042380D01*
X83547619Y-88137619D01*
X83071428Y-88375714D02*
X83071428Y-89042380D01*
X83071428Y-88470952D02*
X83023809Y-88423333D01*
X82928571Y-88375714D01*
X82785714Y-88375714D01*
X82690476Y-88423333D01*
X82642857Y-88518571D01*
X82642857Y-89042380D01*
X81738095Y-88375714D02*
X81738095Y-89185238D01*
X81785714Y-89280476D01*
X81833333Y-89328095D01*
X81928571Y-89375714D01*
X82071428Y-89375714D01*
X82166666Y-89328095D01*
X81738095Y-88994761D02*
X81833333Y-89042380D01*
X82023809Y-89042380D01*
X82119047Y-88994761D01*
X82166666Y-88947142D01*
X82214285Y-88851904D01*
X82214285Y-88566190D01*
X82166666Y-88470952D01*
X82119047Y-88423333D01*
X82023809Y-88375714D01*
X81833333Y-88375714D01*
X81738095Y-88423333D01*
X80500000Y-88518571D02*
X80166666Y-88518571D01*
X80023809Y-89042380D02*
X80500000Y-89042380D01*
X80500000Y-88042380D01*
X80023809Y-88042380D01*
X79595238Y-89042380D02*
X79595238Y-88375714D01*
X79595238Y-88042380D02*
X79642857Y-88090000D01*
X79595238Y-88137619D01*
X79547619Y-88090000D01*
X79595238Y-88042380D01*
X79595238Y-88137619D01*
X79119047Y-88375714D02*
X79119047Y-89042380D01*
X79119047Y-88470952D02*
X79071428Y-88423333D01*
X78976190Y-88375714D01*
X78833333Y-88375714D01*
X78738095Y-88423333D01*
X78690476Y-88518571D01*
X78690476Y-89042380D01*
X77785714Y-89042380D02*
X77785714Y-88042380D01*
X77785714Y-88994761D02*
X77880952Y-89042380D01*
X78071428Y-89042380D01*
X78166666Y-88994761D01*
X78214285Y-88947142D01*
X78261904Y-88851904D01*
X78261904Y-88566190D01*
X78214285Y-88470952D01*
X78166666Y-88423333D01*
X78071428Y-88375714D01*
X77880952Y-88375714D01*
X77785714Y-88423333D01*
X77309523Y-89042380D02*
X77309523Y-88042380D01*
X76880952Y-89042380D02*
X76880952Y-88518571D01*
X76928571Y-88423333D01*
X77023809Y-88375714D01*
X77166666Y-88375714D01*
X77261904Y-88423333D01*
X77309523Y-88470952D01*
X76261904Y-89042380D02*
X76357142Y-88994761D01*
X76404761Y-88947142D01*
X76452380Y-88851904D01*
X76452380Y-88566190D01*
X76404761Y-88470952D01*
X76357142Y-88423333D01*
X76261904Y-88375714D01*
X76119047Y-88375714D01*
X76023809Y-88423333D01*
X75976190Y-88470952D01*
X75928571Y-88566190D01*
X75928571Y-88851904D01*
X75976190Y-88947142D01*
X76023809Y-88994761D01*
X76119047Y-89042380D01*
X76261904Y-89042380D01*
X75595238Y-88375714D02*
X75357142Y-89042380D01*
X75119047Y-88375714D01*
X74357142Y-88994761D02*
X74452380Y-89042380D01*
X74642857Y-89042380D01*
X74738095Y-88994761D01*
X74785714Y-88899523D01*
X74785714Y-88518571D01*
X74738095Y-88423333D01*
X74642857Y-88375714D01*
X74452380Y-88375714D01*
X74357142Y-88423333D01*
X74309523Y-88518571D01*
X74309523Y-88613809D01*
X74785714Y-88709047D01*
X73880952Y-88375714D02*
X73880952Y-89042380D01*
X73880952Y-88470952D02*
X73833333Y-88423333D01*
X73738095Y-88375714D01*
X73595238Y-88375714D01*
X73500000Y-88423333D01*
X73452380Y-88518571D01*
X73452380Y-89042380D01*
X90095238Y-90128571D02*
X89761904Y-90128571D01*
X89619047Y-90652380D02*
X90095238Y-90652380D01*
X90095238Y-89652380D01*
X89619047Y-89652380D01*
X89285714Y-89652380D02*
X88619047Y-90652380D01*
X88619047Y-89652380D02*
X89285714Y-90652380D01*
X88238095Y-90652380D02*
X88238095Y-89652380D01*
X87857142Y-89652380D01*
X87761904Y-89700000D01*
X87714285Y-89747619D01*
X87666666Y-89842857D01*
X87666666Y-89985714D01*
X87714285Y-90080952D01*
X87761904Y-90128571D01*
X87857142Y-90176190D01*
X88238095Y-90176190D01*
X87047619Y-89652380D02*
X86857142Y-89652380D01*
X86761904Y-89700000D01*
X86666666Y-89795238D01*
X86619047Y-89985714D01*
X86619047Y-90319047D01*
X86666666Y-90509523D01*
X86761904Y-90604761D01*
X86857142Y-90652380D01*
X87047619Y-90652380D01*
X87142857Y-90604761D01*
X87238095Y-90509523D01*
X87285714Y-90319047D01*
X87285714Y-89985714D01*
X87238095Y-89795238D01*
X87142857Y-89700000D01*
X87047619Y-89652380D01*
X84904761Y-89700000D02*
X85000000Y-89652380D01*
X85142857Y-89652380D01*
X85285714Y-89700000D01*
X85380952Y-89795238D01*
X85428571Y-89890476D01*
X85476190Y-90080952D01*
X85476190Y-90223809D01*
X85428571Y-90414285D01*
X85380952Y-90509523D01*
X85285714Y-90604761D01*
X85142857Y-90652380D01*
X85047619Y-90652380D01*
X84904761Y-90604761D01*
X84857142Y-90557142D01*
X84857142Y-90223809D01*
X85047619Y-90223809D01*
X84428571Y-90652380D02*
X84428571Y-89985714D01*
X84428571Y-90176190D02*
X84380952Y-90080952D01*
X84333333Y-90033333D01*
X84238095Y-89985714D01*
X84142857Y-89985714D01*
X83666666Y-90652380D02*
X83761904Y-90604761D01*
X83809523Y-90557142D01*
X83857142Y-90461904D01*
X83857142Y-90176190D01*
X83809523Y-90080952D01*
X83761904Y-90033333D01*
X83666666Y-89985714D01*
X83523809Y-89985714D01*
X83428571Y-90033333D01*
X83380952Y-90080952D01*
X83333333Y-90176190D01*
X83333333Y-90461904D01*
X83380952Y-90557142D01*
X83428571Y-90604761D01*
X83523809Y-90652380D01*
X83666666Y-90652380D01*
X82476190Y-89985714D02*
X82476190Y-90652380D01*
X82904761Y-89985714D02*
X82904761Y-90509523D01*
X82857142Y-90604761D01*
X82761904Y-90652380D01*
X82619047Y-90652380D01*
X82523809Y-90604761D01*
X82476190Y-90557142D01*
X82000000Y-89985714D02*
X82000000Y-90985714D01*
X82000000Y-90033333D02*
X81904761Y-89985714D01*
X81714285Y-89985714D01*
X81619047Y-90033333D01*
X81571428Y-90080952D01*
X81523809Y-90176190D01*
X81523809Y-90461904D01*
X81571428Y-90557142D01*
X81619047Y-90604761D01*
X81714285Y-90652380D01*
X81904761Y-90652380D01*
X82000000Y-90604761D01*
X79809523Y-90652380D02*
X80380952Y-90652380D01*
X80095238Y-90652380D02*
X80095238Y-89652380D01*
X80190476Y-89795238D01*
X80285714Y-89890476D01*
X80380952Y-89938095D01*
X79476190Y-89652380D02*
X78857142Y-89652380D01*
X79190476Y-90033333D01*
X79047619Y-90033333D01*
X78952380Y-90080952D01*
X78904761Y-90128571D01*
X78857142Y-90223809D01*
X78857142Y-90461904D01*
X78904761Y-90557142D01*
X78952380Y-90604761D01*
X79047619Y-90652380D01*
X79333333Y-90652380D01*
X79428571Y-90604761D01*
X79476190Y-90557142D01*
X87619047Y-91738571D02*
X87952380Y-91738571D01*
X87952380Y-92262380D02*
X87952380Y-91262380D01*
X87476190Y-91262380D01*
X86666666Y-92262380D02*
X86666666Y-91738571D01*
X86714285Y-91643333D01*
X86809523Y-91595714D01*
X87000000Y-91595714D01*
X87095238Y-91643333D01*
X86666666Y-92214761D02*
X86761904Y-92262380D01*
X87000000Y-92262380D01*
X87095238Y-92214761D01*
X87142857Y-92119523D01*
X87142857Y-92024285D01*
X87095238Y-91929047D01*
X87000000Y-91881428D01*
X86761904Y-91881428D01*
X86666666Y-91833809D01*
X86047619Y-92262380D02*
X86142857Y-92214761D01*
X86190476Y-92119523D01*
X86190476Y-91262380D01*
X85523809Y-92262380D02*
X85619047Y-92214761D01*
X85666666Y-92119523D01*
X85666666Y-91262380D01*
X84428571Y-91357619D02*
X84380952Y-91310000D01*
X84285714Y-91262380D01*
X84047619Y-91262380D01*
X83952380Y-91310000D01*
X83904761Y-91357619D01*
X83857142Y-91452857D01*
X83857142Y-91548095D01*
X83904761Y-91690952D01*
X84476190Y-92262380D01*
X83857142Y-92262380D01*
X83238095Y-91262380D02*
X83142857Y-91262380D01*
X83047619Y-91310000D01*
X83000000Y-91357619D01*
X82952380Y-91452857D01*
X82904761Y-91643333D01*
X82904761Y-91881428D01*
X82952380Y-92071904D01*
X83000000Y-92167142D01*
X83047619Y-92214761D01*
X83142857Y-92262380D01*
X83238095Y-92262380D01*
X83333333Y-92214761D01*
X83380952Y-92167142D01*
X83428571Y-92071904D01*
X83476190Y-91881428D01*
X83476190Y-91643333D01*
X83428571Y-91452857D01*
X83380952Y-91357619D01*
X83333333Y-91310000D01*
X83238095Y-91262380D01*
X82523809Y-91357619D02*
X82476190Y-91310000D01*
X82380952Y-91262380D01*
X82142857Y-91262380D01*
X82047619Y-91310000D01*
X82000000Y-91357619D01*
X81952380Y-91452857D01*
X81952380Y-91548095D01*
X82000000Y-91690952D01*
X82571428Y-92262380D01*
X81952380Y-92262380D01*
X81571428Y-91357619D02*
X81523809Y-91310000D01*
X81428571Y-91262380D01*
X81190476Y-91262380D01*
X81095238Y-91310000D01*
X81047619Y-91357619D01*
X81000000Y-91452857D01*
X81000000Y-91548095D01*
X81047619Y-91690952D01*
X81619047Y-92262380D01*
X81000000Y-92262380D01*
G36*
X73269107Y-79515979D02*
G01*
X73366669Y-79516349D01*
X73446208Y-79517087D01*
X73509600Y-79518222D01*
X73558723Y-79519785D01*
X73595453Y-79521806D01*
X73621666Y-79524316D01*
X73639240Y-79527346D01*
X73650051Y-79530924D01*
X73655975Y-79535083D01*
X73658889Y-79539852D01*
X73668723Y-79564577D01*
X73694259Y-79629783D01*
X73722782Y-79703665D01*
X73752321Y-79781000D01*
X73780908Y-79856567D01*
X73806571Y-79925143D01*
X73827341Y-79981505D01*
X73841248Y-80020432D01*
X73846321Y-80036702D01*
X73846132Y-80036967D01*
X73828472Y-80039463D01*
X73784102Y-80042147D01*
X73715889Y-80044938D01*
X73626701Y-80047755D01*
X73519402Y-80050513D01*
X73396859Y-80053132D01*
X73261940Y-80055528D01*
X73117510Y-80057620D01*
X73100195Y-80057846D01*
X72888325Y-80061101D01*
X72703776Y-80065087D01*
X72544153Y-80070079D01*
X72407062Y-80076354D01*
X72290108Y-80084189D01*
X72190898Y-80093861D01*
X72107036Y-80105646D01*
X72036130Y-80119822D01*
X71975785Y-80136664D01*
X71923606Y-80156451D01*
X71877199Y-80179458D01*
X71834171Y-80205962D01*
X71818432Y-80216970D01*
X71741256Y-80287829D01*
X71690241Y-80368221D01*
X71667091Y-80455600D01*
X71666111Y-80466269D01*
X71664227Y-80494381D01*
X71663950Y-80522766D01*
X71665884Y-80553269D01*
X71670634Y-80587733D01*
X71678805Y-80628002D01*
X71691001Y-80675920D01*
X71707825Y-80733330D01*
X71729883Y-80802076D01*
X71757780Y-80884002D01*
X71792118Y-80980953D01*
X71833504Y-81094770D01*
X71882541Y-81227299D01*
X71939834Y-81380383D01*
X72005987Y-81555865D01*
X72081604Y-81755590D01*
X72167291Y-81981401D01*
X72253384Y-82208135D01*
X72371792Y-82519915D01*
X72480343Y-82805658D01*
X72579475Y-83066508D01*
X72669628Y-83303611D01*
X72751240Y-83518114D01*
X72824751Y-83711161D01*
X72890598Y-83883899D01*
X72949220Y-84037474D01*
X73001057Y-84173031D01*
X73046547Y-84291715D01*
X73086129Y-84394674D01*
X73120241Y-84483051D01*
X73149323Y-84557994D01*
X73173813Y-84620648D01*
X73194149Y-84672158D01*
X73210772Y-84713671D01*
X73224119Y-84746332D01*
X73234629Y-84771287D01*
X73242742Y-84789681D01*
X73313085Y-84926767D01*
X73394721Y-85046840D01*
X73488903Y-85147111D01*
X73600453Y-85232673D01*
X73734197Y-85308620D01*
X73809083Y-85342635D01*
X73897550Y-85374704D01*
X73997725Y-85402509D01*
X74115670Y-85427709D01*
X74257446Y-85451964D01*
X74257526Y-85451977D01*
X74272507Y-85453416D01*
X74298887Y-85454799D01*
X74337304Y-85456128D01*
X74388396Y-85457403D01*
X74452801Y-85458628D01*
X74531157Y-85459805D01*
X74624102Y-85460935D01*
X74732274Y-85462022D01*
X74856310Y-85463067D01*
X74996850Y-85464072D01*
X75154530Y-85465040D01*
X75329989Y-85465973D01*
X75523864Y-85466873D01*
X75736794Y-85467741D01*
X75969417Y-85468581D01*
X76222370Y-85469395D01*
X76496292Y-85470184D01*
X76791820Y-85470951D01*
X77109593Y-85471698D01*
X77450248Y-85472427D01*
X77814423Y-85473140D01*
X78202757Y-85473840D01*
X78615887Y-85474528D01*
X79054451Y-85475208D01*
X79519087Y-85475880D01*
X80010433Y-85476547D01*
X80529128Y-85477212D01*
X81075809Y-85477877D01*
X81651113Y-85478543D01*
X82255680Y-85479213D01*
X82613842Y-85479603D01*
X83176920Y-85480223D01*
X83711336Y-85480821D01*
X84217860Y-85481402D01*
X84697261Y-85481968D01*
X85150309Y-85482523D01*
X85577771Y-85483071D01*
X85980418Y-85483614D01*
X86359019Y-85484156D01*
X86714342Y-85484701D01*
X87047157Y-85485252D01*
X87358233Y-85485811D01*
X87648339Y-85486384D01*
X87918244Y-85486972D01*
X88168717Y-85487579D01*
X88400528Y-85488209D01*
X88614446Y-85488866D01*
X88811239Y-85489551D01*
X88991677Y-85490270D01*
X89156530Y-85491024D01*
X89306565Y-85491818D01*
X89442553Y-85492655D01*
X89565262Y-85493538D01*
X89675461Y-85494471D01*
X89773920Y-85495457D01*
X89861408Y-85496499D01*
X89938694Y-85497601D01*
X90006547Y-85498766D01*
X90065737Y-85499998D01*
X90117031Y-85501299D01*
X90161200Y-85502674D01*
X90199013Y-85504125D01*
X90231238Y-85505656D01*
X90258645Y-85507271D01*
X90282004Y-85508972D01*
X90302082Y-85510764D01*
X90319650Y-85512648D01*
X90335476Y-85514630D01*
X90358591Y-85517670D01*
X90444189Y-85527682D01*
X90505485Y-85532204D01*
X90546597Y-85531428D01*
X90571641Y-85525543D01*
X90572561Y-85525140D01*
X90605792Y-85517293D01*
X90657595Y-85511716D01*
X90717164Y-85509594D01*
X90827683Y-85509594D01*
X90832323Y-85453532D01*
X90837138Y-85419662D01*
X90849191Y-85401599D01*
X90874338Y-85397469D01*
X90884840Y-85396273D01*
X90923999Y-85381861D01*
X90965449Y-85356357D01*
X90971224Y-85352060D01*
X91033571Y-85321156D01*
X91093705Y-85319460D01*
X91149948Y-85347057D01*
X91190392Y-85378870D01*
X91238639Y-85332107D01*
X91252498Y-85319244D01*
X91282928Y-85294975D01*
X91302064Y-85285344D01*
X91306544Y-85286481D01*
X91329923Y-85302097D01*
X91360212Y-85330194D01*
X91378141Y-85347574D01*
X91416865Y-85370923D01*
X91454696Y-85367481D01*
X91499510Y-85337669D01*
X91508044Y-85330593D01*
X91536068Y-85308993D01*
X91550799Y-85300294D01*
X91552298Y-85300722D01*
X91569950Y-85313234D01*
X91597999Y-85337669D01*
X91642887Y-85368503D01*
X91682359Y-85370999D01*
X91719011Y-85345144D01*
X91740055Y-85325163D01*
X91762843Y-85317297D01*
X91793428Y-85324808D01*
X91840612Y-85347893D01*
X91902412Y-85380625D01*
X91951092Y-85339664D01*
X91954519Y-85336828D01*
X91994649Y-85311582D01*
X92023841Y-85308530D01*
X92052889Y-85319751D01*
X92109182Y-85334526D01*
X92162249Y-85334301D01*
X92227087Y-85319917D01*
X92238886Y-85316847D01*
X92296886Y-85306210D01*
X92375353Y-85297761D01*
X92477420Y-85291222D01*
X92606222Y-85286316D01*
X92895433Y-85277869D01*
X92915159Y-85220390D01*
X92939036Y-85168182D01*
X92990380Y-85108989D01*
X93059592Y-85073512D01*
X93070147Y-85069973D01*
X93105271Y-85051947D01*
X93122636Y-85032651D01*
X93129480Y-85004391D01*
X93138384Y-84963920D01*
X93148811Y-84916149D01*
X93161527Y-84877183D01*
X93180282Y-84853676D01*
X93211041Y-84841721D01*
X93259769Y-84837413D01*
X93332432Y-84836845D01*
X93352959Y-84836949D01*
X93426718Y-84839563D01*
X93477531Y-84845436D01*
X93501975Y-84854217D01*
X93502976Y-84855361D01*
X93514111Y-84880536D01*
X93526548Y-84925481D01*
X93537780Y-84981292D01*
X93556213Y-85090995D01*
X93662817Y-85090995D01*
X93719099Y-85089885D01*
X93756849Y-85084862D01*
X93782338Y-85073562D01*
X93804532Y-85053620D01*
X93812426Y-85045375D01*
X93825136Y-85034593D01*
X93841299Y-85026866D01*
X93865322Y-85021685D01*
X93901614Y-85018541D01*
X93954582Y-85016926D01*
X94028634Y-85016330D01*
X94128179Y-85016245D01*
X94416713Y-85016245D01*
X94462053Y-85103923D01*
X94505892Y-85060084D01*
X94545758Y-85030158D01*
X94594595Y-85018811D01*
X94639566Y-85034785D01*
X94677354Y-85076695D01*
X94704644Y-85143155D01*
X94720491Y-85184808D01*
X94748665Y-85222048D01*
X94781108Y-85236957D01*
X94813145Y-85225968D01*
X94831233Y-85215617D01*
X94855545Y-85223088D01*
X94872284Y-85230845D01*
X94906183Y-85231091D01*
X94926827Y-85229644D01*
X94948002Y-85240166D01*
X94961948Y-85247554D01*
X94987064Y-85231676D01*
X95002149Y-85218988D01*
X95020515Y-85214380D01*
X95043236Y-85231080D01*
X95055416Y-85241482D01*
X95073185Y-85247931D01*
X95090230Y-85233020D01*
X95098892Y-85223477D01*
X95114629Y-85218411D01*
X95137223Y-85234959D01*
X95151445Y-85246962D01*
X95169847Y-85251771D01*
X95192736Y-85234959D01*
X95204916Y-85224557D01*
X95222684Y-85218108D01*
X95239729Y-85233020D01*
X95248235Y-85242424D01*
X95263978Y-85247723D01*
X95286442Y-85231333D01*
X95289219Y-85228866D01*
X95313724Y-85215028D01*
X95335668Y-85224519D01*
X95354286Y-85234226D01*
X95386704Y-85226896D01*
X95412023Y-85219259D01*
X95434653Y-85233711D01*
X95440776Y-85240690D01*
X95456851Y-85248425D01*
X95478286Y-85233601D01*
X95501667Y-85219423D01*
X95521366Y-85229112D01*
X95540333Y-85239642D01*
X95567727Y-85229577D01*
X95567733Y-85229573D01*
X95594040Y-85219970D01*
X95614560Y-85234323D01*
X95628910Y-85246485D01*
X95648725Y-85241128D01*
X95654325Y-85236524D01*
X95680758Y-85226791D01*
X95706533Y-85228074D01*
X95718128Y-85240495D01*
X95720658Y-85247372D01*
X95740553Y-85255445D01*
X95750869Y-85253758D01*
X95762978Y-85240495D01*
X95764598Y-85232748D01*
X95780006Y-85225412D01*
X95803001Y-85233878D01*
X95822778Y-85255445D01*
X95844428Y-85276968D01*
X95888748Y-85285344D01*
X95920612Y-85287869D01*
X95946071Y-85298983D01*
X95963632Y-85322960D01*
X95975127Y-85364057D01*
X95982382Y-85426532D01*
X95987228Y-85514643D01*
X95994703Y-85694661D01*
X96047028Y-85707873D01*
X96050629Y-85708819D01*
X96092075Y-85724251D01*
X96121244Y-85742415D01*
X96125708Y-85746894D01*
X96135549Y-85765388D01*
X96121209Y-85785669D01*
X96115886Y-85790263D01*
X96082763Y-85809970D01*
X96039518Y-85828231D01*
X95979753Y-85848867D01*
X95975339Y-85948049D01*
X95974263Y-85993274D01*
X95978853Y-86050187D01*
X95993793Y-86085145D01*
X96021667Y-86102747D01*
X96065064Y-86107593D01*
X96086591Y-86107116D01*
X96128048Y-86100407D01*
X96155552Y-86082170D01*
X96171826Y-86047852D01*
X96179593Y-85992899D01*
X96181577Y-85912757D01*
X96181582Y-85908265D01*
X96183836Y-85828395D01*
X96191085Y-85775264D01*
X96204585Y-85746069D01*
X96225595Y-85738009D01*
X96255372Y-85748282D01*
X96261714Y-85752002D01*
X96272904Y-85762945D01*
X96280045Y-85781685D01*
X96284019Y-85813746D01*
X96285709Y-85864653D01*
X96285998Y-85939932D01*
X96285096Y-86005899D01*
X96282568Y-86067087D01*
X96278821Y-86111740D01*
X96274262Y-86133175D01*
X96246946Y-86155786D01*
X96199921Y-86176468D01*
X96143627Y-86191492D01*
X96088399Y-86197293D01*
X96081634Y-86197441D01*
X96022640Y-86207034D01*
X95968373Y-86227193D01*
X95960572Y-86231109D01*
X95907172Y-86249580D01*
X95855258Y-86257093D01*
X95830974Y-86258128D01*
X95798804Y-86268434D01*
X95777928Y-86294467D01*
X95763063Y-86317118D01*
X95737562Y-86330538D01*
X95703984Y-86317707D01*
X95689957Y-86312403D01*
X95654441Y-86318973D01*
X95634993Y-86325815D01*
X95605048Y-86316099D01*
X95585615Y-86305985D01*
X95561154Y-86316892D01*
X95540232Y-86327967D01*
X95516304Y-86316892D01*
X95495382Y-86305818D01*
X95471454Y-86316892D01*
X95450532Y-86327967D01*
X95426604Y-86316892D01*
X95406621Y-86306066D01*
X95382710Y-86316099D01*
X95360195Y-86326361D01*
X95328780Y-86316545D01*
X95305014Y-86307542D01*
X95280684Y-86314808D01*
X95267899Y-86322229D01*
X95236483Y-86315155D01*
X95215682Y-86307867D01*
X95186449Y-86317686D01*
X95166185Y-86327708D01*
X95141341Y-86315885D01*
X95140737Y-86315387D01*
X95116213Y-86303851D01*
X95087844Y-86314913D01*
X95062475Y-86325557D01*
X95037689Y-86316713D01*
X95021305Y-86308218D01*
X94988501Y-86315329D01*
X94969178Y-86322826D01*
X94950570Y-86321749D01*
X94930701Y-86314855D01*
X94893620Y-86310854D01*
X94851225Y-86310174D01*
X94815171Y-86312988D01*
X94797113Y-86319468D01*
X94786825Y-86323924D01*
X94761406Y-86316933D01*
X94752509Y-86312178D01*
X94734340Y-86304900D01*
X94723067Y-86310947D01*
X94714104Y-86335578D01*
X94702863Y-86384053D01*
X94681891Y-86447656D01*
X94649563Y-86492507D01*
X94609417Y-86509617D01*
X94563212Y-86498302D01*
X94512708Y-86457879D01*
X94462380Y-86404516D01*
X94446470Y-86446362D01*
X94430713Y-86478127D01*
X94412808Y-86499496D01*
X94412795Y-86499504D01*
X94392767Y-86503072D01*
X94347863Y-86506200D01*
X94283097Y-86508695D01*
X94203482Y-86510364D01*
X94114030Y-86511013D01*
X94061537Y-86511044D01*
X93976738Y-86510821D01*
X93915129Y-86509780D01*
X93872236Y-86507393D01*
X93843587Y-86503135D01*
X93824708Y-86496479D01*
X93811126Y-86486898D01*
X93798366Y-86473867D01*
X93777702Y-86454809D01*
X93752729Y-86443032D01*
X93715911Y-86437727D01*
X93658243Y-86436492D01*
X93616942Y-86436229D01*
X93581424Y-86438035D01*
X93559852Y-86447274D01*
X93547044Y-86469366D01*
X93537817Y-86509735D01*
X93526988Y-86573802D01*
X93519081Y-86604795D01*
X93488165Y-86653835D01*
X93438258Y-86679889D01*
X93413233Y-86683926D01*
X93361509Y-86687574D01*
X93302603Y-86688505D01*
X93248825Y-86686614D01*
X93212484Y-86681798D01*
X93186659Y-86664998D01*
X93159241Y-86625371D01*
X93139415Y-86573167D01*
X93131783Y-86517741D01*
X93131681Y-86512157D01*
X93125656Y-86477176D01*
X93113096Y-86460096D01*
X93053655Y-86441191D01*
X92984463Y-86410209D01*
X92939385Y-86374194D01*
X92914912Y-86329976D01*
X92907534Y-86274384D01*
X92902177Y-86242807D01*
X92883886Y-86221317D01*
X92873623Y-86219418D01*
X92835929Y-86216572D01*
X92777421Y-86214298D01*
X92703779Y-86212789D01*
X92620682Y-86212243D01*
X92520104Y-86211239D01*
X92423097Y-86207207D01*
X92347945Y-86199802D01*
X92290333Y-86188716D01*
X92238973Y-86177295D01*
X92186872Y-86173220D01*
X92138675Y-86180512D01*
X92094295Y-86186849D01*
X92034879Y-86184763D01*
X91981566Y-86173144D01*
X91945918Y-86153605D01*
X91924729Y-86140706D01*
X91885735Y-86141935D01*
X91846086Y-86167393D01*
X91837251Y-86175523D01*
X91796906Y-86194927D01*
X91752331Y-86186962D01*
X91700463Y-86151288D01*
X91648067Y-86105284D01*
X91600602Y-86151288D01*
X91580733Y-86169216D01*
X91540479Y-86193139D01*
X91507833Y-86190362D01*
X91479259Y-86161173D01*
X91459529Y-86135158D01*
X91429055Y-86115600D01*
X91396836Y-86124155D01*
X91358619Y-86160810D01*
X91312177Y-86216041D01*
X91249063Y-86159020D01*
X91185948Y-86102000D01*
X91148659Y-86149646D01*
X91140716Y-86159340D01*
X91113448Y-86186660D01*
X91093766Y-86197972D01*
X91089037Y-86197247D01*
X91060587Y-86187172D01*
X91015512Y-86167689D01*
X90961173Y-86141910D01*
X90937901Y-86130310D01*
X90889811Y-86104465D01*
X90861895Y-86084468D01*
X90848834Y-86065829D01*
X90845311Y-86044055D01*
X90844438Y-86002943D01*
X90724312Y-86002943D01*
X90671711Y-86001738D01*
X90608236Y-85994466D01*
X90569578Y-85980266D01*
X90558655Y-85973741D01*
X90538450Y-85966916D01*
X90511384Y-85966772D01*
X90470114Y-85973655D01*
X90407300Y-85987911D01*
X90398434Y-85989989D01*
X90388910Y-85992053D01*
X90378373Y-85994013D01*
X90366083Y-85995872D01*
X90351300Y-85997630D01*
X90333283Y-85999292D01*
X90311290Y-86000858D01*
X90284582Y-86002332D01*
X90252417Y-86003715D01*
X90214056Y-86005010D01*
X90168756Y-86006218D01*
X90115778Y-86007343D01*
X90054381Y-86008386D01*
X89983823Y-86009349D01*
X89903365Y-86010235D01*
X89812266Y-86011047D01*
X89709784Y-86011785D01*
X89595180Y-86012453D01*
X89467712Y-86013052D01*
X89326640Y-86013586D01*
X89171223Y-86014055D01*
X89000720Y-86014463D01*
X88814391Y-86014811D01*
X88611494Y-86015103D01*
X88391290Y-86015339D01*
X88153038Y-86015522D01*
X87895996Y-86015655D01*
X87619424Y-86015740D01*
X87322581Y-86015779D01*
X87004727Y-86015774D01*
X86665121Y-86015727D01*
X86303023Y-86015641D01*
X85917690Y-86015517D01*
X85508384Y-86015359D01*
X85074362Y-86015168D01*
X84614885Y-86014947D01*
X84129211Y-86014697D01*
X83616601Y-86014421D01*
X83076312Y-86014122D01*
X82507605Y-86013801D01*
X81909739Y-86013460D01*
X81525641Y-86013239D01*
X80941923Y-86012893D01*
X80386919Y-86012550D01*
X79859902Y-86012207D01*
X79360145Y-86011861D01*
X78886922Y-86011511D01*
X78439507Y-86011154D01*
X78017171Y-86010788D01*
X77619189Y-86010410D01*
X77244834Y-86010017D01*
X76893379Y-86009608D01*
X76564097Y-86009179D01*
X76256262Y-86008729D01*
X75969147Y-86008255D01*
X75702026Y-86007755D01*
X75454171Y-86007226D01*
X75224856Y-86006666D01*
X75013353Y-86006072D01*
X74818938Y-86005442D01*
X74640882Y-86004773D01*
X74478459Y-86004064D01*
X74330942Y-86003311D01*
X74197605Y-86002512D01*
X74077720Y-86001666D01*
X73970562Y-86000768D01*
X73875403Y-85999818D01*
X73791517Y-85998813D01*
X73718176Y-85997749D01*
X73654655Y-85996625D01*
X73600226Y-85995439D01*
X73554164Y-85994188D01*
X73515740Y-85992869D01*
X73484228Y-85991480D01*
X73458903Y-85990018D01*
X73439036Y-85988482D01*
X73423901Y-85986869D01*
X73412772Y-85985176D01*
X73408947Y-85984467D01*
X73248382Y-85950605D01*
X73112791Y-85912546D01*
X72997419Y-85868149D01*
X72897512Y-85815273D01*
X72808315Y-85751777D01*
X72725074Y-85675521D01*
X72705893Y-85656245D01*
X72685294Y-85635787D01*
X72666393Y-85616543D01*
X72648601Y-85597126D01*
X72631329Y-85576147D01*
X72613990Y-85552220D01*
X72595992Y-85523955D01*
X72576749Y-85489966D01*
X72555671Y-85448863D01*
X72532168Y-85399260D01*
X72505653Y-85339768D01*
X72475536Y-85268999D01*
X72441229Y-85185565D01*
X72402142Y-85088079D01*
X72357687Y-84975152D01*
X72307275Y-84845397D01*
X72250317Y-84697425D01*
X72186224Y-84529849D01*
X72114408Y-84341280D01*
X72034278Y-84130331D01*
X71945248Y-83895614D01*
X71846726Y-83635741D01*
X71738126Y-83349323D01*
X71719425Y-83300013D01*
X71649514Y-83115668D01*
X71580803Y-82934474D01*
X71514337Y-82759185D01*
X71451161Y-82592560D01*
X71392319Y-82437354D01*
X71338856Y-82296323D01*
X71291818Y-82172223D01*
X71252250Y-82067812D01*
X71221195Y-81985844D01*
X71199700Y-81929076D01*
X71170463Y-81851894D01*
X71129847Y-81744810D01*
X71083658Y-81623142D01*
X71034582Y-81493965D01*
X70985306Y-81364352D01*
X70938517Y-81241377D01*
X70870484Y-81062437D01*
X70799145Y-80874079D01*
X70737385Y-80709900D01*
X70684530Y-80567891D01*
X70639908Y-80446048D01*
X70602849Y-80342362D01*
X70572679Y-80254828D01*
X70548727Y-80181439D01*
X70530321Y-80120189D01*
X70516789Y-80069070D01*
X70507459Y-80026076D01*
X70501659Y-79989201D01*
X70498717Y-79956438D01*
X70497961Y-79925780D01*
X70503229Y-79875023D01*
X70533904Y-79792058D01*
X70588923Y-79716717D01*
X70664795Y-79653287D01*
X70758032Y-79606059D01*
X70776341Y-79599239D01*
X70811837Y-79586461D01*
X70846213Y-79575239D01*
X70881539Y-79565463D01*
X70919882Y-79557019D01*
X70963310Y-79549797D01*
X71013890Y-79543683D01*
X71073692Y-79538567D01*
X71144782Y-79534337D01*
X71229228Y-79530880D01*
X71329100Y-79528085D01*
X71446463Y-79525839D01*
X71583387Y-79524032D01*
X71741938Y-79522550D01*
X71924186Y-79521283D01*
X72132198Y-79520118D01*
X72368041Y-79518943D01*
X72445273Y-79518569D01*
X72661099Y-79517560D01*
X72849518Y-79516766D01*
X73012409Y-79516218D01*
X73151646Y-79515945D01*
X73269107Y-79515979D01*
G37*
G36*
X78964185Y-78294609D02*
G01*
X78993216Y-78318361D01*
X79038408Y-78357802D01*
X79096642Y-78410153D01*
X79164799Y-78472637D01*
X79239757Y-78542476D01*
X79295466Y-78594896D01*
X79367119Y-78663029D01*
X79420634Y-78715331D01*
X79458405Y-78754478D01*
X79482829Y-78783144D01*
X79496300Y-78804005D01*
X79501215Y-78819735D01*
X79499970Y-78833009D01*
X79494274Y-78844317D01*
X79469946Y-78877570D01*
X79430501Y-78924623D01*
X79379812Y-78980937D01*
X79321748Y-79041974D01*
X79286398Y-79078459D01*
X79225564Y-79143978D01*
X79184225Y-79194364D01*
X79160573Y-79233007D01*
X79152803Y-79263299D01*
X79159107Y-79288629D01*
X79177680Y-79312390D01*
X79191827Y-79319220D01*
X79233746Y-79326874D01*
X79295737Y-79331855D01*
X79372043Y-79334269D01*
X79456911Y-79334221D01*
X79544584Y-79331819D01*
X79629307Y-79327167D01*
X79705325Y-79320371D01*
X79766882Y-79311538D01*
X79808224Y-79300775D01*
X79818669Y-79296865D01*
X79869759Y-79284329D01*
X79909760Y-79284575D01*
X79924332Y-79291510D01*
X79959852Y-79317255D01*
X80005207Y-79356542D01*
X80054086Y-79404141D01*
X80161015Y-79514322D01*
X87988159Y-79518474D01*
X88394765Y-79518691D01*
X88953076Y-79518995D01*
X89482789Y-79519294D01*
X89984673Y-79519591D01*
X90459495Y-79519888D01*
X90908023Y-79520189D01*
X91331024Y-79520496D01*
X91729266Y-79520812D01*
X92103516Y-79521141D01*
X92454543Y-79521486D01*
X92783113Y-79521849D01*
X93089995Y-79522233D01*
X93375955Y-79522642D01*
X93641763Y-79523078D01*
X93888184Y-79523544D01*
X94115987Y-79524044D01*
X94325940Y-79524581D01*
X94518809Y-79525156D01*
X94695364Y-79525774D01*
X94856370Y-79526437D01*
X95002597Y-79527149D01*
X95134810Y-79527912D01*
X95253779Y-79528729D01*
X95360271Y-79529603D01*
X95455052Y-79530538D01*
X95538892Y-79531535D01*
X95612557Y-79532599D01*
X95676815Y-79533733D01*
X95732434Y-79534938D01*
X95780182Y-79536218D01*
X95820825Y-79537577D01*
X95855132Y-79539017D01*
X95883869Y-79540541D01*
X95907806Y-79542152D01*
X95927709Y-79543853D01*
X95944346Y-79545648D01*
X95958485Y-79547538D01*
X95970892Y-79549527D01*
X96057215Y-79566096D01*
X96244680Y-79615791D01*
X96407017Y-79680229D01*
X96545109Y-79759881D01*
X96659840Y-79855218D01*
X96752093Y-79966714D01*
X96756370Y-79973013D01*
X96771860Y-79996022D01*
X96786416Y-80018447D01*
X96800680Y-80041876D01*
X96815293Y-80067892D01*
X96830895Y-80098082D01*
X96848129Y-80134031D01*
X96867634Y-80177325D01*
X96890051Y-80229549D01*
X96916023Y-80292288D01*
X96946189Y-80367129D01*
X96981191Y-80455656D01*
X97021670Y-80559455D01*
X97068266Y-80680112D01*
X97121621Y-80819212D01*
X97182376Y-80978340D01*
X97251172Y-81159083D01*
X97328650Y-81363026D01*
X97415450Y-81591753D01*
X97512214Y-81846851D01*
X97559314Y-81971029D01*
X97659091Y-82234079D01*
X97749430Y-82472245D01*
X97831144Y-82687659D01*
X97905040Y-82882455D01*
X97971929Y-83058766D01*
X98032621Y-83218725D01*
X98087925Y-83364467D01*
X98138651Y-83498124D01*
X98185609Y-83621830D01*
X98229608Y-83737718D01*
X98271458Y-83847922D01*
X98311970Y-83954575D01*
X98351951Y-84059811D01*
X98392213Y-84165762D01*
X98433565Y-84274563D01*
X98476817Y-84388346D01*
X98507500Y-84469095D01*
X98577211Y-84652957D01*
X98637208Y-84812059D01*
X98688236Y-84948642D01*
X98731041Y-85064950D01*
X98766368Y-85163225D01*
X98794961Y-85245711D01*
X98817565Y-85314649D01*
X98834926Y-85372284D01*
X98847789Y-85420857D01*
X98856898Y-85462612D01*
X98862999Y-85499791D01*
X98866838Y-85534638D01*
X98869157Y-85569394D01*
X98871647Y-85626748D01*
X98870842Y-85670791D01*
X98864267Y-85703165D01*
X98849849Y-85733448D01*
X98825519Y-85771219D01*
X98803034Y-85801106D01*
X98737346Y-85861857D01*
X98650989Y-85911441D01*
X98541921Y-85950670D01*
X98408103Y-85980357D01*
X98247493Y-86001313D01*
X98223923Y-86002927D01*
X98166284Y-86005244D01*
X98084104Y-86007454D01*
X97980573Y-86009511D01*
X97858878Y-86011370D01*
X97722208Y-86012982D01*
X97573753Y-86014300D01*
X97416700Y-86015280D01*
X97254238Y-86015873D01*
X96390877Y-86017893D01*
X96390657Y-85879606D01*
X96390486Y-85860954D01*
X96387334Y-85792659D01*
X96380874Y-85738118D01*
X96371969Y-85705385D01*
X96340184Y-85662590D01*
X96278362Y-85622769D01*
X96194848Y-85601649D01*
X96193782Y-85601519D01*
X96147972Y-85595046D01*
X96124361Y-85586337D01*
X96115591Y-85569712D01*
X96114303Y-85539494D01*
X96114303Y-85487169D01*
X96562802Y-85477701D01*
X96629720Y-85476196D01*
X96786970Y-85471678D01*
X96919751Y-85466089D01*
X97031996Y-85459094D01*
X97127636Y-85450360D01*
X97210605Y-85439552D01*
X97284833Y-85426335D01*
X97354253Y-85410374D01*
X97448066Y-85380724D01*
X97552821Y-85327871D01*
X97631998Y-85260138D01*
X97686016Y-85177139D01*
X97715293Y-85078489D01*
X97715877Y-85074781D01*
X97718718Y-85053571D01*
X97720239Y-85031804D01*
X97719920Y-85007959D01*
X97717244Y-84980515D01*
X97711692Y-84947950D01*
X97702744Y-84908745D01*
X97689882Y-84861377D01*
X97672587Y-84804326D01*
X97650341Y-84736071D01*
X97622624Y-84655090D01*
X97588918Y-84559863D01*
X97548705Y-84448868D01*
X97501465Y-84320585D01*
X97446679Y-84173493D01*
X97383829Y-84006069D01*
X97312396Y-83816794D01*
X97231861Y-83604147D01*
X97141706Y-83366605D01*
X97041412Y-83102649D01*
X97019900Y-83046042D01*
X96973093Y-82922843D01*
X96918381Y-82778798D01*
X96857512Y-82618515D01*
X96792235Y-82446599D01*
X96724298Y-82267656D01*
X96655451Y-82086292D01*
X96587442Y-81907114D01*
X96522021Y-81734726D01*
X96464222Y-81582643D01*
X96389204Y-81386356D01*
X96322889Y-81214764D01*
X96264318Y-81065881D01*
X96212530Y-80937724D01*
X96166565Y-80828308D01*
X96125462Y-80735650D01*
X96088261Y-80657764D01*
X96054003Y-80592666D01*
X96021725Y-80538373D01*
X95990469Y-80492900D01*
X95959273Y-80454262D01*
X95927178Y-80420476D01*
X95893222Y-80389557D01*
X95856447Y-80359520D01*
X95835923Y-80343676D01*
X95742350Y-80278963D01*
X95644775Y-80224845D01*
X95539531Y-80180337D01*
X95422951Y-80144452D01*
X95291367Y-80116204D01*
X95141113Y-80094609D01*
X94968522Y-80078680D01*
X94769928Y-80067432D01*
X94750027Y-80066833D01*
X94694807Y-80065904D01*
X94611108Y-80064995D01*
X94499800Y-80064108D01*
X94361751Y-80063243D01*
X94197830Y-80062403D01*
X94008907Y-80061590D01*
X93795850Y-80060804D01*
X93559528Y-80060048D01*
X93300810Y-80059322D01*
X93020566Y-80058630D01*
X92719664Y-80057972D01*
X92398972Y-80057350D01*
X92059361Y-80056766D01*
X91701700Y-80056222D01*
X91326856Y-80055718D01*
X90935699Y-80055257D01*
X90529098Y-80054841D01*
X90107922Y-80054470D01*
X89673040Y-80054148D01*
X89225321Y-80053874D01*
X88765634Y-80053652D01*
X88294847Y-80053482D01*
X87813831Y-80053366D01*
X87323453Y-80053306D01*
X80192050Y-80052855D01*
X80136628Y-80090515D01*
X80123338Y-80100051D01*
X80087500Y-80130865D01*
X80065658Y-80157226D01*
X80055955Y-80170356D01*
X80024839Y-80200314D01*
X79984104Y-80231690D01*
X79970867Y-80240384D01*
X79899204Y-80271559D01*
X79827652Y-80273729D01*
X79751560Y-80247204D01*
X79747414Y-80245125D01*
X79718452Y-80233149D01*
X79685006Y-80225137D01*
X79640726Y-80220356D01*
X79579264Y-80218075D01*
X79494268Y-80217564D01*
X79295586Y-80217823D01*
X79089461Y-80335816D01*
X79004617Y-80385564D01*
X78934389Y-80430626D01*
X78880569Y-80471533D01*
X78837743Y-80512935D01*
X78800495Y-80559482D01*
X78763412Y-80615824D01*
X78756942Y-80626150D01*
X78739742Y-80648581D01*
X78719231Y-80660386D01*
X78686548Y-80664946D01*
X78632830Y-80665642D01*
X78584238Y-80663511D01*
X78515842Y-80655357D01*
X78459749Y-80643217D01*
X78402042Y-80631469D01*
X78322068Y-80623715D01*
X78228736Y-80620954D01*
X78181905Y-80620887D01*
X78126678Y-80619784D01*
X78089981Y-80616019D01*
X78064807Y-80607954D01*
X78044148Y-80593949D01*
X78020997Y-80572366D01*
X77970883Y-80523779D01*
X76783991Y-80508829D01*
X76779445Y-80438099D01*
X76779158Y-80433662D01*
X76776116Y-80400669D01*
X76769640Y-80374910D01*
X76756419Y-80355490D01*
X76733147Y-80341513D01*
X76696514Y-80332085D01*
X76643214Y-80326310D01*
X76569939Y-80323293D01*
X76473379Y-80322140D01*
X76350228Y-80321954D01*
X75990393Y-80321954D01*
X75924367Y-80254679D01*
X75901732Y-80231850D01*
X75872349Y-80206183D01*
X75844838Y-80193045D01*
X75808607Y-80188302D01*
X75753067Y-80187820D01*
X75700144Y-80189129D01*
X75657874Y-80195019D01*
X75624565Y-80208516D01*
X75589067Y-80232670D01*
X75569387Y-80246497D01*
X75530255Y-80268447D01*
X75502134Y-80277104D01*
X75478450Y-80267229D01*
X75442412Y-80240738D01*
X75402189Y-80203454D01*
X75359869Y-80163499D01*
X75318471Y-80135734D01*
X75279927Y-80124967D01*
X75275072Y-80124445D01*
X75234747Y-80111229D01*
X75209794Y-80079017D01*
X75207411Y-80073965D01*
X75197246Y-80053559D01*
X75185788Y-80041594D01*
X75165894Y-80035617D01*
X75130419Y-80033179D01*
X75072219Y-80031829D01*
X75024108Y-80029399D01*
X74980280Y-80024333D01*
X74956357Y-80017939D01*
X74949750Y-80009500D01*
X74940852Y-79973591D01*
X74937669Y-79916177D01*
X74935892Y-79864298D01*
X74929949Y-79837980D01*
X74918982Y-79833842D01*
X74908154Y-79838213D01*
X74851288Y-79858938D01*
X74785359Y-79880337D01*
X74717822Y-79900290D01*
X74656129Y-79916676D01*
X74607733Y-79927376D01*
X74580088Y-79930267D01*
X74574018Y-79929527D01*
X74558217Y-79925496D01*
X74548452Y-79914681D01*
X74543116Y-79891306D01*
X74540599Y-79849590D01*
X74539293Y-79783755D01*
X74538654Y-79715081D01*
X74539976Y-79647732D01*
X74544595Y-79602753D01*
X74553424Y-79575892D01*
X74567373Y-79562893D01*
X74587354Y-79559506D01*
X74596342Y-79560479D01*
X74633085Y-79568631D01*
X74686899Y-79583160D01*
X74750091Y-79601760D01*
X74814965Y-79622124D01*
X74873827Y-79641946D01*
X74918982Y-79658919D01*
X74929899Y-79654868D01*
X74935870Y-79628694D01*
X74937669Y-79576584D01*
X74938990Y-79535447D01*
X74943486Y-79496759D01*
X74950068Y-79478858D01*
X74950297Y-79478723D01*
X74971178Y-79472575D01*
X75012633Y-79463961D01*
X75065930Y-79454701D01*
X75113327Y-79445626D01*
X75169549Y-79427202D01*
X75207587Y-79401682D01*
X75209645Y-79399762D01*
X75246601Y-79375198D01*
X75282337Y-79364967D01*
X75303976Y-79359660D01*
X75341839Y-79333271D01*
X75390841Y-79282743D01*
X75418192Y-79253174D01*
X75465185Y-79214426D01*
X75507735Y-79200926D01*
X75551701Y-79211645D01*
X75602943Y-79245556D01*
X75624060Y-79261665D01*
X75651039Y-79277411D01*
X75681513Y-79285973D01*
X75724279Y-79289463D01*
X75788136Y-79289990D01*
X75830023Y-79289609D01*
X75880614Y-79287051D01*
X75915748Y-79280221D01*
X75944419Y-79266968D01*
X75975618Y-79245140D01*
X76034343Y-79200706D01*
X76725682Y-79200706D01*
X76856798Y-79058682D01*
X76987913Y-78916657D01*
X77260534Y-78916657D01*
X77286020Y-78916661D01*
X77376285Y-78916897D01*
X77442613Y-78917905D01*
X77489821Y-78920244D01*
X77522727Y-78924468D01*
X77546150Y-78931137D01*
X77564906Y-78940805D01*
X77583814Y-78954032D01*
X77590897Y-78959170D01*
X77614801Y-78973948D01*
X77640882Y-78983371D01*
X77676069Y-78988629D01*
X77727290Y-78990911D01*
X77801477Y-78991407D01*
X77866642Y-78990950D01*
X77922213Y-78988679D01*
X77959748Y-78983641D01*
X77985693Y-78974897D01*
X78006493Y-78961507D01*
X78025093Y-78949229D01*
X78049965Y-78940153D01*
X78085664Y-78934798D01*
X78138542Y-78932253D01*
X78214951Y-78931607D01*
X78231326Y-78931561D01*
X78320046Y-78929084D01*
X78379891Y-78922857D01*
X78410461Y-78912920D01*
X78418311Y-78905166D01*
X78428927Y-78881141D01*
X78434956Y-78839697D01*
X78437616Y-78774632D01*
X78439709Y-78655033D01*
X78568648Y-78522994D01*
X78618926Y-78471855D01*
X78658475Y-78433620D01*
X78686775Y-78410600D01*
X78708786Y-78399498D01*
X78729465Y-78397015D01*
X78753771Y-78399852D01*
X78778101Y-78402695D01*
X78806912Y-78399230D01*
X78835813Y-78382687D01*
X78875042Y-78348754D01*
X78904820Y-78322662D01*
X78936688Y-78298202D01*
X78954820Y-78288758D01*
X78964185Y-78294609D01*
G37*
G36*
X94962217Y-81081990D02*
G01*
X95143382Y-81117687D01*
X95318080Y-81176928D01*
X95481916Y-81258271D01*
X95630496Y-81360273D01*
X95759426Y-81481490D01*
X95818772Y-81553063D01*
X95907509Y-81692651D01*
X95967764Y-81839109D01*
X95999260Y-81990745D01*
X96001724Y-82145866D01*
X95974881Y-82302782D01*
X95918454Y-82459800D01*
X95902560Y-82492848D01*
X95873383Y-82550609D01*
X95835698Y-82623383D01*
X95792637Y-82705130D01*
X95747332Y-82789811D01*
X95716330Y-82847713D01*
X95662487Y-82951618D01*
X95621457Y-83037106D01*
X95591333Y-83108950D01*
X95570209Y-83171924D01*
X95556176Y-83230801D01*
X95547327Y-83290354D01*
X95544269Y-83331883D01*
X95553955Y-83457932D01*
X95590576Y-83579569D01*
X95651925Y-83692393D01*
X95735794Y-83792001D01*
X95839976Y-83873991D01*
X95842254Y-83875421D01*
X95955665Y-83929916D01*
X96080298Y-83961409D01*
X96209170Y-83969451D01*
X96335302Y-83953593D01*
X96451712Y-83913386D01*
X96503859Y-83885298D01*
X96567395Y-83844823D01*
X96618456Y-83805823D01*
X96650920Y-83778683D01*
X96683631Y-83754724D01*
X96702140Y-83745497D01*
X96702684Y-83745538D01*
X96721701Y-83758021D01*
X96758446Y-83791741D01*
X96811429Y-83845196D01*
X96879156Y-83916883D01*
X96960137Y-84005302D01*
X97026118Y-84078231D01*
X96951435Y-84145202D01*
X96919946Y-84171063D01*
X96835260Y-84227176D01*
X96736571Y-84279261D01*
X96634581Y-84321991D01*
X96539992Y-84350038D01*
X96487863Y-84359050D01*
X96384412Y-84368702D01*
X96267375Y-84371995D01*
X96146454Y-84369016D01*
X96031351Y-84359852D01*
X95931767Y-84344590D01*
X95924404Y-84343053D01*
X95733518Y-84289314D01*
X95559104Y-84211538D01*
X95398063Y-84108061D01*
X95247299Y-83977222D01*
X95202404Y-83931993D01*
X95150650Y-83875509D01*
X95110799Y-83823906D01*
X95076378Y-83768511D01*
X95040914Y-83700648D01*
X95030034Y-83678395D01*
X94980813Y-83565747D01*
X94948635Y-83464547D01*
X94931093Y-83365579D01*
X94925780Y-83259623D01*
X94927602Y-83198130D01*
X94939365Y-83100146D01*
X94963623Y-83001734D01*
X95002210Y-82897405D01*
X95056959Y-82781672D01*
X95129703Y-82649046D01*
X95133854Y-82641825D01*
X95224324Y-82474908D01*
X95295646Y-82323208D01*
X95347270Y-82188156D01*
X95378648Y-82071182D01*
X95389229Y-81973715D01*
X95384820Y-81914747D01*
X95355842Y-81808540D01*
X95303022Y-81708693D01*
X95230127Y-81621581D01*
X95140927Y-81553582D01*
X95111376Y-81537347D01*
X94990446Y-81490742D01*
X94864630Y-81470974D01*
X94738704Y-81477908D01*
X94617445Y-81511412D01*
X94505629Y-81571352D01*
X94448091Y-81611226D01*
X94361774Y-81535897D01*
X94313474Y-81492468D01*
X94252904Y-81435530D01*
X94200913Y-81384250D01*
X94126370Y-81307931D01*
X94171013Y-81270889D01*
X94223150Y-81234061D01*
X94304057Y-81189197D01*
X94395889Y-81147497D01*
X94488572Y-81113466D01*
X94572033Y-81091606D01*
X94598063Y-81087000D01*
X94778979Y-81071280D01*
X94962217Y-81081990D01*
G37*
G36*
X83022071Y-81409565D02*
G01*
X83052966Y-81481210D01*
X83099963Y-81590061D01*
X83153131Y-81713092D01*
X83209284Y-81842929D01*
X83265231Y-81972199D01*
X83317785Y-82093526D01*
X83348000Y-82163260D01*
X83442340Y-82381330D01*
X83525569Y-82574532D01*
X83598382Y-82744801D01*
X83661476Y-82894077D01*
X83715546Y-83024295D01*
X83761288Y-83137393D01*
X83799397Y-83235309D01*
X83830570Y-83319979D01*
X83855501Y-83393341D01*
X83874887Y-83457332D01*
X83889423Y-83513889D01*
X83899804Y-83564950D01*
X83906728Y-83612451D01*
X83910888Y-83658331D01*
X83912981Y-83704525D01*
X83913703Y-83752972D01*
X83913331Y-83810411D01*
X83907800Y-83899832D01*
X83893721Y-83971352D01*
X83868439Y-84032585D01*
X83829299Y-84091146D01*
X83773647Y-84154647D01*
X83771956Y-84156428D01*
X83676763Y-84237292D01*
X83561839Y-84299862D01*
X83424091Y-84345830D01*
X83417970Y-84347331D01*
X83338570Y-84360272D01*
X83238521Y-84367831D01*
X83125798Y-84370175D01*
X83008381Y-84367471D01*
X82894246Y-84359889D01*
X82791369Y-84347595D01*
X82707729Y-84330758D01*
X82686926Y-84325043D01*
X82486787Y-84253541D01*
X82293510Y-84155075D01*
X82110443Y-84032157D01*
X81940932Y-83887297D01*
X81788323Y-83723005D01*
X81655963Y-83541791D01*
X81638117Y-83512988D01*
X81604277Y-83453821D01*
X81565540Y-83380651D01*
X81521106Y-83291767D01*
X81470174Y-83185459D01*
X81411945Y-83060019D01*
X81345617Y-82913735D01*
X81270390Y-82744898D01*
X81185465Y-82551798D01*
X81090040Y-82332725D01*
X81071094Y-82289065D01*
X81006369Y-82139950D01*
X80942708Y-81993344D01*
X80881658Y-81852809D01*
X80824768Y-81721905D01*
X80773585Y-81604191D01*
X80729655Y-81503228D01*
X80694527Y-81422576D01*
X80669749Y-81365795D01*
X80648750Y-81317551D01*
X80619002Y-81248373D01*
X80595245Y-81192082D01*
X80579505Y-81153502D01*
X80573808Y-81137455D01*
X80583360Y-81135205D01*
X80618355Y-81133166D01*
X80674471Y-81131999D01*
X80746881Y-81131792D01*
X80830759Y-81132637D01*
X81087710Y-81136728D01*
X81257917Y-81532902D01*
X81264085Y-81547257D01*
X81316501Y-81669330D01*
X81376845Y-81809950D01*
X81441729Y-81961223D01*
X81507769Y-82115253D01*
X81571578Y-82264144D01*
X81629770Y-82400000D01*
X81635784Y-82414038D01*
X81725166Y-82620844D01*
X81805276Y-82802130D01*
X81877357Y-82960190D01*
X81942651Y-83097321D01*
X82002401Y-83215817D01*
X82057848Y-83317973D01*
X82110237Y-83406085D01*
X82160808Y-83482446D01*
X82210805Y-83549352D01*
X82261470Y-83609099D01*
X82314045Y-83663980D01*
X82420527Y-83758698D01*
X82529789Y-83831589D01*
X82643136Y-83880579D01*
X82766547Y-83908226D01*
X82906004Y-83917087D01*
X82943959Y-83916989D01*
X83008459Y-83915089D01*
X83054537Y-83909932D01*
X83090031Y-83900366D01*
X83122778Y-83885240D01*
X83151264Y-83868430D01*
X83225857Y-83803819D01*
X83275613Y-83722567D01*
X83300447Y-83624801D01*
X83301879Y-83609424D01*
X83302365Y-83567166D01*
X83297779Y-83518840D01*
X83287443Y-83462531D01*
X83270676Y-83396322D01*
X83246799Y-83318298D01*
X83215132Y-83226543D01*
X83174996Y-83119143D01*
X83125711Y-82994181D01*
X83066598Y-82849741D01*
X82996976Y-82683908D01*
X82916167Y-82494766D01*
X82823490Y-82280400D01*
X82787201Y-82196809D01*
X82696012Y-81986538D01*
X82616253Y-81802264D01*
X82547493Y-81642978D01*
X82489300Y-81507669D01*
X82441243Y-81395327D01*
X82402891Y-81304940D01*
X82373813Y-81235499D01*
X82353576Y-81185993D01*
X82341751Y-81155411D01*
X82337905Y-81142743D01*
X82351905Y-81138469D01*
X82391456Y-81134752D01*
X82452176Y-81131837D01*
X82529683Y-81129934D01*
X82619598Y-81129253D01*
X82901291Y-81129253D01*
X83022071Y-81409565D01*
G37*
G36*
X76035050Y-83554591D02*
G01*
X76000002Y-83727918D01*
X75939099Y-83888787D01*
X75922473Y-83921732D01*
X75836302Y-84054079D01*
X75730000Y-84164592D01*
X75604547Y-84252552D01*
X75460920Y-84317242D01*
X75300098Y-84357943D01*
X75236363Y-84365405D01*
X75143455Y-84370188D01*
X75038961Y-84370997D01*
X74932526Y-84367958D01*
X74833799Y-84361197D01*
X74752427Y-84350838D01*
X74683390Y-84337125D01*
X74478774Y-84277389D01*
X74274414Y-84190090D01*
X74072727Y-84076860D01*
X73876132Y-83939334D01*
X73687045Y-83779143D01*
X73507884Y-83597923D01*
X73341067Y-83397305D01*
X73326303Y-83377698D01*
X73186855Y-83166752D01*
X73065439Y-82933406D01*
X72962982Y-82679650D01*
X72880408Y-82407475D01*
X72867274Y-82354874D01*
X72854352Y-82294926D01*
X72845922Y-82239096D01*
X72841089Y-82178882D01*
X72838955Y-82105784D01*
X72838860Y-82078576D01*
X73454418Y-82078576D01*
X73455649Y-82120300D01*
X73476329Y-82310753D01*
X73520189Y-82509724D01*
X73584931Y-82712130D01*
X73668257Y-82912889D01*
X73767867Y-83106917D01*
X73881465Y-83289132D01*
X74006750Y-83454452D01*
X74141426Y-83597794D01*
X74176084Y-83629797D01*
X74293055Y-83726382D01*
X74406671Y-83800386D01*
X74523464Y-83855640D01*
X74649970Y-83895975D01*
X74747757Y-83914860D01*
X74870570Y-83922997D01*
X74988572Y-83914799D01*
X75094662Y-83890855D01*
X75181741Y-83851756D01*
X75186504Y-83848753D01*
X75260959Y-83786391D01*
X75325767Y-83704329D01*
X75373281Y-83612134D01*
X75378096Y-83598857D01*
X75400003Y-83508167D01*
X75412062Y-83398314D01*
X75414085Y-83277086D01*
X75405884Y-83152269D01*
X75387272Y-83031651D01*
X75329811Y-82804541D01*
X75242919Y-82564943D01*
X75132934Y-82343492D01*
X75000196Y-82140862D01*
X74845048Y-81957728D01*
X74718749Y-81835964D01*
X74574415Y-81722059D01*
X74429372Y-81635625D01*
X74281213Y-81575490D01*
X74127532Y-81540480D01*
X73965921Y-81529424D01*
X73938959Y-81529868D01*
X73807134Y-81544483D01*
X73696588Y-81579913D01*
X73607076Y-81636424D01*
X73538349Y-81714281D01*
X73490162Y-81813749D01*
X73462267Y-81935092D01*
X73454418Y-82078576D01*
X72838860Y-82078576D01*
X72838625Y-82011301D01*
X72839268Y-81920610D01*
X72841212Y-81851953D01*
X72845243Y-81799559D01*
X72852150Y-81756578D01*
X72862720Y-81716158D01*
X72877743Y-81671449D01*
X72900881Y-81610672D01*
X72950062Y-81508134D01*
X73010494Y-81417448D01*
X73089516Y-81326665D01*
X73151190Y-81268635D01*
X73264582Y-81189804D01*
X73394013Y-81131913D01*
X73542178Y-81093870D01*
X73711772Y-81074583D01*
X73920800Y-81076869D01*
X74135776Y-81107463D01*
X74350207Y-81165485D01*
X74561957Y-81249801D01*
X74768886Y-81359278D01*
X74968859Y-81492782D01*
X75159739Y-81649178D01*
X75339386Y-81827335D01*
X75505666Y-82026116D01*
X75591762Y-82144367D01*
X75725924Y-82354269D01*
X75837176Y-82564372D01*
X75925097Y-82772866D01*
X75989265Y-82977943D01*
X76029260Y-83177796D01*
X76037191Y-83277086D01*
X76044662Y-83370614D01*
X76035050Y-83554591D01*
G37*
G36*
X93128867Y-81132460D02*
G01*
X93203007Y-81134471D01*
X93250431Y-81137474D01*
X93269554Y-81141444D01*
X93273328Y-81146930D01*
X93288738Y-81176370D01*
X93312182Y-81225695D01*
X93341220Y-81289693D01*
X93373409Y-81363152D01*
X93414746Y-81459081D01*
X93461851Y-81568424D01*
X93508724Y-81677255D01*
X93549562Y-81772101D01*
X93552157Y-81778128D01*
X93579247Y-81840954D01*
X93616070Y-81926238D01*
X93660712Y-82029551D01*
X93711258Y-82146467D01*
X93765795Y-82272557D01*
X93822408Y-82403394D01*
X93879183Y-82534550D01*
X93974351Y-82754367D01*
X94076953Y-82991424D01*
X94168726Y-83203550D01*
X94250250Y-83392101D01*
X94322105Y-83558435D01*
X94384873Y-83703909D01*
X94439135Y-83829879D01*
X94485472Y-83937702D01*
X94524464Y-84028735D01*
X94556693Y-84104335D01*
X94582740Y-84165859D01*
X94603186Y-84214663D01*
X94618611Y-84252105D01*
X94629597Y-84279541D01*
X94636725Y-84298328D01*
X94640576Y-84309823D01*
X94641730Y-84315383D01*
X94641693Y-84315599D01*
X94626130Y-84319688D01*
X94585505Y-84323242D01*
X94524422Y-84326046D01*
X94447486Y-84327885D01*
X94359302Y-84328546D01*
X94076873Y-84328546D01*
X94002206Y-84152884D01*
X93976332Y-84092318D01*
X93940789Y-84009567D01*
X93898177Y-83910662D01*
X93850934Y-83801259D01*
X93801500Y-83687011D01*
X93752314Y-83573573D01*
X93706131Y-83467151D01*
X93654136Y-83347259D01*
X93603149Y-83229620D01*
X93555895Y-83120527D01*
X93515102Y-83026272D01*
X93483496Y-82953149D01*
X93477784Y-82939918D01*
X93440835Y-82854377D01*
X93396167Y-82751001D01*
X93347283Y-82637900D01*
X93297688Y-82523181D01*
X93250885Y-82414950D01*
X93248995Y-82410581D01*
X93199028Y-82295020D01*
X93143784Y-82167206D01*
X93087552Y-82037061D01*
X93034618Y-81914510D01*
X92989271Y-81809476D01*
X92866676Y-81525427D01*
X92696820Y-81529507D01*
X92639016Y-81531610D01*
X92568292Y-81536073D01*
X92509983Y-81541833D01*
X92472832Y-81548162D01*
X92414191Y-81569504D01*
X92341003Y-81619333D01*
X92289689Y-81688633D01*
X92260702Y-81776380D01*
X92254495Y-81881550D01*
X92271522Y-82003117D01*
X92275856Y-82021757D01*
X92328374Y-82178431D01*
X92404829Y-82318761D01*
X92503130Y-82440901D01*
X92621183Y-82543005D01*
X92756898Y-82623225D01*
X92908181Y-82679715D01*
X93072941Y-82710627D01*
X93178279Y-82721425D01*
X93252206Y-82890645D01*
X93253772Y-82894232D01*
X93281930Y-82959864D01*
X93304932Y-83015520D01*
X93320444Y-83055420D01*
X93326133Y-83073782D01*
X93320807Y-83079081D01*
X93291608Y-83084868D01*
X93241970Y-83087199D01*
X93177623Y-83086214D01*
X93104298Y-83082051D01*
X93027724Y-83074849D01*
X92953632Y-83064748D01*
X92896378Y-83054224D01*
X92711109Y-83004627D01*
X92525285Y-82933009D01*
X92346264Y-82842931D01*
X92181402Y-82737953D01*
X92038053Y-82621634D01*
X91962655Y-82544587D01*
X91866885Y-82422632D01*
X91785975Y-82290051D01*
X91721215Y-82150933D01*
X91673892Y-82009366D01*
X91645296Y-81869439D01*
X91636713Y-81735241D01*
X91649433Y-81610859D01*
X91684744Y-81500383D01*
X91709396Y-81452114D01*
X91775891Y-81358778D01*
X91861078Y-81282757D01*
X91968146Y-81221533D01*
X92100284Y-81172592D01*
X92115030Y-81168259D01*
X92146005Y-81160041D01*
X92177996Y-81153424D01*
X92214614Y-81148181D01*
X92259470Y-81144088D01*
X92316173Y-81140918D01*
X92388333Y-81138445D01*
X92479562Y-81136442D01*
X92593469Y-81134685D01*
X92733665Y-81132946D01*
X92761998Y-81132629D01*
X92906778Y-81131514D01*
X93029596Y-81131466D01*
X93128867Y-81132460D01*
G37*
G36*
X90724677Y-81207740D02*
G01*
X90737128Y-81236839D01*
X90762804Y-81296218D01*
X90784648Y-81346027D01*
X90796583Y-81373167D01*
X90819951Y-81426839D01*
X90848554Y-81492912D01*
X90878670Y-81562802D01*
X90883340Y-81573664D01*
X90906271Y-81626927D01*
X90935075Y-81693727D01*
X90970421Y-81775610D01*
X91012976Y-81874120D01*
X91063407Y-81990800D01*
X91122382Y-82127196D01*
X91190568Y-82284852D01*
X91268634Y-82465313D01*
X91357247Y-82670122D01*
X91457074Y-82900824D01*
X91482074Y-82958603D01*
X91541772Y-83096610D01*
X91606686Y-83246712D01*
X91672541Y-83399024D01*
X91735064Y-83543664D01*
X91789981Y-83670748D01*
X91831278Y-83766322D01*
X91877282Y-83872765D01*
X91920527Y-83972798D01*
X91958738Y-84061161D01*
X91989641Y-84132596D01*
X92010962Y-84181842D01*
X92024856Y-84214818D01*
X92044816Y-84266471D01*
X92056835Y-84303757D01*
X92058698Y-84320251D01*
X92049735Y-84321374D01*
X92013507Y-84322725D01*
X91952043Y-84323847D01*
X91868042Y-84324725D01*
X91764201Y-84325343D01*
X91643215Y-84325688D01*
X91507781Y-84325744D01*
X91360598Y-84325497D01*
X91204361Y-84324931D01*
X90358564Y-84321071D01*
X90280861Y-84141672D01*
X90275957Y-84130316D01*
X90247431Y-84062863D01*
X90224133Y-84005439D01*
X90208351Y-83963815D01*
X90202374Y-83943764D01*
X90206825Y-83939443D01*
X90225339Y-83935095D01*
X90260332Y-83931484D01*
X90314043Y-83928520D01*
X90388707Y-83926113D01*
X90486560Y-83924174D01*
X90609839Y-83922613D01*
X90760782Y-83921339D01*
X91319974Y-83917422D01*
X91087521Y-83383168D01*
X90855068Y-82848913D01*
X90383271Y-82844969D01*
X89911474Y-82841024D01*
X89833248Y-82661625D01*
X89828247Y-82650120D01*
X89799535Y-82582719D01*
X89776062Y-82525349D01*
X89760134Y-82483772D01*
X89754057Y-82463751D01*
X89754063Y-82463370D01*
X89761490Y-82457924D01*
X89784364Y-82453439D01*
X89825094Y-82449798D01*
X89886089Y-82446883D01*
X89969756Y-82444578D01*
X90078505Y-82442764D01*
X90214744Y-82441326D01*
X90676399Y-82437375D01*
X90485813Y-81991592D01*
X90458051Y-81926851D01*
X90413219Y-81823146D01*
X90372551Y-81730109D01*
X90337546Y-81651113D01*
X90309706Y-81589530D01*
X90290528Y-81548733D01*
X90281512Y-81532095D01*
X90275651Y-81530263D01*
X90243582Y-81526806D01*
X90187158Y-81523502D01*
X90110016Y-81520482D01*
X90015791Y-81517875D01*
X89908119Y-81515814D01*
X89790636Y-81514429D01*
X89313475Y-81510477D01*
X89235250Y-81331077D01*
X89229781Y-81318513D01*
X89201233Y-81252168D01*
X89177910Y-81196721D01*
X89162092Y-81157657D01*
X89156058Y-81140465D01*
X89157600Y-81139739D01*
X89181132Y-81137614D01*
X89230858Y-81135640D01*
X89303989Y-81133858D01*
X89397740Y-81132309D01*
X89509321Y-81131033D01*
X89635946Y-81130071D01*
X89774826Y-81129464D01*
X89923174Y-81129253D01*
X90691256Y-81129253D01*
X90724677Y-81207740D01*
G37*
G36*
X88435856Y-81245115D02*
G01*
X88442809Y-81261347D01*
X88464771Y-81312430D01*
X88496302Y-81385619D01*
X88535872Y-81477367D01*
X88581948Y-81584125D01*
X88633000Y-81702345D01*
X88687496Y-81828478D01*
X88743906Y-81958976D01*
X88798789Y-82085919D01*
X88872451Y-82256309D01*
X88950788Y-82437527D01*
X89030492Y-82621920D01*
X89108254Y-82801832D01*
X89180766Y-82969610D01*
X89244719Y-83117599D01*
X89301612Y-83249201D01*
X89362891Y-83390844D01*
X89424002Y-83531999D01*
X89482608Y-83667274D01*
X89536373Y-83791277D01*
X89582960Y-83898613D01*
X89620033Y-83983891D01*
X89638004Y-84025352D01*
X89674842Y-84111542D01*
X89706492Y-84187216D01*
X89731232Y-84248166D01*
X89747338Y-84290181D01*
X89753090Y-84309053D01*
X89751061Y-84310719D01*
X89726387Y-84314880D01*
X89676255Y-84318554D01*
X89603903Y-84321739D01*
X89512568Y-84324434D01*
X89405487Y-84326638D01*
X89285897Y-84328349D01*
X89157037Y-84329565D01*
X89022143Y-84330285D01*
X88884453Y-84330507D01*
X88747204Y-84330230D01*
X88613634Y-84329453D01*
X88486979Y-84328173D01*
X88370478Y-84326389D01*
X88267368Y-84324100D01*
X88180886Y-84321304D01*
X88114270Y-84317999D01*
X88070756Y-84314185D01*
X88053583Y-84309859D01*
X88049769Y-84303445D01*
X88032300Y-84269132D01*
X88009186Y-84219146D01*
X87982995Y-84159618D01*
X87956296Y-84096675D01*
X87931658Y-84036450D01*
X87911651Y-83985071D01*
X87898842Y-83948668D01*
X87895802Y-83933372D01*
X87895904Y-83933294D01*
X87913393Y-83931372D01*
X87957282Y-83929606D01*
X88024206Y-83928047D01*
X88110799Y-83926745D01*
X88213696Y-83925753D01*
X88329529Y-83925120D01*
X88454934Y-83924897D01*
X88496550Y-83924872D01*
X88648732Y-83924274D01*
X88775052Y-83922894D01*
X88874704Y-83920753D01*
X88946882Y-83917873D01*
X88990780Y-83914277D01*
X89005592Y-83909986D01*
X89005574Y-83909574D01*
X89002244Y-83897748D01*
X88992646Y-83872338D01*
X88976046Y-83831627D01*
X88951705Y-83773899D01*
X88918889Y-83697438D01*
X88876860Y-83600526D01*
X88824882Y-83481448D01*
X88762219Y-83338486D01*
X88688135Y-83169924D01*
X88660679Y-83107233D01*
X88627572Y-83030845D01*
X88599634Y-82965491D01*
X88579182Y-82916602D01*
X88568534Y-82889612D01*
X88554167Y-82848499D01*
X88081597Y-82848499D01*
X87943748Y-82848201D01*
X87833268Y-82847273D01*
X87747698Y-82845617D01*
X87684577Y-82843139D01*
X87641442Y-82839743D01*
X87615835Y-82835332D01*
X87605294Y-82829812D01*
X87605094Y-82829490D01*
X87591673Y-82803498D01*
X87571028Y-82758689D01*
X87545935Y-82701648D01*
X87519169Y-82638964D01*
X87493509Y-82577223D01*
X87471730Y-82523014D01*
X87456608Y-82482923D01*
X87450920Y-82463538D01*
X87451121Y-82462426D01*
X87459936Y-82457155D01*
X87483613Y-82452972D01*
X87524657Y-82449778D01*
X87585575Y-82447470D01*
X87668872Y-82445947D01*
X87777053Y-82445107D01*
X87912625Y-82444850D01*
X88374456Y-82444850D01*
X88177029Y-81985138D01*
X87979603Y-81525427D01*
X87494687Y-81521166D01*
X87009770Y-81516905D01*
X86931174Y-81334291D01*
X86924689Y-81319185D01*
X86896463Y-81252455D01*
X86873584Y-81196796D01*
X86858257Y-81157651D01*
X86852687Y-81140465D01*
X86854219Y-81139757D01*
X86877731Y-81137628D01*
X86927450Y-81135652D01*
X87000581Y-81133867D01*
X87094328Y-81132315D01*
X87205897Y-81131036D01*
X87332492Y-81130073D01*
X87471318Y-81129464D01*
X87619579Y-81129253D01*
X88386363Y-81129253D01*
X88435856Y-81245115D01*
G37*
G36*
X87370196Y-84116167D02*
G01*
X87403365Y-84195146D01*
X87428785Y-84256697D01*
X87445060Y-84297492D01*
X87450795Y-84314202D01*
X87438427Y-84318114D01*
X87399854Y-84321613D01*
X87338881Y-84324375D01*
X87259396Y-84326406D01*
X87165283Y-84327712D01*
X87060427Y-84328298D01*
X86948713Y-84328168D01*
X86834025Y-84327330D01*
X86720250Y-84325787D01*
X86611272Y-84323545D01*
X86510977Y-84320610D01*
X86423248Y-84316988D01*
X86351972Y-84312682D01*
X86105587Y-84283336D01*
X85835433Y-84224161D01*
X85577131Y-84137548D01*
X85330475Y-84023415D01*
X85095259Y-83881677D01*
X84871277Y-83712251D01*
X84844271Y-83689238D01*
X84665804Y-83517912D01*
X84505790Y-83329909D01*
X84365799Y-83128346D01*
X84247404Y-82916342D01*
X84152176Y-82697013D01*
X84081687Y-82473477D01*
X84037509Y-82248850D01*
X84026468Y-82098024D01*
X84645233Y-82098024D01*
X84647114Y-82204110D01*
X84662710Y-82322420D01*
X84692619Y-82459800D01*
X84745532Y-82636401D01*
X84831315Y-82838809D01*
X84941812Y-83028842D01*
X85078654Y-83209231D01*
X85243473Y-83382710D01*
X85362318Y-83489440D01*
X85490546Y-83587682D01*
X85626950Y-83673369D01*
X85782344Y-83753952D01*
X85882872Y-83800453D01*
X85982949Y-83841986D01*
X86071624Y-83872209D01*
X86156371Y-83893624D01*
X86244666Y-83908735D01*
X86261274Y-83910777D01*
X86315765Y-83915557D01*
X86382501Y-83919557D01*
X86455467Y-83922637D01*
X86528650Y-83924658D01*
X86596038Y-83925481D01*
X86651617Y-83924967D01*
X86689374Y-83922975D01*
X86703296Y-83919366D01*
X86702843Y-83917913D01*
X86694116Y-83896297D01*
X86675401Y-83851655D01*
X86648168Y-83787445D01*
X86613888Y-83707124D01*
X86574030Y-83614150D01*
X86530066Y-83511980D01*
X86453138Y-83333502D01*
X86360511Y-83118541D01*
X86270912Y-82910540D01*
X86185221Y-82711548D01*
X86104320Y-82523615D01*
X86029091Y-82348789D01*
X85960416Y-82189122D01*
X85899176Y-82046661D01*
X85846254Y-81923456D01*
X85802529Y-81821558D01*
X85768885Y-81743015D01*
X85746203Y-81689877D01*
X85676262Y-81525427D01*
X85431068Y-81526639D01*
X85356071Y-81527620D01*
X85222120Y-81533741D01*
X85111317Y-81546281D01*
X85019388Y-81566319D01*
X84942056Y-81594931D01*
X84875047Y-81633196D01*
X84814084Y-81682192D01*
X84805222Y-81690615D01*
X84736108Y-81778392D01*
X84685030Y-81887316D01*
X84653757Y-82013733D01*
X84645233Y-82098024D01*
X84026468Y-82098024D01*
X84021214Y-82026251D01*
X84022887Y-81932546D01*
X84036726Y-81801132D01*
X84065979Y-81686094D01*
X84112563Y-81580745D01*
X84178398Y-81478396D01*
X84224742Y-81421740D01*
X84327754Y-81328677D01*
X84453326Y-81252544D01*
X84503640Y-81229196D01*
X84569969Y-81203825D01*
X84641955Y-81182876D01*
X84722619Y-81166019D01*
X84814988Y-81152926D01*
X84922083Y-81143268D01*
X85046929Y-81136715D01*
X85192551Y-81132941D01*
X85361971Y-81131614D01*
X85558213Y-81132408D01*
X86080052Y-81136728D01*
X86143338Y-81278752D01*
X86149688Y-81293060D01*
X86175289Y-81351277D01*
X86209901Y-81430518D01*
X86251438Y-81525985D01*
X86297816Y-81632885D01*
X86346952Y-81746422D01*
X86396762Y-81861801D01*
X86412084Y-81897338D01*
X86462631Y-82014506D01*
X86512301Y-82129562D01*
X86558905Y-82237437D01*
X86600252Y-82333060D01*
X86634150Y-82411363D01*
X86658410Y-82467275D01*
X86678853Y-82514352D01*
X86712487Y-82591939D01*
X86753393Y-82686398D01*
X86799056Y-82791923D01*
X86846965Y-82902708D01*
X86894606Y-83012949D01*
X86895419Y-83014831D01*
X86946107Y-83132158D01*
X87005126Y-83268748D01*
X87069002Y-83416565D01*
X87134262Y-83567573D01*
X87197433Y-83713735D01*
X87255043Y-83847015D01*
X87286186Y-83919242D01*
X87286239Y-83919366D01*
X87330671Y-84023089D01*
X87370196Y-84116167D01*
G37*
G36*
X79395703Y-81131792D02*
G01*
X79484479Y-81132667D01*
X79770548Y-81136728D01*
X80035025Y-81749676D01*
X80046735Y-81776814D01*
X80107642Y-81917936D01*
X80177563Y-82079897D01*
X80254148Y-82257261D01*
X80335050Y-82444591D01*
X80417921Y-82636454D01*
X80500414Y-82827412D01*
X80580181Y-83012031D01*
X80654875Y-83184874D01*
X80708321Y-83308534D01*
X80773146Y-83458527D01*
X80835174Y-83602051D01*
X80893110Y-83736108D01*
X80945658Y-83857703D01*
X80991524Y-83963838D01*
X81029413Y-84051517D01*
X81058029Y-84117744D01*
X81076078Y-84159520D01*
X81098872Y-84212826D01*
X81121167Y-84266262D01*
X81136319Y-84304145D01*
X81141907Y-84320555D01*
X81141803Y-84320787D01*
X81125329Y-84323210D01*
X81083917Y-84324930D01*
X81022141Y-84325872D01*
X80944575Y-84325963D01*
X80855792Y-84325132D01*
X80569676Y-84321071D01*
X80398814Y-83924897D01*
X80355531Y-83824551D01*
X80304902Y-83707212D01*
X80255434Y-83592593D01*
X80209794Y-83486879D01*
X80170653Y-83396252D01*
X80140680Y-83326898D01*
X80138103Y-83320939D01*
X80110949Y-83258132D01*
X80074084Y-83172853D01*
X80029424Y-83069533D01*
X79978883Y-82952603D01*
X79924376Y-82826492D01*
X79867819Y-82695631D01*
X79811126Y-82564450D01*
X79806121Y-82552870D01*
X79748793Y-82420216D01*
X79691327Y-82287245D01*
X79635723Y-82158583D01*
X79583981Y-82038857D01*
X79538101Y-81932696D01*
X79500083Y-81844727D01*
X79471927Y-81779576D01*
X79405485Y-81625717D01*
X79346803Y-81489528D01*
X79298861Y-81377878D01*
X79261035Y-81289301D01*
X79232701Y-81222330D01*
X79213235Y-81175497D01*
X79202013Y-81147334D01*
X79198411Y-81136375D01*
X79198514Y-81136168D01*
X79214976Y-81134012D01*
X79256377Y-81132524D01*
X79318145Y-81131764D01*
X79395703Y-81131792D01*
G37*
G36*
X78125621Y-81132585D02*
G01*
X78336898Y-81136728D01*
X78446908Y-81390877D01*
X78473524Y-81452363D01*
X78545092Y-81617657D01*
X78605495Y-81757102D01*
X78655252Y-81871894D01*
X78694883Y-81963231D01*
X78724906Y-82032309D01*
X78745842Y-82080325D01*
X78758209Y-82108476D01*
X78767701Y-82130016D01*
X78792523Y-82186777D01*
X78828921Y-82270334D01*
X78876723Y-82380288D01*
X78935752Y-82516237D01*
X79005835Y-82677778D01*
X79086798Y-82864512D01*
X79178466Y-83076036D01*
X79280666Y-83311948D01*
X79339951Y-83448820D01*
X79399225Y-83585663D01*
X79455562Y-83715721D01*
X79507471Y-83835553D01*
X79553461Y-83941717D01*
X79592040Y-84030770D01*
X79621718Y-84099270D01*
X79641003Y-84143775D01*
X79663183Y-84195950D01*
X79685717Y-84251502D01*
X79701050Y-84292409D01*
X79706710Y-84312333D01*
X79703455Y-84316452D01*
X79680913Y-84321889D01*
X79635064Y-84325079D01*
X79563730Y-84326137D01*
X79464734Y-84325179D01*
X79222758Y-84321071D01*
X79122522Y-84089347D01*
X79118785Y-84080704D01*
X79084561Y-84001271D01*
X79041788Y-83901620D01*
X78991821Y-83784931D01*
X78936013Y-83654385D01*
X78875719Y-83513163D01*
X78812291Y-83364445D01*
X78747083Y-83211413D01*
X78681449Y-83057246D01*
X78616742Y-82905125D01*
X78554316Y-82758231D01*
X78495525Y-82619745D01*
X78441722Y-82492847D01*
X78394261Y-82380719D01*
X78354496Y-82286540D01*
X78323780Y-82213492D01*
X78303466Y-82164754D01*
X78302307Y-82161949D01*
X78274955Y-82097689D01*
X78251122Y-82045137D01*
X78233333Y-82009646D01*
X78224113Y-81996567D01*
X78223235Y-81996720D01*
X78213571Y-82012067D01*
X78204200Y-82044938D01*
X78200675Y-82061683D01*
X78186127Y-82125931D01*
X78165472Y-82212798D01*
X78139878Y-82317677D01*
X78110515Y-82435960D01*
X78078554Y-82563038D01*
X78045164Y-82694302D01*
X78011516Y-82825146D01*
X77978778Y-82950961D01*
X77948121Y-83067139D01*
X77920715Y-83169070D01*
X77897730Y-83252148D01*
X77896271Y-83257308D01*
X77851210Y-83415724D01*
X77806970Y-83569486D01*
X77764358Y-83715913D01*
X77724182Y-83852323D01*
X77687247Y-83976035D01*
X77654360Y-84084367D01*
X77626327Y-84174637D01*
X77603957Y-84244165D01*
X77588054Y-84290269D01*
X77579426Y-84310267D01*
X77575991Y-84313409D01*
X77555083Y-84320550D01*
X77515232Y-84324730D01*
X77452814Y-84326202D01*
X77364203Y-84325217D01*
X77163880Y-84321071D01*
X76976349Y-83887522D01*
X76861087Y-83621059D01*
X76738050Y-83336644D01*
X76612477Y-83046388D01*
X76486770Y-82755838D01*
X76363329Y-82470542D01*
X76244552Y-82196047D01*
X76132842Y-81937902D01*
X76030598Y-81701653D01*
X76009913Y-81653832D01*
X75959042Y-81535959D01*
X75912558Y-81427882D01*
X75871714Y-81332541D01*
X75837765Y-81252874D01*
X75811963Y-81191817D01*
X75795563Y-81152311D01*
X75789818Y-81137292D01*
X75796665Y-81135401D01*
X75828530Y-81132957D01*
X75881913Y-81131008D01*
X75951858Y-81129719D01*
X76033405Y-81129253D01*
X76276992Y-81129253D01*
X76495876Y-81641289D01*
X76510533Y-81675575D01*
X76568391Y-81810923D01*
X76634521Y-81965619D01*
X76706216Y-82133331D01*
X76780768Y-82307726D01*
X76855471Y-82482473D01*
X76927617Y-82651239D01*
X76994499Y-82807692D01*
X76995618Y-82810307D01*
X77051713Y-82941205D01*
X77104211Y-83063109D01*
X77151952Y-83173374D01*
X77193780Y-83269353D01*
X77228536Y-83348400D01*
X77255063Y-83407870D01*
X77272204Y-83445117D01*
X77278801Y-83457495D01*
X77278824Y-83457468D01*
X77283543Y-83441896D01*
X77294706Y-83400640D01*
X77311469Y-83336947D01*
X77332988Y-83254063D01*
X77358421Y-83155234D01*
X77386926Y-83043708D01*
X77417658Y-82922729D01*
X77466604Y-82732704D01*
X77534604Y-82476742D01*
X77612034Y-82192958D01*
X77698819Y-81881627D01*
X77794881Y-81543027D01*
X77900144Y-81177435D01*
X77914343Y-81128442D01*
X78125621Y-81132585D01*
G37*
M02*
