G04 #@! TF.GenerationSoftware,KiCad,Pcbnew,(6.0.10)*
G04 #@! TF.CreationDate,2023-01-07T19:39:58+01:00*
G04 #@! TF.ProjectId,perfectV2.1v0,70657266-6563-4745-9632-2e3176302e6b,6*
G04 #@! TF.SameCoordinates,Original*
G04 #@! TF.FileFunction,Paste,Top*
G04 #@! TF.FilePolarity,Positive*
%FSLAX46Y46*%
G04 Gerber Fmt 4.6, Leading zero omitted, Abs format (unit mm)*
G04 Created by KiCad (PCBNEW (6.0.10)) date 2023-01-07 19:39:58*
%MOMM*%
%LPD*%
G01*
G04 APERTURE LIST*
G04 Aperture macros list*
%AMRoundRect*
0 Rectangle with rounded corners*
0 $1 Rounding radius*
0 $2 $3 $4 $5 $6 $7 $8 $9 X,Y pos of 4 corners*
0 Add a 4 corners polygon primitive as box body*
4,1,4,$2,$3,$4,$5,$6,$7,$8,$9,$2,$3,0*
0 Add four circle primitives for the rounded corners*
1,1,$1+$1,$2,$3*
1,1,$1+$1,$4,$5*
1,1,$1+$1,$6,$7*
1,1,$1+$1,$8,$9*
0 Add four rect primitives between the rounded corners*
20,1,$1+$1,$2,$3,$4,$5,0*
20,1,$1+$1,$4,$5,$6,$7,0*
20,1,$1+$1,$6,$7,$8,$9,0*
20,1,$1+$1,$8,$9,$2,$3,0*%
G04 Aperture macros list end*
%ADD10RoundRect,0.243750X0.243750X0.456250X-0.243750X0.456250X-0.243750X-0.456250X0.243750X-0.456250X0*%
%ADD11RoundRect,0.250000X-0.475000X0.250000X-0.475000X-0.250000X0.475000X-0.250000X0.475000X0.250000X0*%
%ADD12R,3.050000X2.750000*%
%ADD13R,2.200000X1.200000*%
%ADD14R,0.900000X1.200000*%
%ADD15RoundRect,0.135000X-0.185000X0.135000X-0.185000X-0.135000X0.185000X-0.135000X0.185000X0.135000X0*%
%ADD16RoundRect,0.150000X0.825000X0.150000X-0.825000X0.150000X-0.825000X-0.150000X0.825000X-0.150000X0*%
%ADD17RoundRect,0.250000X0.475000X-0.250000X0.475000X0.250000X-0.475000X0.250000X-0.475000X-0.250000X0*%
%ADD18RoundRect,0.250000X0.262500X0.450000X-0.262500X0.450000X-0.262500X-0.450000X0.262500X-0.450000X0*%
%ADD19RoundRect,0.243750X-0.243750X-0.456250X0.243750X-0.456250X0.243750X0.456250X-0.243750X0.456250X0*%
%ADD20RoundRect,0.100000X-0.637500X-0.100000X0.637500X-0.100000X0.637500X0.100000X-0.637500X0.100000X0*%
%ADD21R,0.600000X0.450000*%
%ADD22RoundRect,0.135000X0.185000X-0.135000X0.185000X0.135000X-0.185000X0.135000X-0.185000X-0.135000X0*%
%ADD23RoundRect,0.200000X-0.275000X0.200000X-0.275000X-0.200000X0.275000X-0.200000X0.275000X0.200000X0*%
%ADD24RoundRect,0.250000X0.450000X-0.262500X0.450000X0.262500X-0.450000X0.262500X-0.450000X-0.262500X0*%
%ADD25RoundRect,0.150000X-0.825000X-0.150000X0.825000X-0.150000X0.825000X0.150000X-0.825000X0.150000X0*%
%ADD26RoundRect,0.250000X-0.650000X-2.450000X0.650000X-2.450000X0.650000X2.450000X-0.650000X2.450000X0*%
%ADD27RoundRect,0.250000X-0.450000X0.262500X-0.450000X-0.262500X0.450000X-0.262500X0.450000X0.262500X0*%
%ADD28RoundRect,0.150000X-0.675000X-0.150000X0.675000X-0.150000X0.675000X0.150000X-0.675000X0.150000X0*%
%ADD29RoundRect,0.250000X-0.250000X-0.475000X0.250000X-0.475000X0.250000X0.475000X-0.250000X0.475000X0*%
%ADD30RoundRect,0.200000X0.200000X0.275000X-0.200000X0.275000X-0.200000X-0.275000X0.200000X-0.275000X0*%
%ADD31R,1.200000X0.900000*%
%ADD32RoundRect,0.135000X-0.135000X-0.185000X0.135000X-0.185000X0.135000X0.185000X-0.135000X0.185000X0*%
%ADD33R,2.900000X5.400000*%
%ADD34RoundRect,0.250000X-0.262500X-0.450000X0.262500X-0.450000X0.262500X0.450000X-0.262500X0.450000X0*%
%ADD35RoundRect,0.250000X0.250000X0.475000X-0.250000X0.475000X-0.250000X-0.475000X0.250000X-0.475000X0*%
%ADD36RoundRect,0.250000X-1.450000X0.312500X-1.450000X-0.312500X1.450000X-0.312500X1.450000X0.312500X0*%
%ADD37RoundRect,0.250000X1.025000X-0.787500X1.025000X0.787500X-1.025000X0.787500X-1.025000X-0.787500X0*%
%ADD38R,2.500000X1.800000*%
%ADD39RoundRect,0.249998X-3.650002X-4.550002X3.650002X-4.550002X3.650002X4.550002X-3.650002X4.550002X0*%
%ADD40R,4.550000X5.250000*%
%ADD41R,4.600000X1.100000*%
%ADD42R,0.700000X1.500000*%
%ADD43R,1.000000X0.800000*%
%ADD44RoundRect,0.150000X-0.587500X-0.150000X0.587500X-0.150000X0.587500X0.150000X-0.587500X0.150000X0*%
%ADD45RoundRect,0.150000X0.675000X0.150000X-0.675000X0.150000X-0.675000X-0.150000X0.675000X-0.150000X0*%
%ADD46RoundRect,0.200000X0.275000X-0.200000X0.275000X0.200000X-0.275000X0.200000X-0.275000X-0.200000X0*%
%ADD47RoundRect,0.250000X1.450000X-0.312500X1.450000X0.312500X-1.450000X0.312500X-1.450000X-0.312500X0*%
G04 APERTURE END LIST*
D10*
X57687500Y-123500000D03*
X55812500Y-123500000D03*
D11*
X76250000Y-160600000D03*
X76250000Y-162500000D03*
D12*
X85525000Y-82525000D03*
X85525000Y-79475000D03*
X82175000Y-82525000D03*
X82175000Y-79475000D03*
D13*
X77550000Y-78720000D03*
X77550000Y-81000000D03*
X77550000Y-83280000D03*
D14*
X77800000Y-109600000D03*
X81100000Y-109600000D03*
D15*
X90238750Y-126645000D03*
X90238750Y-127665000D03*
D16*
X88213750Y-118760000D03*
X88213750Y-117490000D03*
X88213750Y-116220000D03*
X88213750Y-114950000D03*
X83263750Y-114950000D03*
X83263750Y-116220000D03*
X83263750Y-117490000D03*
X83263750Y-118760000D03*
D17*
X51000000Y-140200000D03*
X51000000Y-138300000D03*
D18*
X54162500Y-123500000D03*
X52337500Y-123500000D03*
D19*
X75801250Y-118300000D03*
X77676250Y-118300000D03*
D20*
X102737500Y-104925000D03*
X102737500Y-105575000D03*
X102737500Y-106225000D03*
X102737500Y-106875000D03*
X102737500Y-107525000D03*
X102737500Y-108175000D03*
X102737500Y-108825000D03*
X102737500Y-109475000D03*
X108462500Y-109475000D03*
X108462500Y-108825000D03*
X108462500Y-108175000D03*
X108462500Y-107525000D03*
X108462500Y-106875000D03*
X108462500Y-106225000D03*
X108462500Y-105575000D03*
X108462500Y-104925000D03*
D21*
X81650000Y-138200000D03*
X79550000Y-138200000D03*
D17*
X102250000Y-151950000D03*
X102250000Y-150050000D03*
D10*
X57687500Y-106250000D03*
X55812500Y-106250000D03*
D22*
X49500000Y-118760000D03*
X49500000Y-117740000D03*
D23*
X104250000Y-150175000D03*
X104250000Y-151825000D03*
D18*
X80901250Y-116155000D03*
X79076250Y-116155000D03*
D24*
X110500000Y-172075000D03*
X110500000Y-170250000D03*
D25*
X112775000Y-162690000D03*
X112775000Y-163960000D03*
X112775000Y-165230000D03*
X112775000Y-166500000D03*
X112775000Y-167770000D03*
X112775000Y-169040000D03*
X112775000Y-170310000D03*
X117725000Y-170310000D03*
X117725000Y-169040000D03*
X117725000Y-167770000D03*
X117725000Y-166500000D03*
X117725000Y-165230000D03*
X117725000Y-163960000D03*
X117725000Y-162690000D03*
D22*
X90238750Y-125165000D03*
X90238750Y-124145000D03*
D18*
X81151250Y-126525000D03*
X79326250Y-126525000D03*
D26*
X59450000Y-80500000D03*
X64550000Y-80500000D03*
D27*
X120000000Y-163087500D03*
X120000000Y-164912500D03*
X127250000Y-153837500D03*
X127250000Y-155662500D03*
D24*
X60250000Y-157062500D03*
X60250000Y-155237500D03*
D28*
X52125000Y-108095000D03*
X52125000Y-109365000D03*
X52125000Y-110635000D03*
X52125000Y-111905000D03*
X57375000Y-111905000D03*
X57375000Y-110635000D03*
X57375000Y-109365000D03*
X57375000Y-108095000D03*
D29*
X58750000Y-131000000D03*
X60650000Y-131000000D03*
D11*
X83400000Y-136250000D03*
X83400000Y-138150000D03*
D30*
X120050000Y-80500000D03*
X118400000Y-80500000D03*
D29*
X72550000Y-162550000D03*
X74450000Y-162550000D03*
D31*
X59750000Y-109150000D03*
X59750000Y-105850000D03*
D22*
X49500000Y-109010000D03*
X49500000Y-107990000D03*
X91238750Y-118665000D03*
X91238750Y-117645000D03*
D15*
X90238750Y-117645000D03*
X90238750Y-118665000D03*
D22*
X91000000Y-102010000D03*
X91000000Y-100990000D03*
D27*
X122000000Y-168337500D03*
X122000000Y-170162500D03*
D32*
X79978750Y-119655000D03*
X80998750Y-119655000D03*
D25*
X80775000Y-164255000D03*
X80775000Y-165525000D03*
X80775000Y-166795000D03*
X80775000Y-168065000D03*
X80775000Y-169335000D03*
X80775000Y-170605000D03*
X80775000Y-171875000D03*
X80775000Y-173145000D03*
X85725000Y-173145000D03*
X85725000Y-171875000D03*
X85725000Y-170605000D03*
X85725000Y-169335000D03*
X85725000Y-168065000D03*
X85725000Y-166795000D03*
X85725000Y-165525000D03*
X85725000Y-164255000D03*
D18*
X54162500Y-116000000D03*
X52337500Y-116000000D03*
D22*
X91000000Y-108000000D03*
X91000000Y-106980000D03*
X91238750Y-125165000D03*
X91238750Y-124145000D03*
X90200000Y-115910000D03*
X90200000Y-114890000D03*
D10*
X57687500Y-113750000D03*
X55812500Y-113750000D03*
D22*
X78975000Y-149860000D03*
X78975000Y-148840000D03*
D19*
X75801250Y-124405000D03*
X77676250Y-124405000D03*
D18*
X74412500Y-160550000D03*
X72587500Y-160550000D03*
D22*
X91000000Y-104760000D03*
X91000000Y-103740000D03*
X91200000Y-115910000D03*
X91200000Y-114890000D03*
D33*
X79842500Y-91500000D03*
X89742500Y-91500000D03*
D34*
X132087500Y-80700000D03*
X133912500Y-80700000D03*
D15*
X50500000Y-111590000D03*
X50500000Y-112610000D03*
D17*
X82688750Y-122355000D03*
X82688750Y-120455000D03*
D31*
X59750000Y-118900000D03*
X59750000Y-115600000D03*
D14*
X77800000Y-103100000D03*
X81100000Y-103100000D03*
D18*
X81512500Y-136200000D03*
X79687500Y-136200000D03*
D35*
X127450000Y-157500000D03*
X125550000Y-157500000D03*
D15*
X49500000Y-111590000D03*
X49500000Y-112610000D03*
D36*
X144000000Y-88862500D03*
X144000000Y-93137500D03*
D24*
X120000000Y-170162500D03*
X120000000Y-168337500D03*
D15*
X50500000Y-117730000D03*
X50500000Y-118750000D03*
D29*
X111150000Y-151600000D03*
X113050000Y-151600000D03*
D16*
X88213750Y-127960000D03*
X88213750Y-126690000D03*
X88213750Y-125420000D03*
X88213750Y-124150000D03*
X83263750Y-124150000D03*
X83263750Y-125420000D03*
X83263750Y-126690000D03*
X83263750Y-127960000D03*
D37*
X68705000Y-85112500D03*
X68705000Y-78887500D03*
D15*
X50500000Y-107980000D03*
X50500000Y-109000000D03*
D19*
X75551250Y-116155000D03*
X77426250Y-116155000D03*
D38*
X64000000Y-85500000D03*
X60000000Y-85500000D03*
D24*
X56500000Y-142112500D03*
X56500000Y-140287500D03*
D35*
X59450000Y-158900000D03*
X57550000Y-158900000D03*
D34*
X58837500Y-163000000D03*
X60662500Y-163000000D03*
D24*
X108250000Y-165162500D03*
X108250000Y-163337500D03*
D27*
X125200000Y-159425000D03*
X125200000Y-161250000D03*
D17*
X84888750Y-122405000D03*
X84888750Y-120505000D03*
D15*
X90000000Y-109480000D03*
X90000000Y-110500000D03*
D31*
X59750000Y-120600000D03*
X59750000Y-123900000D03*
D32*
X79728750Y-114655000D03*
X80748750Y-114655000D03*
D22*
X90000000Y-102010000D03*
X90000000Y-100990000D03*
D27*
X110250000Y-163337500D03*
X110250000Y-165162500D03*
D11*
X88288750Y-120505000D03*
X88288750Y-122405000D03*
D17*
X69400000Y-167050000D03*
X69400000Y-165150000D03*
D18*
X54162500Y-113750000D03*
X52337500Y-113750000D03*
D24*
X122000000Y-164912500D03*
X122000000Y-163087500D03*
D11*
X77600000Y-136250000D03*
X77600000Y-138150000D03*
D18*
X81151250Y-124405000D03*
X79326250Y-124405000D03*
D17*
X74705000Y-80250000D03*
X74705000Y-78350000D03*
D11*
X102000000Y-163550000D03*
X102000000Y-165450000D03*
D39*
X96292500Y-86000000D03*
X108792500Y-86000000D03*
D11*
X58200000Y-155150000D03*
X58200000Y-157050000D03*
D22*
X91238750Y-127665000D03*
X91238750Y-126645000D03*
X75400000Y-138510000D03*
X75400000Y-137490000D03*
D35*
X117450000Y-151600000D03*
X115550000Y-151600000D03*
D24*
X60200000Y-150662500D03*
X60200000Y-148837500D03*
D35*
X119950000Y-82400000D03*
X118050000Y-82400000D03*
D14*
X77800000Y-106500000D03*
X81100000Y-106500000D03*
D27*
X141000000Y-113087500D03*
X141000000Y-114912500D03*
D29*
X102877500Y-103350000D03*
X104777500Y-103350000D03*
D17*
X57000000Y-162950000D03*
X57000000Y-161050000D03*
D40*
X66550000Y-90475000D03*
X61700000Y-90475000D03*
X66550000Y-96025000D03*
X61700000Y-96025000D03*
D41*
X73275000Y-96650000D03*
X73275000Y-94950000D03*
X73275000Y-93250000D03*
X73275000Y-91550000D03*
X73275000Y-89850000D03*
D42*
X123750000Y-80650000D03*
X126750000Y-80650000D03*
X128250000Y-80650000D03*
D43*
X122350000Y-81350000D03*
X122350000Y-83450000D03*
X129650000Y-83450000D03*
X129650000Y-81350000D03*
D27*
X108500000Y-170250000D03*
X108500000Y-172075000D03*
D23*
X104000000Y-159925000D03*
X104000000Y-161575000D03*
D44*
X51925000Y-150650000D03*
X51925000Y-152550000D03*
X53800000Y-151600000D03*
D29*
X65500000Y-165100000D03*
X67400000Y-165100000D03*
D35*
X60700000Y-161000000D03*
X58800000Y-161000000D03*
D24*
X127200000Y-161250000D03*
X127200000Y-159425000D03*
D19*
X75801250Y-126525000D03*
X77676250Y-126525000D03*
D11*
X139000000Y-109550000D03*
X139000000Y-111450000D03*
D18*
X67312500Y-167100000D03*
X65487500Y-167100000D03*
D45*
X88325000Y-104705000D03*
X88325000Y-103435000D03*
X88325000Y-102165000D03*
X88325000Y-100895000D03*
X83075000Y-100895000D03*
X83075000Y-102165000D03*
X83075000Y-103435000D03*
X83075000Y-104705000D03*
D10*
X57687500Y-116000000D03*
X55812500Y-116000000D03*
D45*
X88325000Y-110555000D03*
X88325000Y-109285000D03*
X88325000Y-108015000D03*
X88325000Y-106745000D03*
X83075000Y-106745000D03*
X83075000Y-108015000D03*
X83075000Y-109285000D03*
X83075000Y-110555000D03*
D34*
X58687500Y-133000000D03*
X60512500Y-133000000D03*
D15*
X78945000Y-153590000D03*
X78945000Y-154610000D03*
X50500000Y-120490000D03*
X50500000Y-121510000D03*
D22*
X90000000Y-108010000D03*
X90000000Y-106990000D03*
D17*
X72455000Y-80250000D03*
X72455000Y-78350000D03*
D32*
X80228750Y-128025000D03*
X81248750Y-128025000D03*
D15*
X49500000Y-120490000D03*
X49500000Y-121510000D03*
D17*
X102000000Y-161900000D03*
X102000000Y-160000000D03*
D14*
X77800000Y-100500000D03*
X81100000Y-100500000D03*
D11*
X90488750Y-120505000D03*
X90488750Y-122405000D03*
D46*
X104000000Y-165575000D03*
X104000000Y-163925000D03*
D20*
X102810000Y-114695000D03*
X102810000Y-115345000D03*
X102810000Y-115995000D03*
X102810000Y-116645000D03*
X102810000Y-117295000D03*
X102810000Y-117945000D03*
X102810000Y-118595000D03*
X102810000Y-119245000D03*
X108535000Y-119245000D03*
X108535000Y-118595000D03*
X108535000Y-117945000D03*
X108535000Y-117295000D03*
X108535000Y-116645000D03*
X108535000Y-115995000D03*
X108535000Y-115345000D03*
X108535000Y-114695000D03*
D25*
X129525000Y-153440000D03*
X129525000Y-154710000D03*
X129525000Y-155980000D03*
X129525000Y-157250000D03*
X129525000Y-158520000D03*
X129525000Y-159790000D03*
X129525000Y-161060000D03*
X134475000Y-161060000D03*
X134475000Y-159790000D03*
X134475000Y-158520000D03*
X134475000Y-157250000D03*
X134475000Y-155980000D03*
X134475000Y-154710000D03*
X134475000Y-153440000D03*
D18*
X54162500Y-106250000D03*
X52337500Y-106250000D03*
D34*
X60687500Y-165000000D03*
X62512500Y-165000000D03*
D17*
X139000000Y-115000000D03*
X139000000Y-113100000D03*
D20*
X111037500Y-153225000D03*
X111037500Y-153875000D03*
X111037500Y-154525000D03*
X111037500Y-155175000D03*
X111037500Y-155825000D03*
X111037500Y-156475000D03*
X111037500Y-157125000D03*
X111037500Y-157775000D03*
X116762500Y-157775000D03*
X116762500Y-157125000D03*
X116762500Y-156475000D03*
X116762500Y-155825000D03*
X116762500Y-155175000D03*
X116762500Y-154525000D03*
X116762500Y-153875000D03*
X116762500Y-153225000D03*
D27*
X56200000Y-155187500D03*
X56200000Y-157012500D03*
D17*
X53250000Y-140250000D03*
X53250000Y-138350000D03*
D35*
X108277500Y-103350000D03*
X106377500Y-103350000D03*
D24*
X125250000Y-155612500D03*
X125250000Y-153787500D03*
D15*
X78940000Y-156590000D03*
X78940000Y-157610000D03*
D22*
X91000000Y-110510000D03*
X91000000Y-109490000D03*
D27*
X141000000Y-109587500D03*
X141000000Y-111412500D03*
D31*
X59750000Y-110600000D03*
X59750000Y-113900000D03*
D35*
X108350000Y-113100000D03*
X106450000Y-113100000D03*
D47*
X95500000Y-100387500D03*
X95500000Y-96112500D03*
D44*
X51862500Y-143050000D03*
X51862500Y-144950000D03*
X53737500Y-144000000D03*
D28*
X52125000Y-117845000D03*
X52125000Y-119115000D03*
X52125000Y-120385000D03*
X52125000Y-121655000D03*
X57375000Y-121655000D03*
X57375000Y-120385000D03*
X57375000Y-119115000D03*
X57375000Y-117845000D03*
D24*
X75400000Y-136112500D03*
X75400000Y-134287500D03*
D44*
X51862500Y-146850000D03*
X51862500Y-148750000D03*
X53737500Y-147800000D03*
D32*
X79978750Y-122905000D03*
X80998750Y-122905000D03*
D11*
X59000000Y-140250000D03*
X59000000Y-142150000D03*
D35*
X110450000Y-168000000D03*
X108550000Y-168000000D03*
D15*
X90000000Y-103740000D03*
X90000000Y-104760000D03*
D29*
X102950000Y-113100000D03*
X104850000Y-113100000D03*
D18*
X81051250Y-118155000D03*
X79226250Y-118155000D03*
M02*
