G04 #@! TF.GenerationSoftware,KiCad,Pcbnew,(6.0.10)*
G04 #@! TF.CreationDate,2023-01-07T19:39:58+01:00*
G04 #@! TF.ProjectId,perfectV2.1v0,70657266-6563-4745-9632-2e3176302e6b,6*
G04 #@! TF.SameCoordinates,Original*
G04 #@! TF.FileFunction,Copper,L1,Top*
G04 #@! TF.FilePolarity,Positive*
%FSLAX46Y46*%
G04 Gerber Fmt 4.6, Leading zero omitted, Abs format (unit mm)*
G04 Created by KiCad (PCBNEW (6.0.10)) date 2023-01-07 19:39:58*
%MOMM*%
%LPD*%
G01*
G04 APERTURE LIST*
G04 Aperture macros list*
%AMRoundRect*
0 Rectangle with rounded corners*
0 $1 Rounding radius*
0 $2 $3 $4 $5 $6 $7 $8 $9 X,Y pos of 4 corners*
0 Add a 4 corners polygon primitive as box body*
4,1,4,$2,$3,$4,$5,$6,$7,$8,$9,$2,$3,0*
0 Add four circle primitives for the rounded corners*
1,1,$1+$1,$2,$3*
1,1,$1+$1,$4,$5*
1,1,$1+$1,$6,$7*
1,1,$1+$1,$8,$9*
0 Add four rect primitives between the rounded corners*
20,1,$1+$1,$2,$3,$4,$5,0*
20,1,$1+$1,$4,$5,$6,$7,0*
20,1,$1+$1,$6,$7,$8,$9,0*
20,1,$1+$1,$8,$9,$2,$3,0*%
G04 Aperture macros list end*
G04 #@! TA.AperFunction,SMDPad,CuDef*
%ADD10RoundRect,0.243750X0.243750X0.456250X-0.243750X0.456250X-0.243750X-0.456250X0.243750X-0.456250X0*%
G04 #@! TD*
G04 #@! TA.AperFunction,SMDPad,CuDef*
%ADD11RoundRect,0.250000X-0.475000X0.250000X-0.475000X-0.250000X0.475000X-0.250000X0.475000X0.250000X0*%
G04 #@! TD*
G04 #@! TA.AperFunction,SMDPad,CuDef*
%ADD12R,2.200000X1.200000*%
G04 #@! TD*
G04 #@! TA.AperFunction,SMDPad,CuDef*
%ADD13R,6.400000X5.800000*%
G04 #@! TD*
G04 #@! TA.AperFunction,ComponentPad*
%ADD14R,1.700000X1.700000*%
G04 #@! TD*
G04 #@! TA.AperFunction,ComponentPad*
%ADD15O,1.700000X1.700000*%
G04 #@! TD*
G04 #@! TA.AperFunction,SMDPad,CuDef*
%ADD16R,0.900000X1.200000*%
G04 #@! TD*
G04 #@! TA.AperFunction,SMDPad,CuDef*
%ADD17RoundRect,0.135000X-0.185000X0.135000X-0.185000X-0.135000X0.185000X-0.135000X0.185000X0.135000X0*%
G04 #@! TD*
G04 #@! TA.AperFunction,ComponentPad*
%ADD18R,1.600000X1.600000*%
G04 #@! TD*
G04 #@! TA.AperFunction,ComponentPad*
%ADD19C,1.600000*%
G04 #@! TD*
G04 #@! TA.AperFunction,SMDPad,CuDef*
%ADD20RoundRect,0.150000X0.825000X0.150000X-0.825000X0.150000X-0.825000X-0.150000X0.825000X-0.150000X0*%
G04 #@! TD*
G04 #@! TA.AperFunction,SMDPad,CuDef*
%ADD21RoundRect,0.250000X0.475000X-0.250000X0.475000X0.250000X-0.475000X0.250000X-0.475000X-0.250000X0*%
G04 #@! TD*
G04 #@! TA.AperFunction,SMDPad,CuDef*
%ADD22RoundRect,0.250000X0.262500X0.450000X-0.262500X0.450000X-0.262500X-0.450000X0.262500X-0.450000X0*%
G04 #@! TD*
G04 #@! TA.AperFunction,ComponentPad*
%ADD23R,2.600000X2.600000*%
G04 #@! TD*
G04 #@! TA.AperFunction,ComponentPad*
%ADD24C,2.600000*%
G04 #@! TD*
G04 #@! TA.AperFunction,SMDPad,CuDef*
%ADD25RoundRect,0.243750X-0.243750X-0.456250X0.243750X-0.456250X0.243750X0.456250X-0.243750X0.456250X0*%
G04 #@! TD*
G04 #@! TA.AperFunction,SMDPad,CuDef*
%ADD26RoundRect,0.100000X-0.637500X-0.100000X0.637500X-0.100000X0.637500X0.100000X-0.637500X0.100000X0*%
G04 #@! TD*
G04 #@! TA.AperFunction,SMDPad,CuDef*
%ADD27R,0.600000X0.450000*%
G04 #@! TD*
G04 #@! TA.AperFunction,SMDPad,CuDef*
%ADD28RoundRect,0.135000X0.185000X-0.135000X0.185000X0.135000X-0.185000X0.135000X-0.185000X-0.135000X0*%
G04 #@! TD*
G04 #@! TA.AperFunction,SMDPad,CuDef*
%ADD29RoundRect,0.200000X-0.275000X0.200000X-0.275000X-0.200000X0.275000X-0.200000X0.275000X0.200000X0*%
G04 #@! TD*
G04 #@! TA.AperFunction,SMDPad,CuDef*
%ADD30RoundRect,0.250000X0.450000X-0.262500X0.450000X0.262500X-0.450000X0.262500X-0.450000X-0.262500X0*%
G04 #@! TD*
G04 #@! TA.AperFunction,SMDPad,CuDef*
%ADD31RoundRect,0.150000X-0.825000X-0.150000X0.825000X-0.150000X0.825000X0.150000X-0.825000X0.150000X0*%
G04 #@! TD*
G04 #@! TA.AperFunction,SMDPad,CuDef*
%ADD32RoundRect,0.250000X-0.650000X-2.450000X0.650000X-2.450000X0.650000X2.450000X-0.650000X2.450000X0*%
G04 #@! TD*
G04 #@! TA.AperFunction,SMDPad,CuDef*
%ADD33RoundRect,0.250000X-0.450000X0.262500X-0.450000X-0.262500X0.450000X-0.262500X0.450000X0.262500X0*%
G04 #@! TD*
G04 #@! TA.AperFunction,SMDPad,CuDef*
%ADD34RoundRect,0.150000X-0.675000X-0.150000X0.675000X-0.150000X0.675000X0.150000X-0.675000X0.150000X0*%
G04 #@! TD*
G04 #@! TA.AperFunction,SMDPad,CuDef*
%ADD35RoundRect,0.250000X-0.250000X-0.475000X0.250000X-0.475000X0.250000X0.475000X-0.250000X0.475000X0*%
G04 #@! TD*
G04 #@! TA.AperFunction,SMDPad,CuDef*
%ADD36RoundRect,0.200000X0.200000X0.275000X-0.200000X0.275000X-0.200000X-0.275000X0.200000X-0.275000X0*%
G04 #@! TD*
G04 #@! TA.AperFunction,SMDPad,CuDef*
%ADD37R,1.200000X0.900000*%
G04 #@! TD*
G04 #@! TA.AperFunction,SMDPad,CuDef*
%ADD38RoundRect,0.135000X-0.135000X-0.185000X0.135000X-0.185000X0.135000X0.185000X-0.135000X0.185000X0*%
G04 #@! TD*
G04 #@! TA.AperFunction,ComponentPad*
%ADD39O,1.600000X1.600000*%
G04 #@! TD*
G04 #@! TA.AperFunction,ComponentPad*
%ADD40C,8.600000*%
G04 #@! TD*
G04 #@! TA.AperFunction,SMDPad,CuDef*
%ADD41R,2.900000X5.400000*%
G04 #@! TD*
G04 #@! TA.AperFunction,SMDPad,CuDef*
%ADD42RoundRect,0.250000X-0.262500X-0.450000X0.262500X-0.450000X0.262500X0.450000X-0.262500X0.450000X0*%
G04 #@! TD*
G04 #@! TA.AperFunction,SMDPad,CuDef*
%ADD43RoundRect,0.250000X0.250000X0.475000X-0.250000X0.475000X-0.250000X-0.475000X0.250000X-0.475000X0*%
G04 #@! TD*
G04 #@! TA.AperFunction,SMDPad,CuDef*
%ADD44RoundRect,0.250000X-1.450000X0.312500X-1.450000X-0.312500X1.450000X-0.312500X1.450000X0.312500X0*%
G04 #@! TD*
G04 #@! TA.AperFunction,SMDPad,CuDef*
%ADD45RoundRect,0.250000X1.025000X-0.787500X1.025000X0.787500X-1.025000X0.787500X-1.025000X-0.787500X0*%
G04 #@! TD*
G04 #@! TA.AperFunction,SMDPad,CuDef*
%ADD46R,2.500000X1.800000*%
G04 #@! TD*
G04 #@! TA.AperFunction,SMDPad,CuDef*
%ADD47RoundRect,0.249998X-3.650002X-4.550002X3.650002X-4.550002X3.650002X4.550002X-3.650002X4.550002X0*%
G04 #@! TD*
G04 #@! TA.AperFunction,SMDPad,CuDef*
%ADD48R,4.600000X1.100000*%
G04 #@! TD*
G04 #@! TA.AperFunction,SMDPad,CuDef*
%ADD49R,9.400000X10.800000*%
G04 #@! TD*
G04 #@! TA.AperFunction,SMDPad,CuDef*
%ADD50R,0.700000X1.500000*%
G04 #@! TD*
G04 #@! TA.AperFunction,SMDPad,CuDef*
%ADD51R,1.000000X0.800000*%
G04 #@! TD*
G04 #@! TA.AperFunction,SMDPad,CuDef*
%ADD52RoundRect,0.150000X-0.587500X-0.150000X0.587500X-0.150000X0.587500X0.150000X-0.587500X0.150000X0*%
G04 #@! TD*
G04 #@! TA.AperFunction,SMDPad,CuDef*
%ADD53RoundRect,0.150000X0.675000X0.150000X-0.675000X0.150000X-0.675000X-0.150000X0.675000X-0.150000X0*%
G04 #@! TD*
G04 #@! TA.AperFunction,ComponentPad*
%ADD54RoundRect,0.250000X-0.600000X-0.600000X0.600000X-0.600000X0.600000X0.600000X-0.600000X0.600000X0*%
G04 #@! TD*
G04 #@! TA.AperFunction,ComponentPad*
%ADD55C,1.700000*%
G04 #@! TD*
G04 #@! TA.AperFunction,SMDPad,CuDef*
%ADD56RoundRect,0.200000X0.275000X-0.200000X0.275000X0.200000X-0.275000X0.200000X-0.275000X-0.200000X0*%
G04 #@! TD*
G04 #@! TA.AperFunction,SMDPad,CuDef*
%ADD57RoundRect,0.250000X1.450000X-0.312500X1.450000X0.312500X-1.450000X0.312500X-1.450000X-0.312500X0*%
G04 #@! TD*
G04 #@! TA.AperFunction,ViaPad*
%ADD58C,0.700000*%
G04 #@! TD*
G04 #@! TA.AperFunction,Conductor*
%ADD59C,0.500000*%
G04 #@! TD*
G04 #@! TA.AperFunction,Conductor*
%ADD60C,1.000000*%
G04 #@! TD*
G04 #@! TA.AperFunction,Conductor*
%ADD61C,0.300000*%
G04 #@! TD*
G04 #@! TA.AperFunction,Conductor*
%ADD62C,0.400000*%
G04 #@! TD*
G04 #@! TA.AperFunction,Conductor*
%ADD63C,0.425000*%
G04 #@! TD*
G04 #@! TA.AperFunction,Conductor*
%ADD64C,0.250000*%
G04 #@! TD*
G04 APERTURE END LIST*
D10*
X57687500Y-123500000D03*
X55812500Y-123500000D03*
D11*
X76250000Y-160600000D03*
X76250000Y-162500000D03*
D12*
X77550000Y-78720000D03*
X77550000Y-81000000D03*
X77550000Y-83280000D03*
D13*
X83850000Y-81000000D03*
D14*
X81475000Y-149850000D03*
D15*
X84015000Y-149850000D03*
X86555000Y-149850000D03*
D16*
X77800000Y-109600000D03*
X81100000Y-109600000D03*
D17*
X90238750Y-126645000D03*
X90238750Y-127665000D03*
D18*
X132120000Y-146975000D03*
D19*
X132120000Y-144435000D03*
X132120000Y-141895000D03*
X132120000Y-139355000D03*
X132120000Y-136815000D03*
X132120000Y-134275000D03*
X132120000Y-131735000D03*
X132120000Y-129195000D03*
X132120000Y-126655000D03*
X132120000Y-124115000D03*
X132120000Y-121575000D03*
X132120000Y-119035000D03*
X132120000Y-116495000D03*
X132120000Y-113955000D03*
X132120000Y-111415000D03*
X132120000Y-108875000D03*
X132120000Y-106335000D03*
X132120000Y-103795000D03*
X132120000Y-101255000D03*
X132120000Y-98715000D03*
X132120000Y-96175000D03*
X132120000Y-93635000D03*
X132120000Y-91095000D03*
X132120000Y-88555000D03*
X116880000Y-88555000D03*
X116880000Y-91095000D03*
X116880000Y-93635000D03*
X116880000Y-96175000D03*
X116880000Y-98715000D03*
X116880000Y-101255000D03*
X116880000Y-103795000D03*
X116880000Y-106335000D03*
X116880000Y-108875000D03*
X116880000Y-111415000D03*
X116880000Y-113955000D03*
X116880000Y-116495000D03*
X116880000Y-119035000D03*
X116880000Y-121575000D03*
X116880000Y-124115000D03*
X116880000Y-126655000D03*
X116880000Y-129195000D03*
X116880000Y-131735000D03*
X116880000Y-134275000D03*
X116880000Y-136815000D03*
X116880000Y-139355000D03*
X116880000Y-141895000D03*
X116880000Y-144435000D03*
X116880000Y-146975000D03*
X129580000Y-101255000D03*
X127040000Y-101255000D03*
X124500000Y-101255000D03*
X121960000Y-101255000D03*
X119420000Y-101255000D03*
D20*
X88213750Y-118760000D03*
X88213750Y-117490000D03*
X88213750Y-116220000D03*
X88213750Y-114950000D03*
X83263750Y-114950000D03*
X83263750Y-116220000D03*
X83263750Y-117490000D03*
X83263750Y-118760000D03*
D21*
X51000000Y-140200000D03*
X51000000Y-138300000D03*
D14*
X73920000Y-153600000D03*
D15*
X76460000Y-153600000D03*
D22*
X54162500Y-123500000D03*
X52337500Y-123500000D03*
D23*
X52645000Y-90250000D03*
D24*
X52645000Y-95330000D03*
D25*
X75801250Y-118300000D03*
X77676250Y-118300000D03*
D26*
X102737500Y-104925000D03*
X102737500Y-105575000D03*
X102737500Y-106225000D03*
X102737500Y-106875000D03*
X102737500Y-107525000D03*
X102737500Y-108175000D03*
X102737500Y-108825000D03*
X102737500Y-109475000D03*
X108462500Y-109475000D03*
X108462500Y-108825000D03*
X108462500Y-108175000D03*
X108462500Y-107525000D03*
X108462500Y-106875000D03*
X108462500Y-106225000D03*
X108462500Y-105575000D03*
X108462500Y-104925000D03*
D27*
X81650000Y-138200000D03*
X79550000Y-138200000D03*
D21*
X102250000Y-151950000D03*
X102250000Y-150050000D03*
D10*
X57687500Y-106250000D03*
X55812500Y-106250000D03*
D28*
X49500000Y-118760000D03*
X49500000Y-117740000D03*
D14*
X143900000Y-149550000D03*
D15*
X143900000Y-147010000D03*
X143900000Y-144470000D03*
X143900000Y-141930000D03*
X143900000Y-139390000D03*
X143900000Y-136850000D03*
D29*
X104250000Y-150175000D03*
X104250000Y-151825000D03*
D22*
X80901250Y-116155000D03*
X79076250Y-116155000D03*
D30*
X110500000Y-172075000D03*
X110500000Y-170250000D03*
D31*
X112775000Y-162690000D03*
X112775000Y-163960000D03*
X112775000Y-165230000D03*
X112775000Y-166500000D03*
X112775000Y-167770000D03*
X112775000Y-169040000D03*
X112775000Y-170310000D03*
X117725000Y-170310000D03*
X117725000Y-169040000D03*
X117725000Y-167770000D03*
X117725000Y-166500000D03*
X117725000Y-165230000D03*
X117725000Y-163960000D03*
X117725000Y-162690000D03*
D28*
X90238750Y-125165000D03*
X90238750Y-124145000D03*
D22*
X81151250Y-126525000D03*
X79326250Y-126525000D03*
D32*
X59450000Y-80500000D03*
X64550000Y-80500000D03*
D33*
X120000000Y-163087500D03*
X120000000Y-164912500D03*
X127250000Y-153837500D03*
X127250000Y-155662500D03*
D30*
X60250000Y-157062500D03*
X60250000Y-155237500D03*
D34*
X52125000Y-108095000D03*
X52125000Y-109365000D03*
X52125000Y-110635000D03*
X52125000Y-111905000D03*
X57375000Y-111905000D03*
X57375000Y-110635000D03*
X57375000Y-109365000D03*
X57375000Y-108095000D03*
D35*
X58750000Y-131000000D03*
X60650000Y-131000000D03*
D11*
X83400000Y-136250000D03*
X83400000Y-138150000D03*
D36*
X120050000Y-80500000D03*
X118400000Y-80500000D03*
D35*
X72550000Y-162550000D03*
X74450000Y-162550000D03*
D14*
X73915000Y-157350000D03*
D15*
X76455000Y-157350000D03*
D37*
X59750000Y-109150000D03*
X59750000Y-105850000D03*
D28*
X49500000Y-109010000D03*
X49500000Y-107990000D03*
X91238750Y-118665000D03*
X91238750Y-117645000D03*
D17*
X90238750Y-117645000D03*
X90238750Y-118665000D03*
D28*
X91000000Y-102010000D03*
X91000000Y-100990000D03*
D33*
X122000000Y-168337500D03*
X122000000Y-170162500D03*
D38*
X79978750Y-119655000D03*
X80998750Y-119655000D03*
D31*
X80775000Y-164255000D03*
X80775000Y-165525000D03*
X80775000Y-166795000D03*
X80775000Y-168065000D03*
X80775000Y-169335000D03*
X80775000Y-170605000D03*
X80775000Y-171875000D03*
X80775000Y-173145000D03*
X85725000Y-173145000D03*
X85725000Y-171875000D03*
X85725000Y-170605000D03*
X85725000Y-169335000D03*
X85725000Y-168065000D03*
X85725000Y-166795000D03*
X85725000Y-165525000D03*
X85725000Y-164255000D03*
D22*
X54162500Y-116000000D03*
X52337500Y-116000000D03*
D28*
X91000000Y-108000000D03*
X91000000Y-106980000D03*
D18*
X91750000Y-149950000D03*
D39*
X91750000Y-152490000D03*
X91750000Y-155030000D03*
X91750000Y-157570000D03*
X99370000Y-157570000D03*
X99370000Y-155030000D03*
X99370000Y-152490000D03*
X99370000Y-149950000D03*
D28*
X91238750Y-125165000D03*
X91238750Y-124145000D03*
X90200000Y-115910000D03*
X90200000Y-114890000D03*
D18*
X92140000Y-131160000D03*
D39*
X89600000Y-131160000D03*
X87060000Y-131160000D03*
X84520000Y-131160000D03*
X81980000Y-131160000D03*
X79440000Y-131160000D03*
X76900000Y-131160000D03*
X74360000Y-131160000D03*
X74360000Y-143860000D03*
X76900000Y-143860000D03*
X79440000Y-143860000D03*
X81980000Y-143860000D03*
X84520000Y-143860000D03*
X87060000Y-143860000D03*
X89600000Y-143860000D03*
X92140000Y-143860000D03*
D10*
X57687500Y-113750000D03*
X55812500Y-113750000D03*
D28*
X78975000Y-149860000D03*
X78975000Y-148840000D03*
D25*
X75801250Y-124405000D03*
X77676250Y-124405000D03*
D22*
X74412500Y-160550000D03*
X72587500Y-160550000D03*
D28*
X91000000Y-104760000D03*
X91000000Y-103740000D03*
D14*
X56000000Y-135500000D03*
D15*
X56000000Y-132960000D03*
X56000000Y-130420000D03*
D28*
X91200000Y-115910000D03*
X91200000Y-114890000D03*
D40*
X53000000Y-171250000D03*
D41*
X79842500Y-91500000D03*
X89742500Y-91500000D03*
D42*
X132087500Y-80700000D03*
X133912500Y-80700000D03*
D17*
X50500000Y-111590000D03*
X50500000Y-112610000D03*
D21*
X82688750Y-122355000D03*
X82688750Y-120455000D03*
D37*
X59750000Y-118900000D03*
X59750000Y-115600000D03*
D16*
X77800000Y-103100000D03*
X81100000Y-103100000D03*
D22*
X81512500Y-136200000D03*
X79687500Y-136200000D03*
D18*
X91650000Y-161700000D03*
D39*
X91650000Y-164240000D03*
X91650000Y-166780000D03*
X91650000Y-169320000D03*
X99270000Y-169320000D03*
X99270000Y-166780000D03*
X99270000Y-164240000D03*
X99270000Y-161700000D03*
D43*
X127450000Y-157500000D03*
X125550000Y-157500000D03*
D17*
X49500000Y-111590000D03*
X49500000Y-112610000D03*
D44*
X144000000Y-88862500D03*
X144000000Y-93137500D03*
D30*
X120000000Y-170162500D03*
X120000000Y-168337500D03*
D17*
X50500000Y-117730000D03*
X50500000Y-118750000D03*
D35*
X111150000Y-151600000D03*
X113050000Y-151600000D03*
D20*
X88213750Y-127960000D03*
X88213750Y-126690000D03*
X88213750Y-125420000D03*
X88213750Y-124150000D03*
X83263750Y-124150000D03*
X83263750Y-125420000D03*
X83263750Y-126690000D03*
X83263750Y-127960000D03*
D14*
X81365000Y-153600000D03*
D15*
X83905000Y-153600000D03*
X86445000Y-153600000D03*
D45*
X68705000Y-85112500D03*
X68705000Y-78887500D03*
D17*
X50500000Y-107980000D03*
X50500000Y-109000000D03*
D25*
X75551250Y-116155000D03*
X77426250Y-116155000D03*
D46*
X64000000Y-85500000D03*
X60000000Y-85500000D03*
D30*
X56500000Y-142112500D03*
X56500000Y-140287500D03*
D43*
X59450000Y-158900000D03*
X57550000Y-158900000D03*
D42*
X58837500Y-163000000D03*
X60662500Y-163000000D03*
D40*
X142000000Y-82250000D03*
D30*
X108250000Y-165162500D03*
X108250000Y-163337500D03*
D33*
X125200000Y-159425000D03*
X125200000Y-161250000D03*
D21*
X84888750Y-122405000D03*
X84888750Y-120505000D03*
D17*
X90000000Y-109480000D03*
X90000000Y-110500000D03*
D37*
X59750000Y-120600000D03*
X59750000Y-123900000D03*
D38*
X79728750Y-114655000D03*
X80748750Y-114655000D03*
D28*
X90000000Y-102010000D03*
X90000000Y-100990000D03*
D33*
X110250000Y-163337500D03*
X110250000Y-165162500D03*
D11*
X88288750Y-120505000D03*
X88288750Y-122405000D03*
D21*
X69400000Y-167050000D03*
X69400000Y-165150000D03*
D22*
X54162500Y-113750000D03*
X52337500Y-113750000D03*
D30*
X122000000Y-164912500D03*
X122000000Y-163087500D03*
D11*
X77600000Y-136250000D03*
X77600000Y-138150000D03*
D22*
X81151250Y-124405000D03*
X79326250Y-124405000D03*
D21*
X74705000Y-80250000D03*
X74705000Y-78350000D03*
D11*
X102000000Y-163550000D03*
X102000000Y-165450000D03*
D47*
X96292500Y-86000000D03*
X108792500Y-86000000D03*
D11*
X58200000Y-155150000D03*
X58200000Y-157050000D03*
D28*
X91238750Y-127665000D03*
X91238750Y-126645000D03*
X75400000Y-138510000D03*
X75400000Y-137490000D03*
D43*
X117450000Y-151600000D03*
X115550000Y-151600000D03*
D30*
X60200000Y-150662500D03*
X60200000Y-148837500D03*
D43*
X119950000Y-82400000D03*
X118050000Y-82400000D03*
D16*
X77800000Y-106500000D03*
X81100000Y-106500000D03*
D33*
X141000000Y-113087500D03*
X141000000Y-114912500D03*
D35*
X102877500Y-103350000D03*
X104777500Y-103350000D03*
D21*
X57000000Y-162950000D03*
X57000000Y-161050000D03*
D48*
X73275000Y-96650000D03*
X73275000Y-94950000D03*
X73275000Y-93250000D03*
X73275000Y-91550000D03*
X73275000Y-89850000D03*
D49*
X64125000Y-93250000D03*
D50*
X123750000Y-80650000D03*
X126750000Y-80650000D03*
X128250000Y-80650000D03*
D51*
X122350000Y-81350000D03*
X122350000Y-83450000D03*
X129650000Y-83450000D03*
X129650000Y-81350000D03*
D33*
X108500000Y-170250000D03*
X108500000Y-172075000D03*
D29*
X104000000Y-159925000D03*
X104000000Y-161575000D03*
D52*
X51925000Y-150650000D03*
X51925000Y-152550000D03*
X53800000Y-151600000D03*
D35*
X65500000Y-165100000D03*
X67400000Y-165100000D03*
D14*
X144000000Y-95925000D03*
D15*
X144000000Y-98465000D03*
X144000000Y-101005000D03*
X144000000Y-103545000D03*
X144000000Y-106085000D03*
D43*
X60700000Y-161000000D03*
X58800000Y-161000000D03*
D14*
X73950000Y-149850000D03*
D15*
X76490000Y-149850000D03*
D30*
X127200000Y-161250000D03*
X127200000Y-159425000D03*
D25*
X75801250Y-126525000D03*
X77676250Y-126525000D03*
D11*
X139000000Y-109550000D03*
X139000000Y-111450000D03*
D22*
X67312500Y-167100000D03*
X65487500Y-167100000D03*
D53*
X88325000Y-104705000D03*
X88325000Y-103435000D03*
X88325000Y-102165000D03*
X88325000Y-100895000D03*
X83075000Y-100895000D03*
X83075000Y-102165000D03*
X83075000Y-103435000D03*
X83075000Y-104705000D03*
D10*
X57687500Y-116000000D03*
X55812500Y-116000000D03*
D53*
X88325000Y-110555000D03*
X88325000Y-109285000D03*
X88325000Y-108015000D03*
X88325000Y-106745000D03*
X83075000Y-106745000D03*
X83075000Y-108015000D03*
X83075000Y-109285000D03*
X83075000Y-110555000D03*
D42*
X58687500Y-133000000D03*
X60512500Y-133000000D03*
D17*
X78945000Y-153590000D03*
X78945000Y-154610000D03*
D14*
X144000000Y-110960000D03*
D15*
X144000000Y-113500000D03*
X144000000Y-116040000D03*
X144000000Y-118580000D03*
D17*
X50500000Y-120490000D03*
X50500000Y-121510000D03*
D28*
X90000000Y-108010000D03*
X90000000Y-106990000D03*
D21*
X72455000Y-80250000D03*
X72455000Y-78350000D03*
D38*
X80228750Y-128025000D03*
X81248750Y-128025000D03*
D54*
X65247500Y-110120000D03*
D55*
X67787500Y-110120000D03*
X65247500Y-112660000D03*
X67787500Y-112660000D03*
X65247500Y-115200000D03*
X67787500Y-115200000D03*
X65247500Y-117740000D03*
X67787500Y-117740000D03*
X65247500Y-120280000D03*
X67787500Y-120280000D03*
X65247500Y-122820000D03*
X67787500Y-122820000D03*
X65247500Y-125360000D03*
X67787500Y-125360000D03*
X65247500Y-127900000D03*
X67787500Y-127900000D03*
X65247500Y-130440000D03*
X67787500Y-130440000D03*
X65247500Y-132980000D03*
X67787500Y-132980000D03*
X65247500Y-135520000D03*
X67787500Y-135520000D03*
X65247500Y-138060000D03*
X67787500Y-138060000D03*
X65247500Y-140600000D03*
X67787500Y-140600000D03*
X65247500Y-143140000D03*
X67787500Y-143140000D03*
X65247500Y-145680000D03*
X67787500Y-145680000D03*
X65247500Y-148220000D03*
X67787500Y-148220000D03*
X65247500Y-150760000D03*
X67787500Y-150760000D03*
X65247500Y-153300000D03*
X67787500Y-153300000D03*
X65247500Y-155840000D03*
X67787500Y-155840000D03*
X65247500Y-158380000D03*
X67787500Y-158380000D03*
D17*
X49500000Y-120490000D03*
X49500000Y-121510000D03*
D21*
X102000000Y-161900000D03*
X102000000Y-160000000D03*
D40*
X53000000Y-82250000D03*
D16*
X77800000Y-100500000D03*
X81100000Y-100500000D03*
D11*
X90488750Y-120505000D03*
X90488750Y-122405000D03*
D56*
X104000000Y-165575000D03*
X104000000Y-163925000D03*
D26*
X102810000Y-114695000D03*
X102810000Y-115345000D03*
X102810000Y-115995000D03*
X102810000Y-116645000D03*
X102810000Y-117295000D03*
X102810000Y-117945000D03*
X102810000Y-118595000D03*
X102810000Y-119245000D03*
X108535000Y-119245000D03*
X108535000Y-118595000D03*
X108535000Y-117945000D03*
X108535000Y-117295000D03*
X108535000Y-116645000D03*
X108535000Y-115995000D03*
X108535000Y-115345000D03*
X108535000Y-114695000D03*
D31*
X129525000Y-153440000D03*
X129525000Y-154710000D03*
X129525000Y-155980000D03*
X129525000Y-157250000D03*
X129525000Y-158520000D03*
X129525000Y-159790000D03*
X129525000Y-161060000D03*
X134475000Y-161060000D03*
X134475000Y-159790000D03*
X134475000Y-158520000D03*
X134475000Y-157250000D03*
X134475000Y-155980000D03*
X134475000Y-154710000D03*
X134475000Y-153440000D03*
D14*
X52025000Y-130525000D03*
D15*
X52025000Y-133065000D03*
X52025000Y-135605000D03*
D22*
X54162500Y-106250000D03*
X52337500Y-106250000D03*
D14*
X81400000Y-157350000D03*
D15*
X83940000Y-157350000D03*
X86480000Y-157350000D03*
D42*
X60687500Y-165000000D03*
X62512500Y-165000000D03*
D21*
X139000000Y-115000000D03*
X139000000Y-113100000D03*
D26*
X111037500Y-153225000D03*
X111037500Y-153875000D03*
X111037500Y-154525000D03*
X111037500Y-155175000D03*
X111037500Y-155825000D03*
X111037500Y-156475000D03*
X111037500Y-157125000D03*
X111037500Y-157775000D03*
X116762500Y-157775000D03*
X116762500Y-157125000D03*
X116762500Y-156475000D03*
X116762500Y-155825000D03*
X116762500Y-155175000D03*
X116762500Y-154525000D03*
X116762500Y-153875000D03*
X116762500Y-153225000D03*
D33*
X56200000Y-155187500D03*
X56200000Y-157012500D03*
D21*
X53250000Y-140250000D03*
X53250000Y-138350000D03*
D43*
X108277500Y-103350000D03*
X106377500Y-103350000D03*
D40*
X142000000Y-171250000D03*
D30*
X125250000Y-155612500D03*
X125250000Y-153787500D03*
D14*
X94488750Y-123780000D03*
D15*
X94488750Y-121240000D03*
X94488750Y-118700000D03*
D17*
X78940000Y-156590000D03*
X78940000Y-157610000D03*
D28*
X91000000Y-110510000D03*
X91000000Y-109490000D03*
D33*
X141000000Y-109587500D03*
X141000000Y-111412500D03*
D37*
X59750000Y-110600000D03*
X59750000Y-113900000D03*
D43*
X108350000Y-113100000D03*
X106450000Y-113100000D03*
D57*
X95500000Y-100387500D03*
X95500000Y-96112500D03*
D52*
X51862500Y-143050000D03*
X51862500Y-144950000D03*
X53737500Y-144000000D03*
D34*
X52125000Y-117845000D03*
X52125000Y-119115000D03*
X52125000Y-120385000D03*
X52125000Y-121655000D03*
X57375000Y-121655000D03*
X57375000Y-120385000D03*
X57375000Y-119115000D03*
X57375000Y-117845000D03*
D30*
X75400000Y-136112500D03*
X75400000Y-134287500D03*
D52*
X51862500Y-146850000D03*
X51862500Y-148750000D03*
X53737500Y-147800000D03*
D38*
X79978750Y-122905000D03*
X80998750Y-122905000D03*
D11*
X59000000Y-140250000D03*
X59000000Y-142150000D03*
D14*
X143900000Y-122925000D03*
D15*
X143900000Y-125465000D03*
X143900000Y-128005000D03*
X143900000Y-130545000D03*
X143900000Y-133085000D03*
D43*
X110450000Y-168000000D03*
X108550000Y-168000000D03*
D17*
X90000000Y-103740000D03*
X90000000Y-104760000D03*
D35*
X102950000Y-113100000D03*
X104850000Y-113100000D03*
D22*
X81051250Y-118155000D03*
X79226250Y-118155000D03*
D58*
X104300000Y-111250000D03*
X83000000Y-105900000D03*
X113250000Y-86750000D03*
X85100000Y-103650000D03*
X107500000Y-168000000D03*
X55500000Y-121600000D03*
X120000000Y-171500000D03*
X49500000Y-119600000D03*
X55500000Y-109350000D03*
X86700000Y-115700000D03*
X107100000Y-106500000D03*
X72200000Y-88700000D03*
X56200000Y-159500000D03*
X75900000Y-82900000D03*
X74400000Y-88700000D03*
X107400000Y-116600000D03*
X66000000Y-80800000D03*
X68500000Y-164100000D03*
X107250000Y-91500000D03*
X108750000Y-155750000D03*
X55100000Y-159500000D03*
X80100000Y-173900000D03*
X136300000Y-157250000D03*
X91000000Y-102900000D03*
X81200000Y-173900000D03*
X110000000Y-80500000D03*
X106250000Y-80500000D03*
X66000000Y-83000000D03*
X70400000Y-93800000D03*
X111000000Y-91500000D03*
X55500000Y-119100000D03*
X114350000Y-152000000D03*
X79400000Y-138900000D03*
X49500000Y-110750000D03*
X75400000Y-163700000D03*
X113250000Y-81750000D03*
X102250000Y-153000000D03*
X112250000Y-91500000D03*
X69700000Y-80500000D03*
X50500000Y-148800000D03*
X120000000Y-161750000D03*
X104250000Y-110450000D03*
X106000000Y-91500000D03*
X107500000Y-80500000D03*
X91200000Y-125900000D03*
X117000000Y-82500000D03*
X110500000Y-173662500D03*
X110250000Y-162250000D03*
X76000000Y-84300000D03*
X84000000Y-105900000D03*
X127250000Y-152500000D03*
X70600000Y-78300000D03*
X104750000Y-104450000D03*
X75900000Y-78800000D03*
X55500000Y-110550000D03*
X79300000Y-173200000D03*
X113250000Y-84250000D03*
X91000000Y-108700000D03*
X119500000Y-166500000D03*
X85050000Y-109450000D03*
X138000000Y-112250000D03*
X109750000Y-91500000D03*
X75838750Y-119700000D03*
X51000000Y-141300000D03*
X91200000Y-116800000D03*
X108500000Y-91500000D03*
X75900000Y-78000000D03*
X84600000Y-138200000D03*
X86700000Y-125400000D03*
X113250000Y-83000000D03*
X84000000Y-100000000D03*
X89400000Y-121050000D03*
X60300000Y-142200000D03*
X124250000Y-157500000D03*
X49500000Y-116900000D03*
X83800000Y-122950000D03*
X58700000Y-129700000D03*
X70400000Y-92900000D03*
X105600000Y-110450000D03*
X55100000Y-158400000D03*
X118500000Y-155000000D03*
X77600000Y-84500000D03*
X70600000Y-79500000D03*
X114300000Y-151150000D03*
X103250000Y-162750000D03*
X105600000Y-111300000D03*
X55500000Y-120300000D03*
X83800000Y-121850000D03*
X113250000Y-88000000D03*
X66000000Y-78500000D03*
X112500000Y-80500000D03*
X113250000Y-90500000D03*
X89400000Y-119950000D03*
X56200000Y-158400000D03*
X111250000Y-80500000D03*
X73600000Y-78900000D03*
X75900000Y-139100000D03*
X66000000Y-79700000D03*
X49500000Y-107000000D03*
X85100000Y-104400000D03*
X70900000Y-88700000D03*
X55500000Y-111850000D03*
X113250000Y-89250000D03*
X68000000Y-80500000D03*
X107400000Y-119250000D03*
X50600000Y-152600000D03*
X50500000Y-145000000D03*
X127200000Y-162575000D03*
X73200000Y-88700000D03*
X77400000Y-139100000D03*
X75500000Y-88700000D03*
X85050000Y-110200000D03*
X107400000Y-117950000D03*
X106400000Y-104450000D03*
X108750000Y-80500000D03*
X74638750Y-125455000D03*
X73600000Y-77800000D03*
X111000000Y-158750000D03*
X66000000Y-81900000D03*
X102800000Y-119850000D03*
X113250000Y-85500000D03*
X105550000Y-104450000D03*
X83000000Y-100000000D03*
X88500000Y-112750000D03*
X88500000Y-113750000D03*
X60750000Y-147750000D03*
X76000000Y-100000000D03*
X59500000Y-147750000D03*
X76000000Y-108000000D03*
X51000000Y-106250000D03*
X89500000Y-113750000D03*
X89500000Y-112750000D03*
X51000000Y-123500000D03*
X51000000Y-114750000D03*
X101500000Y-97250000D03*
X88750000Y-139250000D03*
X95250000Y-144000000D03*
X95500000Y-137000000D03*
X101500000Y-96000000D03*
X94000000Y-137000000D03*
X101500000Y-93750000D03*
X74200000Y-97800000D03*
X71400000Y-97800000D03*
X75500000Y-97800000D03*
X72800000Y-97800000D03*
X67900000Y-86700000D03*
X68900000Y-86700000D03*
X70000000Y-86700000D03*
X91750000Y-93250000D03*
X76300000Y-90700000D03*
X134000000Y-82000000D03*
X102500000Y-99900000D03*
X70400000Y-90900000D03*
X91750000Y-91500000D03*
X117250000Y-80500000D03*
X146000000Y-88000000D03*
X70400000Y-91700000D03*
X89250000Y-88250000D03*
X141750000Y-88750000D03*
X49750000Y-138750000D03*
X94750000Y-95000000D03*
X145000000Y-87750000D03*
X93250000Y-96000000D03*
X100750000Y-123000000D03*
X100750000Y-124500000D03*
X102000000Y-111100000D03*
X90000000Y-94750000D03*
X91750000Y-85750000D03*
X143000000Y-87750000D03*
X76300000Y-92300000D03*
X49750000Y-138000000D03*
X90250000Y-88250000D03*
X93500000Y-91500000D03*
X76300000Y-91500000D03*
X96500000Y-95000000D03*
X100750000Y-123750000D03*
X91750000Y-87000000D03*
X144000000Y-87750000D03*
X146250000Y-89000000D03*
X109750000Y-151500000D03*
X91750000Y-88250000D03*
X108350000Y-111900000D03*
X142000000Y-88000000D03*
X86000000Y-175250000D03*
X75000000Y-169000000D03*
X79050000Y-165500000D03*
X71250000Y-165500000D03*
X108200000Y-149250000D03*
X60250000Y-158100000D03*
X78925000Y-170675000D03*
X113000000Y-154500000D03*
X78700000Y-114600000D03*
X78700000Y-113800000D03*
X128500000Y-109125000D03*
X128250000Y-106250000D03*
X101900000Y-103500000D03*
X102000000Y-113100000D03*
X106600000Y-101700000D03*
X118500000Y-151600000D03*
X106600000Y-114700000D03*
X131000000Y-157250000D03*
X110500000Y-166500000D03*
X126000000Y-84250000D03*
X84500000Y-102600000D03*
X84500000Y-101700000D03*
X84400000Y-107600000D03*
X84400000Y-108400000D03*
X105500000Y-161750000D03*
X105250000Y-164250000D03*
X104250000Y-153000000D03*
X99000000Y-130250000D03*
X53250000Y-150500000D03*
X98250000Y-145000000D03*
X53250000Y-143000000D03*
X53250000Y-146750000D03*
X136000000Y-119500000D03*
X78000000Y-154500000D03*
X54750000Y-157250000D03*
X62500000Y-163500000D03*
X86250000Y-163250000D03*
X78000000Y-148750000D03*
X56500000Y-143250000D03*
X97000000Y-101500000D03*
X95750000Y-101500000D03*
X54750000Y-156250000D03*
X94750000Y-101500000D03*
X85000000Y-163250000D03*
X79000000Y-158500000D03*
X96250000Y-112000000D03*
X50500000Y-109750000D03*
X49500000Y-113600000D03*
X95500000Y-113000000D03*
X105085000Y-135665000D03*
X106215000Y-137965000D03*
X101735000Y-130585000D03*
X103650000Y-133150000D03*
X108250000Y-121250000D03*
X110000000Y-124750000D03*
X110500000Y-122750000D03*
X111675000Y-120425000D03*
X104500000Y-116000000D03*
X104500000Y-107500000D03*
X104500000Y-108750000D03*
X104500000Y-106250000D03*
X111250000Y-101000000D03*
X109500000Y-153061396D03*
X111700000Y-144700000D03*
X129525000Y-151975000D03*
X127250000Y-147250000D03*
X117750000Y-161500000D03*
X125750000Y-147250000D03*
X116000000Y-169027478D03*
X122500000Y-147200000D03*
X112775000Y-171750000D03*
X121250000Y-147250000D03*
X113750000Y-161000000D03*
X119750000Y-147150000D03*
X106000000Y-151250000D03*
X106000000Y-145750000D03*
X115100000Y-157100000D03*
X113000000Y-147000000D03*
X114250000Y-147000000D03*
X115100000Y-155800000D03*
X87250000Y-176000000D03*
X73000000Y-166750000D03*
X84550000Y-174550000D03*
X79500000Y-163000000D03*
D59*
X84888750Y-122405000D02*
X83395000Y-122405000D01*
D60*
X139000000Y-111450000D02*
X138800000Y-111450000D01*
D59*
X84100000Y-122100000D02*
X83500000Y-122100000D01*
D60*
X139000000Y-113100000D02*
X139000000Y-111450000D01*
D59*
X88213750Y-116220000D02*
X87220000Y-116220000D01*
X51975000Y-152600000D02*
X51925000Y-152550000D01*
D61*
X74751250Y-125455000D02*
X75801250Y-124405000D01*
X86720000Y-125420000D02*
X86700000Y-125400000D01*
D59*
X53200000Y-140200000D02*
X53250000Y-140250000D01*
D61*
X91200000Y-125203750D02*
X91238750Y-125165000D01*
D60*
X102800000Y-162750000D02*
X102000000Y-163550000D01*
D61*
X91000000Y-108700000D02*
X91000000Y-109490000D01*
X108530000Y-119250000D02*
X108535000Y-119245000D01*
X59000000Y-142150000D02*
X60250000Y-142150000D01*
D59*
X83800000Y-122950000D02*
X83283750Y-122950000D01*
X50500000Y-148800000D02*
X51812500Y-148800000D01*
D61*
X107400000Y-117950000D02*
X108530000Y-117950000D01*
D59*
X83500000Y-122650000D02*
X84150000Y-122650000D01*
X107500000Y-168000000D02*
X108550000Y-168000000D01*
D61*
X108187500Y-106500000D02*
X108462500Y-106225000D01*
D59*
X84343750Y-122950000D02*
X84888750Y-122405000D01*
D61*
X127250000Y-153837500D02*
X127250000Y-152500000D01*
X107400000Y-116600000D02*
X108490000Y-116600000D01*
X134475000Y-157250000D02*
X136300000Y-157250000D01*
D59*
X84150000Y-122150000D02*
X84100000Y-122100000D01*
D61*
X116762500Y-154762500D02*
X117000000Y-155000000D01*
X58700000Y-129700000D02*
X58700000Y-130950000D01*
D59*
X110250000Y-163337500D02*
X110250000Y-162250000D01*
X89750000Y-120200000D02*
X89150000Y-120200000D01*
D61*
X84550000Y-138150000D02*
X84600000Y-138200000D01*
D59*
X88843750Y-119950000D02*
X88288750Y-120505000D01*
X51000000Y-140200000D02*
X53200000Y-140200000D01*
X84333750Y-121850000D02*
X84888750Y-122405000D01*
D61*
X91200000Y-126606250D02*
X91238750Y-126645000D01*
X117000000Y-82500000D02*
X117950000Y-82500000D01*
X75801250Y-118155000D02*
X75801250Y-116405000D01*
D59*
X111000000Y-158750000D02*
X111000000Y-157812500D01*
X83800000Y-122950000D02*
X83800000Y-121850000D01*
D61*
X49500000Y-111590000D02*
X49500000Y-110750000D01*
X107100000Y-106500000D02*
X108187500Y-106500000D01*
X120000000Y-163087500D02*
X120000000Y-161750000D01*
X91200000Y-117606250D02*
X91238750Y-117645000D01*
D60*
X103250000Y-162750000D02*
X102800000Y-162750000D01*
D59*
X83283750Y-122950000D02*
X82688750Y-122355000D01*
D61*
X49500000Y-117740000D02*
X49500000Y-116900000D01*
X108825000Y-155825000D02*
X108750000Y-155750000D01*
X107400000Y-119250000D02*
X108530000Y-119250000D01*
D59*
X83395000Y-122405000D02*
X82738750Y-122405000D01*
X89400000Y-121050000D02*
X88833750Y-121050000D01*
D60*
X138150000Y-112250000D02*
X139000000Y-113100000D01*
X138800000Y-111450000D02*
X138000000Y-112250000D01*
D61*
X117950000Y-82500000D02*
X118050000Y-82400000D01*
D59*
X89400000Y-121050000D02*
X89943750Y-121050000D01*
D61*
X75801250Y-116405000D02*
X75551250Y-116155000D01*
D59*
X89943750Y-121050000D02*
X90488750Y-120505000D01*
X89400000Y-119950000D02*
X89933750Y-119950000D01*
X83800000Y-122950000D02*
X84343750Y-122950000D01*
D61*
X74638750Y-125455000D02*
X74751250Y-125455000D01*
D59*
X51812500Y-148800000D02*
X51862500Y-148750000D01*
D61*
X83400000Y-138150000D02*
X84550000Y-138150000D01*
D59*
X89933750Y-119950000D02*
X90488750Y-120505000D01*
D61*
X127200000Y-161250000D02*
X127200000Y-162575000D01*
D59*
X83193750Y-121850000D02*
X82688750Y-122355000D01*
D61*
X108462500Y-106775000D02*
X108187500Y-106500000D01*
X108530000Y-117950000D02*
X108535000Y-117945000D01*
D59*
X82738750Y-122405000D02*
X82688750Y-122355000D01*
D61*
X110500000Y-172075000D02*
X110500000Y-173662500D01*
X108490000Y-116600000D02*
X108535000Y-116645000D01*
X108535000Y-115995000D02*
X108005000Y-115995000D01*
X120000000Y-171500000D02*
X120000000Y-170162500D01*
D59*
X50500000Y-145000000D02*
X51812500Y-145000000D01*
D61*
X91000000Y-102010000D02*
X91000000Y-103740000D01*
X49500000Y-107990000D02*
X49500000Y-107000000D01*
D59*
X89750000Y-120750000D02*
X89750000Y-120200000D01*
D61*
X102800000Y-119255000D02*
X102810000Y-119245000D01*
X74731250Y-125455000D02*
X75801250Y-126525000D01*
D59*
X89400000Y-121050000D02*
X89400000Y-119950000D01*
D60*
X138000000Y-112250000D02*
X138150000Y-112250000D01*
D59*
X51875000Y-152600000D02*
X51925000Y-152550000D01*
D61*
X75838750Y-119700000D02*
X75838750Y-118337500D01*
D59*
X88213750Y-125420000D02*
X86720000Y-125420000D01*
D60*
X102850000Y-162750000D02*
X102000000Y-161900000D01*
D61*
X102250000Y-153000000D02*
X102250000Y-151950000D01*
X91000000Y-108700000D02*
X91000000Y-108000000D01*
X108462500Y-106875000D02*
X108462500Y-106775000D01*
D59*
X51812500Y-145000000D02*
X51862500Y-144950000D01*
X83800000Y-121850000D02*
X84333750Y-121850000D01*
D61*
X102800000Y-119850000D02*
X102800000Y-119255000D01*
X58700000Y-130950000D02*
X58750000Y-131000000D01*
X91200000Y-125900000D02*
X91200000Y-126606250D01*
D59*
X84150000Y-122650000D02*
X84150000Y-122150000D01*
X50600000Y-152600000D02*
X51875000Y-152600000D01*
D61*
X75838750Y-118192500D02*
X75801250Y-118155000D01*
D59*
X83800000Y-121850000D02*
X83193750Y-121850000D01*
D61*
X118500000Y-155000000D02*
X117000000Y-155000000D01*
D59*
X83800000Y-122950000D02*
X83500000Y-122650000D01*
X87220000Y-116220000D02*
X86700000Y-115700000D01*
X88833750Y-121050000D02*
X88288750Y-120505000D01*
X89400000Y-119950000D02*
X88843750Y-119950000D01*
X51000000Y-141300000D02*
X51000000Y-140200000D01*
D61*
X111037500Y-155825000D02*
X108825000Y-155825000D01*
X116937500Y-155000000D02*
X116762500Y-155175000D01*
D59*
X89150000Y-120200000D02*
X89100000Y-120250000D01*
D61*
X117000000Y-155000000D02*
X116937500Y-155000000D01*
D60*
X103250000Y-162750000D02*
X102850000Y-162750000D01*
D59*
X90488750Y-120505000D02*
X88288750Y-120505000D01*
D61*
X49500000Y-120490000D02*
X49500000Y-119600000D01*
D59*
X117725000Y-166500000D02*
X119500000Y-166500000D01*
D61*
X91200000Y-115910000D02*
X91200000Y-117606250D01*
X108005000Y-115995000D02*
X107400000Y-116600000D01*
X116762500Y-154525000D02*
X116762500Y-154762500D01*
X91200000Y-125900000D02*
X91200000Y-125203750D01*
X60250000Y-142150000D02*
X60300000Y-142200000D01*
D59*
X89100000Y-120750000D02*
X89750000Y-120750000D01*
X124250000Y-157500000D02*
X125550000Y-157500000D01*
D60*
X102000000Y-163550000D02*
X102000000Y-161900000D01*
X57400000Y-90575000D02*
X57400000Y-86600000D01*
D61*
X74360000Y-133247500D02*
X75400000Y-134287500D01*
D60*
X57400000Y-86600000D02*
X58500000Y-85500000D01*
X58500000Y-85500000D02*
X60000000Y-85500000D01*
D61*
X51000000Y-106250000D02*
X52337500Y-106250000D01*
D60*
X52645000Y-95330000D02*
X57400000Y-90575000D01*
D59*
X77800000Y-106500000D02*
X77500000Y-106500000D01*
X76000000Y-100000000D02*
X77300000Y-100000000D01*
X77800000Y-100500000D02*
X77800000Y-103100000D01*
D61*
X51000000Y-114750000D02*
X51087500Y-114750000D01*
X51000000Y-123500000D02*
X52337500Y-123500000D01*
X51337500Y-114750000D02*
X52337500Y-113750000D01*
D59*
X77500000Y-106500000D02*
X76000000Y-108000000D01*
X77800000Y-109600000D02*
X77600000Y-109600000D01*
D61*
X51087500Y-114750000D02*
X52337500Y-116000000D01*
D59*
X77600000Y-109600000D02*
X76000000Y-108000000D01*
D61*
X74360000Y-131160000D02*
X74360000Y-133247500D01*
X51000000Y-114750000D02*
X51337500Y-114750000D01*
D59*
X77300000Y-100000000D02*
X77800000Y-100500000D01*
D61*
X129985000Y-92485000D02*
X116015000Y-92485000D01*
X132120000Y-93635000D02*
X130985000Y-92500000D01*
X115765000Y-92485000D02*
X116015000Y-92485000D01*
X74360000Y-143860000D02*
X77720000Y-140500000D01*
X130985000Y-92500000D02*
X130000000Y-92500000D01*
X77720000Y-140500000D02*
X87500000Y-140500000D01*
X130000000Y-92500000D02*
X129985000Y-92485000D01*
X101500000Y-97250000D02*
X111000000Y-97250000D01*
X88750000Y-139250000D02*
X87500000Y-140500000D01*
X111000000Y-97250000D02*
X115765000Y-92485000D01*
X116305000Y-89945000D02*
X115500000Y-90750000D01*
X95500000Y-143750000D02*
X95250000Y-144000000D01*
X132120000Y-91095000D02*
X130970000Y-89945000D01*
X110750000Y-96000000D02*
X101500000Y-96000000D01*
X95500000Y-137000000D02*
X95500000Y-143750000D01*
X130970000Y-89945000D02*
X116305000Y-89945000D01*
X115500000Y-91250000D02*
X110750000Y-96000000D01*
X115500000Y-90750000D02*
X115500000Y-91250000D01*
X110000000Y-93750000D02*
X101500000Y-93750000D01*
X114500000Y-90750000D02*
X114500000Y-91000000D01*
X114250000Y-91250000D02*
X111750000Y-93750000D01*
X92390000Y-143860000D02*
X92140000Y-143860000D01*
X115750000Y-87250000D02*
X114500000Y-88500000D01*
X130815000Y-87250000D02*
X115750000Y-87250000D01*
X94000000Y-142250000D02*
X92390000Y-143860000D01*
X132120000Y-88555000D02*
X130815000Y-87250000D01*
X111750000Y-93750000D02*
X110000000Y-93750000D01*
X114500000Y-91000000D02*
X114250000Y-91250000D01*
X94000000Y-137000000D02*
X94000000Y-142250000D01*
X114500000Y-88500000D02*
X114500000Y-90750000D01*
D60*
X64000000Y-85050000D02*
X59450000Y-80500000D01*
X68317500Y-85500000D02*
X68705000Y-85112500D01*
X72455000Y-82945000D02*
X72455000Y-80250000D01*
X68300000Y-85500000D02*
X68317500Y-85500000D01*
X64000000Y-85500000D02*
X64000000Y-85050000D01*
X68705000Y-85112500D02*
X70287500Y-85112500D01*
X70287500Y-85112500D02*
X72455000Y-82945000D01*
X64000000Y-85500000D02*
X68300000Y-85500000D01*
X72455000Y-80250000D02*
X74705000Y-80250000D01*
D61*
X134000000Y-80787500D02*
X133912500Y-80700000D01*
D60*
X99750000Y-123000000D02*
X99000000Y-123750000D01*
D61*
X118400000Y-80500000D02*
X117250000Y-80500000D01*
D59*
X108350000Y-114510000D02*
X108535000Y-114695000D01*
X108277500Y-103350000D02*
X108277500Y-104740000D01*
D60*
X99750000Y-124500000D02*
X100750000Y-124500000D01*
D59*
X108277500Y-101422500D02*
X108300000Y-101400000D01*
D60*
X142000000Y-88000000D02*
X142750000Y-88000000D01*
X146250000Y-89000000D02*
X142000000Y-89000000D01*
X145000000Y-87750000D02*
X145750000Y-87750000D01*
X142000000Y-89000000D02*
X141750000Y-88750000D01*
X143000000Y-87750000D02*
X145000000Y-87750000D01*
X146250000Y-89000000D02*
X146250000Y-88250000D01*
X50700000Y-138000000D02*
X51000000Y-138300000D01*
D59*
X106800000Y-99900000D02*
X108300000Y-101400000D01*
D60*
X51000000Y-138300000D02*
X53200000Y-138300000D01*
X99000000Y-123750000D02*
X99750000Y-124500000D01*
X143250000Y-88000000D02*
X143000000Y-87750000D01*
D61*
X134000000Y-82000000D02*
X134000000Y-80787500D01*
D59*
X111050000Y-151500000D02*
X111150000Y-151600000D01*
D60*
X100750000Y-123750000D02*
X94518750Y-123750000D01*
D59*
X108277500Y-104740000D02*
X108462500Y-104925000D01*
D60*
X49750000Y-138750000D02*
X50550000Y-138750000D01*
X100750000Y-123000000D02*
X99750000Y-123000000D01*
X141750000Y-88250000D02*
X142000000Y-88000000D01*
X50550000Y-138750000D02*
X51000000Y-138300000D01*
X141750000Y-88750000D02*
X141750000Y-88250000D01*
X145750000Y-87750000D02*
X146000000Y-88000000D01*
D59*
X108350000Y-113100000D02*
X108350000Y-114510000D01*
D60*
X146000000Y-88000000D02*
X143250000Y-88000000D01*
X52025000Y-137275000D02*
X51000000Y-138300000D01*
D59*
X102500000Y-99900000D02*
X106800000Y-99900000D01*
D60*
X52025000Y-137275000D02*
X53100000Y-138350000D01*
X49750000Y-138000000D02*
X50700000Y-138000000D01*
X53200000Y-138300000D02*
X53250000Y-138350000D01*
D59*
X111150000Y-153112500D02*
X111037500Y-153225000D01*
X108350000Y-111900000D02*
X108350000Y-113100000D01*
D60*
X52025000Y-135605000D02*
X52025000Y-137275000D01*
X53100000Y-138350000D02*
X53250000Y-138350000D01*
D59*
X109750000Y-151500000D02*
X111050000Y-151500000D01*
D60*
X146250000Y-88250000D02*
X146000000Y-88000000D01*
D59*
X111150000Y-151600000D02*
X111150000Y-153112500D01*
D60*
X49750000Y-138750000D02*
X49750000Y-138000000D01*
D59*
X108277500Y-103350000D02*
X108277500Y-101422500D01*
D60*
X142750000Y-88000000D02*
X143000000Y-87750000D01*
X94518750Y-123750000D02*
X94488750Y-123780000D01*
D61*
X120050000Y-80450000D02*
X120500000Y-80000000D01*
X120500000Y-80000000D02*
X123100000Y-80000000D01*
X123100000Y-80000000D02*
X123750000Y-80650000D01*
X120050000Y-82300000D02*
X119950000Y-82400000D01*
X120050000Y-80500000D02*
X120050000Y-80450000D01*
X120050000Y-80500000D02*
X120050000Y-82300000D01*
X75000000Y-169000000D02*
X75935000Y-168065000D01*
X122000000Y-163087500D02*
X122000000Y-160500000D01*
X58837500Y-165637500D02*
X62200000Y-169000000D01*
X121500000Y-160000000D02*
X117000000Y-160000000D01*
X115000000Y-173250000D02*
X115000000Y-168000000D01*
X75935000Y-168065000D02*
X80775000Y-168065000D01*
X57050000Y-163000000D02*
X57000000Y-162950000D01*
X115000000Y-168000000D02*
X116000000Y-167000000D01*
X62200000Y-169000000D02*
X75000000Y-169000000D01*
X58837500Y-163000000D02*
X57050000Y-163000000D01*
X113000000Y-175250000D02*
X115000000Y-173250000D01*
X86000000Y-175250000D02*
X113000000Y-175250000D01*
X116000000Y-161000000D02*
X117000000Y-160000000D01*
X116000000Y-167000000D02*
X116000000Y-161000000D01*
X122000000Y-160500000D02*
X121500000Y-160000000D01*
X58837500Y-163000000D02*
X58837500Y-165637500D01*
D60*
X78370000Y-81000000D02*
X79842500Y-82472500D01*
X79842500Y-82472500D02*
X79842500Y-91500000D01*
X77550000Y-81000000D02*
X78370000Y-81000000D01*
X79842500Y-91500000D02*
X79842500Y-94457500D01*
X79842500Y-94457500D02*
X79350000Y-94950000D01*
X79350000Y-94950000D02*
X73275000Y-94950000D01*
X65247500Y-110120000D02*
X67787500Y-110120000D01*
X58695000Y-108095000D02*
X59750000Y-109150000D01*
X57375000Y-108095000D02*
X58695000Y-108095000D01*
X59750000Y-109150000D02*
X64277500Y-109150000D01*
X64277500Y-109150000D02*
X65247500Y-110120000D01*
X59715000Y-110635000D02*
X59750000Y-110600000D01*
X65247500Y-112660000D02*
X67787500Y-112660000D01*
X65247500Y-112660000D02*
X61810000Y-112660000D01*
X61810000Y-112660000D02*
X59750000Y-110600000D01*
X57375000Y-110635000D02*
X59715000Y-110635000D01*
D61*
X55812500Y-113750000D02*
X54162500Y-113750000D01*
X75400000Y-136112500D02*
X77462500Y-136112500D01*
X75400000Y-136112500D02*
X75400000Y-137490000D01*
X79687500Y-136200000D02*
X77650000Y-136200000D01*
X77462500Y-136112500D02*
X77600000Y-136250000D01*
X77650000Y-136200000D02*
X77600000Y-136250000D01*
D60*
X65247500Y-115200000D02*
X65247500Y-117740000D01*
X58695000Y-117845000D02*
X59750000Y-118900000D01*
X65247500Y-117740000D02*
X60910000Y-117740000D01*
X57375000Y-117845000D02*
X58695000Y-117845000D01*
X60805000Y-117845000D02*
X58695000Y-117845000D01*
X60910000Y-117740000D02*
X59750000Y-118900000D01*
X60910000Y-117740000D02*
X60805000Y-117845000D01*
X65247500Y-120280000D02*
X65247500Y-122820000D01*
X60070000Y-120280000D02*
X59750000Y-120600000D01*
X59535000Y-120385000D02*
X59750000Y-120600000D01*
X57375000Y-120385000D02*
X59535000Y-120385000D01*
X65247500Y-120280000D02*
X60070000Y-120280000D01*
D61*
X83350000Y-136200000D02*
X83400000Y-136250000D01*
X81512500Y-136200000D02*
X81512500Y-138062500D01*
X89150000Y-136250000D02*
X83400000Y-136250000D01*
X110500000Y-148250000D02*
X109050000Y-146800000D01*
X94900000Y-171900000D02*
X93655000Y-173145000D01*
X81512500Y-136200000D02*
X83350000Y-136200000D01*
X125250000Y-153500000D02*
X120000000Y-148250000D01*
X81512500Y-138062500D02*
X81650000Y-138200000D01*
X109050000Y-146800000D02*
X94900000Y-146800000D01*
X90750000Y-137850000D02*
X89150000Y-136250000D01*
X125250000Y-153787500D02*
X125250000Y-153500000D01*
X94900000Y-146800000D02*
X94900000Y-171900000D01*
X90750000Y-144096346D02*
X90750000Y-137850000D01*
X93453654Y-146800000D02*
X90750000Y-144096346D01*
X94900000Y-146800000D02*
X93453654Y-146800000D01*
X93655000Y-173145000D02*
X85725000Y-173145000D01*
X120000000Y-148250000D02*
X110500000Y-148250000D01*
D60*
X82317918Y-104705000D02*
X81100000Y-103487082D01*
X81100000Y-104600000D02*
X81205000Y-104705000D01*
X80900000Y-103100000D02*
X79200000Y-104800000D01*
X81205000Y-104705000D02*
X80595000Y-104705000D01*
X81100000Y-103487082D02*
X81100000Y-103100000D01*
X81100000Y-103100000D02*
X80900000Y-103100000D01*
X70250000Y-116730000D02*
X69240000Y-117740000D01*
X79295000Y-104705000D02*
X79200000Y-104800000D01*
X70250000Y-107500000D02*
X70250000Y-116730000D01*
X80595000Y-103605000D02*
X81100000Y-103100000D01*
X83075000Y-104705000D02*
X81205000Y-104705000D01*
X83075000Y-104705000D02*
X82317918Y-104705000D01*
X67787500Y-117740000D02*
X69240000Y-117740000D01*
X72950000Y-104800000D02*
X70250000Y-107500000D01*
X80595000Y-104705000D02*
X79295000Y-104705000D01*
X80595000Y-104705000D02*
X80595000Y-103605000D01*
X81100000Y-103100000D02*
X81100000Y-104600000D01*
X79200000Y-104800000D02*
X72950000Y-104800000D01*
X81100000Y-109600000D02*
X79900000Y-109600000D01*
X73900000Y-111100000D02*
X72500000Y-112500000D01*
X72500000Y-112500000D02*
X72500000Y-118000000D01*
X83075000Y-110555000D02*
X82055000Y-110555000D01*
X79900000Y-109600000D02*
X78950000Y-110550000D01*
X82055000Y-110555000D02*
X81100000Y-109600000D01*
X72553750Y-118053750D02*
X67787500Y-122820000D01*
X78400000Y-111100000D02*
X73900000Y-111100000D01*
X72500000Y-118000000D02*
X72553750Y-118053750D01*
X78950000Y-110550000D02*
X78400000Y-111100000D01*
X82050000Y-110550000D02*
X78950000Y-110550000D01*
X82055000Y-110555000D02*
X82050000Y-110550000D01*
D61*
X121500000Y-158250000D02*
X121500000Y-151000000D01*
X79050000Y-165500000D02*
X71250000Y-165500000D01*
X80775000Y-165525000D02*
X80750000Y-165500000D01*
X124500000Y-161250000D02*
X121500000Y-158250000D01*
X60250000Y-157062500D02*
X60250000Y-158100000D01*
X119750000Y-149250000D02*
X108200000Y-149250000D01*
X80750000Y-165500000D02*
X79050000Y-165500000D01*
X60250000Y-158100000D02*
X59450000Y-158900000D01*
X121500000Y-151000000D02*
X119750000Y-149250000D01*
X125200000Y-161250000D02*
X124500000Y-161250000D01*
X111037500Y-154525000D02*
X112975000Y-154525000D01*
X56537500Y-140250000D02*
X56500000Y-140287500D01*
X49800000Y-143667893D02*
X51667893Y-141800000D01*
X80775000Y-170605000D02*
X78995000Y-170605000D01*
X65247500Y-143140000D02*
X63890000Y-143140000D01*
X49800000Y-153400000D02*
X49800000Y-143667893D01*
X54987500Y-141800000D02*
X56500000Y-140287500D01*
X63890000Y-143140000D02*
X61000000Y-140250000D01*
X50900000Y-154500000D02*
X49800000Y-153400000D01*
X51667893Y-141800000D02*
X54987500Y-141800000D01*
X78925000Y-170675000D02*
X77400000Y-172200000D01*
X78995000Y-170605000D02*
X78925000Y-170675000D01*
X77400000Y-172200000D02*
X63200000Y-172200000D01*
X61000000Y-140250000D02*
X56537500Y-140250000D01*
X112975000Y-154525000D02*
X113000000Y-154500000D01*
X50900000Y-159900000D02*
X50900000Y-154500000D01*
X63200000Y-172200000D02*
X50900000Y-159900000D01*
X108500000Y-160000000D02*
X106250000Y-162250000D01*
X114537500Y-160000000D02*
X108500000Y-160000000D01*
X99270000Y-164240000D02*
X100280000Y-165250000D01*
X106250000Y-165000000D02*
X105675000Y-165575000D01*
X100280000Y-165250000D02*
X101800000Y-165250000D01*
X101800000Y-165250000D02*
X102000000Y-165450000D01*
X105675000Y-165575000D02*
X104000000Y-165575000D01*
X102125000Y-165575000D02*
X102000000Y-165450000D01*
X116762500Y-157775000D02*
X114537500Y-160000000D01*
X106250000Y-162250000D02*
X106250000Y-165000000D01*
X104000000Y-165575000D02*
X102125000Y-165575000D01*
X116762500Y-156475000D02*
X118775000Y-156475000D01*
X118850000Y-150100000D02*
X104325000Y-150100000D01*
X102150000Y-149950000D02*
X102250000Y-150050000D01*
X120000000Y-151250000D02*
X118850000Y-150100000D01*
X99370000Y-149950000D02*
X102150000Y-149950000D01*
X118775000Y-156475000D02*
X120000000Y-155250000D01*
X102250000Y-150050000D02*
X104125000Y-150050000D01*
X120000000Y-155250000D02*
X120000000Y-151250000D01*
X104325000Y-150100000D02*
X104250000Y-150175000D01*
X104125000Y-150050000D02*
X104250000Y-150175000D01*
X100970000Y-160000000D02*
X102000000Y-160000000D01*
X104000000Y-159500000D02*
X106375000Y-157125000D01*
X99270000Y-161700000D02*
X100970000Y-160000000D01*
X102000000Y-160000000D02*
X103925000Y-160000000D01*
X106375000Y-157125000D02*
X111037500Y-157125000D01*
X103925000Y-160000000D02*
X104000000Y-159925000D01*
X104000000Y-159925000D02*
X104000000Y-159500000D01*
D60*
X79728750Y-114655000D02*
X79555000Y-114655000D01*
X79728750Y-114655000D02*
X78755000Y-114655000D01*
X78755000Y-114655000D02*
X78700000Y-114600000D01*
X79555000Y-114655000D02*
X78700000Y-113800000D01*
X67787500Y-125360000D02*
X70340000Y-125360000D01*
X74500000Y-121200000D02*
X74900000Y-121200000D01*
X78300000Y-121200000D02*
X74900000Y-121200000D01*
X79978750Y-119655000D02*
X79845000Y-119655000D01*
X70340000Y-125360000D02*
X74500000Y-121200000D01*
X79845000Y-119655000D02*
X78300000Y-121200000D01*
D61*
X141000000Y-114912500D02*
X139087500Y-114912500D01*
X128500000Y-109125000D02*
X129125000Y-109125000D01*
X139087500Y-114912500D02*
X139000000Y-115000000D01*
X133000000Y-110250000D02*
X130250000Y-110250000D01*
X137750000Y-115000000D02*
X133000000Y-110250000D01*
X139000000Y-115000000D02*
X137750000Y-115000000D01*
X129125000Y-109125000D02*
X130250000Y-110250000D01*
X139037500Y-109587500D02*
X139000000Y-109550000D01*
X141000000Y-109587500D02*
X139037500Y-109587500D01*
X139000000Y-109550000D02*
X136950000Y-107500000D01*
X128250000Y-106250000D02*
X129500000Y-107500000D01*
X129500000Y-107500000D02*
X130250000Y-107500000D01*
X136950000Y-107500000D02*
X130250000Y-107500000D01*
D59*
X110450000Y-167750000D02*
X110450000Y-167300000D01*
X102950000Y-114555000D02*
X102810000Y-114695000D01*
X110900000Y-166500000D02*
X110500000Y-166500000D01*
X110900000Y-166500000D02*
X110900000Y-166700000D01*
X102727500Y-103500000D02*
X102877500Y-103350000D01*
D60*
X127700000Y-157250000D02*
X127450000Y-157500000D01*
D59*
X102877500Y-103350000D02*
X102877500Y-104785000D01*
X110450000Y-166550000D02*
X110500000Y-166500000D01*
X102000000Y-113100000D02*
X102950000Y-113100000D01*
X110450000Y-168000000D02*
X110450000Y-167750000D01*
X117450000Y-151600000D02*
X117450000Y-152537500D01*
D60*
X131000000Y-157250000D02*
X129525000Y-157250000D01*
D59*
X110450000Y-167150000D02*
X110450000Y-166550000D01*
X111400000Y-166500000D02*
X110450000Y-167450000D01*
X112775000Y-166500000D02*
X111400000Y-166500000D01*
X102950000Y-113100000D02*
X102950000Y-114555000D01*
X111400000Y-166500000D02*
X110900000Y-166500000D01*
X118500000Y-151600000D02*
X117450000Y-151600000D01*
X101900000Y-103500000D02*
X102727500Y-103500000D01*
X110900000Y-166700000D02*
X110450000Y-167150000D01*
D60*
X129525000Y-157250000D02*
X127700000Y-157250000D01*
D59*
X102877500Y-104785000D02*
X102737500Y-104925000D01*
X110450000Y-168000000D02*
X110450000Y-167150000D01*
X117450000Y-152537500D02*
X116762500Y-153225000D01*
X110450000Y-167450000D02*
X110450000Y-168000000D01*
D61*
X58087500Y-105850000D02*
X57687500Y-106250000D01*
X59750000Y-105850000D02*
X58087500Y-105850000D01*
X55812500Y-106250000D02*
X54162500Y-106250000D01*
X55812500Y-116000000D02*
X54162500Y-116000000D01*
X58087500Y-123900000D02*
X57687500Y-123500000D01*
X59750000Y-123900000D02*
X58087500Y-123900000D01*
X126750000Y-80650000D02*
X126000000Y-81400000D01*
X126000000Y-81400000D02*
X126000000Y-84250000D01*
X55812500Y-123500000D02*
X54162500Y-123500000D01*
X77676250Y-118155000D02*
X79226250Y-118155000D01*
X79076250Y-116155000D02*
X77426250Y-116155000D01*
X79326250Y-126525000D02*
X77676250Y-126525000D01*
X79326250Y-124405000D02*
X77676250Y-124405000D01*
D62*
X60297500Y-150760000D02*
X65247500Y-150760000D01*
X53800000Y-151600000D02*
X54737500Y-150662500D01*
X54737500Y-150662500D02*
X60200000Y-150662500D01*
X60200000Y-150662500D02*
X60297500Y-150760000D01*
D61*
X56000000Y-130420000D02*
X52130000Y-130420000D01*
X52130000Y-130420000D02*
X52025000Y-130525000D01*
X59750000Y-115600000D02*
X58087500Y-115600000D01*
X58087500Y-115600000D02*
X57687500Y-116000000D01*
X132120000Y-144435000D02*
X141395000Y-144435000D01*
X141395000Y-144435000D02*
X143900000Y-141930000D01*
X141395000Y-141895000D02*
X143900000Y-139390000D01*
X132120000Y-141895000D02*
X141395000Y-141895000D01*
X144000000Y-110960000D02*
X141452500Y-110960000D01*
X141452500Y-110960000D02*
X141000000Y-111412500D01*
X144000000Y-113500000D02*
X141412500Y-113500000D01*
X141412500Y-113500000D02*
X141000000Y-113087500D01*
X134205000Y-116040000D02*
X132120000Y-113955000D01*
X144000000Y-116040000D02*
X134205000Y-116040000D01*
D60*
X71000000Y-127000000D02*
X68687500Y-127000000D01*
X79978750Y-122905000D02*
X75095000Y-122905000D01*
X68687500Y-127000000D02*
X67787500Y-127900000D01*
X75095000Y-122905000D02*
X71000000Y-127000000D01*
X69800000Y-128700000D02*
X69400000Y-129100000D01*
D63*
X65247500Y-127900000D02*
X66510000Y-129162500D01*
D60*
X71800000Y-128700000D02*
X69800000Y-128700000D01*
X80228750Y-128025000D02*
X80175000Y-128025000D01*
D63*
X66510000Y-129162500D02*
X69337500Y-129162500D01*
D60*
X80175000Y-128025000D02*
X79500000Y-128700000D01*
X79500000Y-128700000D02*
X71800000Y-128700000D01*
D63*
X69337500Y-129162500D02*
X69400000Y-129100000D01*
D61*
X137750000Y-117250000D02*
X132875000Y-117250000D01*
X139080000Y-118580000D02*
X137750000Y-117250000D01*
X144000000Y-118580000D02*
X139080000Y-118580000D01*
X132875000Y-117250000D02*
X132120000Y-116495000D01*
X78935000Y-153600000D02*
X78945000Y-153590000D01*
X76460000Y-153600000D02*
X78935000Y-153600000D01*
D60*
X92038750Y-122405000D02*
X90488750Y-122405000D01*
X94488750Y-121240000D02*
X93203750Y-121240000D01*
X87538750Y-122405000D02*
X84523750Y-125420000D01*
X84853750Y-116220000D02*
X83263750Y-116220000D01*
X85638750Y-120505000D02*
X85638750Y-117005000D01*
X84888750Y-120505000D02*
X82738750Y-120505000D01*
X84523750Y-125420000D02*
X83263750Y-125420000D01*
X85638750Y-120505000D02*
X87538750Y-122405000D01*
X93203750Y-121240000D02*
X92038750Y-122405000D01*
X82738750Y-120505000D02*
X82688750Y-120455000D01*
X90488750Y-122405000D02*
X88288750Y-122405000D01*
X87538750Y-122405000D02*
X88288750Y-122405000D01*
X85638750Y-117005000D02*
X84853750Y-116220000D01*
X84888750Y-120505000D02*
X85638750Y-120505000D01*
D61*
X82765000Y-102165000D02*
X81100000Y-100500000D01*
X83075000Y-102165000D02*
X82765000Y-102165000D01*
X83075000Y-108015000D02*
X82615000Y-108015000D01*
X82615000Y-108015000D02*
X81100000Y-106500000D01*
X89700000Y-147700000D02*
X89700000Y-159750000D01*
X88200000Y-146200000D02*
X89700000Y-147700000D01*
X70847500Y-146200000D02*
X88200000Y-146200000D01*
X89700000Y-159750000D02*
X91650000Y-161700000D01*
X67787500Y-143140000D02*
X70847500Y-146200000D01*
X70500000Y-147000000D02*
X87400000Y-147000000D01*
X87400000Y-147000000D02*
X88950000Y-148550000D01*
X69180000Y-145680000D02*
X70500000Y-147000000D01*
X67787500Y-145680000D02*
X69180000Y-145680000D01*
X88950000Y-166620000D02*
X91650000Y-169320000D01*
X88950000Y-148550000D02*
X88950000Y-166620000D01*
X56000000Y-135500000D02*
X65227500Y-135500000D01*
X65227500Y-135500000D02*
X65247500Y-135520000D01*
X105500000Y-161750000D02*
X104175000Y-161750000D01*
X104175000Y-161750000D02*
X104000000Y-161575000D01*
X78940000Y-156590000D02*
X77215000Y-156590000D01*
X77215000Y-156590000D02*
X76455000Y-157350000D01*
X104925000Y-163925000D02*
X105250000Y-164250000D01*
X104000000Y-163925000D02*
X104925000Y-163925000D01*
X81905000Y-151600000D02*
X83905000Y-153600000D01*
X75200000Y-151600000D02*
X81905000Y-151600000D01*
X84905000Y-170605000D02*
X85725000Y-170605000D01*
X73920000Y-152880000D02*
X75200000Y-151600000D01*
X83900000Y-169600000D02*
X84905000Y-170605000D01*
X85280000Y-157847057D02*
X85300000Y-157867057D01*
X73167500Y-153600000D02*
X73920000Y-153600000D01*
X83900000Y-162500000D02*
X83900000Y-169600000D01*
X73920000Y-153600000D02*
X73920000Y-152880000D01*
X85300000Y-161100000D02*
X83900000Y-162500000D01*
X83905000Y-153600000D02*
X85280000Y-154975000D01*
X85280000Y-154975000D02*
X85280000Y-157847057D01*
X85300000Y-157867057D02*
X85300000Y-161100000D01*
X67787500Y-148220000D02*
X73167500Y-153600000D01*
X76500000Y-149860000D02*
X76490000Y-149850000D01*
X78975000Y-149860000D02*
X76500000Y-149860000D01*
X104250000Y-151825000D02*
X104250000Y-153000000D01*
X99000000Y-130250000D02*
X99000000Y-144250000D01*
X51925000Y-150650000D02*
X53100000Y-150650000D01*
X99000000Y-144250000D02*
X98250000Y-145000000D01*
X53100000Y-150650000D02*
X53250000Y-150500000D01*
X51862500Y-143050000D02*
X53200000Y-143050000D01*
X53200000Y-143050000D02*
X53250000Y-143000000D01*
D62*
X65247500Y-145680000D02*
X61930000Y-145680000D01*
X54737500Y-145000000D02*
X53737500Y-144000000D01*
X61250000Y-145000000D02*
X54737500Y-145000000D01*
X61930000Y-145680000D02*
X61250000Y-145000000D01*
X61000000Y-146750000D02*
X62470000Y-148220000D01*
X53737500Y-147800000D02*
X55950000Y-147800000D01*
X57000000Y-146750000D02*
X61000000Y-146750000D01*
X55950000Y-147800000D02*
X57000000Y-146750000D01*
X62470000Y-148220000D02*
X65247500Y-148220000D01*
D61*
X51862500Y-146850000D02*
X53150000Y-146850000D01*
X135535000Y-119035000D02*
X136000000Y-119500000D01*
X53150000Y-146850000D02*
X53250000Y-146750000D01*
X132120000Y-119035000D02*
X135535000Y-119035000D01*
X59750000Y-113900000D02*
X57837500Y-113900000D01*
X57837500Y-113900000D02*
X57687500Y-113750000D01*
X54750000Y-156250000D02*
X54750000Y-157250000D01*
X55250000Y-156750000D02*
X55937500Y-156750000D01*
X78885000Y-148750000D02*
X78975000Y-148840000D01*
X55937500Y-156750000D02*
X56200000Y-157012500D01*
X56500000Y-143250000D02*
X56500000Y-142112500D01*
X78835000Y-154500000D02*
X78945000Y-154610000D01*
X79000000Y-158500000D02*
X79000000Y-157670000D01*
X62500000Y-164987500D02*
X62512500Y-165000000D01*
X78000000Y-148750000D02*
X78885000Y-148750000D01*
X54750000Y-157250000D02*
X55000000Y-157000000D01*
X55000000Y-157000000D02*
X56187500Y-157000000D01*
X56187500Y-157000000D02*
X56200000Y-157012500D01*
X54750000Y-156250000D02*
X55250000Y-156750000D01*
X79000000Y-157670000D02*
X78940000Y-157610000D01*
X55000000Y-156500000D02*
X54750000Y-156250000D01*
X78000000Y-154500000D02*
X78835000Y-154500000D01*
X62500000Y-163500000D02*
X62500000Y-164987500D01*
X55000000Y-157000000D02*
X55000000Y-156500000D01*
X100895000Y-116645000D02*
X98500000Y-114250000D01*
X102810000Y-116645000D02*
X100895000Y-116645000D01*
X50500000Y-109000000D02*
X50500000Y-109750000D01*
X49510000Y-109000000D02*
X49500000Y-109010000D01*
X50500000Y-109000000D02*
X49510000Y-109000000D01*
X98500000Y-114250000D02*
X96250000Y-112000000D01*
X50615000Y-108095000D02*
X50500000Y-107980000D01*
X52125000Y-108095000D02*
X50615000Y-108095000D01*
X52125000Y-110635000D02*
X51455000Y-110635000D01*
X51455000Y-110635000D02*
X50500000Y-111590000D01*
X74000000Y-119250000D02*
X69230000Y-124020000D01*
X105750000Y-106500000D02*
X103827500Y-104577500D01*
X63270000Y-124020000D02*
X63230000Y-124020000D01*
X103827500Y-104577500D02*
X103827500Y-102427500D01*
X98150000Y-99250000D02*
X87537893Y-99250000D01*
X84250000Y-112500000D02*
X75750000Y-112500000D01*
X69230000Y-124020000D02*
X63270000Y-124020000D01*
X49500000Y-124750000D02*
X49500000Y-121510000D01*
X86250000Y-110500000D02*
X84250000Y-112500000D01*
X87537893Y-99250000D02*
X86250000Y-100537893D01*
X108462500Y-108825000D02*
X106575000Y-108825000D01*
X100600000Y-101700000D02*
X98150000Y-99250000D01*
X103827500Y-102427500D02*
X103100000Y-101700000D01*
X63230000Y-124020000D02*
X61750000Y-125500000D01*
X50500000Y-121510000D02*
X49500000Y-121510000D01*
X105750000Y-108000000D02*
X105750000Y-106500000D01*
X61750000Y-125500000D02*
X50250000Y-125500000D01*
X86250000Y-100537893D02*
X86250000Y-110500000D01*
X50250000Y-125500000D02*
X49500000Y-124750000D01*
X106575000Y-108825000D02*
X105750000Y-108000000D01*
X75750000Y-112500000D02*
X74000000Y-114250000D01*
X103100000Y-101700000D02*
X100600000Y-101700000D01*
X74000000Y-114250000D02*
X74000000Y-119250000D01*
X102810000Y-117945000D02*
X100445000Y-117945000D01*
X99000000Y-116500000D02*
X95500000Y-113000000D01*
X49500000Y-112610000D02*
X49500000Y-113600000D01*
X50500000Y-112610000D02*
X49500000Y-112610000D01*
X100445000Y-117945000D02*
X99000000Y-116500000D01*
X50615000Y-117845000D02*
X50500000Y-117730000D01*
X52125000Y-117845000D02*
X50615000Y-117845000D01*
X52125000Y-120385000D02*
X50605000Y-120385000D01*
X50605000Y-120385000D02*
X50500000Y-120490000D01*
X109725000Y-107525000D02*
X111250000Y-106000000D01*
X111250000Y-102500000D02*
X107250000Y-98500000D01*
X108462500Y-107525000D02*
X109725000Y-107525000D01*
X48800000Y-118060000D02*
X49500000Y-118760000D01*
X49510000Y-118750000D02*
X49500000Y-118760000D01*
X76250000Y-98500000D02*
X73500000Y-101250000D01*
X107250000Y-98500000D02*
X76250000Y-98500000D01*
X54260050Y-101250000D02*
X48800000Y-106710050D01*
X111250000Y-106000000D02*
X111250000Y-102500000D01*
X48800000Y-106710050D02*
X48800000Y-118060000D01*
X73500000Y-101250000D02*
X54260050Y-101250000D01*
X50500000Y-118750000D02*
X49510000Y-118750000D01*
X95400000Y-116250000D02*
X100750000Y-121600000D01*
X92400000Y-118200000D02*
X92400000Y-116650000D01*
X101850000Y-121600000D02*
X105085000Y-124835000D01*
X91935000Y-118665000D02*
X92400000Y-118200000D01*
X91238750Y-118665000D02*
X91935000Y-118665000D01*
X92800000Y-116250000D02*
X95400000Y-116250000D01*
X92400000Y-116650000D02*
X92800000Y-116250000D01*
X105085000Y-124835000D02*
X105085000Y-135665000D01*
X90238750Y-118665000D02*
X91238750Y-118665000D01*
X100750000Y-121600000D02*
X101850000Y-121600000D01*
X96150000Y-115500000D02*
X101350000Y-120700000D01*
X91950000Y-115500000D02*
X96150000Y-115500000D01*
X91200000Y-114890000D02*
X90200000Y-114890000D01*
X106215000Y-124015000D02*
X106215000Y-137965000D01*
X101350000Y-120700000D02*
X102900000Y-120700000D01*
X91340000Y-114890000D02*
X91950000Y-115500000D01*
X102900000Y-120700000D02*
X106215000Y-124015000D01*
X91200000Y-114890000D02*
X91340000Y-114890000D01*
D60*
X81178750Y-118282500D02*
X81178750Y-119655000D01*
X81716250Y-117490000D02*
X81051250Y-118155000D01*
X83263750Y-117490000D02*
X81716250Y-117490000D01*
X81051250Y-118155000D02*
X81178750Y-118282500D01*
X82096694Y-114950000D02*
X80901250Y-116145444D01*
X82096694Y-114950000D02*
X81801694Y-114655000D01*
X80928750Y-116127500D02*
X80928750Y-114655000D01*
X80901250Y-115498750D02*
X81200000Y-115200000D01*
X80901250Y-116155000D02*
X80901250Y-115498750D01*
X81801694Y-114655000D02*
X80928750Y-114655000D01*
X80901250Y-116155000D02*
X80928750Y-116127500D01*
X80901250Y-116145444D02*
X80901250Y-116155000D01*
X83263750Y-114950000D02*
X82096694Y-114950000D01*
D61*
X91765000Y-127665000D02*
X91238750Y-127665000D01*
X101735000Y-130585000D02*
X99800000Y-128650000D01*
X99800000Y-128650000D02*
X92750000Y-128650000D01*
X92750000Y-128650000D02*
X91765000Y-127665000D01*
X90238750Y-127665000D02*
X91238750Y-127665000D01*
X88258750Y-126645000D02*
X88213750Y-126690000D01*
X90238750Y-126645000D02*
X88258750Y-126645000D01*
D60*
X144000000Y-93137500D02*
X144000000Y-106085000D01*
D64*
X89223750Y-124150000D02*
X88213750Y-124150000D01*
X90238750Y-125165000D02*
X89223750Y-124150000D01*
X91238750Y-124145000D02*
X90238750Y-124145000D01*
D61*
X103650000Y-130150000D02*
X100650000Y-127150000D01*
X103650000Y-130150000D02*
X103650000Y-133150000D01*
D64*
X91295000Y-124145000D02*
X94300000Y-127150000D01*
D61*
X100650000Y-127150000D02*
X94300000Y-127150000D01*
D60*
X81151250Y-124405000D02*
X81178750Y-124377500D01*
X83263750Y-124150000D02*
X81993750Y-124150000D01*
X81178750Y-124377500D02*
X81178750Y-122905000D01*
X81406250Y-124150000D02*
X81151250Y-124405000D01*
X81993750Y-124150000D02*
X81406250Y-124150000D01*
D61*
X91000000Y-110510000D02*
X96010000Y-110510000D01*
X100845000Y-115345000D02*
X102810000Y-115345000D01*
X91000000Y-110510000D02*
X90010000Y-110510000D01*
X96010000Y-110510000D02*
X96050000Y-110550000D01*
X96050000Y-110550000D02*
X100845000Y-115345000D01*
X88645000Y-110555000D02*
X89720000Y-109480000D01*
X88325000Y-110555000D02*
X88645000Y-110555000D01*
X89720000Y-109480000D02*
X90000000Y-109480000D01*
X58687500Y-133000000D02*
X56040000Y-133000000D01*
X56040000Y-133000000D02*
X56000000Y-132960000D01*
X90000000Y-108010000D02*
X88330000Y-108010000D01*
X88330000Y-108010000D02*
X88325000Y-108015000D01*
X92880000Y-106980000D02*
X91000000Y-106980000D01*
X90990000Y-106990000D02*
X91000000Y-106980000D01*
X94075000Y-108175000D02*
X92880000Y-106980000D01*
X90000000Y-106990000D02*
X90990000Y-106990000D01*
X102737500Y-108175000D02*
X94075000Y-108175000D01*
X95575000Y-106875000D02*
X93600000Y-104900000D01*
X102737500Y-106875000D02*
X95575000Y-106875000D01*
X90000000Y-104760000D02*
X91000000Y-104760000D01*
X91000000Y-104760000D02*
X93460000Y-104760000D01*
X93460000Y-104760000D02*
X93600000Y-104900000D01*
X89760000Y-103740000D02*
X88795000Y-104705000D01*
X88795000Y-104705000D02*
X88325000Y-104705000D01*
X90000000Y-103740000D02*
X89760000Y-103740000D01*
D60*
X83263750Y-126690000D02*
X81316250Y-126690000D01*
X81428750Y-126802500D02*
X81151250Y-126525000D01*
X82356668Y-126690000D02*
X81428750Y-127617918D01*
X81428750Y-127617918D02*
X81428750Y-126802500D01*
X81316250Y-126690000D02*
X81151250Y-126525000D01*
X83263750Y-126690000D02*
X82356668Y-126690000D01*
D61*
X88325000Y-102165000D02*
X89845000Y-102165000D01*
X89845000Y-102165000D02*
X90000000Y-102010000D01*
X91990000Y-100990000D02*
X91000000Y-100990000D01*
X102737500Y-105575000D02*
X96575000Y-105575000D01*
X91000000Y-100990000D02*
X90000000Y-100990000D01*
X96575000Y-105575000D02*
X91990000Y-100990000D01*
X112775000Y-165230000D02*
X108317500Y-165230000D01*
X108317500Y-165230000D02*
X108250000Y-165162500D01*
X118042500Y-164912500D02*
X117725000Y-165230000D01*
X122000000Y-164912500D02*
X118042500Y-164912500D01*
X127200000Y-155612500D02*
X127250000Y-155662500D01*
X129207500Y-155662500D02*
X129525000Y-155980000D01*
X127250000Y-155662500D02*
X129207500Y-155662500D01*
X125250000Y-155612500D02*
X127200000Y-155612500D01*
X102810000Y-117295000D02*
X104295000Y-117295000D01*
X108250000Y-121250000D02*
X104295000Y-117295000D01*
X102810000Y-118595000D02*
X103845000Y-118595000D01*
X106000000Y-120750000D02*
X110000000Y-124750000D01*
X103845000Y-118595000D02*
X106000000Y-120750000D01*
X108462500Y-109475000D02*
X108475000Y-109475000D01*
X108475000Y-109475000D02*
X110500000Y-111500000D01*
X110500000Y-111500000D02*
X110500000Y-122750000D01*
X108462500Y-108175000D02*
X109186396Y-108175000D01*
X111675000Y-110663604D02*
X111505698Y-110494302D01*
X109186396Y-108175000D02*
X111505698Y-110494302D01*
X111675000Y-120425000D02*
X111675000Y-110663604D01*
X102810000Y-115995000D02*
X104495000Y-115995000D01*
X104495000Y-115995000D02*
X104500000Y-116000000D01*
X102737500Y-107525000D02*
X104475000Y-107525000D01*
X104475000Y-107525000D02*
X104500000Y-107500000D01*
X102737500Y-108825000D02*
X104425000Y-108825000D01*
X104425000Y-108825000D02*
X104500000Y-108750000D01*
X114965000Y-94785000D02*
X130730000Y-94785000D01*
X130730000Y-94785000D02*
X132120000Y-96175000D01*
X111750000Y-100500000D02*
X111750000Y-98000000D01*
X102737500Y-106225000D02*
X104475000Y-106225000D01*
X111750000Y-100500000D02*
X111250000Y-101000000D01*
X111750000Y-98000000D02*
X114965000Y-94785000D01*
X104475000Y-106225000D02*
X104500000Y-106250000D01*
X91750000Y-146650000D02*
X90500000Y-145400000D01*
X90500000Y-145400000D02*
X72587500Y-145400000D01*
X91750000Y-149950000D02*
X91750000Y-146650000D01*
X72587500Y-145400000D02*
X67787500Y-140600000D01*
X114500000Y-101095000D02*
X116880000Y-98715000D01*
X111700000Y-144700000D02*
X111700000Y-134100000D01*
X111037500Y-153875000D02*
X110313604Y-153875000D01*
X114500000Y-131300000D02*
X114500000Y-101095000D01*
X110313604Y-153875000D02*
X109500000Y-153061396D01*
X111700000Y-134100000D02*
X114500000Y-131300000D01*
X127250000Y-147300000D02*
X127250000Y-106550000D01*
X124795000Y-103795000D02*
X116880000Y-103795000D01*
X124795000Y-103795000D02*
X127250000Y-106250000D01*
X129525000Y-154710000D02*
X129525000Y-153440000D01*
X127250000Y-106250000D02*
X127250000Y-106550000D01*
X129525000Y-153440000D02*
X129525000Y-151975000D01*
X83875000Y-171875000D02*
X85725000Y-171875000D01*
X83940000Y-160640000D02*
X82900000Y-161680000D01*
X75915000Y-155350000D02*
X81940000Y-155350000D01*
X83940000Y-157350000D02*
X83940000Y-160640000D01*
X67787500Y-150760000D02*
X73915000Y-156887500D01*
X73915000Y-156887500D02*
X73915000Y-157350000D01*
X82900000Y-170900000D02*
X83875000Y-171875000D01*
X81940000Y-155350000D02*
X83940000Y-157350000D01*
X73915000Y-157350000D02*
X75915000Y-155350000D01*
X82900000Y-161680000D02*
X82900000Y-170900000D01*
X117725000Y-162690000D02*
X117725000Y-161525000D01*
X117725000Y-161525000D02*
X117750000Y-161500000D01*
X117725000Y-163960000D02*
X117725000Y-162690000D01*
X125775000Y-144000000D02*
X125750000Y-120025000D01*
X125750000Y-147300000D02*
X125750000Y-144000000D01*
X125750000Y-120025000D02*
X122220000Y-116495000D01*
X122220000Y-116495000D02*
X116880000Y-116495000D01*
X66447500Y-146177057D02*
X66447500Y-141800000D01*
X72100000Y-148000000D02*
X70200000Y-148000000D01*
X69080000Y-146880000D02*
X67150443Y-146880000D01*
X70200000Y-148000000D02*
X69080000Y-146880000D01*
X67150443Y-146880000D02*
X66447500Y-146177057D01*
X73950000Y-149850000D02*
X72100000Y-148000000D01*
X82015000Y-147850000D02*
X84015000Y-149850000D01*
X88000000Y-153050000D02*
X88000000Y-168500000D01*
X66447500Y-141800000D02*
X65247500Y-140600000D01*
X73950000Y-149850000D02*
X75950000Y-147850000D01*
X84015000Y-149850000D02*
X84800000Y-149850000D01*
X87165000Y-169335000D02*
X85725000Y-169335000D01*
X88000000Y-168500000D02*
X87165000Y-169335000D01*
X84800000Y-149850000D02*
X88000000Y-153050000D01*
X75950000Y-147850000D02*
X82015000Y-147850000D01*
X125550000Y-149700000D02*
X130400000Y-149700000D01*
X116880000Y-119035000D02*
X121235000Y-119035000D01*
X129525000Y-159790000D02*
X129525000Y-161060000D01*
X124250000Y-122050000D02*
X124250000Y-148400000D01*
X124250000Y-148400000D02*
X125550000Y-149700000D01*
X132750000Y-152050000D02*
X132750000Y-158000000D01*
X130960000Y-159790000D02*
X129525000Y-159790000D01*
X121235000Y-119035000D02*
X124250000Y-122050000D01*
X132750000Y-158000000D02*
X130960000Y-159790000D01*
X130400000Y-149700000D02*
X132750000Y-152050000D01*
X117707110Y-169027478D02*
X117725000Y-169040000D01*
X122500000Y-123250000D02*
X120825000Y-121575000D01*
X120825000Y-121575000D02*
X116880000Y-121575000D01*
X117725000Y-169040000D02*
X116012522Y-169040000D01*
X117725000Y-170310000D02*
X117707110Y-169027478D01*
X116012522Y-169040000D02*
X116000000Y-169027478D01*
X122500000Y-147200000D02*
X122500000Y-123250000D01*
X112775000Y-169040000D02*
X112775000Y-170310000D01*
X120615000Y-124115000D02*
X116880000Y-124115000D01*
X112775000Y-170310000D02*
X112775000Y-171750000D01*
X121250000Y-124750000D02*
X120615000Y-124115000D01*
X121250000Y-147250000D02*
X121250000Y-124750000D01*
X112775000Y-163960000D02*
X112775000Y-162690000D01*
X119750000Y-133750000D02*
X119750000Y-129500000D01*
X112775000Y-161975000D02*
X113750000Y-161000000D01*
X112775000Y-162690000D02*
X112775000Y-161975000D01*
X119445000Y-129195000D02*
X116880000Y-129195000D01*
X119750000Y-133750000D02*
X119750000Y-147150000D01*
X119750000Y-129500000D02*
X119445000Y-129195000D01*
X113100000Y-145200000D02*
X113100000Y-135515000D01*
X106000000Y-145750000D02*
X112550000Y-145750000D01*
X107975000Y-156475000D02*
X106750000Y-155250000D01*
X112550000Y-145750000D02*
X113100000Y-145200000D01*
X111037500Y-156475000D02*
X107975000Y-156475000D01*
X113100000Y-135515000D02*
X116880000Y-131735000D01*
X106000000Y-154500000D02*
X106000000Y-151250000D01*
X106750000Y-155250000D02*
X106000000Y-154500000D01*
X114000000Y-145500000D02*
X114000000Y-137200000D01*
X113000000Y-146500000D02*
X114000000Y-145500000D01*
X116880000Y-134275000D02*
X114000000Y-137155000D01*
X116762500Y-157125000D02*
X115125000Y-157125000D01*
X113000000Y-147000000D02*
X113000000Y-146500000D01*
X115125000Y-157125000D02*
X115100000Y-157100000D01*
X116880000Y-136815000D02*
X115100000Y-138595000D01*
X116762500Y-155825000D02*
X115125000Y-155825000D01*
X114250000Y-147000000D02*
X115100000Y-146150000D01*
X115125000Y-155825000D02*
X115100000Y-155800000D01*
X115100000Y-138595000D02*
X115100000Y-146150000D01*
X122000000Y-172500000D02*
X118500000Y-176000000D01*
X67312500Y-167100000D02*
X69350000Y-167100000D01*
X69655000Y-166795000D02*
X69400000Y-167050000D01*
X118500000Y-176000000D02*
X87250000Y-176000000D01*
X122000000Y-170162500D02*
X122000000Y-172500000D01*
X80775000Y-166795000D02*
X69655000Y-166795000D01*
X69350000Y-167100000D02*
X69400000Y-167050000D01*
X90083750Y-117490000D02*
X90238750Y-117645000D01*
X88213750Y-117490000D02*
X90083750Y-117490000D01*
X60650000Y-132862500D02*
X60512500Y-133000000D01*
X64800000Y-175600000D02*
X81800000Y-175600000D01*
X107000000Y-164587500D02*
X107000000Y-165750000D01*
X108250000Y-163337500D02*
X107000000Y-164587500D01*
X83200000Y-174200000D02*
X83200000Y-173800000D01*
X60650000Y-131000000D02*
X60650000Y-129250000D01*
X60650000Y-131000000D02*
X60650000Y-132862500D01*
X81800000Y-175600000D02*
X83200000Y-174200000D01*
X101200000Y-173800000D02*
X101250000Y-173750000D01*
X59500000Y-128100000D02*
X51100000Y-128100000D01*
X83200000Y-172600000D02*
X82475000Y-171875000D01*
X83200000Y-173800000D02*
X101200000Y-173800000D01*
X51100000Y-128100000D02*
X48500000Y-130700000D01*
X83200000Y-173800000D02*
X83200000Y-172600000D01*
X102250000Y-170500000D02*
X102250000Y-172750000D01*
X48500000Y-159300000D02*
X64800000Y-175600000D01*
X60650000Y-129250000D02*
X59500000Y-128100000D01*
X48500000Y-130700000D02*
X48500000Y-159300000D01*
X102250000Y-172750000D02*
X101250000Y-173750000D01*
X82475000Y-171875000D02*
X80775000Y-171875000D01*
X107000000Y-165750000D02*
X102250000Y-170500000D01*
X90200000Y-115910000D02*
X89910000Y-115910000D01*
X88950000Y-114950000D02*
X88213750Y-114950000D01*
X89910000Y-115910000D02*
X88950000Y-114950000D01*
X106025000Y-174550000D02*
X84550000Y-174550000D01*
X76250000Y-160600000D02*
X77120000Y-160600000D01*
X76200000Y-160550000D02*
X76250000Y-160600000D01*
X77120000Y-160600000D02*
X80775000Y-164255000D01*
X74412500Y-160550000D02*
X76200000Y-160550000D01*
X108500000Y-172075000D02*
X106025000Y-174550000D01*
X110500000Y-170250000D02*
X108500000Y-170250000D01*
X112775000Y-167770000D02*
X112362893Y-167770000D01*
X110500000Y-169632893D02*
X110500000Y-170250000D01*
X112362893Y-167770000D02*
X110500000Y-169632893D01*
X117725000Y-167770000D02*
X119432500Y-167770000D01*
X120000000Y-168337500D02*
X122000000Y-168337500D01*
X119432500Y-167770000D02*
X120000000Y-168337500D01*
X128730000Y-158520000D02*
X127825000Y-159425000D01*
X129525000Y-158520000D02*
X128730000Y-158520000D01*
X127825000Y-159425000D02*
X127200000Y-159425000D01*
X125200000Y-159425000D02*
X127200000Y-159425000D01*
X72587500Y-162512500D02*
X72550000Y-162550000D01*
X67787500Y-155840000D02*
X72497500Y-160550000D01*
X72587500Y-160550000D02*
X72587500Y-162512500D01*
X72497500Y-160550000D02*
X72587500Y-160550000D01*
X65500000Y-163100000D02*
X65500000Y-165100000D01*
X65500000Y-165100000D02*
X65500000Y-167087500D01*
X67787500Y-160812500D02*
X65500000Y-163100000D01*
X65500000Y-167087500D02*
X65487500Y-167100000D01*
X67787500Y-158380000D02*
X67787500Y-160812500D01*
X62627500Y-161000000D02*
X60700000Y-161000000D01*
X60700000Y-161000000D02*
X60700000Y-164950000D01*
X65247500Y-158380000D02*
X62627500Y-161000000D01*
X62840000Y-155840000D02*
X62200000Y-155200000D01*
X65247500Y-155840000D02*
X62840000Y-155840000D01*
X62200000Y-155200000D02*
X56250000Y-155200000D01*
X128350000Y-80650000D02*
X129000000Y-80000000D01*
X131387500Y-80000000D02*
X132087500Y-80700000D01*
X128250000Y-80650000D02*
X128350000Y-80650000D01*
X129000000Y-80000000D02*
X131387500Y-80000000D01*
G04 #@! TA.AperFunction,Conductor*
G36*
X60915677Y-147419685D02*
G01*
X60936319Y-147436319D01*
X61063681Y-147563681D01*
X61097166Y-147625004D01*
X61100000Y-147651362D01*
X61100000Y-147848638D01*
X61080315Y-147915677D01*
X61063681Y-147936319D01*
X61000000Y-148000000D01*
X61000000Y-149048638D01*
X60980315Y-149115677D01*
X60963681Y-149136319D01*
X60736319Y-149363681D01*
X60674996Y-149397166D01*
X60648638Y-149400000D01*
X59751362Y-149400000D01*
X59684323Y-149380315D01*
X59663681Y-149363681D01*
X59536319Y-149236319D01*
X59502834Y-149174996D01*
X59500000Y-149148638D01*
X59500000Y-148300000D01*
X59136319Y-147936319D01*
X59102834Y-147874996D01*
X59100000Y-147848638D01*
X59100000Y-147651362D01*
X59119685Y-147584323D01*
X59136319Y-147563681D01*
X59263681Y-147436319D01*
X59325004Y-147402834D01*
X59351362Y-147400000D01*
X60848638Y-147400000D01*
X60915677Y-147419685D01*
G37*
G04 #@! TD.AperFunction*
G04 #@! TA.AperFunction,Conductor*
G36*
X75615677Y-96019685D02*
G01*
X75636319Y-96036319D01*
X75863681Y-96263681D01*
X75897166Y-96325004D01*
X75900000Y-96351362D01*
X75900000Y-97933637D01*
X75880315Y-98000676D01*
X75844783Y-98036811D01*
X75631239Y-98179174D01*
X75562456Y-98200000D01*
X71351362Y-98200000D01*
X71284323Y-98180315D01*
X71263681Y-98163681D01*
X70936319Y-97836319D01*
X70902834Y-97774996D01*
X70900000Y-97748638D01*
X70900000Y-96151362D01*
X70919685Y-96084323D01*
X70936319Y-96063681D01*
X70963681Y-96036319D01*
X71025004Y-96002834D01*
X71051362Y-96000000D01*
X75548638Y-96000000D01*
X75615677Y-96019685D01*
G37*
G04 #@! TD.AperFunction*
G04 #@! TA.AperFunction,Conductor*
G36*
X58815677Y-156519685D02*
G01*
X58836319Y-156536319D01*
X58963681Y-156663681D01*
X58997166Y-156725004D01*
X59000000Y-156751362D01*
X59000000Y-157348638D01*
X58980315Y-157415677D01*
X58963681Y-157436319D01*
X58100000Y-158300000D01*
X58100000Y-159500000D01*
X58800000Y-160200000D01*
X59148638Y-160200000D01*
X59215677Y-160219685D01*
X59236319Y-160236319D01*
X59363681Y-160363681D01*
X59397166Y-160425004D01*
X59400000Y-160451362D01*
X59400000Y-161548638D01*
X59380315Y-161615677D01*
X59363681Y-161636319D01*
X59236319Y-161763681D01*
X59174996Y-161797166D01*
X59148638Y-161800000D01*
X58537544Y-161800000D01*
X58468761Y-161779174D01*
X58215277Y-161610185D01*
X58215278Y-161610185D01*
X58200000Y-161600000D01*
X56451362Y-161600000D01*
X56384323Y-161580315D01*
X56363681Y-161563681D01*
X56236319Y-161436319D01*
X56202834Y-161374996D01*
X56200000Y-161348638D01*
X56200000Y-160200000D01*
X55800000Y-159900000D01*
X55051362Y-159900000D01*
X54984323Y-159880315D01*
X54963681Y-159863681D01*
X54736319Y-159636319D01*
X54702834Y-159574996D01*
X54700000Y-159548638D01*
X54700000Y-158351362D01*
X54719685Y-158284323D01*
X54736319Y-158263681D01*
X55266376Y-157733624D01*
X55327699Y-157700139D01*
X55397391Y-157705123D01*
X55429027Y-157722535D01*
X55470483Y-157754002D01*
X55470485Y-157754003D01*
X55477217Y-157759113D01*
X55485078Y-157762225D01*
X55485079Y-157762226D01*
X55610047Y-157811704D01*
X55610049Y-157811704D01*
X55617453Y-157814636D01*
X55625357Y-157815592D01*
X55625359Y-157815593D01*
X55678073Y-157821972D01*
X55707228Y-157825500D01*
X56692772Y-157825500D01*
X56721927Y-157821972D01*
X56774641Y-157815593D01*
X56774643Y-157815592D01*
X56782547Y-157814636D01*
X56789951Y-157811704D01*
X56789953Y-157811704D01*
X56914921Y-157762226D01*
X56914922Y-157762225D01*
X56922783Y-157759113D01*
X56956364Y-157733624D01*
X57036190Y-157673032D01*
X57042922Y-157667922D01*
X57096161Y-157597783D01*
X57129001Y-157554518D01*
X57129001Y-157554517D01*
X57134113Y-157547783D01*
X57178245Y-157436319D01*
X57186704Y-157414953D01*
X57186704Y-157414951D01*
X57189636Y-157407547D01*
X57200500Y-157317772D01*
X57200500Y-156707228D01*
X57192231Y-156638897D01*
X57203719Y-156569978D01*
X57250644Y-156518211D01*
X57315333Y-156500000D01*
X58748638Y-156500000D01*
X58815677Y-156519685D01*
G37*
G04 #@! TD.AperFunction*
G04 #@! TA.AperFunction,Conductor*
G36*
X77926717Y-77419685D02*
G01*
X77932609Y-77423716D01*
X78948934Y-78162861D01*
X78991573Y-78218210D01*
X79000000Y-78263143D01*
X79000000Y-79248638D01*
X78980315Y-79315677D01*
X78963681Y-79336319D01*
X78736319Y-79563681D01*
X78674996Y-79597166D01*
X78648638Y-79600000D01*
X76451362Y-79600000D01*
X76384323Y-79580315D01*
X76363681Y-79563681D01*
X76000000Y-79200000D01*
X71600000Y-79200000D01*
X71593765Y-79207066D01*
X70137023Y-80858041D01*
X70077908Y-80895286D01*
X70044043Y-80900000D01*
X67100000Y-80900000D01*
X66600000Y-81400000D01*
X66600000Y-82948638D01*
X66580315Y-83015677D01*
X66563681Y-83036319D01*
X66236319Y-83363681D01*
X66174996Y-83397166D01*
X66148638Y-83400000D01*
X63851362Y-83400000D01*
X63784323Y-83380315D01*
X63763681Y-83363681D01*
X63436319Y-83036319D01*
X63402834Y-82974996D01*
X63400000Y-82948638D01*
X63400000Y-78051362D01*
X63419685Y-77984323D01*
X63436319Y-77963681D01*
X63963681Y-77436319D01*
X64025004Y-77402834D01*
X64051362Y-77400000D01*
X77859678Y-77400000D01*
X77926717Y-77419685D01*
G37*
G04 #@! TD.AperFunction*
G04 #@! TA.AperFunction,Conductor*
G36*
X78643039Y-82519685D02*
G01*
X78688794Y-82572489D01*
X78700000Y-82624000D01*
X78700000Y-83952855D01*
X78680315Y-84019894D01*
X78668679Y-84035236D01*
X77936995Y-84858381D01*
X77877744Y-84895409D01*
X77844316Y-84900000D01*
X76500000Y-84900000D01*
X76500000Y-89176000D01*
X76480315Y-89243039D01*
X76427511Y-89288794D01*
X76376000Y-89300000D01*
X75500000Y-89300000D01*
X75500000Y-90376000D01*
X75480315Y-90443039D01*
X75427511Y-90488794D01*
X75376000Y-90500000D01*
X71144894Y-90500000D01*
X71077855Y-90480315D01*
X71065511Y-90471259D01*
X70544617Y-90037181D01*
X70505718Y-89979142D01*
X70500000Y-89941922D01*
X70500000Y-88741333D01*
X70519685Y-88674294D01*
X70524800Y-88666933D01*
X70762800Y-88349600D01*
X70818771Y-88307779D01*
X70862000Y-88300000D01*
X73800000Y-88300000D01*
X74900000Y-87100000D01*
X74900000Y-83351362D01*
X74919685Y-83284323D01*
X74936319Y-83263681D01*
X75663681Y-82536319D01*
X75725004Y-82502834D01*
X75751362Y-82500000D01*
X78576000Y-82500000D01*
X78643039Y-82519685D01*
G37*
G04 #@! TD.AperFunction*
G04 #@! TA.AperFunction,Conductor*
G36*
X97015677Y-99769685D02*
G01*
X97036319Y-99786319D01*
X97213681Y-99963681D01*
X97247166Y-100025004D01*
X97250000Y-100051362D01*
X97250000Y-101250000D01*
X97463681Y-101463681D01*
X97497166Y-101525004D01*
X97500000Y-101551362D01*
X97500000Y-101698638D01*
X97480315Y-101765677D01*
X97463681Y-101786319D01*
X97286319Y-101963681D01*
X97224996Y-101997166D01*
X97198638Y-102000000D01*
X94551362Y-102000000D01*
X94484323Y-101980315D01*
X94463681Y-101963681D01*
X93786319Y-101286319D01*
X93752834Y-101224996D01*
X93750000Y-101198638D01*
X93750000Y-100051362D01*
X93769685Y-99984323D01*
X93786319Y-99963681D01*
X93963681Y-99786319D01*
X94025004Y-99752834D01*
X94051362Y-99750000D01*
X96948638Y-99750000D01*
X97015677Y-99769685D01*
G37*
G04 #@! TD.AperFunction*
G04 #@! TA.AperFunction,Conductor*
G36*
X69915677Y-84019685D02*
G01*
X69936319Y-84036319D01*
X70063681Y-84163681D01*
X70097166Y-84225004D01*
X70100000Y-84251362D01*
X70100000Y-86200000D01*
X70363681Y-86463681D01*
X70397166Y-86525004D01*
X70400000Y-86551362D01*
X70400000Y-86848638D01*
X70380315Y-86915677D01*
X70363681Y-86936319D01*
X70236319Y-87063681D01*
X70174996Y-87097166D01*
X70148638Y-87100000D01*
X67751362Y-87100000D01*
X67684323Y-87080315D01*
X67663681Y-87063681D01*
X67336319Y-86736319D01*
X67302834Y-86674996D01*
X67300000Y-86648638D01*
X67300000Y-84351362D01*
X67319685Y-84284323D01*
X67336319Y-84263681D01*
X67563681Y-84036319D01*
X67625004Y-84002834D01*
X67651362Y-84000000D01*
X69848638Y-84000000D01*
X69915677Y-84019685D01*
G37*
G04 #@! TD.AperFunction*
G04 #@! TA.AperFunction,Conductor*
G36*
X112515677Y-80019685D02*
G01*
X112536319Y-80036319D01*
X113713681Y-81213681D01*
X113747166Y-81275004D01*
X113750000Y-81301362D01*
X113750000Y-90698638D01*
X113730315Y-90765677D01*
X113713681Y-90786319D01*
X112536319Y-91963681D01*
X112474996Y-91997166D01*
X112448638Y-92000000D01*
X106051362Y-92000000D01*
X105984323Y-91980315D01*
X105963681Y-91963681D01*
X104786319Y-90786319D01*
X104752834Y-90724996D01*
X104750000Y-90698638D01*
X104750000Y-81308078D01*
X104769685Y-81241039D01*
X104794617Y-81212819D01*
X106215511Y-80028741D01*
X106279614Y-80000945D01*
X106294894Y-80000000D01*
X112448638Y-80000000D01*
X112515677Y-80019685D01*
G37*
G04 #@! TD.AperFunction*
G04 #@! TA.AperFunction,Conductor*
G36*
X81615677Y-172819685D02*
G01*
X81636319Y-172836319D01*
X81763681Y-172963681D01*
X81797166Y-173025004D01*
X81800000Y-173051362D01*
X81800000Y-173248638D01*
X81780315Y-173315677D01*
X81763681Y-173336319D01*
X81600000Y-173500000D01*
X81600000Y-173948638D01*
X81580315Y-174015677D01*
X81563681Y-174036319D01*
X81336319Y-174263681D01*
X81274996Y-174297166D01*
X81248638Y-174300000D01*
X80047939Y-174300000D01*
X79980900Y-174280315D01*
X79964528Y-174267753D01*
X78940589Y-173336899D01*
X78904225Y-173277238D01*
X78900000Y-173245146D01*
X78900000Y-173151362D01*
X78919685Y-173084323D01*
X78936319Y-173063681D01*
X79163681Y-172836319D01*
X79225004Y-172802834D01*
X79251362Y-172800000D01*
X81548638Y-172800000D01*
X81615677Y-172819685D01*
G37*
G04 #@! TD.AperFunction*
G04 #@! TA.AperFunction,Conductor*
G36*
X74815677Y-161819685D02*
G01*
X74836319Y-161836319D01*
X75000000Y-162000000D01*
X76848638Y-162000000D01*
X76915677Y-162019685D01*
X76936319Y-162036319D01*
X76963681Y-162063681D01*
X76997166Y-162125004D01*
X77000000Y-162151362D01*
X77000000Y-162848638D01*
X76980315Y-162915677D01*
X76963681Y-162936319D01*
X76836319Y-163063681D01*
X76774996Y-163097166D01*
X76748638Y-163100000D01*
X76200000Y-163100000D01*
X75800000Y-163500000D01*
X75800000Y-163748638D01*
X75780315Y-163815677D01*
X75763681Y-163836319D01*
X75536319Y-164063681D01*
X75474996Y-164097166D01*
X75448638Y-164100000D01*
X75351362Y-164100000D01*
X75284323Y-164080315D01*
X75263681Y-164063681D01*
X74500000Y-163300000D01*
X74151362Y-163300000D01*
X74084323Y-163280315D01*
X74063681Y-163263681D01*
X73936319Y-163136319D01*
X73902834Y-163074996D01*
X73900000Y-163048638D01*
X73900000Y-162051362D01*
X73919685Y-161984323D01*
X73936319Y-161963681D01*
X74063681Y-161836319D01*
X74125004Y-161802834D01*
X74151362Y-161800000D01*
X74748638Y-161800000D01*
X74815677Y-161819685D01*
G37*
G04 #@! TD.AperFunction*
G04 #@! TA.AperFunction,Conductor*
G36*
X70615677Y-92519685D02*
G01*
X70636319Y-92536319D01*
X70800000Y-92700000D01*
X75476000Y-92700000D01*
X75543039Y-92719685D01*
X75588794Y-92772489D01*
X75600000Y-92824000D01*
X75600000Y-93676000D01*
X75580315Y-93743039D01*
X75527511Y-93788794D01*
X75476000Y-93800000D01*
X70900000Y-93800000D01*
X70637200Y-94150400D01*
X70581229Y-94192221D01*
X70538000Y-94200000D01*
X70251362Y-94200000D01*
X70184323Y-94180315D01*
X70163681Y-94163681D01*
X70036319Y-94036319D01*
X70002834Y-93974996D01*
X70000000Y-93948638D01*
X70000000Y-92837544D01*
X70020826Y-92768761D01*
X70163189Y-92555217D01*
X70216754Y-92510356D01*
X70266363Y-92500000D01*
X70548638Y-92500000D01*
X70615677Y-92519685D01*
G37*
G04 #@! TD.AperFunction*
G04 #@! TA.AperFunction,Conductor*
G36*
X78225706Y-137619685D02*
G01*
X78233062Y-137624797D01*
X78600000Y-137900000D01*
X79748638Y-137900000D01*
X79815677Y-137919685D01*
X79836319Y-137936319D01*
X79863681Y-137963681D01*
X79897166Y-138025004D01*
X79900000Y-138051362D01*
X79900000Y-138948638D01*
X79880315Y-139015677D01*
X79863681Y-139036319D01*
X79636319Y-139263681D01*
X79574996Y-139297166D01*
X79548638Y-139300000D01*
X77900000Y-139300000D01*
X77884722Y-139310185D01*
X77884723Y-139310185D01*
X77631239Y-139479174D01*
X77562456Y-139500000D01*
X75756268Y-139500000D01*
X75689229Y-139480315D01*
X75662948Y-139457655D01*
X75030680Y-138735063D01*
X75001349Y-138671648D01*
X75000000Y-138653408D01*
X75000000Y-138451362D01*
X75019685Y-138384323D01*
X75036319Y-138363681D01*
X75163681Y-138236319D01*
X75225004Y-138202834D01*
X75251362Y-138200000D01*
X76400000Y-138200000D01*
X76963681Y-137636319D01*
X77025004Y-137602834D01*
X77051362Y-137600000D01*
X78158667Y-137600000D01*
X78225706Y-137619685D01*
G37*
G04 #@! TD.AperFunction*
G04 #@! TA.AperFunction,Conductor*
G36*
X84515677Y-107219685D02*
G01*
X84536319Y-107236319D01*
X84763681Y-107463681D01*
X84797166Y-107525004D01*
X84800000Y-107551362D01*
X84800000Y-108448638D01*
X84780315Y-108515677D01*
X84763681Y-108536319D01*
X84536319Y-108763681D01*
X84474996Y-108797166D01*
X84448638Y-108800000D01*
X84351362Y-108800000D01*
X84284323Y-108780315D01*
X84263681Y-108763681D01*
X83900000Y-108400000D01*
X82451362Y-108400000D01*
X82384323Y-108380315D01*
X82363681Y-108363681D01*
X82236319Y-108236319D01*
X82202834Y-108174996D01*
X82200000Y-108148638D01*
X82200000Y-107851362D01*
X82219685Y-107784323D01*
X82236319Y-107763681D01*
X82263681Y-107736319D01*
X82325004Y-107702834D01*
X82351362Y-107700000D01*
X83800000Y-107700000D01*
X84263681Y-107236319D01*
X84325004Y-107202834D01*
X84351362Y-107200000D01*
X84448638Y-107200000D01*
X84515677Y-107219685D01*
G37*
G04 #@! TD.AperFunction*
G04 #@! TA.AperFunction,Conductor*
G36*
X86415677Y-162919685D02*
G01*
X86436319Y-162936319D01*
X86563681Y-163063681D01*
X86597166Y-163125004D01*
X86600000Y-163151362D01*
X86600000Y-163900000D01*
X86663681Y-163963681D01*
X86697166Y-164025004D01*
X86700000Y-164051362D01*
X86700000Y-164448638D01*
X86680315Y-164515677D01*
X86663681Y-164536319D01*
X86636319Y-164563681D01*
X86574996Y-164597166D01*
X86548638Y-164600000D01*
X84951362Y-164600000D01*
X84884323Y-164580315D01*
X84863681Y-164563681D01*
X84736319Y-164436319D01*
X84702834Y-164374996D01*
X84700000Y-164348638D01*
X84700000Y-163500000D01*
X84636319Y-163436319D01*
X84602834Y-163374996D01*
X84600000Y-163348638D01*
X84600000Y-163151362D01*
X84619685Y-163084323D01*
X84636319Y-163063681D01*
X84763681Y-162936319D01*
X84825004Y-162902834D01*
X84851362Y-162900000D01*
X86348638Y-162900000D01*
X86415677Y-162919685D01*
G37*
G04 #@! TD.AperFunction*
G04 #@! TA.AperFunction,Conductor*
G36*
X103443039Y-109345184D02*
G01*
X103488794Y-109397987D01*
X103500000Y-109449499D01*
X103500000Y-109700000D01*
X103850000Y-110100000D01*
X105698638Y-110100000D01*
X105765677Y-110119685D01*
X105786319Y-110136319D01*
X105913681Y-110263681D01*
X105947166Y-110325004D01*
X105950000Y-110351362D01*
X105950000Y-111950000D01*
X106350000Y-112350000D01*
X106708667Y-112350000D01*
X106775706Y-112369685D01*
X106783067Y-112374800D01*
X106900400Y-112462800D01*
X106942221Y-112518771D01*
X106950000Y-112562000D01*
X106950000Y-113638000D01*
X106930315Y-113705039D01*
X106900400Y-113737200D01*
X106798426Y-113813681D01*
X106783067Y-113825200D01*
X106717625Y-113849676D01*
X106708667Y-113850000D01*
X104551362Y-113850000D01*
X104484323Y-113830315D01*
X104463681Y-113813681D01*
X104386319Y-113736319D01*
X104352834Y-113674996D01*
X104350000Y-113648638D01*
X104350000Y-112000000D01*
X103950000Y-111600000D01*
X103801362Y-111600000D01*
X103734323Y-111580315D01*
X103713681Y-111563681D01*
X102986319Y-110836319D01*
X102952834Y-110774996D01*
X102950000Y-110748638D01*
X102950000Y-109700000D01*
X102101362Y-109700000D01*
X102034323Y-109680315D01*
X102013681Y-109663681D01*
X101986319Y-109636319D01*
X101952834Y-109574996D01*
X101950000Y-109548638D01*
X101950000Y-109449500D01*
X101969685Y-109382461D01*
X102022489Y-109336706D01*
X102074000Y-109325500D01*
X102273399Y-109325500D01*
X103376000Y-109325499D01*
X103443039Y-109345184D01*
G37*
G04 #@! TD.AperFunction*
G04 #@! TA.AperFunction,Conductor*
G36*
X58115677Y-108969685D02*
G01*
X58136319Y-108986319D01*
X58263681Y-109113681D01*
X58297166Y-109175004D01*
X58300000Y-109201362D01*
X58300000Y-109498638D01*
X58280315Y-109565677D01*
X58263681Y-109586319D01*
X58136319Y-109713681D01*
X58074996Y-109747166D01*
X58048638Y-109750000D01*
X56300000Y-109750000D01*
X55900000Y-110150000D01*
X55900000Y-110950000D01*
X56500000Y-111550000D01*
X58148638Y-111550000D01*
X58215677Y-111569685D01*
X58236319Y-111586319D01*
X58263681Y-111613681D01*
X58297166Y-111675004D01*
X58300000Y-111701362D01*
X58300000Y-112098638D01*
X58280315Y-112165677D01*
X58263681Y-112186319D01*
X58236319Y-112213681D01*
X58174996Y-112247166D01*
X58148638Y-112250000D01*
X55451362Y-112250000D01*
X55384323Y-112230315D01*
X55363681Y-112213681D01*
X55136319Y-111986319D01*
X55102834Y-111924996D01*
X55100000Y-111898638D01*
X55100000Y-109301362D01*
X55119685Y-109234323D01*
X55136319Y-109213681D01*
X55363681Y-108986319D01*
X55425004Y-108952834D01*
X55451362Y-108950000D01*
X58048638Y-108950000D01*
X58115677Y-108969685D01*
G37*
G04 #@! TD.AperFunction*
G04 #@! TA.AperFunction,Conductor*
G36*
X76500676Y-90319685D02*
G01*
X76536811Y-90355217D01*
X76679174Y-90568761D01*
X76700000Y-90637544D01*
X76700000Y-92348638D01*
X76680315Y-92415677D01*
X76663681Y-92436319D01*
X76436319Y-92663681D01*
X76374996Y-92697166D01*
X76348638Y-92700000D01*
X76151362Y-92700000D01*
X76084323Y-92680315D01*
X76063681Y-92663681D01*
X75600000Y-92200000D01*
X70351362Y-92200000D01*
X70284323Y-92180315D01*
X70263681Y-92163681D01*
X70036319Y-91936319D01*
X70002834Y-91874996D01*
X70000000Y-91848638D01*
X70000000Y-90751362D01*
X70019685Y-90684323D01*
X70036319Y-90663681D01*
X70163681Y-90536319D01*
X70225004Y-90502834D01*
X70251362Y-90500000D01*
X70448638Y-90500000D01*
X70515677Y-90519685D01*
X70536319Y-90536319D01*
X70900000Y-90900000D01*
X75600000Y-90900000D01*
X76163681Y-90336319D01*
X76225004Y-90302834D01*
X76251362Y-90300000D01*
X76433637Y-90300000D01*
X76500676Y-90319685D01*
G37*
G04 #@! TD.AperFunction*
G04 #@! TA.AperFunction,Conductor*
G36*
X68615677Y-163719685D02*
G01*
X68636319Y-163736319D01*
X68863681Y-163963681D01*
X68897166Y-164025004D01*
X68900000Y-164051362D01*
X68900000Y-164200000D01*
X69400000Y-164600000D01*
X69948638Y-164600000D01*
X70015677Y-164619685D01*
X70036319Y-164636319D01*
X70163681Y-164763681D01*
X70197166Y-164825004D01*
X70200000Y-164851362D01*
X70200000Y-165448638D01*
X70180315Y-165515677D01*
X70163681Y-165536319D01*
X70036319Y-165663681D01*
X69974996Y-165697166D01*
X69948638Y-165700000D01*
X67900000Y-165700000D01*
X67736319Y-165863681D01*
X67674996Y-165897166D01*
X67648638Y-165900000D01*
X67151362Y-165900000D01*
X67084323Y-165880315D01*
X67063681Y-165863681D01*
X66936319Y-165736319D01*
X66902834Y-165674996D01*
X66900000Y-165648638D01*
X66900000Y-164551362D01*
X66919685Y-164484323D01*
X66936319Y-164463681D01*
X67063681Y-164336319D01*
X67125004Y-164302834D01*
X67151362Y-164300000D01*
X67800000Y-164300000D01*
X68363681Y-163736319D01*
X68425004Y-163702834D01*
X68451362Y-163700000D01*
X68548638Y-163700000D01*
X68615677Y-163719685D01*
G37*
G04 #@! TD.AperFunction*
G04 #@! TA.AperFunction,Conductor*
G36*
X115915677Y-150819685D02*
G01*
X115936319Y-150836319D01*
X116063681Y-150963681D01*
X116097166Y-151025004D01*
X116100000Y-151051362D01*
X116100000Y-152108667D01*
X116080315Y-152175706D01*
X116075200Y-152183067D01*
X115987200Y-152300400D01*
X115931229Y-152342221D01*
X115888000Y-152350000D01*
X112791333Y-152350000D01*
X112724294Y-152330315D01*
X112716933Y-152325200D01*
X112683867Y-152300400D01*
X112599600Y-152237200D01*
X112557779Y-152181229D01*
X112550000Y-152138000D01*
X112550000Y-151059598D01*
X112569685Y-150992559D01*
X112596538Y-150962770D01*
X112766035Y-150827172D01*
X112830681Y-150800664D01*
X112843497Y-150800000D01*
X115848638Y-150800000D01*
X115915677Y-150819685D01*
G37*
G04 #@! TD.AperFunction*
G04 #@! TA.AperFunction,Conductor*
G36*
X84615677Y-101319685D02*
G01*
X84636319Y-101336319D01*
X84863681Y-101563681D01*
X84897166Y-101625004D01*
X84900000Y-101651362D01*
X84900000Y-102648638D01*
X84880315Y-102715677D01*
X84863681Y-102736319D01*
X84636319Y-102963681D01*
X84574996Y-102997166D01*
X84548638Y-103000000D01*
X84451362Y-103000000D01*
X84384323Y-102980315D01*
X84363681Y-102963681D01*
X84000000Y-102600000D01*
X82451362Y-102600000D01*
X82384323Y-102580315D01*
X82363681Y-102563681D01*
X82236319Y-102436319D01*
X82202834Y-102374996D01*
X82200000Y-102348638D01*
X82200000Y-101951362D01*
X82219685Y-101884323D01*
X82236319Y-101863681D01*
X82263681Y-101836319D01*
X82325004Y-101802834D01*
X82351362Y-101800000D01*
X83900000Y-101800000D01*
X83906304Y-101792120D01*
X84262770Y-101346538D01*
X84320021Y-101306486D01*
X84359598Y-101300000D01*
X84548638Y-101300000D01*
X84615677Y-101319685D01*
G37*
G04 #@! TD.AperFunction*
G04 #@! TA.AperFunction,Conductor*
G36*
X84131239Y-99620826D02*
G01*
X84344783Y-99763189D01*
X84389644Y-99816754D01*
X84400000Y-99866363D01*
X84400000Y-100148638D01*
X84380315Y-100215677D01*
X84363681Y-100236319D01*
X83900000Y-100700000D01*
X83900000Y-101048638D01*
X83880315Y-101115677D01*
X83863681Y-101136319D01*
X83836319Y-101163681D01*
X83774996Y-101197166D01*
X83748638Y-101200000D01*
X82488466Y-101200000D01*
X82421427Y-101180315D01*
X82400788Y-101163684D01*
X82236317Y-100999214D01*
X82202834Y-100937893D01*
X82200000Y-100911535D01*
X82200000Y-100751362D01*
X82219685Y-100684323D01*
X82236319Y-100663681D01*
X82600000Y-100300000D01*
X82600000Y-99951362D01*
X82619685Y-99884323D01*
X82636319Y-99863681D01*
X82863681Y-99636319D01*
X82925004Y-99602834D01*
X82951362Y-99600000D01*
X84062456Y-99600000D01*
X84131239Y-99620826D01*
G37*
G04 #@! TD.AperFunction*
G04 #@! TA.AperFunction,Conductor*
G36*
X106725706Y-102619685D02*
G01*
X106733062Y-102624797D01*
X106850400Y-102712800D01*
X106892221Y-102768771D01*
X106900000Y-102812000D01*
X106900000Y-103898638D01*
X106880315Y-103965677D01*
X106863681Y-103986319D01*
X106750000Y-104100000D01*
X106750000Y-104548638D01*
X106730315Y-104615677D01*
X106713681Y-104636319D01*
X106586319Y-104763681D01*
X106524996Y-104797166D01*
X106498638Y-104800000D01*
X104738465Y-104800000D01*
X104671426Y-104780315D01*
X104650784Y-104763681D01*
X104436319Y-104549216D01*
X104402834Y-104487893D01*
X104400000Y-104461535D01*
X104400000Y-104100000D01*
X104314319Y-104014319D01*
X104280834Y-103952996D01*
X104278000Y-103926638D01*
X104278000Y-102823362D01*
X104297685Y-102756323D01*
X104314319Y-102735681D01*
X104413681Y-102636319D01*
X104475004Y-102602834D01*
X104501362Y-102600000D01*
X106658667Y-102600000D01*
X106725706Y-102619685D01*
G37*
G04 #@! TD.AperFunction*
G04 #@! TA.AperFunction,Conductor*
G36*
X83815677Y-103119685D02*
G01*
X83836319Y-103136319D01*
X84000000Y-103300000D01*
X85198638Y-103300000D01*
X85265677Y-103319685D01*
X85286319Y-103336319D01*
X85463681Y-103513681D01*
X85497166Y-103575004D01*
X85500000Y-103601362D01*
X85500000Y-104490402D01*
X85480315Y-104557441D01*
X85453462Y-104587230D01*
X85283965Y-104722828D01*
X85219319Y-104749336D01*
X85206503Y-104750000D01*
X85001362Y-104750000D01*
X84934323Y-104730315D01*
X84913681Y-104713681D01*
X84786319Y-104586319D01*
X84752834Y-104524996D01*
X84750000Y-104498638D01*
X84750000Y-104200000D01*
X84300000Y-103800000D01*
X82596358Y-103800000D01*
X82529319Y-103780315D01*
X82508677Y-103763681D01*
X82236319Y-103491323D01*
X82202834Y-103430000D01*
X82200000Y-103403642D01*
X82200000Y-103351362D01*
X82219685Y-103284323D01*
X82236319Y-103263681D01*
X82363681Y-103136319D01*
X82425004Y-103102834D01*
X82451362Y-103100000D01*
X83748638Y-103100000D01*
X83815677Y-103119685D01*
G37*
G04 #@! TD.AperFunction*
G04 #@! TA.AperFunction,Conductor*
G36*
X58115677Y-118719685D02*
G01*
X58136319Y-118736319D01*
X58263681Y-118863681D01*
X58297166Y-118925004D01*
X58300000Y-118951362D01*
X58300000Y-119248638D01*
X58280315Y-119315677D01*
X58263681Y-119336319D01*
X58136319Y-119463681D01*
X58074996Y-119497166D01*
X58048638Y-119500000D01*
X56300000Y-119500000D01*
X55900000Y-119900000D01*
X55900000Y-120700000D01*
X56500000Y-121300000D01*
X58148638Y-121300000D01*
X58215677Y-121319685D01*
X58236319Y-121336319D01*
X58263681Y-121363681D01*
X58297166Y-121425004D01*
X58300000Y-121451362D01*
X58300000Y-121848638D01*
X58280315Y-121915677D01*
X58263681Y-121936319D01*
X58236319Y-121963681D01*
X58174996Y-121997166D01*
X58148638Y-122000000D01*
X55451362Y-122000000D01*
X55384323Y-121980315D01*
X55363681Y-121963681D01*
X55136319Y-121736319D01*
X55102834Y-121674996D01*
X55100000Y-121648638D01*
X55100000Y-119051362D01*
X55119685Y-118984323D01*
X55136319Y-118963681D01*
X55363681Y-118736319D01*
X55425004Y-118702834D01*
X55451362Y-118700000D01*
X58048638Y-118700000D01*
X58115677Y-118719685D01*
G37*
G04 #@! TD.AperFunction*
G04 #@! TA.AperFunction,Conductor*
G36*
X83765677Y-108919685D02*
G01*
X83786319Y-108936319D01*
X83950000Y-109100000D01*
X85158667Y-109100000D01*
X85225706Y-109119685D01*
X85233067Y-109124800D01*
X85350400Y-109212800D01*
X85392221Y-109268771D01*
X85400000Y-109312000D01*
X85400000Y-110298638D01*
X85380315Y-110365677D01*
X85363681Y-110386319D01*
X85236319Y-110513681D01*
X85174996Y-110547166D01*
X85148638Y-110550000D01*
X84951362Y-110550000D01*
X84884323Y-110530315D01*
X84863681Y-110513681D01*
X84736319Y-110386319D01*
X84702834Y-110324996D01*
X84700000Y-110298638D01*
X84700000Y-110000000D01*
X84250000Y-109600000D01*
X82401362Y-109600000D01*
X82334323Y-109580315D01*
X82313681Y-109563681D01*
X82186319Y-109436319D01*
X82152834Y-109374996D01*
X82150000Y-109348638D01*
X82150000Y-109151362D01*
X82169685Y-109084323D01*
X82186319Y-109063681D01*
X82313681Y-108936319D01*
X82375004Y-108902834D01*
X82401362Y-108900000D01*
X83698638Y-108900000D01*
X83765677Y-108919685D01*
G37*
G04 #@! TD.AperFunction*
G04 #@! TA.AperFunction,Conductor*
G36*
X100015677Y-81019685D02*
G01*
X100036319Y-81036319D01*
X100213681Y-81213681D01*
X100247166Y-81275004D01*
X100250000Y-81301362D01*
X100250000Y-90698638D01*
X100230315Y-90765677D01*
X100213681Y-90786319D01*
X99786319Y-91213681D01*
X99724996Y-91247166D01*
X99698638Y-91250000D01*
X98750000Y-91250000D01*
X97250000Y-92750000D01*
X97250000Y-96448638D01*
X97230315Y-96515677D01*
X97213681Y-96536319D01*
X97036319Y-96713681D01*
X96974996Y-96747166D01*
X96948638Y-96750000D01*
X92533766Y-96750000D01*
X92470896Y-96732880D01*
X88311130Y-94285959D01*
X88263326Y-94235002D01*
X88250000Y-94179079D01*
X88250000Y-88551362D01*
X88269685Y-88484323D01*
X88286319Y-88463681D01*
X92250000Y-84500000D01*
X92250000Y-81301362D01*
X92269685Y-81234323D01*
X92286319Y-81213681D01*
X92463681Y-81036319D01*
X92525004Y-81002834D01*
X92551362Y-81000000D01*
X99948638Y-81000000D01*
X100015677Y-81019685D01*
G37*
G04 #@! TD.AperFunction*
G04 #@! TA.AperFunction,Conductor*
G36*
X84131239Y-105520826D02*
G01*
X84344783Y-105663189D01*
X84389644Y-105716754D01*
X84400000Y-105766363D01*
X84400000Y-106048638D01*
X84380315Y-106115677D01*
X84363681Y-106136319D01*
X83900000Y-106600000D01*
X83900000Y-106948638D01*
X83880315Y-107015677D01*
X83863681Y-107036319D01*
X83836319Y-107063681D01*
X83774996Y-107097166D01*
X83748638Y-107100000D01*
X82388466Y-107100000D01*
X82321427Y-107080315D01*
X82300785Y-107063681D01*
X82236319Y-106999215D01*
X82202834Y-106937892D01*
X82200000Y-106911534D01*
X82200000Y-106651362D01*
X82219685Y-106584323D01*
X82236319Y-106563681D01*
X82600000Y-106200000D01*
X82600000Y-105851362D01*
X82619685Y-105784323D01*
X82636319Y-105763681D01*
X82858181Y-105541819D01*
X82919504Y-105508334D01*
X82945862Y-105505500D01*
X83120155Y-105505500D01*
X83123602Y-105505113D01*
X83123608Y-105505113D01*
X83162297Y-105500773D01*
X83176119Y-105500000D01*
X84062456Y-105500000D01*
X84131239Y-105520826D01*
G37*
G04 #@! TD.AperFunction*
M02*
