G04 #@! TF.GenerationSoftware,KiCad,Pcbnew,(6.0.10)*
G04 #@! TF.CreationDate,2023-01-06T16:52:41+01:00*
G04 #@! TF.ProjectId,perfectV2.1v0,70657266-6563-4745-9632-2e3176302e6b,5*
G04 #@! TF.SameCoordinates,Original*
G04 #@! TF.FileFunction,Soldermask,Bot*
G04 #@! TF.FilePolarity,Negative*
%FSLAX46Y46*%
G04 Gerber Fmt 4.6, Leading zero omitted, Abs format (unit mm)*
G04 Created by KiCad (PCBNEW (6.0.10)) date 2023-01-06 16:52:41*
%MOMM*%
%LPD*%
G01*
G04 APERTURE LIST*
G04 Aperture macros list*
%AMRoundRect*
0 Rectangle with rounded corners*
0 $1 Rounding radius*
0 $2 $3 $4 $5 $6 $7 $8 $9 X,Y pos of 4 corners*
0 Add a 4 corners polygon primitive as box body*
4,1,4,$2,$3,$4,$5,$6,$7,$8,$9,$2,$3,0*
0 Add four circle primitives for the rounded corners*
1,1,$1+$1,$2,$3*
1,1,$1+$1,$4,$5*
1,1,$1+$1,$6,$7*
1,1,$1+$1,$8,$9*
0 Add four rect primitives between the rounded corners*
20,1,$1+$1,$2,$3,$4,$5,0*
20,1,$1+$1,$4,$5,$6,$7,0*
20,1,$1+$1,$6,$7,$8,$9,0*
20,1,$1+$1,$8,$9,$2,$3,0*%
G04 Aperture macros list end*
%ADD10O,1.702000X1.702000*%
%ADD11RoundRect,0.051000X-0.800000X0.800000X-0.800000X-0.800000X0.800000X-0.800000X0.800000X0.800000X0*%
%ADD12C,1.802000*%
%ADD13RoundRect,0.301000X-0.600000X-0.600000X0.600000X-0.600000X0.600000X0.600000X-0.600000X0.600000X0*%
%ADD14RoundRect,0.051000X0.850000X-0.850000X0.850000X0.850000X-0.850000X0.850000X-0.850000X-0.850000X0*%
%ADD15O,1.802000X1.802000*%
%ADD16RoundRect,0.051000X0.800000X-0.800000X0.800000X0.800000X-0.800000X0.800000X-0.800000X-0.800000X0*%
%ADD17C,1.702000*%
%ADD18RoundRect,0.051000X-1.300000X1.300000X-1.300000X-1.300000X1.300000X-1.300000X1.300000X1.300000X0*%
%ADD19C,2.702000*%
%ADD20RoundRect,0.051000X0.850000X0.850000X-0.850000X0.850000X-0.850000X-0.850000X0.850000X-0.850000X0*%
%ADD21RoundRect,0.051000X-0.800000X-0.800000X0.800000X-0.800000X0.800000X0.800000X-0.800000X0.800000X0*%
%ADD22C,8.702000*%
%ADD23C,0.103000*%
%ADD24RoundRect,0.051000X-0.850000X-0.850000X0.850000X-0.850000X0.850000X0.850000X-0.850000X0.850000X0*%
G04 APERTURE END LIST*
D10*
X92140000Y-143860000D03*
X89600000Y-143860000D03*
X87060000Y-143860000D03*
X84520000Y-143860000D03*
X81980000Y-143860000D03*
X79440000Y-143860000D03*
X76900000Y-143860000D03*
X74360000Y-143860000D03*
X74360000Y-131160000D03*
X76900000Y-131160000D03*
X79440000Y-131160000D03*
X81980000Y-131160000D03*
X84520000Y-131160000D03*
X87060000Y-131160000D03*
X89600000Y-131160000D03*
D11*
X92140000Y-131160000D03*
D12*
X67787500Y-158380000D03*
X65247500Y-158380000D03*
X67787500Y-155840000D03*
X65247500Y-155840000D03*
X67787500Y-153300000D03*
X65247500Y-153300000D03*
X67787500Y-150760000D03*
X65247500Y-150760000D03*
X67787500Y-148220000D03*
X65247500Y-148220000D03*
X67787500Y-145680000D03*
X65247500Y-145680000D03*
X67787500Y-143140000D03*
X65247500Y-143140000D03*
X67787500Y-140600000D03*
X65247500Y-140600000D03*
X67787500Y-138060000D03*
X65247500Y-138060000D03*
X67787500Y-135520000D03*
X65247500Y-135520000D03*
X67787500Y-132980000D03*
X65247500Y-132980000D03*
X67787500Y-130440000D03*
X65247500Y-130440000D03*
X67787500Y-127900000D03*
X65247500Y-127900000D03*
X67787500Y-125360000D03*
X65247500Y-125360000D03*
X67787500Y-122820000D03*
X65247500Y-122820000D03*
X67787500Y-120280000D03*
X65247500Y-120280000D03*
X67787500Y-117740000D03*
X65247500Y-117740000D03*
X67787500Y-115200000D03*
X65247500Y-115200000D03*
X67787500Y-112660000D03*
X65247500Y-112660000D03*
X67787500Y-110120000D03*
D13*
X65247500Y-110120000D03*
D14*
X81475000Y-149850000D03*
D15*
X84015000Y-149850000D03*
X86555000Y-149850000D03*
D16*
X132120000Y-146975000D03*
D17*
X132120000Y-144435000D03*
X132120000Y-141895000D03*
X132120000Y-139355000D03*
X132120000Y-136815000D03*
X132120000Y-134275000D03*
X132120000Y-131735000D03*
X132120000Y-129195000D03*
X132120000Y-126655000D03*
X132120000Y-124115000D03*
X132120000Y-121575000D03*
X132120000Y-119035000D03*
X132120000Y-116495000D03*
X132120000Y-113955000D03*
X132120000Y-111415000D03*
X132120000Y-108875000D03*
X132120000Y-106335000D03*
X132120000Y-103795000D03*
X132120000Y-101255000D03*
X132120000Y-98715000D03*
X132120000Y-96175000D03*
X132120000Y-93635000D03*
X132120000Y-91095000D03*
X132120000Y-88555000D03*
X116880000Y-88555000D03*
X116880000Y-91095000D03*
X116880000Y-93635000D03*
X116880000Y-96175000D03*
X116880000Y-98715000D03*
X116880000Y-101255000D03*
X116880000Y-103795000D03*
X116880000Y-106335000D03*
X116880000Y-108875000D03*
X116880000Y-111415000D03*
X116880000Y-113955000D03*
X116880000Y-116495000D03*
X116880000Y-119035000D03*
X116880000Y-121575000D03*
X116880000Y-124115000D03*
X116880000Y-126655000D03*
X116880000Y-129195000D03*
X116880000Y-131735000D03*
X116880000Y-134275000D03*
X116880000Y-136815000D03*
X116880000Y-139355000D03*
X116880000Y-141895000D03*
X116880000Y-144435000D03*
X116880000Y-146975000D03*
X129580000Y-101255000D03*
X127040000Y-101255000D03*
X124500000Y-101255000D03*
X121960000Y-101255000D03*
X119420000Y-101255000D03*
D14*
X73920000Y-153600000D03*
D15*
X76460000Y-153600000D03*
D18*
X52645000Y-90250000D03*
D19*
X52645000Y-95330000D03*
D20*
X143900000Y-149550000D03*
D15*
X143900000Y-147010000D03*
X143900000Y-144470000D03*
X143900000Y-141930000D03*
X143900000Y-139390000D03*
X143900000Y-136850000D03*
D14*
X73915000Y-157350000D03*
D15*
X76455000Y-157350000D03*
D21*
X91750000Y-149950000D03*
D10*
X91750000Y-152490000D03*
X91750000Y-155030000D03*
X91750000Y-157570000D03*
X99370000Y-157570000D03*
X99370000Y-155030000D03*
X99370000Y-152490000D03*
X99370000Y-149950000D03*
D20*
X56000000Y-135500000D03*
D15*
X56000000Y-132960000D03*
X56000000Y-130420000D03*
D22*
X53000000Y-171250000D03*
D21*
X91650000Y-161700000D03*
D10*
X91650000Y-164240000D03*
X91650000Y-166780000D03*
X91650000Y-169320000D03*
X99270000Y-169320000D03*
X99270000Y-166780000D03*
X99270000Y-164240000D03*
X99270000Y-161700000D03*
D14*
X81365000Y-153600000D03*
D15*
X83905000Y-153600000D03*
X86445000Y-153600000D03*
D22*
X142000000Y-82250000D03*
D23*
X127500000Y-82400000D03*
X124500000Y-82400000D03*
D24*
X144000000Y-95925000D03*
D15*
X144000000Y-98465000D03*
X144000000Y-101005000D03*
X144000000Y-103545000D03*
X144000000Y-106085000D03*
D14*
X73950000Y-149850000D03*
D15*
X76490000Y-149850000D03*
D24*
X144000000Y-110960000D03*
D15*
X144000000Y-113500000D03*
X144000000Y-116040000D03*
X144000000Y-118580000D03*
D22*
X53000000Y-82250000D03*
D24*
X52025000Y-130525000D03*
D15*
X52025000Y-133065000D03*
X52025000Y-135605000D03*
D14*
X81400000Y-157350000D03*
D15*
X83940000Y-157350000D03*
X86480000Y-157350000D03*
D22*
X142000000Y-171250000D03*
D20*
X94488750Y-123780000D03*
D15*
X94488750Y-121240000D03*
X94488750Y-118700000D03*
D24*
X143900000Y-122925000D03*
D15*
X143900000Y-125465000D03*
X143900000Y-128005000D03*
X143900000Y-130545000D03*
X143900000Y-133085000D03*
M02*
